solid ascii
  facet normal 2.442310e-004 1.000000e+000 5.482178e-018
    outer loop
      vertex   -6.974089e+000 2.112830e+002 4.860344e+001
      vertex   -6.974089e+000 2.112830e+002 5.410344e+001
      vertex   1.325911e+000 2.112809e+002 4.860344e+001
    endloop
  endfacet
  facet normal 2.442310e-004 1.000000e+000 -5.162142e-015
    outer loop
      vertex   1.325911e+000 2.112809e+002 4.860344e+001
      vertex   -6.974089e+000 2.112830e+002 5.410344e+001
      vertex   1.325911e+000 2.112809e+002 5.410344e+001
    endloop
  endfacet
  facet normal 2.442310e-004 1.000000e+000 5.244071e-018
    outer loop
      vertex   9.625910e+000 2.112789e+002 4.860344e+001
      vertex   1.325911e+000 2.112809e+002 5.410344e+001
      vertex   9.625910e+000 2.112789e+002 5.410344e+001
    endloop
  endfacet
  facet normal 2.442310e-004 1.000000e+000 -5.162160e-015
    outer loop
      vertex   9.625910e+000 2.112789e+002 4.860344e+001
      vertex   1.325911e+000 2.112809e+002 4.860344e+001
      vertex   1.325911e+000 2.112809e+002 5.410344e+001
    endloop
  endfacet
  facet normal 2.442310e-004 1.000000e+000 -5.161588e-015
    outer loop
      vertex   4.282591e+001 2.112708e+002 5.410344e+001
      vertex   4.282591e+001 2.112708e+002 4.860344e+001
      vertex   3.452591e+001 2.112728e+002 5.410344e+001
    endloop
  endfacet
  facet normal 2.442310e-004 1.000000e+000 -1.032915e-014
    outer loop
      vertex   3.452591e+001 2.112728e+002 5.410344e+001
      vertex   4.282591e+001 2.112708e+002 4.860344e+001
      vertex   3.452591e+001 2.112728e+002 4.860344e+001
    endloop
  endfacet
  facet normal 2.442310e-004 1.000000e+000 -5.162218e-015
    outer loop
      vertex   2.622591e+001 2.112749e+002 5.410344e+001
      vertex   3.452591e+001 2.112728e+002 4.860344e+001
      vertex   2.622591e+001 2.112749e+002 4.860344e+001
    endloop
  endfacet
  facet normal 2.442310e-004 1.000000e+000 -1.032917e-014
    outer loop
      vertex   2.622591e+001 2.112749e+002 5.410344e+001
      vertex   3.452591e+001 2.112728e+002 5.410344e+001
      vertex   3.452591e+001 2.112728e+002 4.860344e+001
    endloop
  endfacet
  facet normal -2.312154e-014 5.646997e-018 1.000000e+000
    outer loop
      vertex   5.182990e+001 1.907701e+002 5.410344e+001
      vertex   4.783457e+001 1.894121e+002 5.410344e+001
      vertex   5.182746e+001 1.807686e+002 5.410344e+001
    endloop
  endfacet
  facet normal -2.312154e-014 5.651545e-018 1.000000e+000
    outer loop
      vertex   5.182990e+001 1.907701e+002 5.410344e+001
      vertex   4.783490e+001 1.907711e+002 5.410344e+001
      vertex   4.783457e+001 1.894121e+002 5.410344e+001
    endloop
  endfacet
  facet normal -1.967315e-014 1.598643e-015 1.000000e+000
    outer loop
      vertex   4.783457e+001 1.894121e+002 5.410344e+001
      vertex   4.566757e+001 1.894126e+002 5.410344e+001
      vertex   5.182746e+001 1.807686e+002 5.410344e+001
    endloop
  endfacet
  facet normal -2.263088e-014 -5.090915e-016 1.000000e+000
    outer loop
      vertex   5.182746e+001 1.807686e+002 5.410344e+001
      vertex   4.566757e+001 1.894126e+002 5.410344e+001
      vertex   4.052446e+001 1.807714e+002 5.410344e+001
    endloop
  endfacet
  facet normal -2.296422e-014 -3.106943e-016 1.000000e+000
    outer loop
      vertex   4.052446e+001 1.807714e+002 5.410344e+001
      vertex   4.566757e+001 1.894126e+002 5.410344e+001
      vertex   3.946090e+001 1.907731e+002 5.410344e+001
    endloop
  endfacet
  facet normal -2.221097e-014 5.424608e-018 1.000000e+000
    outer loop
      vertex   2.922146e+001 1.807741e+002 5.410344e+001
      vertex   3.946090e+001 1.907731e+002 5.410344e+001
      vertex   2.922394e+001 1.909408e+002 5.410344e+001
    endloop
  endfacet
  facet normal -2.263021e-014 2.233502e-015 1.000000e+000
    outer loop
      vertex   1.792094e+001 1.909435e+002 5.410344e+001
      vertex   2.922394e+001 1.909408e+002 5.410344e+001
      vertex   1.942005e+001 1.934075e+002 5.410344e+001
    endloop
  endfacet
  facet normal -1.896677e-014 4.632275e-018 1.000000e+000
    outer loop
      vertex   1.642305e+001 1.934082e+002 5.410344e+001
      vertex   1.792094e+001 1.909435e+002 5.410344e+001
      vertex   1.942005e+001 1.934075e+002 5.410344e+001
    endloop
  endfacet
  facet normal -2.263130e-014 -2.222447e-015 1.000000e+000
    outer loop
      vertex   1.642305e+001 1.934082e+002 5.410344e+001
      vertex   6.617944e+000 1.909463e+002 5.410344e+001
      vertex   1.792094e+001 1.909435e+002 5.410344e+001
    endloop
  endfacet
  facet normal -2.334454e-014 6.181915e-016 1.000000e+000
    outer loop
      vertex   1.642305e+001 1.934082e+002 5.410344e+001
      vertex   1.506556e+001 1.996156e+002 5.410344e+001
      vertex   6.617944e+000 1.909463e+002 5.410344e+001
    endloop
  endfacet
  facet normal -2.614212e-014 6.389859e-018 1.000000e+000
    outer loop
      vertex   1.642305e+001 1.934082e+002 5.410344e+001
      vertex   1.642456e+001 1.996152e+002 5.410344e+001
      vertex   1.506556e+001 1.996156e+002 5.410344e+001
    endloop
  endfacet
  facet normal -2.289488e-014 5.596145e-018 1.000000e+000
    outer loop
      vertex   4.566757e+001 1.894126e+002 5.410344e+001
      vertex   4.566790e+001 1.907716e+002 5.410344e+001
      vertex   3.946090e+001 1.907731e+002 5.410344e+001
    endloop
  endfacet
  facet normal -2.221097e-014 5.428977e-018 1.000000e+000
    outer loop
      vertex   3.946090e+001 1.907731e+002 5.410344e+001
      vertex   3.946164e+001 1.937701e+002 5.410344e+001
      vertex   2.922394e+001 1.909408e+002 5.410344e+001
    endloop
  endfacet
  facet normal -2.221097e-014 5.424607e-018 1.000000e+000
    outer loop
      vertex   2.922394e+001 1.909408e+002 5.410344e+001
      vertex   3.946164e+001 1.937701e+002 5.410344e+001
      vertex   2.922643e+001 2.011075e+002 5.410344e+001
    endloop
  endfacet
  facet normal -2.187451e-014 5.346736e-018 1.000000e+000
    outer loop
      vertex   2.078056e+001 1.996142e+002 5.410344e+001
      vertex   2.922643e+001 2.011075e+002 5.410344e+001
      vertex   2.078109e+001 2.017812e+002 5.410344e+001
    endloop
  endfacet
  facet normal -2.187451e-014 5.342433e-018 1.000000e+000
    outer loop
      vertex   2.078056e+001 1.996142e+002 5.410344e+001
      vertex   2.922394e+001 1.909408e+002 5.410344e+001
      vertex   2.922643e+001 2.011075e+002 5.410344e+001
    endloop
  endfacet
  facet normal -2.361783e-014 -1.691746e-015 1.000000e+000
    outer loop
      vertex   2.078056e+001 1.996142e+002 5.410344e+001
      vertex   1.942005e+001 1.934075e+002 5.410344e+001
      vertex   2.922394e+001 1.909408e+002 5.410344e+001
    endloop
  endfacet
  facet normal -3.137054e-014 7.667830e-018 1.000000e+000
    outer loop
      vertex   2.078056e+001 1.996142e+002 5.410344e+001
      vertex   1.942156e+001 1.996145e+002 5.410344e+001
      vertex   1.942005e+001 1.934075e+002 5.410344e+001
    endloop
  endfacet
  facet normal -2.289488e-014 5.596145e-018 1.000000e+000
    outer loop
      vertex   4.566863e+001 1.937686e+002 5.410344e+001
      vertex   4.566897e+001 1.951276e+002 5.410344e+001
      vertex   3.946164e+001 1.937701e+002 5.410344e+001
    endloop
  endfacet
  facet normal -2.299003e-014 4.406907e-016 1.000000e+000
    outer loop
      vertex   3.946164e+001 1.937701e+002 5.410344e+001
      vertex   4.566897e+001 1.951276e+002 5.410344e+001
      vertex   4.052943e+001 2.011047e+002 5.410344e+001
    endloop
  endfacet
  facet normal -2.200222e-014 -4.123678e-016 1.000000e+000
    outer loop
      vertex   2.922643e+001 2.011075e+002 5.410344e+001
      vertex   4.052943e+001 2.011047e+002 5.410344e+001
      vertex   3.452591e+001 2.112728e+002 5.410344e+001
    endloop
  endfacet
  facet normal -2.311404e-014 5.645166e-018 1.000000e+000
    outer loop
      vertex   2.622457e+001 2.057749e+002 5.410344e+001
      vertex   3.452591e+001 2.112728e+002 5.410344e+001
      vertex   2.622591e+001 2.112749e+002 5.410344e+001
    endloop
  endfacet
  facet normal -2.327752e-014 2.524789e-016 1.000000e+000
    outer loop
      vertex   2.622457e+001 2.057749e+002 5.410344e+001
      vertex   2.922643e+001 2.011075e+002 5.410344e+001
      vertex   3.452591e+001 2.112728e+002 5.410344e+001
    endloop
  endfacet
  facet normal -2.177785e-014 1.217000e-015 1.000000e+000
    outer loop
      vertex   2.622457e+001 2.057749e+002 5.410344e+001
      vertex   2.078109e+001 2.017812e+002 5.410344e+001
      vertex   2.922643e+001 2.011075e+002 5.410344e+001
    endloop
  endfacet
  facet normal -2.298239e-014 2.858823e-015 1.000000e+000
    outer loop
      vertex   2.622457e+001 2.057749e+002 5.410344e+001
      vertex   1.942307e+001 2.057765e+002 5.410344e+001
      vertex   2.078109e+001 2.017812e+002 5.410344e+001
    endloop
  endfacet
  facet normal -3.137057e-014 7.661666e-018 1.000000e+000
    outer loop
      vertex   2.078109e+001 2.017812e+002 5.410344e+001
      vertex   1.942307e+001 2.057765e+002 5.410344e+001
      vertex   1.942209e+001 2.017815e+002 5.410344e+001
    endloop
  endfacet
  facet normal -2.253278e-014 8.338749e-016 1.000000e+000
    outer loop
      vertex   4.052943e+001 2.011047e+002 5.410344e+001
      vertex   4.566897e+001 1.951276e+002 5.410344e+001
      vertex   5.183210e+001 1.997678e+002 5.410344e+001
    endloop
  endfacet
  facet normal -2.287239e-014 5.586148e-018 1.000000e+000
    outer loop
      vertex   4.282457e+001 2.057708e+002 5.410344e+001
      vertex   5.183210e+001 1.997678e+002 5.410344e+001
      vertex   5.183357e+001 2.057686e+002 5.410344e+001
    endloop
  endfacet
  facet normal -2.257860e-014 4.464228e-016 1.000000e+000
    outer loop
      vertex   4.282457e+001 2.057708e+002 5.410344e+001
      vertex   4.052943e+001 2.011047e+002 5.410344e+001
      vertex   5.183210e+001 1.997678e+002 5.410344e+001
    endloop
  endfacet
  facet normal -2.147068e-014 -9.853489e-017 1.000000e+000
    outer loop
      vertex   4.282457e+001 2.057708e+002 5.410344e+001
      vertex   3.452591e+001 2.112728e+002 5.410344e+001
      vertex   4.052943e+001 2.011047e+002 5.410344e+001
    endloop
  endfacet
  facet normal -2.140189e-014 5.227006e-018 1.000000e+000
    outer loop
      vertex   4.282457e+001 2.057708e+002 5.410344e+001
      vertex   4.282591e+001 2.112708e+002 5.410344e+001
      vertex   3.452591e+001 2.112728e+002 5.410344e+001
    endloop
  endfacet
  facet normal -2.312154e-014 5.651546e-018 1.000000e+000
    outer loop
      vertex   4.783563e+001 1.937681e+002 5.410344e+001
      vertex   5.183063e+001 1.937671e+002 5.410344e+001
      vertex   4.783597e+001 1.951271e+002 5.410344e+001
    endloop
  endfacet
  facet normal -2.312154e-014 5.646998e-018 1.000000e+000
    outer loop
      vertex   4.783597e+001 1.951271e+002 5.410344e+001
      vertex   5.183063e+001 1.937671e+002 5.410344e+001
      vertex   5.183210e+001 1.997678e+002 5.410344e+001
    endloop
  endfacet
  facet normal -1.967427e-014 -2.962775e-015 1.000000e+000
    outer loop
      vertex   4.566897e+001 1.951276e+002 5.410344e+001
      vertex   4.783597e+001 1.951271e+002 5.410344e+001
      vertex   5.183210e+001 1.997678e+002 5.410344e+001
    endloop
  endfacet
  facet normal -2.271583e-014 5.547910e-018 1.000000e+000
    outer loop
      vertex   6.617944e+000 1.909463e+002 5.410344e+001
      vertex   1.506556e+001 1.996156e+002 5.410344e+001
      vertex   6.620427e+000 2.011130e+002 5.410344e+001
    endloop
  endfacet
  facet normal -2.200219e-014 -2.861091e-016 1.000000e+000
    outer loop
      vertex   -3.618364e+000 1.937806e+002 5.410344e+001
      vertex   6.620427e+000 2.011130e+002 5.410344e+001
      vertex   -4.682572e+000 2.011157e+002 5.410344e+001
    endloop
  endfacet
  facet normal -2.268906e-014 5.005736e-016 1.000000e+000
    outer loop
      vertex   -9.825031e+000 1.951412e+002 5.410344e+001
      vertex   -4.682572e+000 2.011157e+002 5.410344e+001
      vertex   -1.598590e+001 1.997844e+002 5.410344e+001
    endloop
  endfacet
  facet normal -2.312154e-014 5.646997e-018 1.000000e+000
    outer loop
      vertex   -1.199203e+001 1.951417e+002 5.410344e+001
      vertex   -1.598590e+001 1.997844e+002 5.410344e+001
      vertex   -1.598736e+001 1.937837e+002 5.410344e+001
    endloop
  endfacet
  facet normal -2.312154e-014 5.651546e-018 1.000000e+000
    outer loop
      vertex   -1.199236e+001 1.937827e+002 5.410344e+001
      vertex   -1.199203e+001 1.951417e+002 5.410344e+001
      vertex   -1.598736e+001 1.937837e+002 5.410344e+001
    endloop
  endfacet
  facet normal -2.614206e-014 6.384702e-018 1.000000e+000
    outer loop
      vertex   1.642510e+001 2.017822e+002 5.410344e+001
      vertex   1.642607e+001 2.057772e+002 5.410344e+001
      vertex   1.506609e+001 2.017826e+002 5.410344e+001
    endloop
  endfacet
  facet normal -2.298332e-014 -1.069002e-015 1.000000e+000
    outer loop
      vertex   1.506609e+001 2.017826e+002 5.410344e+001
      vertex   1.642607e+001 2.057772e+002 5.410344e+001
      vertex   9.624567e+000 2.057789e+002 5.410344e+001
    endloop
  endfacet
  facet normal -2.327764e-014 -2.411087e-016 1.000000e+000
    outer loop
      vertex   6.620427e+000 2.011130e+002 5.410344e+001
      vertex   9.624567e+000 2.057789e+002 5.410344e+001
      vertex   1.325911e+000 2.112809e+002 5.410344e+001
    endloop
  endfacet
  facet normal -2.147063e-014 1.090225e-016 1.000000e+000
    outer loop
      vertex   -4.682572e+000 2.011157e+002 5.410344e+001
      vertex   1.325911e+000 2.112809e+002 5.410344e+001
      vertex   -6.975432e+000 2.057830e+002 5.410344e+001
    endloop
  endfacet
  facet normal -2.287239e-014 5.586148e-018 1.000000e+000
    outer loop
      vertex   -1.598590e+001 1.997844e+002 5.410344e+001
      vertex   -6.975432e+000 2.057830e+002 5.410344e+001
      vertex   -1.598443e+001 2.057852e+002 5.410344e+001
    endloop
  endfacet
  facet normal -2.257882e-014 -4.353940e-016 1.000000e+000
    outer loop
      vertex   -1.598590e+001 1.997844e+002 5.410344e+001
      vertex   -4.682572e+000 2.011157e+002 5.410344e+001
      vertex   -6.975432e+000 2.057830e+002 5.410344e+001
    endloop
  endfacet
  facet normal -2.311404e-014 5.645166e-018 1.000000e+000
    outer loop
      vertex   9.624567e+000 2.057789e+002 5.410344e+001
      vertex   9.625910e+000 2.112789e+002 5.410344e+001
      vertex   1.325911e+000 2.112809e+002 5.410344e+001
    endloop
  endfacet
  facet normal -2.140189e-014 5.227006e-018 1.000000e+000
    outer loop
      vertex   1.325911e+000 2.112809e+002 5.410344e+001
      vertex   -6.974089e+000 2.112830e+002 5.410344e+001
      vertex   -6.975432e+000 2.057830e+002 5.410344e+001
    endloop
  endfacet
  facet normal -2.295243e-014 1.511224e-016 1.000000e+000
    outer loop
      vertex   -9.825031e+000 1.951412e+002 5.410344e+001
      vertex   -1.598590e+001 1.997844e+002 5.410344e+001
      vertex   -1.199203e+001 1.951417e+002 5.410344e+001
    endloop
  endfacet
  facet normal -2.175014e-014 5.316338e-018 1.000000e+000
    outer loop
      vertex   -9.825363e+000 1.937822e+002 5.410344e+001
      vertex   -3.618364e+000 1.937806e+002 5.410344e+001
      vertex   -9.825031e+000 1.951412e+002 5.410344e+001
    endloop
  endfacet
  facet normal -2.180784e-014 -2.579119e-016 1.000000e+000
    outer loop
      vertex   -9.825031e+000 1.951412e+002 5.410344e+001
      vertex   -3.618364e+000 1.937806e+002 5.410344e+001
      vertex   -4.682572e+000 2.011157e+002 5.410344e+001
    endloop
  endfacet
  facet normal -2.221097e-014 5.424607e-018 1.000000e+000
    outer loop
      vertex   6.620427e+000 2.011130e+002 5.410344e+001
      vertex   -3.618364e+000 1.937806e+002 5.410344e+001
      vertex   6.617944e+000 1.909463e+002 5.410344e+001
    endloop
  endfacet
  facet normal -2.221097e-014 5.428976e-018 1.000000e+000
    outer loop
      vertex   6.617944e+000 1.909463e+002 5.410344e+001
      vertex   -3.618364e+000 1.937806e+002 5.410344e+001
      vertex   -3.619096e+000 1.907836e+002 5.410344e+001
    endloop
  endfacet
  facet normal -2.200207e-014 2.191380e-016 1.000000e+000
    outer loop
      vertex   6.615461e+000 1.807796e+002 5.410344e+001
      vertex   -3.619096e+000 1.907836e+002 5.410344e+001
      vertex   -4.687538e+000 1.807824e+002 5.410344e+001
    endloop
  endfacet
  facet normal -2.221097e-014 5.424607e-018 1.000000e+000
    outer loop
      vertex   6.615461e+000 1.807796e+002 5.410344e+001
      vertex   6.617944e+000 1.909463e+002 5.410344e+001
      vertex   -3.619096e+000 1.907836e+002 5.410344e+001
    endloop
  endfacet
  facet normal -2.263075e-014 5.527132e-018 1.000000e+000
    outer loop
      vertex   6.615461e+000 1.807796e+002 5.410344e+001
      vertex   1.791846e+001 1.807769e+002 5.410344e+001
      vertex   6.617944e+000 1.909463e+002 5.410344e+001
    endloop
  endfacet
  facet normal -2.263075e-014 5.527132e-018 1.000000e+000
    outer loop
      vertex   6.617944e+000 1.909463e+002 5.410344e+001
      vertex   1.791846e+001 1.807769e+002 5.410344e+001
      vertex   1.792094e+001 1.909435e+002 5.410344e+001
    endloop
  endfacet
  facet normal -2.263075e-014 5.527132e-018 1.000000e+000
    outer loop
      vertex   1.792094e+001 1.909435e+002 5.410344e+001
      vertex   1.791846e+001 1.807769e+002 5.410344e+001
      vertex   2.922146e+001 1.807741e+002 5.410344e+001
    endloop
  endfacet
  facet normal -2.263075e-014 5.527132e-018 1.000000e+000
    outer loop
      vertex   2.922394e+001 1.909408e+002 5.410344e+001
      vertex   1.792094e+001 1.909435e+002 5.410344e+001
      vertex   2.922146e+001 1.807741e+002 5.410344e+001
    endloop
  endfacet
  facet normal -2.175014e-014 5.316338e-018 1.000000e+000
    outer loop
      vertex   -9.826096e+000 1.907852e+002 5.410344e+001
      vertex   -9.826428e+000 1.894262e+002 5.410344e+001
      vertex   -3.619096e+000 1.907836e+002 5.410344e+001
    endloop
  endfacet
  facet normal -2.179199e-014 1.966955e-016 1.000000e+000
    outer loop
      vertex   -3.619096e+000 1.907836e+002 5.410344e+001
      vertex   -9.826428e+000 1.894262e+002 5.410344e+001
      vertex   -4.687538e+000 1.807824e+002 5.410344e+001
    endloop
  endfacet
  facet normal -2.263083e-014 -3.020083e-016 1.000000e+000
    outer loop
      vertex   -4.687538e+000 1.807824e+002 5.410344e+001
      vertex   -9.826428e+000 1.894262e+002 5.410344e+001
      vertex   -1.599054e+001 1.807852e+002 5.410344e+001
    endloop
  endfacet
  facet normal -2.295248e-014 -7.255197e-017 1.000000e+000
    outer loop
      vertex   -1.599054e+001 1.807852e+002 5.410344e+001
      vertex   -9.826428e+000 1.894262e+002 5.410344e+001
      vertex   -1.199343e+001 1.894267e+002 5.410344e+001
    endloop
  endfacet
  facet normal -2.312154e-014 5.651547e-018 1.000000e+000
    outer loop
      vertex   -1.598810e+001 1.907867e+002 5.410344e+001
      vertex   -1.199343e+001 1.894267e+002 5.410344e+001
      vertex   -1.199310e+001 1.907857e+002 5.410344e+001
    endloop
  endfacet
  facet normal -2.312155e-014 5.646999e-018 1.000000e+000
    outer loop
      vertex   -1.598810e+001 1.907867e+002 5.410344e+001
      vertex   -1.599054e+001 1.807852e+002 5.410344e+001
      vertex   -1.199343e+001 1.894267e+002 5.410344e+001
    endloop
  endfacet
  facet normal -2.200217e-014 -2.083934e-016 1.000000e+000
    outer loop
      vertex   2.922146e+001 1.807741e+002 5.410344e+001
      vertex   4.052446e+001 1.807714e+002 5.410344e+001
      vertex   3.946090e+001 1.907731e+002 5.410344e+001
    endloop
  endfacet
  facet normal -2.200205e-014 2.968563e-016 1.000000e+000
    outer loop
      vertex   4.052943e+001 2.011047e+002 5.410344e+001
      vertex   2.922643e+001 2.011075e+002 5.410344e+001
      vertex   3.946164e+001 1.937701e+002 5.410344e+001
    endloop
  endfacet
  facet normal -2.200202e-014 4.231150e-016 1.000000e+000
    outer loop
      vertex   1.325911e+000 2.112809e+002 5.410344e+001
      vertex   -4.682572e+000 2.011157e+002 5.410344e+001
      vertex   6.620427e+000 2.011130e+002 5.410344e+001
    endloop
  endfacet
  facet normal -2.266500e-014 -6.355562e-016 1.000000e+000
    outer loop
      vertex   1.506609e+001 2.017826e+002 5.410344e+001
      vertex   9.624567e+000 2.057789e+002 5.410344e+001
      vertex   6.620427e+000 2.011130e+002 5.410344e+001
    endloop
  endfacet
  facet normal -2.271582e-014 5.552378e-018 1.000000e+000
    outer loop
      vertex   1.506556e+001 1.996156e+002 5.410344e+001
      vertex   1.506609e+001 2.017826e+002 5.410344e+001
      vertex   6.620427e+000 2.011130e+002 5.410344e+001
    endloop
  endfacet
  facet normal 1.956438e-014 -4.782077e-018 -1.000000e+000
    outer loop
      vertex   4.783490e+001 1.907711e+002 4.860344e+001
      vertex   5.182990e+001 1.907701e+002 4.860344e+001
      vertex   4.783457e+001 1.894121e+002 4.860344e+001
    endloop
  endfacet
  facet normal 1.956438e-014 -4.778228e-018 -1.000000e+000
    outer loop
      vertex   4.783457e+001 1.894121e+002 4.860344e+001
      vertex   5.182990e+001 1.907701e+002 4.860344e+001
      vertex   5.182746e+001 1.807686e+002 4.860344e+001
    endloop
  endfacet
  facet normal 2.137319e-014 -1.209166e-015 -1.000000e+000
    outer loop
      vertex   4.566757e+001 1.894126e+002 4.860344e+001
      vertex   5.182746e+001 1.807686e+002 4.860344e+001
      vertex   4.052446e+001 1.807714e+002 4.860344e+001
    endloop
  endfacet
  facet normal 2.200182e-014 -1.212479e-015 -1.000000e+000
    outer loop
      vertex   3.946090e+001 1.907731e+002 4.860344e+001
      vertex   4.052446e+001 1.807714e+002 4.860344e+001
      vertex   2.922146e+001 1.807741e+002 4.860344e+001
    endloop
  endfacet
  facet normal 2.263075e-014 -5.527132e-018 -1.000000e+000
    outer loop
      vertex   2.922394e+001 1.909408e+002 4.860344e+001
      vertex   2.922146e+001 1.807741e+002 4.860344e+001
      vertex   1.791846e+001 1.807769e+002 4.860344e+001
    endloop
  endfacet
  facet normal 2.263075e-014 -5.527132e-018 -1.000000e+000
    outer loop
      vertex   1.792094e+001 1.909435e+002 4.860344e+001
      vertex   1.791846e+001 1.807769e+002 4.860344e+001
      vertex   6.615461e+000 1.807796e+002 4.860344e+001
    endloop
  endfacet
  facet normal 2.359915e-014 -5.763645e-018 -1.000000e+000
    outer loop
      vertex   6.617944e+000 1.909463e+002 4.860344e+001
      vertex   6.615461e+000 1.807796e+002 4.860344e+001
      vertex   -3.619096e+000 1.907836e+002 4.860344e+001
    endloop
  endfacet
  facet normal 2.359915e-014 -5.768287e-018 -1.000000e+000
    outer loop
      vertex   -3.618364e+000 1.937806e+002 4.860344e+001
      vertex   6.617944e+000 1.909463e+002 4.860344e+001
      vertex   -3.619096e+000 1.907836e+002 4.860344e+001
    endloop
  endfacet
  facet normal 2.359915e-014 -5.763645e-018 -1.000000e+000
    outer loop
      vertex   -3.618364e+000 1.937806e+002 4.860344e+001
      vertex   6.620427e+000 2.011130e+002 4.860344e+001
      vertex   6.617944e+000 1.909463e+002 4.860344e+001
    endloop
  endfacet
  facet normal 2.200266e-014 2.223557e-015 -1.000000e+000
    outer loop
      vertex   -3.618364e+000 1.937806e+002 4.860344e+001
      vertex   -4.682572e+000 2.011157e+002 4.860344e+001
      vertex   6.620427e+000 2.011130e+002 4.860344e+001
    endloop
  endfacet
  facet normal 2.342888e-014 2.430478e-015 -1.000000e+000
    outer loop
      vertex   -3.618364e+000 1.937806e+002 4.860344e+001
      vertex   -9.825031e+000 1.951412e+002 4.860344e+001
      vertex   -4.682572e+000 2.011157e+002 4.860344e+001
    endloop
  endfacet
  facet normal 2.289488e-014 -5.596145e-018 -1.000000e+000
    outer loop
      vertex   -3.618364e+000 1.937806e+002 4.860344e+001
      vertex   -9.825363e+000 1.937822e+002 4.860344e+001
      vertex   -9.825031e+000 1.951412e+002 4.860344e+001
    endloop
  endfacet
  facet normal 2.951143e-014 4.590309e-015 -1.000000e+000
    outer loop
      vertex   4.783457e+001 1.894121e+002 4.860344e+001
      vertex   5.182746e+001 1.807686e+002 4.860344e+001
      vertex   4.566757e+001 1.894126e+002 4.860344e+001
    endloop
  endfacet
  facet normal 2.147320e-014 -1.268691e-015 -1.000000e+000
    outer loop
      vertex   4.566757e+001 1.894126e+002 4.860344e+001
      vertex   4.052446e+001 1.807714e+002 4.860344e+001
      vertex   3.946090e+001 1.907731e+002 4.860344e+001
    endloop
  endfacet
  facet normal 2.175014e-014 -5.316338e-018 -1.000000e+000
    outer loop
      vertex   4.566790e+001 1.907716e+002 4.860344e+001
      vertex   4.566757e+001 1.894126e+002 4.860344e+001
      vertex   3.946090e+001 1.907731e+002 4.860344e+001
    endloop
  endfacet
  facet normal 2.082278e-014 -5.085570e-018 -1.000000e+000
    outer loop
      vertex   3.946090e+001 1.907731e+002 4.860344e+001
      vertex   2.922146e+001 1.807741e+002 4.860344e+001
      vertex   2.922394e+001 1.909408e+002 4.860344e+001
    endloop
  endfacet
  facet normal 2.082278e-014 -5.085570e-018 -1.000000e+000
    outer loop
      vertex   3.946164e+001 1.937701e+002 4.860344e+001
      vertex   2.922394e+001 1.909408e+002 4.860344e+001
      vertex   2.922643e+001 2.011075e+002 4.860344e+001
    endloop
  endfacet
  facet normal 2.200171e-014 -1.684316e-015 -1.000000e+000
    outer loop
      vertex   4.052943e+001 2.011047e+002 4.860344e+001
      vertex   2.922643e+001 2.011075e+002 4.860344e+001
      vertex   3.452591e+001 2.112728e+002 4.860344e+001
    endloop
  endfacet
  facet normal 2.225796e-014 -5.436086e-018 -1.000000e+000
    outer loop
      vertex   4.282457e+001 2.057708e+002 4.860344e+001
      vertex   3.452591e+001 2.112728e+002 4.860344e+001
      vertex   4.282591e+001 2.112708e+002 4.860344e+001
    endloop
  endfacet
  facet normal 2.059369e-014 -2.515644e-015 -1.000000e+000
    outer loop
      vertex   4.282457e+001 2.057708e+002 4.860344e+001
      vertex   4.052943e+001 2.011047e+002 4.860344e+001
      vertex   3.452591e+001 2.112728e+002 4.860344e+001
    endloop
  endfacet
  facet normal 2.105001e-014 -2.740097e-015 -1.000000e+000
    outer loop
      vertex   4.282457e+001 2.057708e+002 4.860344e+001
      vertex   5.183210e+001 1.997678e+002 4.860344e+001
      vertex   4.052943e+001 2.011047e+002 4.860344e+001
    endloop
  endfacet
  facet normal 2.287239e-014 -5.586148e-018 -1.000000e+000
    outer loop
      vertex   4.282457e+001 2.057708e+002 4.860344e+001
      vertex   5.183357e+001 2.057686e+002 4.860344e+001
      vertex   5.183210e+001 1.997678e+002 4.860344e+001
    endloop
  endfacet
  facet normal 2.263075e-014 -5.527132e-018 -1.000000e+000
    outer loop
      vertex   2.922394e+001 1.909408e+002 4.860344e+001
      vertex   1.791846e+001 1.807769e+002 4.860344e+001
      vertex   1.792094e+001 1.909435e+002 4.860344e+001
    endloop
  endfacet
  facet normal 2.370776e-014 -2.889096e-015 -1.000000e+000
    outer loop
      vertex   1.942005e+001 1.934075e+002 4.860344e+001
      vertex   1.792094e+001 1.909435e+002 4.860344e+001
      vertex   1.642305e+001 1.934082e+002 4.860344e+001
    endloop
  endfacet
  facet normal 2.263021e-014 -2.233502e-015 -1.000000e+000
    outer loop
      vertex   1.942005e+001 1.934075e+002 4.860344e+001
      vertex   2.922394e+001 1.909408e+002 4.860344e+001
      vertex   1.792094e+001 1.909435e+002 4.860344e+001
    endloop
  endfacet
  facet normal 2.252589e-014 -2.648120e-015 -1.000000e+000
    outer loop
      vertex   1.942005e+001 1.934075e+002 4.860344e+001
      vertex   2.078056e+001 1.996142e+002 4.860344e+001
      vertex   2.922394e+001 1.909408e+002 4.860344e+001
    endloop
  endfacet
  facet normal 1.045685e-014 -2.555943e-018 -1.000000e+000
    outer loop
      vertex   1.942005e+001 1.934075e+002 4.860344e+001
      vertex   1.942156e+001 1.996145e+002 4.860344e+001
      vertex   2.078056e+001 1.996142e+002 4.860344e+001
    endloop
  endfacet
  facet normal 2.200172e-014 -1.640010e-015 -1.000000e+000
    outer loop
      vertex   6.615461e+000 1.807796e+002 4.860344e+001
      vertex   -4.687538e+000 1.807824e+002 4.860344e+001
      vertex   -3.619096e+000 1.907836e+002 4.860344e+001
    endloop
  endfacet
  facet normal 2.328223e-014 -1.776808e-015 -1.000000e+000
    outer loop
      vertex   -3.619096e+000 1.907836e+002 4.860344e+001
      vertex   -4.687538e+000 1.807824e+002 4.860344e+001
      vertex   -9.826428e+000 1.894262e+002 4.860344e+001
    endloop
  endfacet
  facet normal 2.289488e-014 -5.596145e-018 -1.000000e+000
    outer loop
      vertex   -9.826096e+000 1.907852e+002 4.860344e+001
      vertex   -3.619096e+000 1.907836e+002 4.860344e+001
      vertex   -9.826428e+000 1.894262e+002 4.860344e+001
    endloop
  endfacet
  facet normal 2.263022e-014 -2.164440e-015 -1.000000e+000
    outer loop
      vertex   -4.687538e+000 1.807824e+002 4.860344e+001
      vertex   -1.599054e+001 1.807852e+002 4.860344e+001
      vertex   -9.826428e+000 1.894262e+002 4.860344e+001
    endloop
  endfacet
  facet normal 1.967353e-014 -5.526249e-017 -1.000000e+000
    outer loop
      vertex   -9.826428e+000 1.894262e+002 4.860344e+001
      vertex   -1.599054e+001 1.807852e+002 4.860344e+001
      vertex   -1.199343e+001 1.894267e+002 4.860344e+001
    endloop
  endfacet
  facet normal 1.956438e-014 -4.778230e-018 -1.000000e+000
    outer loop
      vertex   -1.199343e+001 1.894267e+002 4.860344e+001
      vertex   -1.599054e+001 1.807852e+002 4.860344e+001
      vertex   -1.598810e+001 1.907867e+002 4.860344e+001
    endloop
  endfacet
  facet normal 1.956438e-014 -4.782078e-018 -1.000000e+000
    outer loop
      vertex   -1.199310e+001 1.907857e+002 4.860344e+001
      vertex   -1.199343e+001 1.894267e+002 4.860344e+001
      vertex   -1.598810e+001 1.907867e+002 4.860344e+001
    endloop
  endfacet
  facet normal 2.222143e-014 3.469759e-015 -1.000000e+000
    outer loop
      vertex   -4.682572e+000 2.011157e+002 4.860344e+001
      vertex   -9.825031e+000 1.951412e+002 4.860344e+001
      vertex   -1.598590e+001 1.997844e+002 4.860344e+001
    endloop
  endfacet
  facet normal 2.129499e-014 -5.200897e-018 -1.000000e+000
    outer loop
      vertex   -6.975432e+000 2.057830e+002 4.860344e+001
      vertex   -1.598590e+001 1.997844e+002 4.860344e+001
      vertex   -1.598443e+001 2.057852e+002 4.860344e+001
    endloop
  endfacet
  facet normal 2.291783e-014 -2.442880e-015 -1.000000e+000
    outer loop
      vertex   -6.975432e+000 2.057830e+002 4.860344e+001
      vertex   -4.682572e+000 2.011157e+002 4.860344e+001
      vertex   -1.598590e+001 1.997844e+002 4.860344e+001
    endloop
  endfacet
  facet normal 2.428378e-014 -1.771829e-015 -1.000000e+000
    outer loop
      vertex   -6.975432e+000 2.057830e+002 4.860344e+001
      vertex   1.325911e+000 2.112809e+002 4.860344e+001
      vertex   -4.682572e+000 2.011157e+002 4.860344e+001
    endloop
  endfacet
  facet normal 2.311404e-014 -5.645166e-018 -1.000000e+000
    outer loop
      vertex   -6.975432e+000 2.057830e+002 4.860344e+001
      vertex   -6.974089e+000 2.112830e+002 4.860344e+001
      vertex   1.325911e+000 2.112809e+002 4.860344e+001
    endloop
  endfacet
  facet normal 1.956438e-014 -4.782077e-018 -1.000000e+000
    outer loop
      vertex   -1.199236e+001 1.937827e+002 4.860344e+001
      vertex   -1.598736e+001 1.937837e+002 4.860344e+001
      vertex   -1.199203e+001 1.951417e+002 4.860344e+001
    endloop
  endfacet
  facet normal 1.956438e-014 -4.778229e-018 -1.000000e+000
    outer loop
      vertex   -1.199203e+001 1.951417e+002 4.860344e+001
      vertex   -1.598736e+001 1.937837e+002 4.860344e+001
      vertex   -1.598590e+001 1.997844e+002 4.860344e+001
    endloop
  endfacet
  facet normal 1.967356e-014 8.914721e-017 -1.000000e+000
    outer loop
      vertex   -9.825031e+000 1.951412e+002 4.860344e+001
      vertex   -1.199203e+001 1.951417e+002 4.860344e+001
      vertex   -1.598590e+001 1.997844e+002 4.860344e+001
    endloop
  endfacet
  facet normal 2.225796e-014 -5.436086e-018 -1.000000e+000
    outer loop
      vertex   9.625910e+000 2.112789e+002 4.860344e+001
      vertex   9.624567e+000 2.057789e+002 4.860344e+001
      vertex   1.325911e+000 2.112809e+002 4.860344e+001
    endloop
  endfacet
  facet normal 2.196998e-014 -4.397948e-016 -1.000000e+000
    outer loop
      vertex   1.325911e+000 2.112809e+002 4.860344e+001
      vertex   9.624567e+000 2.057789e+002 4.860344e+001
      vertex   6.620427e+000 2.011130e+002 4.860344e+001
    endloop
  endfacet
  facet normal 2.200202e-014 -4.231150e-016 -1.000000e+000
    outer loop
      vertex   -4.682572e+000 2.011157e+002 4.860344e+001
      vertex   1.325911e+000 2.112809e+002 4.860344e+001
      vertex   6.620427e+000 2.011130e+002 4.860344e+001
    endloop
  endfacet
  facet normal 2.101909e-014 1.724322e-016 -1.000000e+000
    outer loop
      vertex   6.620427e+000 2.011130e+002 4.860344e+001
      vertex   9.624567e+000 2.057789e+002 4.860344e+001
      vertex   1.506609e+001 2.017826e+002 4.860344e+001
    endloop
  endfacet
  facet normal 2.103317e-014 -5.141091e-018 -1.000000e+000
    outer loop
      vertex   1.506556e+001 1.996156e+002 4.860344e+001
      vertex   6.620427e+000 2.011130e+002 4.860344e+001
      vertex   1.506609e+001 2.017826e+002 4.860344e+001
    endloop
  endfacet
  facet normal 2.103317e-014 -5.136953e-018 -1.000000e+000
    outer loop
      vertex   1.506556e+001 1.996156e+002 4.860344e+001
      vertex   6.617944e+000 1.909463e+002 4.860344e+001
      vertex   6.620427e+000 2.011130e+002 4.860344e+001
    endloop
  endfacet
  facet normal 2.197065e-014 -9.186482e-016 -1.000000e+000
    outer loop
      vertex   1.506556e+001 1.996156e+002 4.860344e+001
      vertex   1.642305e+001 1.934082e+002 4.860344e+001
      vertex   6.617944e+000 1.909463e+002 4.860344e+001
    endloop
  endfacet
  facet normal 2.614212e-014 -6.389859e-018 -1.000000e+000
    outer loop
      vertex   1.506556e+001 1.996156e+002 4.860344e+001
      vertex   1.642456e+001 1.996152e+002 4.860344e+001
      vertex   1.642305e+001 1.934082e+002 4.860344e+001
    endloop
  endfacet
  facet normal 2.614206e-014 -6.384702e-018 -1.000000e+000
    outer loop
      vertex   1.642510e+001 2.017822e+002 4.860344e+001
      vertex   1.506609e+001 2.017826e+002 4.860344e+001
      vertex   1.642607e+001 2.057772e+002 4.860344e+001
    endloop
  endfacet
  facet normal 2.193873e-014 1.424634e-015 -1.000000e+000
    outer loop
      vertex   1.642607e+001 2.057772e+002 4.860344e+001
      vertex   1.506609e+001 2.017826e+002 4.860344e+001
      vertex   9.624567e+000 2.057789e+002 4.860344e+001
    endloop
  endfacet
  facet normal 2.262989e-014 -3.544164e-015 -1.000000e+000
    outer loop
      vertex   6.617944e+000 1.909463e+002 4.860344e+001
      vertex   1.642305e+001 1.934082e+002 4.860344e+001
      vertex   1.792094e+001 1.909435e+002 4.860344e+001
    endloop
  endfacet
  facet normal 2.263075e-014 -5.527132e-018 -1.000000e+000
    outer loop
      vertex   6.615461e+000 1.807796e+002 4.860344e+001
      vertex   6.617944e+000 1.909463e+002 4.860344e+001
      vertex   1.792094e+001 1.909435e+002 4.860344e+001
    endloop
  endfacet
  facet normal 2.523981e-014 -6.164346e-018 -1.000000e+000
    outer loop
      vertex   2.922394e+001 1.909408e+002 4.860344e+001
      vertex   2.078056e+001 1.996142e+002 4.860344e+001
      vertex   2.922643e+001 2.011075e+002 4.860344e+001
    endloop
  endfacet
  facet normal 2.523981e-014 -6.169311e-018 -1.000000e+000
    outer loop
      vertex   2.922643e+001 2.011075e+002 4.860344e+001
      vertex   2.078056e+001 1.996142e+002 4.860344e+001
      vertex   2.078109e+001 2.017812e+002 4.860344e+001
    endloop
  endfacet
  facet normal 2.089458e-014 3.545255e-015 -1.000000e+000
    outer loop
      vertex   2.622457e+001 2.057749e+002 4.860344e+001
      vertex   2.078109e+001 2.017812e+002 4.860344e+001
      vertex   1.942307e+001 2.057765e+002 4.860344e+001
    endloop
  endfacet
  facet normal 2.506920e-014 -2.144855e-015 -1.000000e+000
    outer loop
      vertex   2.622457e+001 2.057749e+002 4.860344e+001
      vertex   2.922643e+001 2.011075e+002 4.860344e+001
      vertex   2.078109e+001 2.017812e+002 4.860344e+001
    endloop
  endfacet
  facet normal 2.409140e-014 -2.773730e-015 -1.000000e+000
    outer loop
      vertex   2.622457e+001 2.057749e+002 4.860344e+001
      vertex   3.452591e+001 2.112728e+002 4.860344e+001
      vertex   2.922643e+001 2.011075e+002 4.860344e+001
    endloop
  endfacet
  facet normal 2.140220e-014 1.286669e-015 -1.000000e+000
    outer loop
      vertex   2.622457e+001 2.057749e+002 4.860344e+001
      vertex   2.622591e+001 2.112749e+002 4.860344e+001
      vertex   3.452591e+001 2.112728e+002 4.860344e+001
    endloop
  endfacet
  facet normal 1.045686e-014 -2.553889e-018 -1.000000e+000
    outer loop
      vertex   2.078109e+001 2.017812e+002 4.860344e+001
      vertex   1.942209e+001 2.017815e+002 4.860344e+001
      vertex   1.942307e+001 2.057765e+002 4.860344e+001
    endloop
  endfacet
  facet normal 1.956438e-014 -4.778229e-018 -1.000000e+000
    outer loop
      vertex   5.183063e+001 1.937671e+002 4.860344e+001
      vertex   4.783597e+001 1.951271e+002 4.860344e+001
      vertex   5.183210e+001 1.997678e+002 4.860344e+001
    endloop
  endfacet
  facet normal 1.956438e-014 -4.782077e-018 -1.000000e+000
    outer loop
      vertex   5.183063e+001 1.937671e+002 4.860344e+001
      vertex   4.783563e+001 1.937681e+002 4.860344e+001
      vertex   4.783597e+001 1.951271e+002 4.860344e+001
    endloop
  endfacet
  facet normal 2.950822e-014 -8.567338e-015 -1.000000e+000
    outer loop
      vertex   4.783597e+001 1.951271e+002 4.860344e+001
      vertex   4.566897e+001 1.951276e+002 4.860344e+001
      vertex   5.183210e+001 1.997678e+002 4.860344e+001
    endloop
  endfacet
  facet normal 2.160270e-014 1.932708e-015 -1.000000e+000
    outer loop
      vertex   5.183210e+001 1.997678e+002 4.860344e+001
      vertex   4.566897e+001 1.951276e+002 4.860344e+001
      vertex   4.052943e+001 2.011047e+002 4.860344e+001
    endloop
  endfacet
  facet normal 2.137006e-014 1.732667e-015 -1.000000e+000
    outer loop
      vertex   4.052943e+001 2.011047e+002 4.860344e+001
      vertex   4.566897e+001 1.951276e+002 4.860344e+001
      vertex   3.946164e+001 1.937701e+002 4.860344e+001
    endloop
  endfacet
  facet normal 2.200252e-014 1.640591e-015 -1.000000e+000
    outer loop
      vertex   2.922643e+001 2.011075e+002 4.860344e+001
      vertex   4.052943e+001 2.011047e+002 4.860344e+001
      vertex   3.946164e+001 1.937701e+002 4.860344e+001
    endloop
  endfacet
  facet normal 2.175014e-014 -5.316338e-018 -1.000000e+000
    outer loop
      vertex   4.566897e+001 1.951276e+002 4.860344e+001
      vertex   4.566863e+001 1.937686e+002 4.860344e+001
      vertex   3.946164e+001 1.937701e+002 4.860344e+001
    endloop
  endfacet
  facet normal 2.082278e-014 -5.089666e-018 -1.000000e+000
    outer loop
      vertex   3.946164e+001 1.937701e+002 4.860344e+001
      vertex   3.946090e+001 1.907731e+002 4.860344e+001
      vertex   2.922394e+001 1.909408e+002 4.860344e+001
    endloop
  endfacet
  facet normal 1.000000e+000 -2.442310e-004 2.454476e-014
    outer loop
      vertex   5.182990e+001 1.907701e+002 4.860344e+001
      vertex   5.182990e+001 1.907701e+002 5.410344e+001
      vertex   5.182746e+001 1.807686e+002 4.860344e+001
    endloop
  endfacet
  facet normal 1.000000e+000 -2.442310e-004 2.067033e-014
    outer loop
      vertex   5.182746e+001 1.807686e+002 4.860344e+001
      vertex   5.182990e+001 1.907701e+002 5.410344e+001
      vertex   5.182746e+001 1.807686e+002 5.410344e+001
    endloop
  endfacet
  facet normal 1.000000e+000 -2.442310e-004 2.196223e-014
    outer loop
      vertex   5.183063e+001 1.937671e+002 5.410344e+001
      vertex   5.183063e+001 1.937671e+002 4.860344e+001
      vertex   5.183210e+001 1.997678e+002 5.410344e+001
    endloop
  endfacet
  facet normal 1.000000e+000 -2.442310e-004 1.937843e-014
    outer loop
      vertex   5.183210e+001 1.997678e+002 5.410344e+001
      vertex   5.183063e+001 1.937671e+002 4.860344e+001
      vertex   5.183210e+001 1.997678e+002 4.860344e+001
    endloop
  endfacet
  facet normal 1.000000e+000 -2.442310e-004 2.454473e-014
    outer loop
      vertex   5.183357e+001 2.057686e+002 5.410344e+001
      vertex   5.183210e+001 1.997678e+002 4.860344e+001
      vertex   5.183357e+001 2.057686e+002 4.860344e+001
    endloop
  endfacet
  facet normal 1.000000e+000 -2.442310e-004 1.937844e-014
    outer loop
      vertex   5.183357e+001 2.057686e+002 5.410344e+001
      vertex   5.183210e+001 1.997678e+002 5.410344e+001
      vertex   5.183210e+001 1.997678e+002 4.860344e+001
    endloop
  endfacet
  facet normal -1.000000e+000 2.442310e-004 -2.260818e-014
    outer loop
      vertex   -1.598736e+001 1.937837e+002 4.860344e+001
      vertex   -1.598736e+001 1.937837e+002 5.410344e+001
      vertex   -1.598590e+001 1.997844e+002 4.860344e+001
    endloop
  endfacet
  facet normal -1.000000e+000 2.442310e-004 -2.067033e-014
    outer loop
      vertex   -1.598590e+001 1.997844e+002 4.860344e+001
      vertex   -1.598736e+001 1.937837e+002 5.410344e+001
      vertex   -1.598590e+001 1.997844e+002 5.410344e+001
    endloop
  endfacet
  facet normal -1.000000e+000 2.442310e-004 -2.099332e-014
    outer loop
      vertex   -1.598443e+001 2.057852e+002 4.860344e+001
      vertex   -1.598590e+001 1.997844e+002 5.410344e+001
      vertex   -1.598443e+001 2.057852e+002 5.410344e+001
    endloop
  endfacet
  facet normal -1.000000e+000 2.442310e-004 -2.067033e-014
    outer loop
      vertex   -1.598443e+001 2.057852e+002 4.860344e+001
      vertex   -1.598590e+001 1.997844e+002 4.860344e+001
      vertex   -1.598590e+001 1.997844e+002 5.410344e+001
    endloop
  endfacet
  facet normal -1.000000e+000 2.442310e-004 -2.228520e-014
    outer loop
      vertex   -1.598810e+001 1.907867e+002 5.410344e+001
      vertex   -1.598810e+001 1.907867e+002 4.860344e+001
      vertex   -1.599054e+001 1.807852e+002 5.410344e+001
    endloop
  endfacet
  facet normal -1.000000e+000 2.442310e-004 -2.260818e-014
    outer loop
      vertex   -1.599054e+001 1.807852e+002 5.410344e+001
      vertex   -1.598810e+001 1.907867e+002 4.860344e+001
      vertex   -1.599054e+001 1.807852e+002 4.860344e+001
    endloop
  endfacet
  facet normal 2.442310e-004 1.000000e+000 -1.032981e-014
    outer loop
      vertex   1.942307e+001 2.057765e+002 5.410344e+001
      vertex   2.622457e+001 2.057749e+002 5.410344e+001
      vertex   1.942307e+001 2.057765e+002 4.860344e+001
    endloop
  endfacet
  facet normal 2.442310e-004 1.000000e+000 5.521619e-018
    outer loop
      vertex   1.942307e+001 2.057765e+002 4.860344e+001
      vertex   2.622457e+001 2.057749e+002 5.410344e+001
      vertex   2.622457e+001 2.057749e+002 4.860344e+001
    endloop
  endfacet
  facet normal 2.441877e-004 1.000000e+000 -5.366838e-008
    outer loop
      vertex   1.642607e+001 2.057772e+002 4.860344e+001
      vertex   9.624567e+000 2.057789e+002 4.860344e+001
      vertex   1.642607e+001 2.057772e+002 5.410344e+001
    endloop
  endfacet
  facet normal 2.441444e-004 1.000000e+000 5.519659e-018
    outer loop
      vertex   1.642607e+001 2.057772e+002 5.410344e+001
      vertex   9.624567e+000 2.057789e+002 4.860344e+001
      vertex   9.624567e+000 2.057789e+002 5.410344e+001
    endloop
  endfacet
  facet normal 2.442310e-004 1.000000e+000 5.531566e-018
    outer loop
      vertex   -6.975432e+000 2.057830e+002 4.860344e+001
      vertex   -1.598443e+001 2.057852e+002 4.860344e+001
      vertex   -6.975432e+000 2.057830e+002 5.410344e+001
    endloop
  endfacet
  facet normal 2.442310e-004 1.000000e+000 5.127217e-018
    outer loop
      vertex   -6.975432e+000 2.057830e+002 5.410344e+001
      vertex   -1.598443e+001 2.057852e+002 4.860344e+001
      vertex   -1.598443e+001 2.057852e+002 5.410344e+001
    endloop
  endfacet
  facet normal 2.442310e-004 1.000000e+000 5.041427e-018
    outer loop
      vertex   4.282457e+001 2.057708e+002 5.410344e+001
      vertex   5.183357e+001 2.057686e+002 5.410344e+001
      vertex   4.282457e+001 2.057708e+002 4.860344e+001
    endloop
  endfacet
  facet normal 2.442310e-004 1.000000e+000 5.173578e-015
    outer loop
      vertex   4.282457e+001 2.057708e+002 4.860344e+001
      vertex   5.183357e+001 2.057686e+002 5.410344e+001
      vertex   5.183357e+001 2.057686e+002 4.860344e+001
    endloop
  endfacet
  facet normal -2.442310e-004 -1.000000e+000 -5.469277e-018
    outer loop
      vertex   -1.599054e+001 1.807852e+002 4.860344e+001
      vertex   -4.687538e+000 1.807824e+002 4.860344e+001
      vertex   -1.599054e+001 1.807852e+002 5.410344e+001
    endloop
  endfacet
  facet normal -2.442310e-004 -1.000000e+000 -5.442738e-018
    outer loop
      vertex   -1.599054e+001 1.807852e+002 5.410344e+001
      vertex   -4.687538e+000 1.807824e+002 4.860344e+001
      vertex   -4.687538e+000 1.807824e+002 5.410344e+001
    endloop
  endfacet
  facet normal -2.442310e-004 -1.000000e+000 -5.442738e-018
    outer loop
      vertex   -4.687538e+000 1.807824e+002 5.410344e+001
      vertex   -4.687538e+000 1.807824e+002 4.860344e+001
      vertex   6.615461e+000 1.807796e+002 4.860344e+001
    endloop
  endfacet
  facet normal -2.442310e-004 -1.000000e+000 -5.363858e-018
    outer loop
      vertex   6.615461e+000 1.807796e+002 5.410344e+001
      vertex   6.615461e+000 1.807796e+002 4.860344e+001
      vertex   1.791846e+001 1.807769e+002 4.860344e+001
    endloop
  endfacet
  facet normal -2.442310e-004 -1.000000e+000 -4.890576e-018
    outer loop
      vertex   1.791846e+001 1.807769e+002 5.410344e+001
      vertex   1.791846e+001 1.807769e+002 4.860344e+001
      vertex   2.922146e+001 1.807741e+002 4.860344e+001
    endloop
  endfacet
  facet normal -2.442310e-004 -1.000000e+000 -5.206098e-018
    outer loop
      vertex   2.922146e+001 1.807741e+002 5.410344e+001
      vertex   2.922146e+001 1.807741e+002 4.860344e+001
      vertex   4.052446e+001 1.807714e+002 4.860344e+001
    endloop
  endfacet
  facet normal -2.442310e-004 -1.000000e+000 -5.048337e-018
    outer loop
      vertex   4.052446e+001 1.807714e+002 5.410344e+001
      vertex   4.052446e+001 1.807714e+002 4.860344e+001
      vertex   5.182746e+001 1.807686e+002 4.860344e+001
    endloop
  endfacet
  facet normal -2.442310e-004 -1.000000e+000 -5.022805e-018
    outer loop
      vertex   5.182746e+001 1.807686e+002 5.410344e+001
      vertex   4.052446e+001 1.807714e+002 5.410344e+001
      vertex   5.182746e+001 1.807686e+002 4.860344e+001
    endloop
  endfacet
  facet normal -2.442310e-004 -1.000000e+000 -5.363858e-018
    outer loop
      vertex   -4.687538e+000 1.807824e+002 5.410344e+001
      vertex   6.615461e+000 1.807796e+002 4.860344e+001
      vertex   6.615461e+000 1.807796e+002 5.410344e+001
    endloop
  endfacet
  facet normal -2.442310e-004 -1.000000e+000 -4.890576e-018
    outer loop
      vertex   6.615461e+000 1.807796e+002 5.410344e+001
      vertex   1.791846e+001 1.807769e+002 4.860344e+001
      vertex   1.791846e+001 1.807769e+002 5.410344e+001
    endloop
  endfacet
  facet normal -2.442310e-004 -1.000000e+000 -5.206098e-018
    outer loop
      vertex   1.791846e+001 1.807769e+002 5.410344e+001
      vertex   2.922146e+001 1.807741e+002 4.860344e+001
      vertex   2.922146e+001 1.807741e+002 5.410344e+001
    endloop
  endfacet
  facet normal -2.442310e-004 -1.000000e+000 -5.048337e-018
    outer loop
      vertex   2.922146e+001 1.807741e+002 5.410344e+001
      vertex   4.052446e+001 1.807714e+002 4.860344e+001
      vertex   4.052446e+001 1.807714e+002 5.410344e+001
    endloop
  endfacet
  facet normal -1.000000e+000 2.442310e-004 -2.260818e-014
    outer loop
      vertex   2.622457e+001 2.057749e+002 4.860344e+001
      vertex   2.622457e+001 2.057749e+002 5.410344e+001
      vertex   2.622591e+001 2.112749e+002 4.860344e+001
    endloop
  endfacet
  facet normal -1.000000e+000 2.442310e-004 -2.196349e-014
    outer loop
      vertex   2.622591e+001 2.112749e+002 4.860344e+001
      vertex   2.622457e+001 2.057749e+002 5.410344e+001
      vertex   2.622591e+001 2.112749e+002 5.410344e+001
    endloop
  endfacet
  facet normal 1.000000e+000 -2.442310e-004 2.067033e-014
    outer loop
      vertex   4.282457e+001 2.057708e+002 5.410344e+001
      vertex   4.282457e+001 2.057708e+002 4.860344e+001
      vertex   4.282591e+001 2.112708e+002 5.410344e+001
    endloop
  endfacet
  facet normal 1.000000e+000 -2.442310e-004 2.454728e-014
    outer loop
      vertex   4.282591e+001 2.112708e+002 5.410344e+001
      vertex   4.282457e+001 2.057708e+002 4.860344e+001
      vertex   4.282591e+001 2.112708e+002 4.860344e+001
    endloop
  endfacet
  facet normal 1.000000e+000 -2.442310e-004 2.260818e-014
    outer loop
      vertex   9.624567e+000 2.057789e+002 5.410344e+001
      vertex   9.624567e+000 2.057789e+002 4.860344e+001
      vertex   9.625910e+000 2.112789e+002 5.410344e+001
    endloop
  endfacet
  facet normal 1.000000e+000 -2.442310e-004 2.163926e-014
    outer loop
      vertex   9.625910e+000 2.112789e+002 5.410344e+001
      vertex   9.624567e+000 2.057789e+002 4.860344e+001
      vertex   9.625910e+000 2.112789e+002 4.860344e+001
    endloop
  endfacet
  facet normal -1.000000e+000 2.442310e-004 -2.244669e-014
    outer loop
      vertex   -6.975432e+000 2.057830e+002 4.860344e+001
      vertex   -6.975432e+000 2.057830e+002 5.410344e+001
      vertex   -6.974089e+000 2.112830e+002 4.860344e+001
    endloop
  endfacet
  facet normal -1.000000e+000 2.442310e-004 -2.244669e-014
    outer loop
      vertex   -6.974089e+000 2.112830e+002 4.860344e+001
      vertex   -6.975432e+000 2.057830e+002 5.410344e+001
      vertex   -6.974089e+000 2.112830e+002 5.410344e+001
    endloop
  endfacet
  facet normal -1.000000e+000 2.442310e-004 -2.196475e-014
    outer loop
      vertex   1.942307e+001 2.057765e+002 5.410344e+001
      vertex   1.942307e+001 2.057765e+002 4.860344e+001
      vertex   1.942209e+001 2.017815e+002 5.410344e+001
    endloop
  endfacet
  facet normal -1.000000e+000 2.442310e-004 -2.131630e-014
    outer loop
      vertex   1.942209e+001 2.017815e+002 5.410344e+001
      vertex   1.942307e+001 2.057765e+002 4.860344e+001
      vertex   1.942209e+001 2.017815e+002 4.860344e+001
    endloop
  endfacet
  facet normal -2.444277e-004 -1.000000e+000 -6.005219e-018
    outer loop
      vertex   2.078109e+001 2.017812e+002 5.410344e+001
      vertex   1.942209e+001 2.017815e+002 5.410344e+001
      vertex   2.078109e+001 2.017812e+002 4.860344e+001
    endloop
  endfacet
  facet normal -2.444277e-004 -1.000000e+000 -5.210291e-018
    outer loop
      vertex   2.078109e+001 2.017812e+002 4.860344e+001
      vertex   1.942209e+001 2.017815e+002 5.410344e+001
      vertex   1.942209e+001 2.017815e+002 4.860344e+001
    endloop
  endfacet
  facet normal -1.000000e+000 2.444277e-004 -2.454602e-014
    outer loop
      vertex   2.078109e+001 2.017812e+002 5.410344e+001
      vertex   2.078109e+001 2.017812e+002 4.860344e+001
      vertex   2.078056e+001 1.996142e+002 5.410344e+001
    endloop
  endfacet
  facet normal -1.000000e+000 2.444277e-004 -2.260817e-014
    outer loop
      vertex   2.078056e+001 1.996142e+002 5.410344e+001
      vertex   2.078109e+001 2.017812e+002 4.860344e+001
      vertex   2.078056e+001 1.996142e+002 4.860344e+001
    endloop
  endfacet
  facet normal 2.444277e-004 1.000000e+000 1.550812e-014
    outer loop
      vertex   1.942156e+001 1.996145e+002 5.410344e+001
      vertex   2.078056e+001 1.996142e+002 5.410344e+001
      vertex   1.942156e+001 1.996145e+002 4.860344e+001
    endloop
  endfacet
  facet normal 2.444277e-004 1.000000e+000 5.526066e-018
    outer loop
      vertex   1.942156e+001 1.996145e+002 4.860344e+001
      vertex   2.078056e+001 1.996142e+002 5.410344e+001
      vertex   2.078056e+001 1.996142e+002 4.860344e+001
    endloop
  endfacet
  facet normal -1.000000e+000 2.444277e-004 -2.195844e-014
    outer loop
      vertex   1.942156e+001 1.996145e+002 5.410344e+001
      vertex   1.942156e+001 1.996145e+002 4.860344e+001
      vertex   1.942005e+001 1.934075e+002 5.410344e+001
    endloop
  endfacet
  facet normal -1.000000e+000 2.444277e-004 -2.260819e-014
    outer loop
      vertex   1.942005e+001 1.934075e+002 5.410344e+001
      vertex   1.942156e+001 1.996145e+002 4.860344e+001
      vertex   1.942005e+001 1.934075e+002 4.860344e+001
    endloop
  endfacet
  facet normal 2.444277e-004 1.000000e+000 5.682960e-018
    outer loop
      vertex   1.642305e+001 1.934082e+002 5.410344e+001
      vertex   1.942005e+001 1.934075e+002 5.410344e+001
      vertex   1.642305e+001 1.934082e+002 4.860344e+001
    endloop
  endfacet
  facet normal 2.444277e-004 1.000000e+000 5.526066e-018
    outer loop
      vertex   1.642305e+001 1.934082e+002 4.860344e+001
      vertex   1.942005e+001 1.934075e+002 5.410344e+001
      vertex   1.942005e+001 1.934075e+002 4.860344e+001
    endloop
  endfacet
  facet normal 1.000000e+000 -2.444277e-004 2.325413e-014
    outer loop
      vertex   1.642305e+001 1.934082e+002 5.410344e+001
      vertex   1.642305e+001 1.934082e+002 4.860344e+001
      vertex   1.642456e+001 1.996152e+002 5.410344e+001
    endloop
  endfacet
  facet normal 1.000000e+000 -2.444277e-004 2.196224e-014
    outer loop
      vertex   1.642456e+001 1.996152e+002 5.410344e+001
      vertex   1.642305e+001 1.934082e+002 4.860344e+001
      vertex   1.642456e+001 1.996152e+002 4.860344e+001
    endloop
  endfacet
  facet normal 2.444277e-004 1.000000e+000 5.366978e-018
    outer loop
      vertex   1.506556e+001 1.996156e+002 5.410344e+001
      vertex   1.642456e+001 1.996152e+002 5.410344e+001
      vertex   1.506556e+001 1.996156e+002 4.860344e+001
    endloop
  endfacet
  facet normal 2.444277e-004 1.000000e+000 5.368178e-018
    outer loop
      vertex   1.506556e+001 1.996156e+002 4.860344e+001
      vertex   1.642456e+001 1.996152e+002 5.410344e+001
      vertex   1.642456e+001 1.996152e+002 4.860344e+001
    endloop
  endfacet
  facet normal 1.000000e+000 -2.444277e-004 2.196223e-014
    outer loop
      vertex   1.506556e+001 1.996156e+002 5.410344e+001
      vertex   1.506556e+001 1.996156e+002 4.860344e+001
      vertex   1.506609e+001 2.017826e+002 5.410344e+001
    endloop
  endfacet
  facet normal 1.000000e+000 -2.444277e-004 2.293116e-014
    outer loop
      vertex   1.506609e+001 2.017826e+002 5.410344e+001
      vertex   1.506556e+001 1.996156e+002 4.860344e+001
      vertex   1.506609e+001 2.017826e+002 4.860344e+001
    endloop
  endfacet
  facet normal -2.444277e-004 -1.000000e+000 -5.366967e-018
    outer loop
      vertex   1.642510e+001 2.017822e+002 5.410344e+001
      vertex   1.506609e+001 2.017826e+002 5.410344e+001
      vertex   1.642510e+001 2.017822e+002 4.860344e+001
    endloop
  endfacet
  facet normal -2.444277e-004 -1.000000e+000 -5.605010e-018
    outer loop
      vertex   1.642510e+001 2.017822e+002 4.860344e+001
      vertex   1.506609e+001 2.017826e+002 5.410344e+001
      vertex   1.506609e+001 2.017826e+002 4.860344e+001
    endloop
  endfacet
  facet normal 1.000000e+000 -2.442310e-004 2.251617e-014
    outer loop
      vertex   1.642607e+001 2.057772e+002 5.410344e+001
      vertex   1.642510e+001 2.017822e+002 5.410344e+001
      vertex   1.642607e+001 2.057772e+002 4.860344e+001
    endloop
  endfacet
  facet normal 1.000000e+000 -2.442310e-004 2.196223e-014
    outer loop
      vertex   1.642607e+001 2.057772e+002 4.860344e+001
      vertex   1.642510e+001 2.017822e+002 5.410344e+001
      vertex   1.642510e+001 2.017822e+002 4.860344e+001
    endloop
  endfacet
  facet normal 1.000000e+000 -2.444277e-004 2.260818e-014
    outer loop
      vertex   -1.199236e+001 1.937827e+002 5.410344e+001
      vertex   -1.199236e+001 1.937827e+002 4.860344e+001
      vertex   -1.199203e+001 1.951417e+002 5.410344e+001
    endloop
  endfacet
  facet normal 1.000000e+000 -2.444277e-004 2.260818e-014
    outer loop
      vertex   -1.199203e+001 1.951417e+002 5.410344e+001
      vertex   -1.199236e+001 1.937827e+002 4.860344e+001
      vertex   -1.199203e+001 1.951417e+002 4.860344e+001
    endloop
  endfacet
  facet normal -2.444277e-004 -1.000000e+000 -5.840146e-018
    outer loop
      vertex   -9.825031e+000 1.951412e+002 5.410344e+001
      vertex   -1.199203e+001 1.951417e+002 5.410344e+001
      vertex   -9.825031e+000 1.951412e+002 4.860344e+001
    endloop
  endfacet
  facet normal -2.444277e-004 -1.000000e+000 -5.526066e-018
    outer loop
      vertex   -9.825031e+000 1.951412e+002 4.860344e+001
      vertex   -1.199203e+001 1.951417e+002 5.410344e+001
      vertex   -1.199203e+001 1.951417e+002 4.860344e+001
    endloop
  endfacet
  facet normal -1.000000e+000 2.444277e-004 -2.390007e-014
    outer loop
      vertex   -9.825031e+000 1.951412e+002 5.410344e+001
      vertex   -9.825031e+000 1.951412e+002 4.860344e+001
      vertex   -9.825363e+000 1.937822e+002 5.410344e+001
    endloop
  endfacet
  facet normal -1.000000e+000 2.444277e-004 -2.067034e-014
    outer loop
      vertex   -9.825363e+000 1.937822e+002 5.410344e+001
      vertex   -9.825031e+000 1.951412e+002 4.860344e+001
      vertex   -9.825363e+000 1.937822e+002 4.860344e+001
    endloop
  endfacet
  facet normal -2.444277e-004 -1.000000e+000 -5.487943e-018
    outer loop
      vertex   -3.618364e+000 1.937806e+002 5.410344e+001
      vertex   -9.825363e+000 1.937822e+002 5.410344e+001
      vertex   -3.618364e+000 1.937806e+002 4.860344e+001
    endloop
  endfacet
  facet normal -2.444277e-004 -1.000000e+000 -5.052403e-018
    outer loop
      vertex   -3.618364e+000 1.937806e+002 4.860344e+001
      vertex   -9.825363e+000 1.937822e+002 5.410344e+001
      vertex   -9.825363e+000 1.937822e+002 4.860344e+001
    endloop
  endfacet
  facet normal -1.000000e+000 2.444277e-004 -2.244669e-014
    outer loop
      vertex   -3.618364e+000 1.937806e+002 5.410344e+001
      vertex   -3.618364e+000 1.937806e+002 4.860344e+001
      vertex   -3.619096e+000 1.907836e+002 5.410344e+001
    endloop
  endfacet
  facet normal -1.000000e+000 2.444277e-004 -2.244669e-014
    outer loop
      vertex   -3.619096e+000 1.907836e+002 5.410344e+001
      vertex   -3.618364e+000 1.937806e+002 4.860344e+001
      vertex   -3.619096e+000 1.907836e+002 4.860344e+001
    endloop
  endfacet
  facet normal 2.444277e-004 1.000000e+000 5.437129e-018
    outer loop
      vertex   -9.826096e+000 1.907852e+002 5.410344e+001
      vertex   -3.619096e+000 1.907836e+002 5.410344e+001
      vertex   -9.826096e+000 1.907852e+002 4.860344e+001
    endloop
  endfacet
  facet normal 2.444277e-004 1.000000e+000 5.486594e-018
    outer loop
      vertex   -9.826096e+000 1.907852e+002 4.860344e+001
      vertex   -3.619096e+000 1.907836e+002 5.410344e+001
      vertex   -3.619096e+000 1.907836e+002 4.860344e+001
    endloop
  endfacet
  facet normal -1.000000e+000 2.444277e-004 -2.228520e-014
    outer loop
      vertex   -9.826096e+000 1.907852e+002 5.410344e+001
      vertex   -9.826096e+000 1.907852e+002 4.860344e+001
      vertex   -9.826428e+000 1.894262e+002 5.410344e+001
    endloop
  endfacet
  facet normal -1.000000e+000 2.444277e-004 -2.228520e-014
    outer loop
      vertex   -9.826428e+000 1.894262e+002 5.410344e+001
      vertex   -9.826096e+000 1.907852e+002 4.860344e+001
      vertex   -9.826428e+000 1.894262e+002 4.860344e+001
    endloop
  endfacet
  facet normal 2.444277e-004 1.000000e+000 5.530855e-018
    outer loop
      vertex   -1.199343e+001 1.894267e+002 5.410344e+001
      vertex   -9.826428e+000 1.894262e+002 5.410344e+001
      vertex   -1.199343e+001 1.894267e+002 4.860344e+001
    endloop
  endfacet
  facet normal 2.444277e-004 1.000000e+000 5.447122e-018
    outer loop
      vertex   -1.199343e+001 1.894267e+002 4.860344e+001
      vertex   -9.826428e+000 1.894262e+002 5.410344e+001
      vertex   -9.826428e+000 1.894262e+002 4.860344e+001
    endloop
  endfacet
  facet normal 1.000000e+000 -2.444277e-004 2.260818e-014
    outer loop
      vertex   -1.199343e+001 1.894267e+002 5.410344e+001
      vertex   -1.199343e+001 1.894267e+002 4.860344e+001
      vertex   -1.199310e+001 1.907857e+002 5.410344e+001
    endloop
  endfacet
  facet normal 1.000000e+000 -2.444277e-004 2.260818e-014
    outer loop
      vertex   -1.199310e+001 1.907857e+002 5.410344e+001
      vertex   -1.199343e+001 1.894267e+002 4.860344e+001
      vertex   -1.199310e+001 1.907857e+002 4.860344e+001
    endloop
  endfacet
  facet normal -2.442310e-004 -1.000000e+000 -5.526483e-018
    outer loop
      vertex   -1.199236e+001 1.937827e+002 5.410344e+001
      vertex   -1.598736e+001 1.937837e+002 5.410344e+001
      vertex   -1.199236e+001 1.937827e+002 4.860344e+001
    endloop
  endfacet
  facet normal -2.442310e-004 -1.000000e+000 -5.521619e-018
    outer loop
      vertex   -1.199236e+001 1.937827e+002 4.860344e+001
      vertex   -1.598736e+001 1.937837e+002 5.410344e+001
      vertex   -1.598736e+001 1.937837e+002 4.860344e+001
    endloop
  endfacet
  facet normal 2.442310e-004 1.000000e+000 5.447534e-018
    outer loop
      vertex   -1.598810e+001 1.907867e+002 5.410344e+001
      vertex   -1.199310e+001 1.907857e+002 5.410344e+001
      vertex   -1.598810e+001 1.907867e+002 4.860344e+001
    endloop
  endfacet
  facet normal 2.442310e-004 1.000000e+000 5.521619e-018
    outer loop
      vertex   -1.598810e+001 1.907867e+002 4.860344e+001
      vertex   -1.199310e+001 1.907857e+002 5.410344e+001
      vertex   -1.199310e+001 1.907857e+002 4.860344e+001
    endloop
  endfacet
  facet normal -1.000000e+000 2.444277e-004 -2.325413e-014
    outer loop
      vertex   4.783490e+001 1.907711e+002 5.410344e+001
      vertex   4.783490e+001 1.907711e+002 4.860344e+001
      vertex   4.783457e+001 1.894121e+002 5.410344e+001
    endloop
  endfacet
  facet normal -1.000000e+000 2.444277e-004 -2.583792e-014
    outer loop
      vertex   4.783457e+001 1.894121e+002 5.410344e+001
      vertex   4.783490e+001 1.907711e+002 4.860344e+001
      vertex   4.783457e+001 1.894121e+002 4.860344e+001
    endloop
  endfacet
  facet normal 2.444277e-004 1.000000e+000 5.694597e-018
    outer loop
      vertex   4.566757e+001 1.894126e+002 5.410344e+001
      vertex   4.783457e+001 1.894121e+002 5.410344e+001
      vertex   4.566757e+001 1.894126e+002 4.860344e+001
    endloop
  endfacet
  facet normal 2.444277e-004 1.000000e+000 6.315504e-018
    outer loop
      vertex   4.566757e+001 1.894126e+002 4.860344e+001
      vertex   4.783457e+001 1.894121e+002 5.410344e+001
      vertex   4.783457e+001 1.894121e+002 4.860344e+001
    endloop
  endfacet
  facet normal 1.000000e+000 -2.444277e-004 2.325413e-014
    outer loop
      vertex   4.566757e+001 1.894126e+002 5.410344e+001
      vertex   4.566757e+001 1.894126e+002 4.860344e+001
      vertex   4.566790e+001 1.907716e+002 5.410344e+001
    endloop
  endfacet
  facet normal 1.000000e+000 -2.444277e-004 2.196223e-014
    outer loop
      vertex   4.566790e+001 1.907716e+002 5.410344e+001
      vertex   4.566757e+001 1.894126e+002 4.860344e+001
      vertex   4.566790e+001 1.907716e+002 4.860344e+001
    endloop
  endfacet
  facet normal 2.444277e-004 1.000000e+000 5.996086e-018
    outer loop
      vertex   3.946090e+001 1.907731e+002 5.410344e+001
      vertex   4.566790e+001 1.907716e+002 5.410344e+001
      vertex   3.946090e+001 1.907731e+002 4.860344e+001
    endloop
  endfacet
  facet normal 2.444277e-004 1.000000e+000 5.368178e-018
    outer loop
      vertex   3.946090e+001 1.907731e+002 4.860344e+001
      vertex   4.566790e+001 1.907716e+002 5.410344e+001
      vertex   4.566790e+001 1.907716e+002 4.860344e+001
    endloop
  endfacet
  facet normal 1.000000e+000 -2.444277e-004 2.454602e-014
    outer loop
      vertex   3.946090e+001 1.907731e+002 5.410344e+001
      vertex   3.946090e+001 1.907731e+002 4.860344e+001
      vertex   3.946164e+001 1.937701e+002 5.410344e+001
    endloop
  endfacet
  facet normal 1.000000e+000 -2.444277e-004 2.454602e-014
    outer loop
      vertex   3.946164e+001 1.937701e+002 5.410344e+001
      vertex   3.946090e+001 1.907731e+002 4.860344e+001
      vertex   3.946164e+001 1.937701e+002 4.860344e+001
    endloop
  endfacet
  facet normal -2.444277e-004 -1.000000e+000 -5.691200e-018
    outer loop
      vertex   4.566863e+001 1.937686e+002 5.410344e+001
      vertex   3.946164e+001 1.937701e+002 5.410344e+001
      vertex   4.566863e+001 1.937686e+002 4.860344e+001
    endloop
  endfacet
  facet normal -2.444277e-004 -1.000000e+000 -5.999729e-018
    outer loop
      vertex   4.566863e+001 1.937686e+002 4.860344e+001
      vertex   3.946164e+001 1.937701e+002 5.410344e+001
      vertex   3.946164e+001 1.937701e+002 4.860344e+001
    endloop
  endfacet
  facet normal 1.000000e+000 -2.444277e-004 2.325413e-014
    outer loop
      vertex   4.566863e+001 1.937686e+002 5.410344e+001
      vertex   4.566863e+001 1.937686e+002 4.860344e+001
      vertex   4.566897e+001 1.951276e+002 5.410344e+001
    endloop
  endfacet
  facet normal 1.000000e+000 -2.444277e-004 2.583792e-014
    outer loop
      vertex   4.566897e+001 1.951276e+002 5.410344e+001
      vertex   4.566863e+001 1.937686e+002 4.860344e+001
      vertex   4.566897e+001 1.951276e+002 4.860344e+001
    endloop
  endfacet
  facet normal -2.444277e-004 -1.000000e+000 -6.313180e-018
    outer loop
      vertex   4.783597e+001 1.951271e+002 5.410344e+001
      vertex   4.566897e+001 1.951276e+002 5.410344e+001
      vertex   4.783597e+001 1.951271e+002 4.860344e+001
    endloop
  endfacet
  facet normal -2.444277e-004 -1.000000e+000 -6.315504e-018
    outer loop
      vertex   4.783597e+001 1.951271e+002 4.860344e+001
      vertex   4.566897e+001 1.951276e+002 5.410344e+001
      vertex   4.566897e+001 1.951276e+002 4.860344e+001
    endloop
  endfacet
  facet normal -1.000000e+000 2.444277e-004 -2.583792e-014
    outer loop
      vertex   4.783597e+001 1.951271e+002 5.410344e+001
      vertex   4.783597e+001 1.951271e+002 4.860344e+001
      vertex   4.783563e+001 1.937681e+002 5.410344e+001
    endloop
  endfacet
  facet normal -1.000000e+000 2.444277e-004 -2.196223e-014
    outer loop
      vertex   4.783563e+001 1.937681e+002 5.410344e+001
      vertex   4.783597e+001 1.951271e+002 4.860344e+001
      vertex   4.783563e+001 1.937681e+002 4.860344e+001
    endloop
  endfacet
  facet normal 2.442310e-004 1.000000e+000 5.684381e-018
    outer loop
      vertex   4.783490e+001 1.907711e+002 5.410344e+001
      vertex   5.182990e+001 1.907701e+002 5.410344e+001
      vertex   4.783490e+001 1.907711e+002 4.860344e+001
    endloop
  endfacet
  facet normal 2.442310e-004 1.000000e+000 5.173578e-015
    outer loop
      vertex   4.783490e+001 1.907711e+002 4.860344e+001
      vertex   5.182990e+001 1.907701e+002 5.410344e+001
      vertex   5.182990e+001 1.907701e+002 4.860344e+001
    endloop
  endfacet
  facet normal -2.442310e-004 -1.000000e+000 -5.368583e-018
    outer loop
      vertex   5.183063e+001 1.937671e+002 5.410344e+001
      vertex   4.783563e+001 1.937681e+002 5.410344e+001
      vertex   5.183063e+001 1.937671e+002 4.860344e+001
    endloop
  endfacet
  facet normal -2.442310e-004 -1.000000e+000 -5.363858e-018
    outer loop
      vertex   5.183063e+001 1.937671e+002 4.860344e+001
      vertex   4.783563e+001 1.937681e+002 5.410344e+001
      vertex   4.783563e+001 1.937681e+002 4.860344e+001
    endloop
  endfacet
endsolid
