                                                                        S      1
,,23HNo Product Id specified,,,,32,38,6,99,15,36HNo Product Id for ReceiG      1
ver specified,1.0D0,2,2HMM,1,.08D0,,.001D0,10000.0D0,,,11,0,,;          G      2
     308       1       0       0       0       0       0       000010001D      1
     308       0       0       1       0                               0D      2
     408       2       0       0       0       0       0       000000001D      3
     408       0       0       1       0                               0D      4
     406       3       0       0       1       0       0       000000000D      5
     406       0       0       1       3                               0D      6
     120       4       0       0       0       0       0       000010000D      7
     120       0       0       1       0                               0D      8
     110       5       0       0       0       0       0       000010000D      9
     110       0       0       2       0                               0D     10
     110       7       0       0       0       0       0       001010000D     11
     110       0       0       2       0                               0D     12
     504       9       0       0       0       0       0       000010001D     13
     504       0       0       3       1                               0D     14
     502      12       0       0       0       0       0       000010000D     15
     502       0       0       8       1                               0D     16
     110      20       0       0       0       0       0       000010000D     17
     110       0       0       2       0                               0D     18
     100      22       0       0       0       0      21       000010000D     19
     100       0       0       2       0                               0D     20
     124      24       0       0       0       0       0       000000000D     21
     124       0       0       4       0                               0D     22
     110      28       0       0       0       0       0       000010000D     23
     110       0       0       2       0                               0D     24
     100      30       0       0       0       0      27       000010000D     25
     100       0       0       2       0                               0D     26
     124      32       0       0       0       0       0       000000000D     27
     124       0       0       4       0                               0D     28
     508      36       0       0       0       0       0       000010000D     29
     508       0       0       1       1                               0D     30
     510      37       0       0       0       0       0       000010001D     31
     510       0       0       1       1                               0D     32
     116      38       0       0       0       0       0       000010000D     33
     116       0       0       1       0                               0D     34
     123      39       0       0       0       0       0       000010200D     35
     123       0       0       2       0                               0D     36
     192      41       0       0       0       0       0       000010000D     37
     192       0       0       1       1                               0D     38
     123      42       0       0       0       0       0       000010200D     39
     123       0       0       1       0                               0D     40
     110      43       0       0       0       0       0       000010000D     41
     110       0       0       2       0                               0D     42
     100      45       0       0       0       0      27       000010000D     43
     100       0       0       2       0                               0D     44
     110      47       0       0       0       0       0       000010000D     45
     110       0       0       2       0                               0D     46
     100      49       0       0       0       0      21       000010000D     47
     100       0       0       2       0                               0D     48
     508      51       0       0       0       0       0       000010000D     49
     508       0       0       1       1                               0D     50
     510      52       0       0       0       0       0       000010001D     51
     510       0       0       1       1                               0D     52
     116      53       0       0       0       0       0       000010000D     53
     116       0       0       1       0                               0D     54
     123      54       0       0       0       0       0       000010200D     55
     123       0       0       1       0                               0D     56
     190      55       0       0       0       0       0       000010000D     57
     190       0       0       1       1                               0D     58
     123      56       0       0       0       0       0       000010200D     59
     123       0       0       1       0                               0D     60
     100      57       0       0       0       0      21       000010000D     61
     100       0       0       2       0                               0D     62
     508      59       0       0       0       0       0       000010000D     63
     508       0       0       1       1                               0D     64
     100      60       0       0       0       0      21       000010000D     65
     100       0       0       2       0                               0D     66
     508      62       0       0       0       0       0       000010000D     67
     508       0       0       1       1                               0D     68
     510      63       0       0       0       0       0       000010001D     69
     510       0       0       1       1                               0D     70
     116      64       0       0       0       0       0       000010000D     71
     116       0       0       1       0                               0D     72
     123      65       0       0       0       0       0       000010200D     73
     123       0       0       2       0                               0D     74
     190      67       0       0       0       0       0       000010000D     75
     190       0       0       1       1                               0D     76
     123      68       0       0       0       0       0       000010200D     77
     123       0       0       1       0                               0D     78
     100      69       0       0       0       0      27       000010000D     79
     100       0       0       2       0                               0D     80
     508      71       0       0       0       0       0       000010000D     81
     508       0       0       1       1                               0D     82
     100      72       0       0       0       0      27       000010000D     83
     100       0       0       2       0                               0D     84
     508      74       0       0       0       0       0       000010000D     85
     508       0       0       1       1                               0D     86
     510      75       0       0       0       0       0       000010001D     87
     510       0       0       1       1                               0D     88
     116      76       0       0       0       0       0       000010000D     89
     116       0       0       1       0                               0D     90
     123      77       0       0       0       0       0       000010200D     91
     123       0       0       2       0                               0D     92
     192      79       0       0       0       0       0       000010000D     93
     192       0       0       1       1                               0D     94
     123      80       0       0       0       0       0       000010200D     95
     123       0       0       1       0                               0D     96
     508      81       0       0       0       0       0       000010000D     97
     508       0       0       1       1                               0D     98
     510      82       0       0       0       0       0       000010001D     99
     510       0       0       1       1                               0D    100
     120      83       0       0       0       0       0       000010000D    101
     120       0       0       1       0                               0D    102
     110      84       0       0       0       0       0       000010000D    103
     110       0       0       2       0                               0D    104
     110      86       0       0       0       0       0       001010000D    105
     110       0       0       2       0                               0D    106
     508      88       0       0       0       0       0       000010000D    107
     508       0       0       1       1                               0D    108
     510      89       0       0       0       0       0       000010001D    109
     510       0       0       1       1                               0D    110
     514      90       0       0       0       0       0       000010000D    111
     514       0       0       1       1                               0D    112
     186      91       0       0       1       0       0       000010000D    113
     186       0       0       1       0                               0D    114
308,0,22H205_sp_201_203_4 Copy1,1,113;                                 1P      1
408,1,0.0D0,0.0D0,0.0D0,1.0D0;                                         3P      2
406,2,0,22H205_sp_201_203_4 Copy1;                                     5P      3
120,11,9,0.0D0,6.28318530717959D0;                                     7P      4
110,7.68578823663846D0,190.188788021637D0,33.0548949771824D0,          9P      5
7.6849352597665D0,186.696288125798D0,33.0548949771824D0;               9P      6
110,6.10075954097988D0,190.189175134839D0,33.1434395088161D0,         11P      7
6.10051530994997D0,189.189175164663D0,33.1434395088161D0;             11P      8
504,12,17,15,1,15,2,19,15,1,15,3,23,15,3,15,4,25,15,2,15,4,41,        13P      9
15,5,15,6,43,15,5,15,7,45,15,7,15,8,47,15,6,15,8,61,15,8,15,6,        13P     10
65,15,3,15,1,79,15,7,15,5,83,15,4,15,2;                               13P     11
502,8,7.68574946496246D0,190.030038026371D0,33.0548949771824D0,       15P     12
7.6849740314425D0,186.855038121064D0,33.0548949771824D0,              15P     13
4.5156920736453D0,190.030812252776D0,33.2319840404498D0,              15P     14
4.51491664012534D0,186.855812347468D0,33.2319840404498D0,             15P     15
8.47748837927179D0,186.854844564462D0,33.0106227113655D0,             15P     16
8.47826381279175D0,190.02984446977D0,33.0106227113655D0,              15P     17
3.72240229229605D0,186.856005904069D0,33.2762563062667D0,             15P     18
3.72317772581601D0,190.031005809377D0,33.2762563062667D0;             15P     19
110,7.68574946496246D0,190.030038026371D0,33.0548949771824D0,         17P     20
7.6849740314425D0,186.855038121064D0,33.0548949771824D0;              17P     21
100,0.0D0,0.0D0,0.0D0,-1.5875D0,-5.10578941272332D-16,1.5875D0,       19P     22
-3.88825358729285D-16;                                                19P     23
124,-.998443272855798D0,5.57760812553829D-2,2.44231029909367D-4,      21P     24
6.10072076930388D0,2.43850836108324D-4,-1.36222501761337D-5,          21P     25
.999999970175602D0,190.030425139574D0,.055776082918871D0,             21P     26
.998443302633768D0,5.48486099661331D-16,33.1434395088161D0;           21P     27
110,4.5156920736453D0,190.030812252776D0,33.2319840404498D0,          23P     28
4.51491664012534D0,186.855812347468D0,33.2319840404498D0;             23P     29
100,0.0D0,0.0D0,0.0D0,-1.5875D0,1.94412679364642D-16,1.5875D0,        25P     30
-3.88825358729285D-16;                                                25P     31
124,-.998443272855798D0,5.57760812553829D-2,2.44231029909367D-4,      27P     32
6.09994533578392D0,2.43850836108324D-4,-1.36222501761337D-5,          27P     33
.999999970175602D0,186.855425234266D0,.055776082918871D0,             27P     34
.998443302633768D0,5.48486099661331D-16,33.1434395088161D0;           27P     35
508,4,0,13,1,0,0,0,13,2,1,0,0,13,3,1,0,0,13,4,0,0;                    29P     36
510,7,1,1,29;                                                         31P     37
116,6.10072076930388D0,190.030425139574D0,33.1434395088161D0,0;       33P     38
123,-2.44231029909367D-4,-.999999970175602D0,                         35P     39
-5.48486099661331D-16;                                                35P     40
192,33,35,2.38125D0,39;                                               37P     41
123,.998443272855798D0,-2.43850836108324D-4,-.055776082918871D0;      39P     42
110,8.47748837927179D0,186.854844564462D0,33.0106227113655D0,         41P     43
8.47826381279175D0,190.02984446977D0,33.0106227113655D0;              41P     44
100,0.0D0,0.0D0,0.0D0,-2.38125D0,2.40659388095789D-15,2.38125D0,      43P     45
-2.69821290000485D-15;                                                43P     46
110,3.72240229229605D0,186.856005904069D0,33.2762563062667D0,         45P     47
3.72317772581601D0,190.031005809377D0,33.2762563062667D0;             45P     48
100,0.0D0,0.0D0,0.0D0,-2.38125D0,2.40659388095789D-15,2.38125D0,      47P     49
-2.69821290000485D-15;                                                47P     50
508,4,0,13,5,0,0,0,13,6,1,0,0,13,7,1,0,0,13,8,0,0;                    49P     51
510,37,1,1,49;                                                        51P     52
116,6.10072076930388D0,190.030425139574D0,33.1434395088161D0,0;       53P     53
123,2.44231029909367D-4,.999999970175602D0,5.48486099661331D-16;      55P     54
190,53,55,59;                                                         57P     55
123,-.998443272855798D0,2.43850836108324D-4,.055776082918871D0;       59P     56
100,0.0D0,0.0D0,0.0D0,2.38125D0,-2.75006031362202D-15,                61P     57
-2.38125D0,2.40659388095789D-15;                                      61P     58
508,2,0,13,9,1,0,0,13,8,1,0;                                          63P     59
100,0.0D0,0.0D0,0.0D0,1.5875D0,-3.55140239176354D-16,-1.5875D0,       65P     60
-5.10578941272332D-16;                                                65P     61
508,2,0,13,10,0,0,0,13,2,0,0;                                         67P     62
510,57,2,1,63,67;                                                     69P     63
116,6.09994533578392D0,186.855425234266D0,33.1434395088161D0,0;       71P     64
123,-2.44231029909367D-4,-.999999970175602D0,                         73P     65
-5.48486099661331D-16;                                                73P     66
190,71,73,77;                                                         75P     67
123,.998443272855798D0,-2.43850836108324D-4,-.055776082918871D0;      77P     68
100,0.0D0,0.0D0,0.0D0,2.38125D0,-2.75006031362202D-15,                79P     69
-2.38125D0,2.40659388095789D-15;                                      79P     70
508,2,0,13,11,0,0,0,13,6,0,0;                                         81P     71
100,0.0D0,0.0D0,0.0D0,1.5875D0,-3.55140239176354D-16,-1.5875D0,       83P     72
1.94412679364642D-16;                                                 83P     73
508,2,0,13,12,1,0,0,13,4,1,0;                                         85P     74
510,75,2,1,81,85;                                                     87P     75
116,6.10072076930388D0,190.030425139574D0,33.1434395088161D0,0;       89P     76
123,-2.44231029909367D-4,-.999999970175602D0,                         91P     77
-5.48486099661331D-16;                                                91P     78
192,89,91,2.38125D0,95;                                               93P     79
123,.998443272855798D0,-2.43850836108324D-4,-.055776082918871D0;      95P     80
508,4,0,13,5,1,0,0,13,9,0,0,0,13,7,0,0,0,13,11,1,0;                   97P     81
510,93,1,1,97;                                                        99P     82
120,105,103,0.0D0,6.28318530717959D0;                                101P     83
110,7.68578823663846D0,190.188788021637D0,33.0548949771824D0,        103P     84
7.6849352597665D0,186.696288125798D0,33.0548949771824D0;             103P     85
110,6.10075954097988D0,190.189175134839D0,33.1434395088161D0,        105P     86
6.10051530994997D0,189.189175164663D0,33.1434395088161D0;            105P     87
508,4,0,13,1,1,0,0,13,12,0,0,0,13,3,0,0,0,13,10,1,0;                 107P     88
510,101,1,1,107;                                                     109P     89
514,6,31,1,51,1,69,1,87,1,99,1,109,1;                                111P     90
186,111,1,0;                                                         113P     91
S      1G      2D    114P     91                                        T      1
