                                                                        S      1
,,23HNo Product Id specified,,,,32,38,6,99,15,36HNo Product Id for ReceiG      1
ver specified,1.0D0,2,2HMM,1,.08D0,,.001D0,10000.0D0,,,11,0,,;          G      2
     308       1       0       0       0       0       0       000010001D      1
     308       0       0       1       0                               0D      2
     408       2       0       0       0       0       0       000000001D      3
     408       0       0       1       0                               0D      4
     406       3       0       0       1       0       0       000000000D      5
     406       0       0       1       3                               0D      6
     120       4       0       0       0       0       0       000010000D      7
     120       0       0       1       0                               0D      8
     110       5       0       0       0       0       0       000010000D      9
     110       0       0       2       0                               0D     10
     110       7       0       0       0       0       0       001010000D     11
     110       0       0       2       0                               0D     12
     504       9       0       0       0       0       0       000010001D     13
     504       0       0       3       1                               0D     14
     502      12       0       0       0       0       0       000010000D     15
     502       0       0       8       1                               0D     16
     110      20       0       0       0       0       0       000010000D     17
     110       0       0       2       0                               0D     18
     100      22       0       0       0       0      21       000010000D     19
     100       0       0       2       0                               0D     20
     124      24       0       0       0       0       0       000000000D     21
     124       0       0       4       0                               0D     22
     110      28       0       0       0       0       0       000010000D     23
     110       0       0       2       0                               0D     24
     100      30       0       0       0       0      27       000010000D     25
     100       0       0       2       0                               0D     26
     124      32       0       0       0       0       0       000000000D     27
     124       0       0       4       0                               0D     28
     508      36       0       0       0       0       0       000010000D     29
     508       0       0       1       1                               0D     30
     510      37       0       0       0       0       0       000010001D     31
     510       0       0       1       1                               0D     32
     116      38       0       0       0       0       0       000010000D     33
     116       0       0       1       0                               0D     34
     123      39       0       0       0       0       0       000010200D     35
     123       0       0       1       0                               0D     36
     192      40       0       0       0       0       0       000010000D     37
     192       0       0       1       1                               0D     38
     123      41       0       0       0       0       0       000010200D     39
     123       0       0       1       0                               0D     40
     110      42       0       0       0       0       0       000010000D     41
     110       0       0       2       0                               0D     42
     100      44       0       0       0       0      27       000010000D     43
     100       0       0       2       0                               0D     44
     110      46       0       0       0       0       0       000010000D     45
     110       0       0       2       0                               0D     46
     100      48       0       0       0       0      21       000010000D     47
     100       0       0       2       0                               0D     48
     508      50       0       0       0       0       0       000010000D     49
     508       0       0       1       1                               0D     50
     510      51       0       0       0       0       0       000010001D     51
     510       0       0       1       1                               0D     52
     116      52       0       0       0       0       0       000010000D     53
     116       0       0       1       0                               0D     54
     123      53       0       0       0       0       0       000010200D     55
     123       0       0       2       0                               0D     56
     190      55       0       0       0       0       0       000010000D     57
     190       0       0       1       1                               0D     58
     123      56       0       0       0       0       0       000010200D     59
     123       0       0       1       0                               0D     60
     100      57       0       0       0       0      21       000010000D     61
     100       0       0       2       0                               0D     62
     508      59       0       0       0       0       0       000010000D     63
     508       0       0       1       1                               0D     64
     100      60       0       0       0       0      21       000010000D     65
     100       0       0       2       0                               0D     66
     508      62       0       0       0       0       0       000010000D     67
     508       0       0       1       1                               0D     68
     510      63       0       0       0       0       0       000010001D     69
     510       0       0       1       1                               0D     70
     116      64       0       0       0       0       0       000010000D     71
     116       0       0       1       0                               0D     72
     123      65       0       0       0       0       0       000010200D     73
     123       0       0       1       0                               0D     74
     190      66       0       0       0       0       0       000010000D     75
     190       0       0       1       1                               0D     76
     123      67       0       0       0       0       0       000010200D     77
     123       0       0       1       0                               0D     78
     100      68       0       0       0       0      27       000010000D     79
     100       0       0       2       0                               0D     80
     508      70       0       0       0       0       0       000010000D     81
     508       0       0       1       1                               0D     82
     100      71       0       0       0       0      27       000010000D     83
     100       0       0       2       0                               0D     84
     508      73       0       0       0       0       0       000010000D     85
     508       0       0       1       1                               0D     86
     510      74       0       0       0       0       0       000010001D     87
     510       0       0       1       1                               0D     88
     116      75       0       0       0       0       0       000010000D     89
     116       0       0       1       0                               0D     90
     123      76       0       0       0       0       0       000010200D     91
     123       0       0       1       0                               0D     92
     192      77       0       0       0       0       0       000010000D     93
     192       0       0       1       1                               0D     94
     123      78       0       0       0       0       0       000010200D     95
     123       0       0       1       0                               0D     96
     508      79       0       0       0       0       0       000010000D     97
     508       0       0       1       1                               0D     98
     510      80       0       0       0       0       0       000010001D     99
     510       0       0       1       1                               0D    100
     120      81       0       0       0       0       0       000010000D    101
     120       0       0       1       0                               0D    102
     110      82       0       0       0       0       0       000010000D    103
     110       0       0       2       0                               0D    104
     110      84       0       0       0       0       0       001010000D    105
     110       0       0       2       0                               0D    106
     508      86       0       0       0       0       0       000010000D    107
     508       0       0       1       1                               0D    108
     510      87       0       0       0       0       0       000010001D    109
     510       0       0       1       1                               0D    110
     514      88       0       0       0       0       0       000010000D    111
     514       0       0       1       1                               0D    112
     186      89       0       0       1       0       0       000010000D    113
     186       0       0       1       0                               0D    114
308,0,17H305_spring1 Copy1,1,113;                                      1P      1
408,1,0.0D0,0.0D0,0.0D0,1.0D0;                                         3P      2
406,2,0,17H305_spring1 Copy1;                                          5P      3
120,11,9,0.0D0,6.28318530717959D0;                                     7P      4
110,40.6790648700642D0,179.91300962406D0,-15.7979284846614D0,          9P      5
40.681657919755D0,190.530209307409D0,-15.7979284846614D0;              9P      6
110,39.7532508413827D0,179.913235736581D0,-17.6565604911839D0,        11P      7
39.7534950724126D0,180.913235706756D0,-17.6565604911839D0;            11P      8
504,12,17,15,1,15,2,19,15,1,15,3,23,15,3,15,4,25,15,2,15,4,41,        13P      9
15,5,15,6,43,15,5,15,7,45,15,7,15,8,47,15,6,15,8,61,15,8,15,6,        13P     10
65,15,3,15,1,79,15,7,15,5,83,15,4,15,2;                               13P     11
502,8,40.6791827359592D0,180.395609609667D0,-15.7979284846614D0,      15P     12
40.6815400538599D0,190.047609321802D0,-15.7979284846614D0,            15P     13
38.8275546785962D0,180.396061834708D0,-19.5151924977063D0,            15P     14
38.8299119964969D0,190.048061546843D0,-19.5151924977063D0,            15P     15
40.9943915834297D0,190.047532913748D0,-15.1698586475949D0,            15P     16
40.992034265529D0,180.395533201613D0,-15.169858647595D0,              15P     17
38.5170604669272D0,190.048137954896D0,-20.1432623347727D0,            15P     18
38.5147031490265D0,180.396138242762D0,-20.1432623347728D0;            15P     19
110,40.6791827359592D0,180.395609609667D0,-15.7979284846614D0,        17P     20
40.6815400538599D0,190.047609321802D0,-15.7979284846614D0;            17P     21
100,0.0D0,0.0D0,0.0D0,-2.07645D0,-2.51209533477054D-15,               19P     22
2.07645D0,3.17993258995475D-15;                                       19P     23
124,-.445863867986951D0,.89510074939915D0,-2.44231029909366D-4,       21P     24
39.7533687072777D0,1.0889379492579D-4,-2.18611384418217D-4,           21P     25
-.999999970175602D0,180.395835722187D0,-.895100776094992D0,           21P     26
-.445863881284573D0,-3.03294875791167D-16,-17.6565604911839D0;        21P     27
110,38.8275546785962D0,180.396061834708D0,-19.5151924977063D0,        23P     28
38.8299119964969D0,190.048061546843D0,-19.5151924977063D0;            23P     29
100,0.0D0,0.0D0,0.0D0,-2.07645D0,-8.96699861332268D-15,               25P     30
2.07645D0,-6.04135780797688D-15;                                      25P     31
124,-.445863867986951D0,.89510074939915D0,-2.44231029909366D-4,       27P     32
39.7557260251784D0,1.0889379492579D-4,-2.18611384418217D-4,           27P     33
-.999999970175602D0,190.047835434322D0,-.895100776094992D0,           27P     34
-.445863881284573D0,-3.03294875791167D-16,-17.6565604911838D0;        27P     35
508,4,0,13,1,0,0,0,13,2,1,0,0,13,3,1,0,0,13,4,0,0;                    29P     36
510,7,1,1,29;                                                         31P     37
116,39.7533687072777D0,180.395835722187D0,-17.6565604911839D0,0;      33P     38
123,2.44231029909366D-4,.999999970175602D0,3.03294875791167D-16;      35P     39
192,33,35,2.778125D0,39;                                              37P     40
123,.44586386798695D0,-1.0889379492579D-4,.895100776094992D0;         39P     41
110,40.9943915834297D0,190.047532913748D0,-15.1698586475949D0,        41P     42
40.992034265529D0,180.395533201613D0,-15.169858647595D0;              41P     43
100,0.0D0,0.0D0,0.0D0,-2.778125D0,-3.36098381945599D-15,              43P     44
2.778125D0,-5.61538572223507D-15;                                     43P     45
110,38.5170604669272D0,190.048137954896D0,-20.1432623347728D0,        45P     46
38.5147031490265D0,180.396138242762D0,-20.1432623347728D0;            45P     47
100,0.0D0,0.0D0,0.0D0,-2.778125D0,2.80769286111753D-15,               47P     48
2.778125D0,4.25449696668257D-15;                                      47P     49
508,4,0,13,5,0,0,0,13,6,1,0,0,13,7,1,0,0,13,8,0,0;                    49P     50
510,37,1,1,49;                                                        51P     51
116,39.7533687072777D0,180.395835722187D0,-17.6565604911839D0,0;      53P     52
123,-2.44231029909366D-4,-.999999970175602D0,                         55P     53
-3.03294875791167D-16;                                                55P     54
190,53,55,59;                                                         57P     55
123,-.44586386798695D0,1.0889379492579D-4,-.895100776094992D0;        59P     56
100,0.0D0,0.0D0,0.0D0,2.778125D0,4.24607231015246D-15,                61P     57
-2.778125D0,2.80769286111753D-15;                                     61P     58
508,2,0,13,9,1,0,0,13,8,1,0;                                          63P     59
100,0.0D0,0.0D0,0.0D0,2.07645D0,4.01005210079158D-15,-2.07645D0,      65P     60
-2.51209533477054D-15;                                                65P     61
508,2,0,13,10,0,0,0,13,2,0,0;                                         67P     62
510,57,2,1,63,67;                                                     69P     63
116,39.7557260251784D0,190.047835434322D0,-17.6565604911838D0,0;      71P     64
123,2.44231029909366D-4,.999999970175602D0,3.03294875791167D-16;      73P     65
190,71,73,77;                                                         75P     66
123,.44586386798695D0,-1.0889379492579D-4,.895100776094992D0;         77P     67
100,0.0D0,0.0D0,0.0D0,2.778125D0,-4.62072574928355D-15,               79P     68
-2.778125D0,-3.36098381945599D-15;                                    79P     69
508,2,0,13,11,0,0,0,13,6,0,0;                                         81P     70
100,0.0D0,0.0D0,0.0D0,2.07645D0,-5.01256512598947D-15,                83P     71
-2.07645D0,-8.96699861332268D-15;                                     83P     72
508,2,0,13,12,1,0,0,13,4,1,0;                                         85P     73
510,75,2,1,81,85;                                                     87P     74
116,39.7533687072777D0,180.395835722187D0,-17.6565604911839D0,0;      89P     75
123,2.44231029909366D-4,.999999970175602D0,3.03294875791167D-16;      91P     76
192,89,91,2.778125D0,95;                                              93P     77
123,.44586386798695D0,-1.0889379492579D-4,.895100776094992D0;         95P     78
508,4,0,13,5,1,0,0,13,9,0,0,0,13,7,0,0,0,13,11,1,0;                   97P     79
510,93,1,1,97;                                                        99P     80
120,105,103,0.0D0,6.28318530717959D0;                                101P     81
110,40.6790648700642D0,179.91300962406D0,-15.7979284846614D0,        103P     82
40.681657919755D0,190.530209307409D0,-15.7979284846614D0;            103P     83
110,39.7532508413827D0,179.913235736581D0,-17.6565604911839D0,       105P     84
39.7534950724126D0,180.913235706756D0,-17.6565604911839D0;           105P     85
508,4,0,13,1,1,0,0,13,12,0,0,0,13,3,0,0,0,13,10,1,0;                 107P     86
510,101,1,1,107;                                                     109P     87
514,6,31,1,51,1,69,1,87,1,99,1,109,1;                                111P     88
186,111,1,0;                                                         113P     89
S      1G      2D    114P     89                                        T      1
