                                                                        S      1
,,23HNo Product Id specified,,,,32,38,6,99,15,36HNo Product Id for ReceiG      1
ver specified,1.0D0,2,2HMM,1,.08D0,,.001D0,10000.0D0,,,11,0,,;          G      2
     308       1       0       0       0       0       0       000010001D      1
     308       0       0       1       0                               0D      2
     408       2       0       0       0       0       0       000000001D      3
     408       0       0       1       0                               0D      4
     406       3       0       0       1       0       0       000000000D      5
     406       0       0       1       3                               0D      6
     120       4       0       0       0       0       0       000010000D      7
     120       0       0       1       0                               0D      8
     110       5       0       0       0       0       0       000010000D      9
     110       0       0       2       0                               0D     10
     110       7       0       0       0       0       0       001010000D     11
     110       0       0       2       0                               0D     12
     504       9       0       0       0       0       0       000010001D     13
     504       0       0       3       1                               0D     14
     502      12       0       0       0       0       0       000010000D     15
     502       0       0       8       1                               0D     16
     110      20       0       0       0       0       0       000010000D     17
     110       0       0       2       0                               0D     18
     100      22       0       0       0       0      21       000010000D     19
     100       0       0       2       0                               0D     20
     124      24       0       0       0       0       0       000000000D     21
     124       0       0       2       0                               0D     22
     110      26       0       0       0       0       0       000010000D     23
     110       0       0       2       0                               0D     24
     100      28       0       0       0       0      27       000010000D     25
     100       0       0       2       0                               0D     26
     124      30       0       0       0       0       0       000000000D     27
     124       0       0       2       0                               0D     28
     508      32       0       0       0       0       0       000010000D     29
     508       0       0       1       1                               0D     30
     510      33       0       0       0       0       0       000010001D     31
     510       0       0       1       1                               0D     32
     116      34       0       0       0       0       0       000010000D     33
     116       0       0       1       0                               0D     34
     123      35       0       0       0       0       0       000010200D     35
     123       0       0       1       0                               0D     36
     192      36       0       0       0       0       0       000010000D     37
     192       0       0       1       1                               0D     38
     123      37       0       0       0       0       0       000010200D     39
     123       0       0       1       0                               0D     40
     110      38       0       0       0       0       0       000010000D     41
     110       0       0       2       0                               0D     42
     100      40       0       0       0       0      27       000010000D     43
     100       0       0       2       0                               0D     44
     110      42       0       0       0       0       0       000010000D     45
     110       0       0       2       0                               0D     46
     100      44       0       0       0       0      21       000010000D     47
     100       0       0       2       0                               0D     48
     508      46       0       0       0       0       0       000010000D     49
     508       0       0       1       1                               0D     50
     510      47       0       0       0       0       0       000010001D     51
     510       0       0       1       1                               0D     52
     116      48       0       0       0       0       0       000010000D     53
     116       0       0       1       0                               0D     54
     123      49       0       0       0       0       0       000010200D     55
     123       0       0       1       0                               0D     56
     190      50       0       0       0       0       0       000010000D     57
     190       0       0       1       1                               0D     58
     123      51       0       0       0       0       0       000010200D     59
     123       0       0       1       0                               0D     60
     100      52       0       0       0       0      21       000010000D     61
     100       0       0       1       0                               0D     62
     508      53       0       0       0       0       0       000010000D     63
     508       0       0       1       1                               0D     64
     100      54       0       0       0       0      21       000010000D     65
     100       0       0       1       0                               0D     66
     508      55       0       0       0       0       0       000010000D     67
     508       0       0       1       1                               0D     68
     510      56       0       0       0       0       0       000010001D     69
     510       0       0       1       1                               0D     70
     116      57       0       0       0       0       0       000010000D     71
     116       0       0       1       0                               0D     72
     123      58       0       0       0       0       0       000010200D     73
     123       0       0       1       0                               0D     74
     190      59       0       0       0       0       0       000010000D     75
     190       0       0       1       1                               0D     76
     123      60       0       0       0       0       0       000010200D     77
     123       0       0       1       0                               0D     78
     100      61       0       0       0       0      27       000010000D     79
     100       0       0       1       0                               0D     80
     508      62       0       0       0       0       0       000010000D     81
     508       0       0       1       1                               0D     82
     100      63       0       0       0       0      27       000010000D     83
     100       0       0       1       0                               0D     84
     508      64       0       0       0       0       0       000010000D     85
     508       0       0       1       1                               0D     86
     510      65       0       0       0       0       0       000010001D     87
     510       0       0       1       1                               0D     88
     116      66       0       0       0       0       0       000010000D     89
     116       0       0       1       0                               0D     90
     123      67       0       0       0       0       0       000010200D     91
     123       0       0       1       0                               0D     92
     192      68       0       0       0       0       0       000010000D     93
     192       0       0       1       1                               0D     94
     123      69       0       0       0       0       0       000010200D     95
     123       0       0       1       0                               0D     96
     508      70       0       0       0       0       0       000010000D     97
     508       0       0       1       1                               0D     98
     510      71       0       0       0       0       0       000010001D     99
     510       0       0       1       1                               0D    100
     120      72       0       0       0       0       0       000010000D    101
     120       0       0       1       0                               0D    102
     110      73       0       0       0       0       0       000010000D    103
     110       0       0       2       0                               0D    104
     110      75       0       0       0       0       0       001010000D    105
     110       0       0       2       0                               0D    106
     508      77       0       0       0       0       0       000010000D    107
     508       0       0       1       1                               0D    108
     510      78       0       0       0       0       0       000010001D    109
     510       0       0       1       1                               0D    110
     514      79       0       0       0       0       0       000010000D    111
     514       0       0       1       1                               0D    112
     186      80       0       0       1       0       0       000010000D    113
     186       0       0       1       0                               0D    114
308,0,24H506_sp_501_cooler1 Copy1,1,113;                               1P      1
408,1,0.0D0,0.0D0,0.0D0,1.0D0;                                         3P      2
406,2,0,24H506_sp_501_cooler1 Copy1;                                   5P      3
120,11,9,0.0D0,6.28318530717959D0;                                     7P      4
110,61.3271714606733D0,156.94507849686D0,47.0034395088162D0,           9P      5
61.3271714606733D0,151.44507849686D0,47.0034395088162D0;               9P      6
110,61.3271714606733D0,156.94507849686D0,49.6534395088162D0,          11P      7
61.3271714606733D0,155.94507849686D0,49.6534395088162D0;              11P      8
504,12,17,15,1,15,2,19,15,1,15,3,23,15,3,15,4,25,15,2,15,4,41,        13P      9
15,5,15,6,43,15,5,15,7,45,15,7,15,8,47,15,6,15,8,61,15,8,15,6,        13P     10
65,15,3,15,1,79,15,7,15,5,83,15,4,15,2;                               13P     11
502,8,61.3271714606733D0,156.69507849686D0,47.0034395088162D0,        15P     12
61.3271714606733D0,151.69507849686D0,47.0034395088162D0,              15P     13
61.3271714606733D0,156.69507849686D0,52.3034395088162D0,              15P     14
61.3271714606733D0,151.69507849686D0,52.3034395088162D0,              15P     15
61.3271714606733D0,151.69507849686D0,44.6534395088162D0,              15P     16
61.3271714606733D0,156.69507849686D0,44.6534395088162D0,              15P     17
61.3271714606733D0,151.69507849686D0,54.6534395088162D0,              15P     18
61.3271714606733D0,156.69507849686D0,54.6534395088162D0;              15P     19
110,61.3271714606733D0,156.69507849686D0,47.0034395088162D0,          17P     20
61.3271714606733D0,151.69507849686D0,47.0034395088162D0;              17P     21
100,0.0D0,0.0D0,0.0D0,-2.65D0,3.24531401774049D-16,2.65D0,            19P     22
-6.49062803548097D-16;                                                19P     23
124,0.0D0,1.0D0,0.0D0,61.3271714606733D0,0.0D0,0.0D0,1.0D0,           21P     24
156.69507849686D0,1.0D0,0.0D0,0.0D0,49.6534395088162D0;               21P     25
110,61.3271714606733D0,156.69507849686D0,52.3034395088162D0,          23P     26
61.3271714606733D0,151.69507849686D0,52.3034395088162D0;              23P     27
100,0.0D0,0.0D0,0.0D0,-2.65D0,3.24531401774049D-16,2.65D0,            25P     28
-6.49062803548097D-16;                                                25P     29
124,0.0D0,1.0D0,0.0D0,61.3271714606733D0,0.0D0,0.0D0,1.0D0,           27P     30
151.69507849686D0,1.0D0,0.0D0,0.0D0,49.6534395088162D0;               27P     31
508,4,0,13,1,0,0,0,13,2,1,0,0,13,3,1,0,0,13,4,0,0;                    29P     32
510,7,1,1,29;                                                         31P     33
116,61.3271714606733D0,156.69507849686D0,49.6534395088162D0,0;        33P     34
123,0.0D0,-1.0D0,0.0D0;                                               35P     35
192,33,35,5.0D0,39;                                                   37P     36
123,0.0D0,0.0D0,-1.0D0;                                               39P     37
110,61.3271714606733D0,151.69507849686D0,44.6534395088162D0,          41P     38
61.3271714606733D0,156.69507849686D0,44.6534395088162D0;              41P     39
100,0.0D0,0.0D0,0.0D0,-5.0D0,6.12323399573677D-16,5.0D0,              43P     40
-1.22464679914735D-15;                                                43P     41
110,61.3271714606733D0,151.69507849686D0,54.6534395088162D0,          45P     42
61.3271714606733D0,156.69507849686D0,54.6534395088162D0;              45P     43
100,0.0D0,0.0D0,0.0D0,-5.0D0,6.12323399573677D-16,5.0D0,              47P     44
-1.22464679914735D-15;                                                47P     45
508,4,0,13,5,0,0,0,13,6,1,0,0,13,7,1,0,0,13,8,0,0;                    49P     46
510,37,1,1,49;                                                        51P     47
116,61.3271714606733D0,156.69507849686D0,49.6534395088162D0,0;        53P     48
123,0.0D0,1.0D0,0.0D0;                                                55P     49
190,53,55,59;                                                         57P     50
123,0.0D0,0.0D0,1.0D0;                                                59P     51
100,0.0D0,0.0D0,0.0D0,5.0D0,0.0D0,-5.0D0,6.12323399573677D-16;        61P     52
508,2,0,13,9,1,0,0,13,8,1,0;                                          63P     53
100,0.0D0,0.0D0,0.0D0,2.65D0,0.0D0,-2.65D0,3.24531401774049D-16;      65P     54
508,2,0,13,10,0,0,0,13,2,0,0;                                         67P     55
510,57,2,1,63,67;                                                     69P     56
116,61.3271714606733D0,151.69507849686D0,49.6534395088162D0,0;        71P     57
123,0.0D0,-1.0D0,0.0D0;                                               73P     58
190,71,73,77;                                                         75P     59
123,0.0D0,0.0D0,-1.0D0;                                               77P     60
100,0.0D0,0.0D0,0.0D0,5.0D0,0.0D0,-5.0D0,6.12323399573677D-16;        79P     61
508,2,0,13,11,0,0,0,13,6,0,0;                                         81P     62
100,0.0D0,0.0D0,0.0D0,2.65D0,0.0D0,-2.65D0,3.24531401774049D-16;      83P     63
508,2,0,13,12,1,0,0,13,4,1,0;                                         85P     64
510,75,2,1,81,85;                                                     87P     65
116,61.3271714606733D0,156.69507849686D0,49.6534395088162D0,0;        89P     66
123,0.0D0,-1.0D0,0.0D0;                                               91P     67
192,89,91,5.0D0,95;                                                   93P     68
123,0.0D0,0.0D0,-1.0D0;                                               95P     69
508,4,0,13,5,1,0,0,13,9,0,0,0,13,7,0,0,0,13,11,1,0;                   97P     70
510,93,1,1,97;                                                        99P     71
120,105,103,0.0D0,6.28318530717959D0;                                101P     72
110,61.3271714606733D0,156.94507849686D0,47.0034395088162D0,         103P     73
61.3271714606733D0,151.44507849686D0,47.0034395088162D0;             103P     74
110,61.3271714606733D0,156.94507849686D0,49.6534395088162D0,         105P     75
61.3271714606733D0,155.94507849686D0,49.6534395088162D0;             105P     76
508,4,0,13,1,1,0,0,13,12,0,0,0,13,3,0,0,0,13,10,1,0;                 107P     77
510,101,1,1,107;                                                     109P     78
514,6,31,1,51,1,69,1,87,1,99,1,109,1;                                111P     79
186,111,1,0;                                                         113P     80
S      1G      2D    114P     80                                        T      1
