                                                                        S      1
,,23HNo Product Id specified,,,,32,38,6,99,15,36HNo Product Id for ReceiG      1
ver specified,1.0D0,2,2HMM,1,.08D0,,.001D0,10000.0D0,,,11,0,,;          G      2
     308       1       0       0       0       0       0       000010001D      1
     308       0       0       1       0                               0D      2
     408       2       0       0       0       0       0       000000001D      3
     408       0       0       1       0                               0D      4
     406       3       0       0       1       0       0       000000000D      5
     406       0       0       1       3                               0D      6
     120       4       0       0       0       0       0       000010000D      7
     120       0       0       1       0                               0D      8
     110       5       0       0       0       0       0       000010000D      9
     110       0       0       2       0                               0D     10
     110       7       0       0       0       0       0       001010000D     11
     110       0       0       2       0                               0D     12
     504       9       0       0       0       0       0       000010001D     13
     504       0       0       3       1                               0D     14
     502      12       0       0       0       0       0       000010000D     15
     502       0       0       8       1                               0D     16
     110      20       0       0       0       0       0       000010000D     17
     110       0       0       2       0                               0D     18
     100      22       0       0       0       0      21       000010000D     19
     100       0       0       2       0                               0D     20
     124      24       0       0       0       0       0       000000000D     21
     124       0       0       3       0                               0D     22
     110      27       0       0       0       0       0       000010000D     23
     110       0       0       2       0                               0D     24
     100      29       0       0       0       0      27       000010000D     25
     100       0       0       2       0                               0D     26
     124      31       0       0       0       0       0       000000000D     27
     124       0       0       3       0                               0D     28
     508      34       0       0       0       0       0       000010000D     29
     508       0       0       1       1                               0D     30
     510      35       0       0       0       0       0       000010001D     31
     510       0       0       1       1                               0D     32
     116      36       0       0       0       0       0       000010000D     33
     116       0       0       1       0                               0D     34
     123      37       0       0       0       0       0       000010200D     35
     123       0       0       1       0                               0D     36
     192      38       0       0       0       0       0       000010000D     37
     192       0       0       1       1                               0D     38
     123      39       0       0       0       0       0       000010200D     39
     123       0       0       1       0                               0D     40
     110      40       0       0       0       0       0       000010000D     41
     110       0       0       2       0                               0D     42
     100      42       0       0       0       0      27       000010000D     43
     100       0       0       2       0                               0D     44
     110      44       0       0       0       0       0       000010000D     45
     110       0       0       2       0                               0D     46
     100      46       0       0       0       0      21       000010000D     47
     100       0       0       2       0                               0D     48
     508      48       0       0       0       0       0       000010000D     49
     508       0       0       1       1                               0D     50
     510      49       0       0       0       0       0       000010001D     51
     510       0       0       1       1                               0D     52
     116      50       0       0       0       0       0       000010000D     53
     116       0       0       1       0                               0D     54
     123      51       0       0       0       0       0       000010200D     55
     123       0       0       1       0                               0D     56
     190      52       0       0       0       0       0       000010000D     57
     190       0       0       1       1                               0D     58
     123      53       0       0       0       0       0       000010200D     59
     123       0       0       1       0                               0D     60
     100      54       0       0       0       0      21       000010000D     61
     100       0       0       2       0                               0D     62
     508      56       0       0       0       0       0       000010000D     63
     508       0       0       1       1                               0D     64
     100      57       0       0       0       0      21       000010000D     65
     100       0       0       2       0                               0D     66
     508      59       0       0       0       0       0       000010000D     67
     508       0       0       1       1                               0D     68
     510      60       0       0       0       0       0       000010001D     69
     510       0       0       1       1                               0D     70
     116      61       0       0       0       0       0       000010000D     71
     116       0       0       1       0                               0D     72
     123      62       0       0       0       0       0       000010200D     73
     123       0       0       1       0                               0D     74
     190      63       0       0       0       0       0       000010000D     75
     190       0       0       1       1                               0D     76
     123      64       0       0       0       0       0       000010200D     77
     123       0       0       1       0                               0D     78
     100      65       0       0       0       0      27       000010000D     79
     100       0       0       2       0                               0D     80
     508      67       0       0       0       0       0       000010000D     81
     508       0       0       1       1                               0D     82
     100      68       0       0       0       0      27       000010000D     83
     100       0       0       2       0                               0D     84
     508      70       0       0       0       0       0       000010000D     85
     508       0       0       1       1                               0D     86
     510      71       0       0       0       0       0       000010001D     87
     510       0       0       1       1                               0D     88
     116      72       0       0       0       0       0       000010000D     89
     116       0       0       1       0                               0D     90
     123      73       0       0       0       0       0       000010200D     91
     123       0       0       1       0                               0D     92
     192      74       0       0       0       0       0       000010000D     93
     192       0       0       1       1                               0D     94
     123      75       0       0       0       0       0       000010200D     95
     123       0       0       1       0                               0D     96
     508      76       0       0       0       0       0       000010000D     97
     508       0       0       1       1                               0D     98
     510      77       0       0       0       0       0       000010001D     99
     510       0       0       1       1                               0D    100
     120      78       0       0       0       0       0       000010000D    101
     120       0       0       1       0                               0D    102
     110      79       0       0       0       0       0       000010000D    103
     110       0       0       2       0                               0D    104
     110      81       0       0       0       0       0       001010000D    105
     110       0       0       2       0                               0D    106
     508      83       0       0       0       0       0       000010000D    107
     508       0       0       1       1                               0D    108
     510      84       0       0       0       0       0       000010001D    109
     510       0       0       1       1                               0D    110
     514      85       0       0       0       0       0       000010000D    111
     514       0       0       1       1                               0D    112
     186      86       0       0       1       0       0       000010000D    113
     186       0       0       1       0                               0D    114
308,0,18H612_sp_501_1 Copy1,1,113;                                     1P      1
408,1,0.0D0,0.0D0,0.0D0,1.0D0;                                         3P      2
406,2,0,18H612_sp_501_1 Copy1;                                         5P      3
120,11,9,0.0D0,6.28318530717959D0;                                     7P      4
110,42.9009268364233D0,170.658078496859D0,-27.4987779382995D0,         9P      5
42.9009268364233D0,159.658078496859D0,-27.4987779382995D0;             9P      6
110,41.5062742305386D0,170.658078496859D0,-26.9465604911839D0,        11P      7
41.5062742305386D0,169.658078496859D0,-26.9465604911839D0;            11P      8
504,12,17,15,1,15,2,19,15,1,15,3,23,15,3,15,4,25,15,2,15,4,41,        13P      9
15,5,15,6,43,15,5,15,7,45,15,7,15,8,47,15,6,15,8,61,15,8,15,6,        13P     10
65,15,3,15,1,79,15,7,15,5,83,15,4,15,2;                               13P     11
502,8,42.9009268364233D0,170.158078496859D0,-27.4987779382995D0,      15P     12
42.9009268364233D0,160.158078496859D0,-27.4987779382995D0,            15P     13
40.1116216246539D0,170.158078496859D0,-26.3943430440682D0,            15P     14
40.1116216246539D0,160.158078496859D0,-26.3943430440682D0,            15P     15
45.2253478462312D0,160.158078496859D0,-28.419140350159D0,             15P     16
45.2253478462312D0,170.158078496859D0,-28.419140350159D0,             15P     17
37.787200614846D0,160.158078496859D0,-25.4739806322087D0,             15P     18
37.787200614846D0,170.158078496859D0,-25.4739806322087D0;             15P     19
110,42.9009268364233D0,170.158078496859D0,-27.4987779382995D0,        17P     20
42.9009268364233D0,160.158078496859D0,-27.4987779382995D0;            17P     21
100,0.0D0,0.0D0,0.0D0,-1.5D0,8.49830834647197D-16,1.5D0,              19P     22
-3.03192929884458D-15;                                                19P     23
124,-.929768403923148D0,.368144964743783D0,0.0D0,                     21P     24
41.5062742305386D0,0.0D0,0.0D0,1.0D0,170.158078496859D0,              21P     25
.368144964743783D0,.929768403923148D0,0.0D0,-26.9465604911839D0;      21P     26
110,40.1116216246539D0,170.158078496859D0,-26.3943430440682D0,        23P     27
40.1116216246539D0,160.158078496859D0,-26.3943430440682D0;            23P     28
100,0.0D0,0.0D0,0.0D0,-1.5D0,8.49830834647197D-16,1.5D0,              25P     29
-3.03192929884458D-15;                                                25P     30
124,-.929768403923148D0,.368144964743783D0,0.0D0,                     27P     31
41.5062742305386D0,0.0D0,0.0D0,1.0D0,160.158078496859D0,              27P     32
.368144964743783D0,.929768403923148D0,0.0D0,-26.9465604911839D0;      27P     33
508,4,0,13,1,0,0,0,13,2,1,0,0,13,3,1,0,0,13,4,0,0;                    29P     34
510,7,1,1,29;                                                         31P     35
116,41.5062742305386D0,170.158078496859D0,-26.9465604911839D0,0;      33P     36
123,0.0D0,-1.0D0,0.0D0;                                               35P     37
192,33,35,4.0D0,39;                                                   37P     38
123,.929768403923149D0,0.0D0,-.368144964743783D0;                     39P     39
110,45.2253478462312D0,160.158078496859D0,-28.419140350159D0,         41P     40
45.2253478462312D0,170.158078496859D0,-28.419140350159D0;             41P     41
100,0.0D0,0.0D0,0.0D0,-4.0D0,4.89858719658941D-16,4.0D0,              43P     42
-4.53243111811838D-15;                                                43P     43
110,37.787200614846D0,160.158078496859D0,-25.4739806322087D0,         45P     44
37.787200614846D0,170.158078496859D0,-25.4739806322087D0;             45P     45
100,0.0D0,0.0D0,0.0D0,-4.0D0,4.89858719658941D-16,4.0D0,              47P     46
-4.53243111811838D-15;                                                47P     47
508,4,0,13,5,0,0,0,13,6,1,0,0,13,7,1,0,0,13,8,0,0;                    49P     48
510,37,1,1,49;                                                        51P     49
116,41.5062742305386D0,170.158078496859D0,-26.9465604911839D0,0;      53P     50
123,0.0D0,1.0D0,0.0D0;                                                55P     51
190,53,55,59;                                                         57P     52
123,-.929768403923149D0,0.0D0,.368144964743783D0;                     59P     53
100,0.0D0,0.0D0,0.0D0,4.0D0,-4.68375338513738D-15,-4.0D0,             61P     54
4.89858719658941D-16;                                                 61P     55
508,2,0,13,9,1,0,0,13,8,1,0;                                          63P     56
100,0.0D0,0.0D0,0.0D0,1.5D0,-2.717733445697D-15,-1.5D0,               65P     57
8.49830834647197D-16;                                                 65P     58
508,2,0,13,10,0,0,0,13,2,0,0;                                         67P     59
510,57,2,1,63,67;                                                     69P     60
116,41.5062742305386D0,160.158078496859D0,-26.9465604911839D0,0;      71P     61
123,0.0D0,-1.0D0,0.0D0;                                               73P     62
190,71,73,77;                                                         75P     63
123,.929768403923149D0,0.0D0,-.368144964743783D0;                     77P     64
100,0.0D0,0.0D0,0.0D0,4.0D0,-4.68375338513738D-15,-4.0D0,             79P     65
4.89858719658941D-16;                                                 79P     66
508,2,0,13,11,0,0,0,13,6,0,0;                                         81P     67
100,0.0D0,0.0D0,0.0D0,1.5D0,-2.717733445697D-15,-1.5D0,               83P     68
8.49830834647197D-16;                                                 83P     69
508,2,0,13,12,1,0,0,13,4,1,0;                                         85P     70
510,75,2,1,81,85;                                                     87P     71
116,41.5062742305386D0,170.158078496859D0,-26.9465604911839D0,0;      89P     72
123,0.0D0,-1.0D0,0.0D0;                                               91P     73
192,89,91,4.0D0,95;                                                   93P     74
123,.929768403923149D0,0.0D0,-.368144964743783D0;                     95P     75
508,4,0,13,5,1,0,0,13,9,0,0,0,13,7,0,0,0,13,11,1,0;                   97P     76
510,93,1,1,97;                                                        99P     77
120,105,103,0.0D0,6.28318530717959D0;                                101P     78
110,42.9009268364233D0,170.658078496859D0,-27.4987779382995D0,       103P     79
42.9009268364233D0,159.658078496859D0,-27.4987779382995D0;           103P     80
110,41.5062742305386D0,170.658078496859D0,-26.9465604911839D0,       105P     81
41.5062742305386D0,169.658078496859D0,-26.9465604911839D0;           105P     82
508,4,0,13,1,1,0,0,13,12,0,0,0,13,3,0,0,0,13,10,1,0;                 107P     83
510,101,1,1,107;                                                     109P     84
514,6,31,1,51,1,69,1,87,1,99,1,109,1;                                111P     85
186,111,1,0;                                                         113P     86
S      1G      2D    114P     86                                        T      1
