solid ascii
  facet normal 2.442310e-004 1.000000e+000 5.603765e-019
    outer loop
      vertex   3.245068e+000 1.873561e+002 1.952647e+000
      vertex   8.477875e+000 1.873548e+002 1.952647e+000
      vertex   3.245068e+000 1.873561e+002 -5.737930e+000
    endloop
  endfacet
  facet normal 2.442310e-004 1.000000e+000 3.293942e-015
    outer loop
      vertex   3.245068e+000 1.873561e+002 -5.737930e+000
      vertex   8.477875e+000 1.873548e+002 1.952647e+000
      vertex   1.312007e+001 1.873537e+002 -5.737930e+000
    endloop
  endfacet
  facet normal 2.442310e-004 1.000000e+000 7.308774e-015
    outer loop
      vertex   1.312007e+001 1.873537e+002 -5.737930e+000
      vertex   8.477875e+000 1.873548e+002 1.952647e+000
      vertex   1.312007e+001 1.873537e+002 5.928736e+000
    endloop
  endfacet
  facet normal 2.442310e-004 1.000000e+000 4.872654e-015
    outer loop
      vertex   2.299507e+001 1.873513e+002 -5.737930e+000
      vertex   1.312007e+001 1.873537e+002 5.928736e+000
      vertex   2.299507e+001 1.873513e+002 5.928736e+000
    endloop
  endfacet
  facet normal 2.442310e-004 1.000000e+000 7.308861e-015
    outer loop
      vertex   3.287007e+001 1.873489e+002 -5.737930e+000
      vertex   2.299507e+001 1.873513e+002 5.928736e+000
      vertex   3.287007e+001 1.873489e+002 5.928736e+000
    endloop
  endfacet
  facet normal 2.442310e-004 1.000000e+000 3.248597e-015
    outer loop
      vertex   4.274507e+001 1.873465e+002 3.012070e+000
      vertex   3.287007e+001 1.873489e+002 5.928736e+000
      vertex   4.274507e+001 1.873465e+002 1.176207e+001
    endloop
  endfacet
  facet normal 2.442310e-004 1.000000e+000 7.308886e-015
    outer loop
      vertex   4.274507e+001 1.873465e+002 3.012070e+000
      vertex   3.287007e+001 1.873489e+002 -5.737930e+000
      vertex   3.287007e+001 1.873489e+002 5.928736e+000
    endloop
  endfacet
  facet normal 2.442310e-004 1.000000e+000 6.496986e-015
    outer loop
      vertex   4.274507e+001 1.873465e+002 3.012070e+000
      vertex   4.274507e+001 1.873465e+002 -5.737930e+000
      vertex   3.287007e+001 1.873489e+002 -5.737930e+000
    endloop
  endfacet
  facet normal 2.442310e-004 1.000000e+000 -0.000000e+000
    outer loop
      vertex   8.477875e+000 1.873548e+002 1.952647e+000
      vertex   8.477875e+000 1.873548e+002 3.085916e+000
      vertex   1.312007e+001 1.873537e+002 5.928736e+000
    endloop
  endfacet
  facet normal 2.442310e-004 1.000000e+000 6.221636e-019
    outer loop
      vertex   1.312007e+001 1.873537e+002 5.928736e+000
      vertex   8.477875e+000 1.873548e+002 3.085916e+000
      vertex   8.477875e+000 1.873548e+002 5.177848e+000
    endloop
  endfacet
  facet normal 2.442310e-004 1.000000e+000 1.123617e-018
    outer loop
      vertex   8.477875e+000 1.873548e+002 6.341858e+000
      vertex   1.312007e+001 1.873537e+002 5.928736e+000
      vertex   8.477875e+000 1.873548e+002 5.177848e+000
    endloop
  endfacet
  facet normal 2.442310e-004 1.000000e+000 -0.000000e+000
    outer loop
      vertex   8.477875e+000 1.873548e+002 6.341858e+000
      vertex   8.477875e+000 1.873548e+002 8.170866e+000
      vertex   1.312007e+001 1.873537e+002 5.928736e+000
    endloop
  endfacet
  facet normal 2.442310e-004 1.000000e+000 0.000000e+000
    outer loop
      vertex   8.477875e+000 1.873548e+002 6.341858e+000
      vertex   3.245068e+000 1.873561e+002 8.170866e+000
      vertex   8.477875e+000 1.873548e+002 8.170866e+000
    endloop
  endfacet
  facet normal 2.442310e-004 1.000000e+000 1.186002e-018
    outer loop
      vertex   8.477875e+000 1.873548e+002 6.341858e+000
      vertex   3.245068e+000 1.873561e+002 6.341858e+000
      vertex   3.245068e+000 1.873561e+002 8.170866e+000
    endloop
  endfacet
  facet normal 2.442310e-004 1.000000e+000 -5.184697e-019
    outer loop
      vertex   3.245068e+000 1.873561e+002 3.085916e+000
      vertex   3.245068e+000 1.873561e+002 5.177848e+000
      vertex   8.477875e+000 1.873548e+002 3.085916e+000
    endloop
  endfacet
  facet normal 2.442310e-004 1.000000e+000 6.338811e-019
    outer loop
      vertex   8.477875e+000 1.873548e+002 3.085916e+000
      vertex   3.245068e+000 1.873561e+002 5.177848e+000
      vertex   8.477875e+000 1.873548e+002 5.177848e+000
    endloop
  endfacet
  facet normal 2.442310e-004 1.000000e+000 6.598609e-019
    outer loop
      vertex   8.477875e+000 1.873548e+002 8.170866e+000
      vertex   8.477875e+000 1.873548e+002 9.485815e+000
      vertex   1.312007e+001 1.873537e+002 5.928736e+000
    endloop
  endfacet
  facet normal 2.442310e-004 1.000000e+000 3.986147e-019
    outer loop
      vertex   1.312007e+001 1.873537e+002 5.928736e+000
      vertex   8.477875e+000 1.873548e+002 9.485815e+000
      vertex   8.477875e+000 1.873548e+002 1.166256e+001
    endloop
  endfacet
  facet normal 2.442310e-004 1.000000e+000 9.967699e-019
    outer loop
      vertex   1.312007e+001 1.873537e+002 1.759540e+001
      vertex   8.477875e+000 1.873548e+002 1.166256e+001
      vertex   8.477875e+000 1.873548e+002 1.296830e+001
    endloop
  endfacet
  facet normal 2.442310e-004 1.000000e+000 3.458780e-019
    outer loop
      vertex   3.245068e+000 1.873561e+002 2.111519e+001
      vertex   8.477875e+000 1.873548e+002 1.296830e+001
      vertex   3.245068e+000 1.873561e+002 1.296830e+001
    endloop
  endfacet
  facet normal 2.442310e-004 1.000000e+000 3.160539e-015
    outer loop
      vertex   3.245068e+000 1.873561e+002 2.111519e+001
      vertex   1.312007e+001 1.873537e+002 1.759540e+001
      vertex   8.477875e+000 1.873548e+002 1.296830e+001
    endloop
  endfacet
  facet normal 2.442310e-004 1.000000e+000 4.090505e-019
    outer loop
      vertex   3.245068e+000 1.873561e+002 2.111519e+001
      vertex   1.312007e+001 1.873537e+002 2.926207e+001
      vertex   1.312007e+001 1.873537e+002 1.759540e+001
    endloop
  endfacet
  facet normal 2.442310e-004 1.000000e+000 3.488980e-015
    outer loop
      vertex   3.245068e+000 1.873561e+002 2.111519e+001
      vertex   3.245068e+000 1.873561e+002 2.926207e+001
      vertex   1.312007e+001 1.873537e+002 2.926207e+001
    endloop
  endfacet
  facet normal 2.442310e-004 1.000000e+000 4.982684e-019
    outer loop
      vertex   3.245068e+000 1.873561e+002 9.485815e+000
      vertex   3.245068e+000 1.873561e+002 1.166256e+001
      vertex   8.477875e+000 1.873548e+002 9.485815e+000
    endloop
  endfacet
  facet normal 2.442310e-004 1.000000e+000 3.807394e-019
    outer loop
      vertex   8.477875e+000 1.873548e+002 9.485815e+000
      vertex   3.245068e+000 1.873561e+002 1.166256e+001
      vertex   8.477875e+000 1.873548e+002 1.166256e+001
    endloop
  endfacet
  facet normal 2.442310e-004 1.000000e+000 3.683479e-019
    outer loop
      vertex   1.312007e+001 1.873537e+002 5.928736e+000
      vertex   8.477875e+000 1.873548e+002 1.166256e+001
      vertex   1.312007e+001 1.873537e+002 1.759540e+001
    endloop
  endfacet
  facet normal 2.442310e-004 1.000000e+000 3.011455e-019
    outer loop
      vertex   2.299507e+001 1.873513e+002 5.928736e+000
      vertex   1.312007e+001 1.873537e+002 1.759540e+001
      vertex   2.299507e+001 1.873513e+002 1.759540e+001
    endloop
  endfacet
  facet normal 2.442310e-004 1.000000e+000 2.710309e-019
    outer loop
      vertex   3.287007e+001 1.873489e+002 5.928736e+000
      vertex   2.299507e+001 1.873513e+002 1.759540e+001
      vertex   3.287007e+001 1.873489e+002 1.759540e+001
    endloop
  endfacet
  facet normal 2.442310e-004 1.000000e+000 4.015273e-019
    outer loop
      vertex   4.274507e+001 1.873465e+002 1.176207e+001
      vertex   3.287007e+001 1.873489e+002 1.759540e+001
      vertex   4.274507e+001 1.873465e+002 2.051207e+001
    endloop
  endfacet
  facet normal 2.442310e-004 1.000000e+000 2.974913e-019
    outer loop
      vertex   4.274507e+001 1.873465e+002 1.176207e+001
      vertex   3.287007e+001 1.873489e+002 5.928736e+000
      vertex   3.287007e+001 1.873489e+002 1.759540e+001
    endloop
  endfacet
  facet normal 2.442310e-004 1.000000e+000 4.090505e-019
    outer loop
      vertex   1.312007e+001 1.873537e+002 1.759540e+001
      vertex   1.312007e+001 1.873537e+002 2.926207e+001
      vertex   2.299507e+001 1.873513e+002 1.759540e+001
    endloop
  endfacet
  facet normal 2.442310e-004 1.000000e+000 5.119473e-019
    outer loop
      vertex   2.299507e+001 1.873513e+002 1.759540e+001
      vertex   1.312007e+001 1.873537e+002 2.926207e+001
      vertex   2.299507e+001 1.873513e+002 2.926207e+001
    endloop
  endfacet
  facet normal 2.442310e-004 1.000000e+000 6.022910e-019
    outer loop
      vertex   3.287007e+001 1.873489e+002 1.759540e+001
      vertex   2.299507e+001 1.873513e+002 2.926207e+001
      vertex   3.287007e+001 1.873489e+002 2.926207e+001
    endloop
  endfacet
  facet normal 2.442310e-004 1.000000e+000 3.613746e-019
    outer loop
      vertex   4.274507e+001 1.873465e+002 2.051207e+001
      vertex   3.287007e+001 1.873489e+002 2.926207e+001
      vertex   4.274507e+001 1.873465e+002 2.926207e+001
    endloop
  endfacet
  facet normal 2.442310e-004 1.000000e+000 5.949826e-019
    outer loop
      vertex   4.274507e+001 1.873465e+002 2.051207e+001
      vertex   3.287007e+001 1.873489e+002 1.759540e+001
      vertex   3.287007e+001 1.873489e+002 2.926207e+001
    endloop
  endfacet
  facet normal 2.442310e-004 1.000000e+000 5.206098e-019
    outer loop
      vertex   2.299507e+001 1.873513e+002 1.759540e+001
      vertex   2.299507e+001 1.873513e+002 2.926207e+001
      vertex   3.287007e+001 1.873489e+002 1.759540e+001
    endloop
  endfacet
  facet normal 2.442310e-004 1.000000e+000 4.872665e-015
    outer loop
      vertex   3.287007e+001 1.873489e+002 -5.737930e+000
      vertex   2.299507e+001 1.873513e+002 -5.737930e+000
      vertex   2.299507e+001 1.873513e+002 5.928736e+000
    endloop
  endfacet
  facet normal 2.442310e-004 1.000000e+000 7.308774e-015
    outer loop
      vertex   2.299507e+001 1.873513e+002 -5.737930e+000
      vertex   1.312007e+001 1.873537e+002 -5.737930e+000
      vertex   1.312007e+001 1.873537e+002 5.928736e+000
    endloop
  endfacet
  facet normal 2.442310e-004 1.000000e+000 3.718641e-019
    outer loop
      vertex   2.299507e+001 1.873513e+002 5.928736e+000
      vertex   1.312007e+001 1.873537e+002 5.928736e+000
      vertex   1.312007e+001 1.873537e+002 1.759540e+001
    endloop
  endfacet
  facet normal 2.442310e-004 1.000000e+000 2.974913e-019
    outer loop
      vertex   3.287007e+001 1.873489e+002 5.928736e+000
      vertex   2.299507e+001 1.873513e+002 5.928736e+000
      vertex   2.299507e+001 1.873513e+002 1.759540e+001
    endloop
  endfacet
  facet normal -1.000000e+000 2.442310e-004 -2.309783e-015
    outer loop
      vertex   3.245068e+000 1.873561e+002 -5.737930e+000
      vertex   3.244945e+000 1.868561e+002 -5.737930e+000
      vertex   3.245068e+000 1.873561e+002 1.952647e+000
    endloop
  endfacet
  facet normal -1.000000e+000 2.442310e-004 -1.421085e-015
    outer loop
      vertex   3.245068e+000 1.873561e+002 1.952647e+000
      vertex   3.244945e+000 1.868561e+002 -5.737930e+000
      vertex   3.244945e+000 1.868561e+002 3.012070e+000
    endloop
  endfacet
  facet normal -1.000000e+000 2.442310e-004 2.122866e-015
    outer loop
      vertex   3.245068e+000 1.873561e+002 3.085916e+000
      vertex   3.244945e+000 1.868561e+002 3.012070e+000
      vertex   3.245068e+000 1.873561e+002 5.177848e+000
    endloop
  endfacet
  facet normal -1.000000e+000 2.442310e-004 0.000000e+000
    outer loop
      vertex   3.245068e+000 1.873561e+002 3.085916e+000
      vertex   3.245068e+000 1.873561e+002 1.952647e+000
      vertex   3.244945e+000 1.868561e+002 3.012070e+000
    endloop
  endfacet
  facet normal -1.000000e+000 2.442310e-004 -1.471839e-015
    outer loop
      vertex   3.244945e+000 1.868561e+002 1.176207e+001
      vertex   3.245068e+000 1.873561e+002 8.170866e+000
      vertex   3.244945e+000 1.868561e+002 3.012070e+000
    endloop
  endfacet
  facet normal -1.000000e+000 2.442310e-004 3.377237e-015
    outer loop
      vertex   3.244945e+000 1.868561e+002 1.176207e+001
      vertex   3.245068e+000 1.873561e+002 9.485815e+000
      vertex   3.245068e+000 1.873561e+002 8.170866e+000
    endloop
  endfacet
  facet normal -1.000000e+000 2.442310e-004 -2.040152e-015
    outer loop
      vertex   3.244945e+000 1.868561e+002 1.176207e+001
      vertex   3.245068e+000 1.873561e+002 1.166256e+001
      vertex   3.245068e+000 1.873561e+002 9.485815e+000
    endloop
  endfacet
  facet normal -1.000000e+000 2.442310e-004 -3.401048e-015
    outer loop
      vertex   3.244945e+000 1.868561e+002 1.176207e+001
      vertex   3.245068e+000 1.873561e+002 1.296830e+001
      vertex   3.245068e+000 1.873561e+002 1.166256e+001
    endloop
  endfacet
  facet normal -1.000000e+000 2.442310e-004 -1.420292e-015
    outer loop
      vertex   3.244945e+000 1.868561e+002 1.176207e+001
      vertex   3.244945e+000 1.868561e+002 2.051207e+001
      vertex   3.245068e+000 1.873561e+002 1.296830e+001
    endloop
  endfacet
  facet normal -1.000000e+000 2.442310e-004 -1.417268e-015
    outer loop
      vertex   3.245068e+000 1.873561e+002 1.296830e+001
      vertex   3.244945e+000 1.868561e+002 2.051207e+001
      vertex   3.245068e+000 1.873561e+002 2.111519e+001
    endloop
  endfacet
  facet normal -1.000000e+000 2.442310e-004 -1.777150e-015
    outer loop
      vertex   3.245068e+000 1.873561e+002 2.111519e+001
      vertex   3.244945e+000 1.868561e+002 2.051207e+001
      vertex   3.244945e+000 1.868561e+002 2.926207e+001
    endloop
  endfacet
  facet normal -1.000000e+000 2.442310e-004 -1.307396e-015
    outer loop
      vertex   3.245068e+000 1.873561e+002 2.926207e+001
      vertex   3.245068e+000 1.873561e+002 2.111519e+001
      vertex   3.244945e+000 1.868561e+002 2.926207e+001
    endloop
  endfacet
  facet normal -1.000000e+000 2.442310e-004 -4.856066e-015
    outer loop
      vertex   3.245068e+000 1.873561e+002 8.170866e+000
      vertex   3.245068e+000 1.873561e+002 6.341858e+000
      vertex   3.244945e+000 1.868561e+002 3.012070e+000
    endloop
  endfacet
  facet normal -1.000000e+000 2.442310e-004 -3.815166e-015
    outer loop
      vertex   3.244945e+000 1.868561e+002 3.012070e+000
      vertex   3.245068e+000 1.873561e+002 6.341858e+000
      vertex   3.245068e+000 1.873561e+002 5.177848e+000
    endloop
  endfacet
  facet normal -1.798842e-015 4.393331e-019 1.000000e+000
    outer loop
      vertex   3.244945e+000 1.868561e+002 2.926207e+001
      vertex   1.311995e+001 1.868537e+002 2.926207e+001
      vertex   3.245068e+000 1.873561e+002 2.926207e+001
    endloop
  endfacet
  facet normal -1.798842e-015 4.393331e-019 1.000000e+000
    outer loop
      vertex   3.245068e+000 1.873561e+002 2.926207e+001
      vertex   1.311995e+001 1.868537e+002 2.926207e+001
      vertex   1.312007e+001 1.873537e+002 2.926207e+001
    endloop
  endfacet
  facet normal -2.158611e-015 5.271997e-019 1.000000e+000
    outer loop
      vertex   1.312007e+001 1.873537e+002 2.926207e+001
      vertex   1.311995e+001 1.868537e+002 2.926207e+001
      vertex   2.299494e+001 1.868513e+002 2.926207e+001
    endloop
  endfacet
  facet normal -1.798842e-015 4.393331e-019 1.000000e+000
    outer loop
      vertex   2.299507e+001 1.873513e+002 2.926207e+001
      vertex   2.299494e+001 1.868513e+002 2.926207e+001
      vertex   3.286994e+001 1.868489e+002 2.926207e+001
    endloop
  endfacet
  facet normal -1.439074e-015 3.514665e-019 1.000000e+000
    outer loop
      vertex   3.287007e+001 1.873489e+002 2.926207e+001
      vertex   3.286994e+001 1.868489e+002 2.926207e+001
      vertex   4.274494e+001 1.868465e+002 2.926207e+001
    endloop
  endfacet
  facet normal -1.439074e-015 3.514665e-019 1.000000e+000
    outer loop
      vertex   4.274507e+001 1.873465e+002 2.926207e+001
      vertex   3.287007e+001 1.873489e+002 2.926207e+001
      vertex   4.274494e+001 1.868465e+002 2.926207e+001
    endloop
  endfacet
  facet normal -2.158611e-015 5.271997e-019 1.000000e+000
    outer loop
      vertex   1.312007e+001 1.873537e+002 2.926207e+001
      vertex   2.299494e+001 1.868513e+002 2.926207e+001
      vertex   2.299507e+001 1.873513e+002 2.926207e+001
    endloop
  endfacet
  facet normal -1.798842e-015 4.393331e-019 1.000000e+000
    outer loop
      vertex   2.299507e+001 1.873513e+002 2.926207e+001
      vertex   3.286994e+001 1.868489e+002 2.926207e+001
      vertex   3.287007e+001 1.873489e+002 2.926207e+001
    endloop
  endfacet
  facet normal 1.000000e+000 -2.442310e-004 1.624098e-015
    outer loop
      vertex   4.274494e+001 1.868465e+002 2.926207e+001
      vertex   4.274494e+001 1.868465e+002 2.051207e+001
      vertex   4.274507e+001 1.873465e+002 2.926207e+001
    endloop
  endfacet
  facet normal 1.000000e+000 -2.442310e-004 1.624098e-015
    outer loop
      vertex   4.274507e+001 1.873465e+002 2.926207e+001
      vertex   4.274494e+001 1.868465e+002 2.051207e+001
      vertex   4.274507e+001 1.873465e+002 2.051207e+001
    endloop
  endfacet
  facet normal 1.000000e+000 -2.442310e-004 1.624098e-015
    outer loop
      vertex   4.274507e+001 1.873465e+002 2.051207e+001
      vertex   4.274494e+001 1.868465e+002 2.051207e+001
      vertex   4.274494e+001 1.868465e+002 1.176207e+001
    endloop
  endfacet
  facet normal 1.000000e+000 -2.442310e-004 1.623304e-015
    outer loop
      vertex   4.274507e+001 1.873465e+002 1.176207e+001
      vertex   4.274494e+001 1.868465e+002 1.176207e+001
      vertex   4.274494e+001 1.868465e+002 3.012070e+000
    endloop
  endfacet
  facet normal 1.000000e+000 -2.442310e-004 2.434560e-015
    outer loop
      vertex   4.274507e+001 1.873465e+002 3.012070e+000
      vertex   4.274494e+001 1.868465e+002 3.012070e+000
      vertex   4.274494e+001 1.868465e+002 -5.737930e+000
    endloop
  endfacet
  facet normal 1.000000e+000 -2.442310e-004 2.434560e-015
    outer loop
      vertex   4.274507e+001 1.873465e+002 -5.737930e+000
      vertex   4.274507e+001 1.873465e+002 3.012070e+000
      vertex   4.274494e+001 1.868465e+002 -5.737930e+000
    endloop
  endfacet
  facet normal 1.000000e+000 -2.442310e-004 1.624098e-015
    outer loop
      vertex   4.274507e+001 1.873465e+002 2.051207e+001
      vertex   4.274494e+001 1.868465e+002 1.176207e+001
      vertex   4.274507e+001 1.873465e+002 1.176207e+001
    endloop
  endfacet
  facet normal 1.000000e+000 -2.442310e-004 1.623302e-015
    outer loop
      vertex   4.274507e+001 1.873465e+002 1.176207e+001
      vertex   4.274494e+001 1.868465e+002 3.012070e+000
      vertex   4.274507e+001 1.873465e+002 3.012070e+000
    endloop
  endfacet
  facet normal 1.978727e-015 -4.832664e-019 -1.000000e+000
    outer loop
      vertex   4.274494e+001 1.868465e+002 -5.737930e+000
      vertex   3.286994e+001 1.868489e+002 -5.737930e+000
      vertex   4.274507e+001 1.873465e+002 -5.737930e+000
    endloop
  endfacet
  facet normal 1.978727e-015 -4.832664e-019 -1.000000e+000
    outer loop
      vertex   4.274507e+001 1.873465e+002 -5.737930e+000
      vertex   3.286994e+001 1.868489e+002 -5.737930e+000
      vertex   3.287007e+001 1.873489e+002 -5.737930e+000
    endloop
  endfacet
  facet normal 1.888784e-015 -4.612998e-019 -1.000000e+000
    outer loop
      vertex   3.287007e+001 1.873489e+002 -5.737930e+000
      vertex   3.286994e+001 1.868489e+002 -5.737930e+000
      vertex   2.299494e+001 1.868513e+002 -5.737930e+000
    endloop
  endfacet
  facet normal 1.978727e-015 -4.832664e-019 -1.000000e+000
    outer loop
      vertex   2.299507e+001 1.873513e+002 -5.737930e+000
      vertex   2.299494e+001 1.868513e+002 -5.737930e+000
      vertex   1.311995e+001 1.868537e+002 -5.737930e+000
    endloop
  endfacet
  facet normal 1.798842e-015 -4.393331e-019 -1.000000e+000
    outer loop
      vertex   1.312007e+001 1.873537e+002 -5.737930e+000
      vertex   1.311995e+001 1.868537e+002 -5.737930e+000
      vertex   3.244945e+000 1.868561e+002 -5.737930e+000
    endloop
  endfacet
  facet normal 1.798842e-015 -4.393331e-019 -1.000000e+000
    outer loop
      vertex   3.245068e+000 1.873561e+002 -5.737930e+000
      vertex   1.312007e+001 1.873537e+002 -5.737930e+000
      vertex   3.244945e+000 1.868561e+002 -5.737930e+000
    endloop
  endfacet
  facet normal 1.888784e-015 -4.612998e-019 -1.000000e+000
    outer loop
      vertex   3.287007e+001 1.873489e+002 -5.737930e+000
      vertex   2.299494e+001 1.868513e+002 -5.737930e+000
      vertex   2.299507e+001 1.873513e+002 -5.737930e+000
    endloop
  endfacet
  facet normal 1.978727e-015 -4.832664e-019 -1.000000e+000
    outer loop
      vertex   2.299507e+001 1.873513e+002 -5.737930e+000
      vertex   1.311995e+001 1.868537e+002 -5.737930e+000
      vertex   1.312007e+001 1.873537e+002 -5.737930e+000
    endloop
  endfacet
  facet normal -2.442310e-004 -1.000000e+000 3.247761e-015
    outer loop
      vertex   3.244945e+000 1.868561e+002 2.926207e+001
      vertex   3.244945e+000 1.868561e+002 2.051207e+001
      vertex   1.311995e+001 1.868537e+002 2.926207e+001
    endloop
  endfacet
  facet normal -2.442310e-004 -1.000000e+000 -4.216037e-019
    outer loop
      vertex   1.311995e+001 1.868537e+002 2.926207e+001
      vertex   3.244945e+000 1.868561e+002 2.051207e+001
      vertex   1.311995e+001 1.868537e+002 1.759540e+001
    endloop
  endfacet
  facet normal -2.442310e-004 -1.000000e+000 -6.022910e-019
    outer loop
      vertex   2.299494e+001 1.868513e+002 2.926207e+001
      vertex   1.311995e+001 1.868537e+002 1.759540e+001
      vertex   2.299494e+001 1.868513e+002 1.759540e+001
    endloop
  endfacet
  facet normal -2.442310e-004 -1.000000e+000 -6.022910e-019
    outer loop
      vertex   3.286994e+001 1.868489e+002 2.926207e+001
      vertex   2.299494e+001 1.868513e+002 1.759540e+001
      vertex   3.286994e+001 1.868489e+002 1.759540e+001
    endloop
  endfacet
  facet normal -2.442310e-004 -1.000000e+000 -4.015273e-019
    outer loop
      vertex   4.274494e+001 1.868465e+002 2.051207e+001
      vertex   3.286994e+001 1.868489e+002 1.759540e+001
      vertex   4.274494e+001 1.868465e+002 1.176207e+001
    endloop
  endfacet
  facet normal -2.442310e-004 -1.000000e+000 -5.949826e-019
    outer loop
      vertex   4.274494e+001 1.868465e+002 2.051207e+001
      vertex   3.286994e+001 1.868489e+002 2.926207e+001
      vertex   3.286994e+001 1.868489e+002 1.759540e+001
    endloop
  endfacet
  facet normal -2.442310e-004 -1.000000e+000 -3.966550e-019
    outer loop
      vertex   4.274494e+001 1.868465e+002 2.051207e+001
      vertex   4.274494e+001 1.868465e+002 2.926207e+001
      vertex   3.286994e+001 1.868489e+002 2.926207e+001
    endloop
  endfacet
  facet normal -2.442310e-004 -1.000000e+000 -3.248542e-015
    outer loop
      vertex   3.244945e+000 1.868561e+002 2.051207e+001
      vertex   3.244945e+000 1.868561e+002 1.176207e+001
      vertex   1.311995e+001 1.868537e+002 1.759540e+001
    endloop
  endfacet
  facet normal -2.442310e-004 -1.000000e+000 -3.914891e-019
    outer loop
      vertex   1.311995e+001 1.868537e+002 1.759540e+001
      vertex   3.244945e+000 1.868561e+002 1.176207e+001
      vertex   1.311995e+001 1.868537e+002 5.928736e+000
    endloop
  endfacet
  facet normal -2.442310e-004 -1.000000e+000 -3.613746e-019
    outer loop
      vertex   2.299494e+001 1.868513e+002 1.759540e+001
      vertex   1.311995e+001 1.868537e+002 5.928736e+000
      vertex   2.299494e+001 1.868513e+002 5.928736e+000
    endloop
  endfacet
  facet normal -2.442310e-004 -1.000000e+000 -3.011455e-019
    outer loop
      vertex   3.286994e+001 1.868489e+002 1.759540e+001
      vertex   2.299494e+001 1.868513e+002 5.928736e+000
      vertex   3.286994e+001 1.868489e+002 5.928736e+000
    endloop
  endfacet
  facet normal -2.442310e-004 -1.000000e+000 -3.248597e-015
    outer loop
      vertex   4.274494e+001 1.868465e+002 1.176207e+001
      vertex   3.286994e+001 1.868489e+002 5.928736e+000
      vertex   4.274494e+001 1.868465e+002 3.012070e+000
    endloop
  endfacet
  facet normal -2.442310e-004 -1.000000e+000 -2.974913e-019
    outer loop
      vertex   4.274494e+001 1.868465e+002 1.176207e+001
      vertex   3.286994e+001 1.868489e+002 1.759540e+001
      vertex   3.286994e+001 1.868489e+002 5.928736e+000
    endloop
  endfacet
  facet normal -2.442310e-004 -1.000000e+000 -3.594686e-019
    outer loop
      vertex   3.244945e+000 1.868561e+002 1.176207e+001
      vertex   3.244945e+000 1.868561e+002 3.012070e+000
      vertex   1.311995e+001 1.868537e+002 5.928736e+000
    endloop
  endfacet
  facet normal -2.442310e-004 -1.000000e+000 -4.872504e-015
    outer loop
      vertex   1.311995e+001 1.868537e+002 5.928736e+000
      vertex   3.244945e+000 1.868561e+002 3.012070e+000
      vertex   1.311995e+001 1.868537e+002 -5.737930e+000
    endloop
  endfacet
  facet normal -2.442310e-004 -1.000000e+000 -2.436357e-015
    outer loop
      vertex   2.299494e+001 1.868513e+002 5.928736e+000
      vertex   1.311995e+001 1.868537e+002 -5.737930e+000
      vertex   2.299494e+001 1.868513e+002 -5.737930e+000
    endloop
  endfacet
  facet normal -2.442310e-004 -1.000000e+000 -4.872594e-015
    outer loop
      vertex   3.286994e+001 1.868489e+002 5.928736e+000
      vertex   2.299494e+001 1.868513e+002 -5.737930e+000
      vertex   3.286994e+001 1.868489e+002 -5.737930e+000
    endloop
  endfacet
  facet normal -2.442310e-004 -1.000000e+000 -6.496993e-015
    outer loop
      vertex   4.274494e+001 1.868465e+002 3.012070e+000
      vertex   3.286994e+001 1.868489e+002 -5.737930e+000
      vertex   4.274494e+001 1.868465e+002 -5.737930e+000
    endloop
  endfacet
  facet normal -2.442310e-004 -1.000000e+000 -4.872590e-015
    outer loop
      vertex   4.274494e+001 1.868465e+002 3.012070e+000
      vertex   3.286994e+001 1.868489e+002 5.928736e+000
      vertex   3.286994e+001 1.868489e+002 -5.737930e+000
    endloop
  endfacet
  facet normal -2.442310e-004 -1.000000e+000 -3.470732e-019
    outer loop
      vertex   3.244945e+000 1.868561e+002 3.012070e+000
      vertex   3.244945e+000 1.868561e+002 -5.737930e+000
      vertex   1.311995e+001 1.868537e+002 -5.737930e+000
    endloop
  endfacet
  facet normal -2.442310e-004 -1.000000e+000 -4.872553e-015
    outer loop
      vertex   1.311995e+001 1.868537e+002 5.928736e+000
      vertex   1.311995e+001 1.868537e+002 -5.737930e+000
      vertex   2.299494e+001 1.868513e+002 5.928736e+000
    endloop
  endfacet
  facet normal -2.442310e-004 -1.000000e+000 -2.436370e-015
    outer loop
      vertex   2.299494e+001 1.868513e+002 5.928736e+000
      vertex   2.299494e+001 1.868513e+002 -5.737930e+000
      vertex   3.286994e+001 1.868489e+002 5.928736e+000
    endloop
  endfacet
  facet normal -2.442310e-004 -1.000000e+000 -5.949826e-019
    outer loop
      vertex   3.286994e+001 1.868489e+002 2.926207e+001
      vertex   2.299494e+001 1.868513e+002 2.926207e+001
      vertex   2.299494e+001 1.868513e+002 1.759540e+001
    endloop
  endfacet
  facet normal -2.442310e-004 -1.000000e+000 -4.090505e-019
    outer loop
      vertex   2.299494e+001 1.868513e+002 2.926207e+001
      vertex   1.311995e+001 1.868537e+002 2.926207e+001
      vertex   1.311995e+001 1.868537e+002 1.759540e+001
    endloop
  endfacet
  facet normal -2.442310e-004 -1.000000e+000 -3.718641e-019
    outer loop
      vertex   2.299494e+001 1.868513e+002 1.759540e+001
      vertex   1.311995e+001 1.868537e+002 1.759540e+001
      vertex   1.311995e+001 1.868537e+002 5.928736e+000
    endloop
  endfacet
  facet normal -2.442310e-004 -1.000000e+000 -3.718641e-019
    outer loop
      vertex   3.286994e+001 1.868489e+002 1.759540e+001
      vertex   2.299494e+001 1.868513e+002 1.759540e+001
      vertex   2.299494e+001 1.868513e+002 5.928736e+000
    endloop
  endfacet
  facet normal -2.442310e-004 -1.000000e+000 -2.658053e-018
    outer loop
      vertex   -3.690165e+001 1.873659e+002 1.296830e+001
      vertex   -3.690165e+001 1.873659e+002 1.166256e+001
      vertex   -2.686497e+001 1.873635e+002 1.296830e+001
    endloop
  endfacet
  facet normal -2.442310e-004 -1.000000e+000 -3.176831e-018
    outer loop
      vertex   -2.686497e+001 1.873635e+002 1.296830e+001
      vertex   -3.690165e+001 1.873659e+002 1.166256e+001
      vertex   -2.686497e+001 1.873635e+002 1.166256e+001
    endloop
  endfacet
  facet normal -2.442310e-004 -1.000000e+000 2.176394e-014
    outer loop
      vertex   -1.682829e+001 1.873610e+002 1.296830e+001
      vertex   -2.686497e+001 1.873635e+002 1.166256e+001
      vertex   -1.682829e+001 1.873610e+002 1.166256e+001
    endloop
  endfacet
  facet normal -2.442310e-004 -1.000000e+000 -1.853151e-018
    outer loop
      vertex   -6.791612e+000 1.873586e+002 1.296830e+001
      vertex   -1.682829e+001 1.873610e+002 1.166256e+001
      vertex   -6.791612e+000 1.873586e+002 1.166256e+001
    endloop
  endfacet
  facet normal -2.442310e-004 -1.000000e+000 -1.058944e-018
    outer loop
      vertex   3.245068e+000 1.873561e+002 1.296830e+001
      vertex   -6.791612e+000 1.873586e+002 1.166256e+001
      vertex   3.245068e+000 1.873561e+002 1.166256e+001
    endloop
  endfacet
  facet normal -2.442310e-004 -1.000000e+000 -1.827412e-018
    outer loop
      vertex   3.245068e+000 1.873561e+002 1.296830e+001
      vertex   -6.791612e+000 1.873586e+002 1.296830e+001
      vertex   -6.791612e+000 1.873586e+002 1.166256e+001
    endloop
  endfacet
  facet normal -2.442310e-004 -1.000000e+000 -3.322566e-018
    outer loop
      vertex   -2.686497e+001 1.873635e+002 1.296830e+001
      vertex   -2.686497e+001 1.873635e+002 1.166256e+001
      vertex   -1.682829e+001 1.873610e+002 1.296830e+001
    endloop
  endfacet
  facet normal -2.442310e-004 -1.000000e+000 2.176405e-014
    outer loop
      vertex   -1.682829e+001 1.873610e+002 1.296830e+001
      vertex   -1.682829e+001 1.873610e+002 1.166256e+001
      vertex   -6.791612e+000 1.873586e+002 1.296830e+001
    endloop
  endfacet
  facet normal 1.000000e+000 -2.442310e-004 4.081258e-015
    outer loop
      vertex   8.477875e+000 1.873548e+002 1.296830e+001
      vertex   8.477875e+000 1.873548e+002 1.166256e+001
      vertex   8.477997e+000 1.878548e+002 1.296830e+001
    endloop
  endfacet
  facet normal 1.000000e+000 -2.442310e-004 4.081258e-015
    outer loop
      vertex   8.477997e+000 1.878548e+002 1.296830e+001
      vertex   8.477875e+000 1.873548e+002 1.166256e+001
      vertex   8.477997e+000 1.878548e+002 1.166256e+001
    endloop
  endfacet
  facet normal 1.018396e-015 -2.487239e-019 -1.000000e+000
    outer loop
      vertex   8.477875e+000 1.873548e+002 1.166256e+001
      vertex   3.245068e+000 1.873561e+002 1.166256e+001
      vertex   8.477997e+000 1.878548e+002 1.166256e+001
    endloop
  endfacet
  facet normal 1.954823e-015 -9.825876e-015 -1.000000e+000
    outer loop
      vertex   8.477997e+000 1.878548e+002 1.166256e+001
      vertex   3.245068e+000 1.873561e+002 1.166256e+001
      vertex   -5.979082e-001 1.878571e+002 1.166256e+001
    endloop
  endfacet
  facet normal 1.944432e-015 -9.905589e-015 -1.000000e+000
    outer loop
      vertex   -5.979082e-001 1.878571e+002 1.166256e+001
      vertex   3.245068e+000 1.873561e+002 1.166256e+001
      vertex   -6.791612e+000 1.873586e+002 1.166256e+001
    endloop
  endfacet
  facet normal 1.944386e-015 -1.009385e-014 -1.000000e+000
    outer loop
      vertex   -9.673813e+000 1.878593e+002 1.166256e+001
      vertex   -6.791612e+000 1.873586e+002 1.166256e+001
      vertex   -1.682829e+001 1.873610e+002 1.166256e+001
    endloop
  endfacet
  facet normal 1.944340e-015 -1.028210e-014 -1.000000e+000
    outer loop
      vertex   -1.874972e+001 1.878615e+002 1.166256e+001
      vertex   -1.682829e+001 1.873610e+002 1.166256e+001
      vertex   -2.686497e+001 1.873635e+002 1.166256e+001
    endloop
  endfacet
  facet normal 2.475503e-015 -9.450224e-015 -1.000000e+000
    outer loop
      vertex   -2.782562e+001 1.878637e+002 1.166256e+001
      vertex   -2.686497e+001 1.873635e+002 1.166256e+001
      vertex   -3.690165e+001 1.873659e+002 1.166256e+001
    endloop
  endfacet
  facet normal 1.957223e-015 -4.780145e-019 -1.000000e+000
    outer loop
      vertex   -3.690153e+001 1.878659e+002 1.166256e+001
      vertex   -2.782562e+001 1.878637e+002 1.166256e+001
      vertex   -3.690165e+001 1.873659e+002 1.166256e+001
    endloop
  endfacet
  facet normal 1.954772e-015 -1.003406e-014 -1.000000e+000
    outer loop
      vertex   -5.979082e-001 1.878571e+002 1.166256e+001
      vertex   -6.791612e+000 1.873586e+002 1.166256e+001
      vertex   -9.673813e+000 1.878593e+002 1.166256e+001
    endloop
  endfacet
  facet normal 1.954721e-015 -1.024225e-014 -1.000000e+000
    outer loop
      vertex   -9.673813e+000 1.878593e+002 1.166256e+001
      vertex   -1.682829e+001 1.873610e+002 1.166256e+001
      vertex   -1.874972e+001 1.878615e+002 1.166256e+001
    endloop
  endfacet
  facet normal 1.954670e-015 -1.045043e-014 -1.000000e+000
    outer loop
      vertex   -1.874972e+001 1.878615e+002 1.166256e+001
      vertex   -2.686497e+001 1.873635e+002 1.166256e+001
      vertex   -2.782562e+001 1.878637e+002 1.166256e+001
    endloop
  endfacet
  facet normal -1.000000e+000 2.442310e-004 -1.088336e-014
    outer loop
      vertex   -3.690165e+001 1.873659e+002 1.166256e+001
      vertex   -3.690165e+001 1.873659e+002 1.296830e+001
      vertex   -3.690153e+001 1.878659e+002 1.166256e+001
    endloop
  endfacet
  facet normal -1.000000e+000 2.442310e-004 -1.632503e-014
    outer loop
      vertex   -3.690153e+001 1.878659e+002 1.166256e+001
      vertex   -3.690165e+001 1.873659e+002 1.296830e+001
      vertex   -3.690153e+001 1.878659e+002 1.296830e+001
    endloop
  endfacet
  facet normal -1.959826e-015 -1.065766e-014 1.000000e+000
    outer loop
      vertex   -3.690153e+001 1.878659e+002 1.296830e+001
      vertex   -3.690165e+001 1.873659e+002 1.296830e+001
      vertex   -2.782562e+001 1.878637e+002 1.296830e+001
    endloop
  endfacet
  facet normal -1.949500e-015 -1.084592e-014 1.000000e+000
    outer loop
      vertex   -2.782562e+001 1.878637e+002 1.296830e+001
      vertex   -3.690165e+001 1.873659e+002 1.296830e+001
      vertex   -2.686497e+001 1.873635e+002 1.296830e+001
    endloop
  endfacet
  facet normal -1.949546e-015 -1.103418e-014 1.000000e+000
    outer loop
      vertex   -1.874972e+001 1.878615e+002 1.296830e+001
      vertex   -2.686497e+001 1.873635e+002 1.296830e+001
      vertex   -1.682829e+001 1.873610e+002 1.296830e+001
    endloop
  endfacet
  facet normal -1.949592e-015 -1.122244e-014 1.000000e+000
    outer loop
      vertex   -9.673813e+000 1.878593e+002 1.296830e+001
      vertex   -1.682829e+001 1.873610e+002 1.296830e+001
      vertex   -6.791612e+000 1.873586e+002 1.296830e+001
    endloop
  endfacet
  facet normal -2.478992e-015 -4.833481e-015 1.000000e+000
    outer loop
      vertex   -5.979082e-001 1.878571e+002 1.296830e+001
      vertex   -6.791612e+000 1.873586e+002 1.296830e+001
      vertex   3.245068e+000 1.873561e+002 1.296830e+001
    endloop
  endfacet
  facet normal -1.018396e-015 2.487239e-019 1.000000e+000
    outer loop
      vertex   8.477997e+000 1.878548e+002 1.296830e+001
      vertex   3.245068e+000 1.873561e+002 1.296830e+001
      vertex   8.477875e+000 1.873548e+002 1.296830e+001
    endloop
  endfacet
  facet normal -1.369157e-015 3.680671e-015 1.000000e+000
    outer loop
      vertex   8.477997e+000 1.878548e+002 1.296830e+001
      vertex   -5.979082e-001 1.878571e+002 1.296830e+001
      vertex   3.245068e+000 1.873561e+002 1.296830e+001
    endloop
  endfacet
  facet normal -1.959877e-015 -1.086585e-014 1.000000e+000
    outer loop
      vertex   -2.782562e+001 1.878637e+002 1.296830e+001
      vertex   -2.686497e+001 1.873635e+002 1.296830e+001
      vertex   -1.874972e+001 1.878615e+002 1.296830e+001
    endloop
  endfacet
  facet normal -1.959927e-015 -1.107403e-014 1.000000e+000
    outer loop
      vertex   -1.874972e+001 1.878615e+002 1.296830e+001
      vertex   -1.682829e+001 1.873610e+002 1.296830e+001
      vertex   -9.673813e+000 1.878593e+002 1.296830e+001
    endloop
  endfacet
  facet normal -1.959978e-015 -1.128222e-014 1.000000e+000
    outer loop
      vertex   -9.673813e+000 1.878593e+002 1.296830e+001
      vertex   -6.791612e+000 1.873586e+002 1.296830e+001
      vertex   -5.979082e-001 1.878571e+002 1.296830e+001
    endloop
  endfacet
  facet normal 2.442310e-004 1.000000e+000 9.967699e-019
    outer loop
      vertex   8.477997e+000 1.878548e+002 1.296830e+001
      vertex   8.477997e+000 1.878548e+002 1.166256e+001
      vertex   -5.979082e-001 1.878571e+002 1.296830e+001
    endloop
  endfacet
  facet normal 2.442310e-004 1.000000e+000 1.463804e-018
    outer loop
      vertex   -5.979082e-001 1.878571e+002 1.296830e+001
      vertex   8.477997e+000 1.878548e+002 1.166256e+001
      vertex   -5.979082e-001 1.878571e+002 1.166256e+001
    endloop
  endfacet
  facet normal 2.442310e-004 1.000000e+000 1.329027e-018
    outer loop
      vertex   -9.673813e+000 1.878593e+002 1.166256e+001
      vertex   -5.979082e-001 1.878571e+002 1.296830e+001
      vertex   -5.979082e-001 1.878571e+002 1.166256e+001
    endloop
  endfacet
  facet normal 2.442310e-004 1.000000e+000 9.967699e-019
    outer loop
      vertex   -9.673813e+000 1.878593e+002 1.166256e+001
      vertex   -9.673813e+000 1.878593e+002 1.296830e+001
      vertex   -5.979082e-001 1.878571e+002 1.296830e+001
    endloop
  endfacet
  facet normal 2.442310e-004 1.000000e+000 8.782824e-019
    outer loop
      vertex   -9.673813e+000 1.878593e+002 1.166256e+001
      vertex   -1.874972e+001 1.878615e+002 1.166256e+001
      vertex   -9.673813e+000 1.878593e+002 1.296830e+001
    endloop
  endfacet
  facet normal 2.442310e-004 1.000000e+000 3.322566e-018
    outer loop
      vertex   -9.673813e+000 1.878593e+002 1.296830e+001
      vertex   -1.874972e+001 1.878615e+002 1.166256e+001
      vertex   -1.874972e+001 1.878615e+002 1.296830e+001
    endloop
  endfacet
  facet normal 2.442310e-004 1.000000e+000 3.322566e-018
    outer loop
      vertex   -1.874972e+001 1.878615e+002 1.296830e+001
      vertex   -1.874972e+001 1.878615e+002 1.166256e+001
      vertex   -2.782562e+001 1.878637e+002 1.166256e+001
    endloop
  endfacet
  facet normal 2.442310e-004 1.000000e+000 2.658053e-018
    outer loop
      vertex   -2.782562e+001 1.878637e+002 1.296830e+001
      vertex   -2.782562e+001 1.878637e+002 1.166256e+001
      vertex   -3.690153e+001 1.878659e+002 1.296830e+001
    endloop
  endfacet
  facet normal 2.442310e-004 1.000000e+000 2.927608e-018
    outer loop
      vertex   -2.782562e+001 1.878637e+002 1.296830e+001
      vertex   -1.874972e+001 1.878615e+002 1.296830e+001
      vertex   -2.782562e+001 1.878637e+002 1.166256e+001
    endloop
  endfacet
  facet normal 2.442310e-004 1.000000e+000 3.987080e-018
    outer loop
      vertex   -2.782562e+001 1.878637e+002 1.166256e+001
      vertex   -3.690153e+001 1.878659e+002 1.166256e+001
      vertex   -3.690153e+001 1.878659e+002 1.296830e+001
    endloop
  endfacet
  facet normal -2.442310e-004 -1.000000e+000 -0.000000e+000
    outer loop
      vertex   -3.690165e+001 1.873659e+002 9.485815e+000
      vertex   -3.690165e+001 1.873659e+002 8.170866e+000
      vertex   -2.686497e+001 1.873635e+002 9.485815e+000
    endloop
  endfacet
  facet normal -2.442310e-004 -1.000000e+000 5.257648e-019
    outer loop
      vertex   -2.686497e+001 1.873635e+002 9.485815e+000
      vertex   -3.690165e+001 1.873659e+002 8.170866e+000
      vertex   -2.686497e+001 1.873635e+002 8.170866e+000
    endloop
  endfacet
  facet normal -2.442310e-004 -1.000000e+000 2.161498e-014
    outer loop
      vertex   -1.682829e+001 1.873610e+002 9.485815e+000
      vertex   -2.686497e+001 1.873635e+002 8.170866e+000
      vertex   -1.682829e+001 1.873610e+002 8.170866e+000
    endloop
  endfacet
  facet normal -2.442310e-004 -1.000000e+000 -7.886472e-019
    outer loop
      vertex   -6.791612e+000 1.873586e+002 9.485815e+000
      vertex   -1.682829e+001 1.873610e+002 8.170866e+000
      vertex   -6.791612e+000 1.873586e+002 8.170866e+000
    endloop
  endfacet
  facet normal -2.442310e-004 -1.000000e+000 1.051530e-018
    outer loop
      vertex   3.245068e+000 1.873561e+002 9.485815e+000
      vertex   -6.791612e+000 1.873586e+002 8.170866e+000
      vertex   3.245068e+000 1.873561e+002 8.170866e+000
    endloop
  endfacet
  facet normal -2.442310e-004 -1.000000e+000 -4.948957e-019
    outer loop
      vertex   3.245068e+000 1.873561e+002 9.485815e+000
      vertex   -6.791612e+000 1.873586e+002 9.485815e+000
      vertex   -6.791612e+000 1.873586e+002 8.170866e+000
    endloop
  endfacet
  facet normal -2.442310e-004 -1.000000e+000 6.598609e-019
    outer loop
      vertex   -2.686497e+001 1.873635e+002 9.485815e+000
      vertex   -2.686497e+001 1.873635e+002 8.170866e+000
      vertex   -1.682829e+001 1.873610e+002 9.485815e+000
    endloop
  endfacet
  facet normal -2.442310e-004 -1.000000e+000 2.161498e-014
    outer loop
      vertex   -1.682829e+001 1.873610e+002 9.485815e+000
      vertex   -1.682829e+001 1.873610e+002 8.170866e+000
      vertex   -6.791612e+000 1.873586e+002 9.485815e+000
    endloop
  endfacet
  facet normal 1.000000e+000 -2.442310e-004 2.701790e-015
    outer loop
      vertex   8.477875e+000 1.873548e+002 9.485815e+000
      vertex   8.477875e+000 1.873548e+002 8.170866e+000
      vertex   8.477997e+000 1.878548e+002 9.485815e+000
    endloop
  endfacet
  facet normal 1.000000e+000 -2.442310e-004 2.701790e-015
    outer loop
      vertex   8.477997e+000 1.878548e+002 9.485815e+000
      vertex   8.477875e+000 1.873548e+002 8.170866e+000
      vertex   8.477997e+000 1.878548e+002 8.170866e+000
    endloop
  endfacet
  facet normal 2.036792e-015 -4.974479e-019 -1.000000e+000
    outer loop
      vertex   8.477875e+000 1.873548e+002 8.170866e+000
      vertex   3.245068e+000 1.873561e+002 8.170866e+000
      vertex   8.477997e+000 1.878548e+002 8.170866e+000
    endloop
  endfacet
  facet normal 1.957426e-015 8.322650e-016 -1.000000e+000
    outer loop
      vertex   8.477997e+000 1.878548e+002 8.170866e+000
      vertex   3.245068e+000 1.873561e+002 8.170866e+000
      vertex   -5.979082e-001 1.878571e+002 8.170866e+000
    endloop
  endfacet
  facet normal 1.947035e-015 7.525521e-016 -1.000000e+000
    outer loop
      vertex   -5.979082e-001 1.878571e+002 8.170866e+000
      vertex   3.245068e+000 1.873561e+002 8.170866e+000
      vertex   -6.791612e+000 1.873586e+002 8.170866e+000
    endloop
  endfacet
  facet normal 1.946989e-015 5.642952e-016 -1.000000e+000
    outer loop
      vertex   -9.673813e+000 1.878593e+002 8.170866e+000
      vertex   -6.791612e+000 1.873586e+002 8.170866e+000
      vertex   -1.682829e+001 1.873610e+002 8.170866e+000
    endloop
  endfacet
  facet normal 1.946943e-015 3.760383e-016 -1.000000e+000
    outer loop
      vertex   -1.874972e+001 1.878615e+002 8.170866e+000
      vertex   -1.682829e+001 1.873610e+002 8.170866e+000
      vertex   -2.686497e+001 1.873635e+002 8.170866e+000
    endloop
  endfacet
  facet normal 1.946897e-015 1.877814e-016 -1.000000e+000
    outer loop
      vertex   -2.782562e+001 1.878637e+002 8.170866e+000
      vertex   -2.686497e+001 1.873635e+002 8.170866e+000
      vertex   -3.690165e+001 1.873659e+002 8.170866e+000
    endloop
  endfacet
  facet normal 1.957223e-015 -4.780145e-019 -1.000000e+000
    outer loop
      vertex   -3.690153e+001 1.878659e+002 8.170866e+000
      vertex   -2.782562e+001 1.878637e+002 8.170866e+000
      vertex   -3.690165e+001 1.873659e+002 8.170866e+000
    endloop
  endfacet
  facet normal 1.957375e-015 6.240792e-016 -1.000000e+000
    outer loop
      vertex   -5.979082e-001 1.878571e+002 8.170866e+000
      vertex   -6.791612e+000 1.873586e+002 8.170866e+000
      vertex   -9.673813e+000 1.878593e+002 8.170866e+000
    endloop
  endfacet
  facet normal 1.957324e-015 4.158935e-016 -1.000000e+000
    outer loop
      vertex   -9.673813e+000 1.878593e+002 8.170866e+000
      vertex   -1.682829e+001 1.873610e+002 8.170866e+000
      vertex   -1.874972e+001 1.878615e+002 8.170866e+000
    endloop
  endfacet
  facet normal 1.957274e-015 2.077077e-016 -1.000000e+000
    outer loop
      vertex   -1.874972e+001 1.878615e+002 8.170866e+000
      vertex   -2.686497e+001 1.873635e+002 8.170866e+000
      vertex   -2.782562e+001 1.878637e+002 8.170866e+000
    endloop
  endfacet
  facet normal -1.000000e+000 2.442310e-004 0.000000e+000
    outer loop
      vertex   -3.690165e+001 1.873659e+002 8.170866e+000
      vertex   -3.690165e+001 1.873659e+002 9.485815e+000
      vertex   -3.690153e+001 1.878659e+002 8.170866e+000
    endloop
  endfacet
  facet normal -1.000000e+000 2.442310e-004 0.000000e+000
    outer loop
      vertex   -3.690153e+001 1.878659e+002 8.170866e+000
      vertex   -3.690165e+001 1.873659e+002 9.485815e+000
      vertex   -3.690153e+001 1.878659e+002 9.485815e+000
    endloop
  endfacet
  facet normal -1.957223e-015 4.780145e-019 1.000000e+000
    outer loop
      vertex   -3.690153e+001 1.878659e+002 9.485815e+000
      vertex   -3.690165e+001 1.873659e+002 9.485815e+000
      vertex   -2.782562e+001 1.878637e+002 9.485815e+000
    endloop
  endfacet
  facet normal -1.946897e-015 -1.877814e-016 1.000000e+000
    outer loop
      vertex   -2.782562e+001 1.878637e+002 9.485815e+000
      vertex   -3.690165e+001 1.873659e+002 9.485815e+000
      vertex   -2.686497e+001 1.873635e+002 9.485815e+000
    endloop
  endfacet
  facet normal -1.946943e-015 -3.760383e-016 1.000000e+000
    outer loop
      vertex   -1.874972e+001 1.878615e+002 9.485815e+000
      vertex   -2.686497e+001 1.873635e+002 9.485815e+000
      vertex   -1.682829e+001 1.873610e+002 9.485815e+000
    endloop
  endfacet
  facet normal -1.946989e-015 -5.642952e-016 1.000000e+000
    outer loop
      vertex   -9.673813e+000 1.878593e+002 9.485815e+000
      vertex   -1.682829e+001 1.873610e+002 9.485815e+000
      vertex   -6.791612e+000 1.873586e+002 9.485815e+000
    endloop
  endfacet
  facet normal -1.947035e-015 -7.525521e-016 1.000000e+000
    outer loop
      vertex   -5.979082e-001 1.878571e+002 9.485815e+000
      vertex   -6.791612e+000 1.873586e+002 9.485815e+000
      vertex   3.245068e+000 1.873561e+002 9.485815e+000
    endloop
  endfacet
  facet normal -1.698194e-015 -3.552299e-015 1.000000e+000
    outer loop
      vertex   8.477997e+000 1.878548e+002 9.485815e+000
      vertex   3.245068e+000 1.873561e+002 9.485815e+000
      vertex   8.477875e+000 1.873548e+002 9.485815e+000
    endloop
  endfacet
  facet normal -1.957426e-015 -8.322650e-016 1.000000e+000
    outer loop
      vertex   8.477997e+000 1.878548e+002 9.485815e+000
      vertex   -5.979082e-001 1.878571e+002 9.485815e+000
      vertex   3.245068e+000 1.873561e+002 9.485815e+000
    endloop
  endfacet
  facet normal -1.957274e-015 -2.077077e-016 1.000000e+000
    outer loop
      vertex   -2.782562e+001 1.878637e+002 9.485815e+000
      vertex   -2.686497e+001 1.873635e+002 9.485815e+000
      vertex   -1.874972e+001 1.878615e+002 9.485815e+000
    endloop
  endfacet
  facet normal -1.957324e-015 -4.158935e-016 1.000000e+000
    outer loop
      vertex   -1.874972e+001 1.878615e+002 9.485815e+000
      vertex   -1.682829e+001 1.873610e+002 9.485815e+000
      vertex   -9.673813e+000 1.878593e+002 9.485815e+000
    endloop
  endfacet
  facet normal -1.957375e-015 -6.240792e-016 1.000000e+000
    outer loop
      vertex   -9.673813e+000 1.878593e+002 9.485815e+000
      vertex   -6.791612e+000 1.873586e+002 9.485815e+000
      vertex   -5.979082e-001 1.878571e+002 9.485815e+000
    endloop
  endfacet
  facet normal 2.442310e-004 1.000000e+000 6.598609e-019
    outer loop
      vertex   8.477997e+000 1.878548e+002 9.485815e+000
      vertex   8.477997e+000 1.878548e+002 8.170866e+000
      vertex   -5.979082e-001 1.878571e+002 9.485815e+000
    endloop
  endfacet
  facet normal 2.442310e-004 1.000000e+000 1.744267e-018
    outer loop
      vertex   -5.979082e-001 1.878571e+002 9.485815e+000
      vertex   8.477997e+000 1.878548e+002 8.170866e+000
      vertex   -5.979082e-001 1.878571e+002 8.170866e+000
    endloop
  endfacet
  facet normal 2.442310e-004 1.000000e+000 1.649652e-018
    outer loop
      vertex   -9.673813e+000 1.878593e+002 8.170866e+000
      vertex   -5.979082e-001 1.878571e+002 9.485815e+000
      vertex   -5.979082e-001 1.878571e+002 8.170866e+000
    endloop
  endfacet
  facet normal 2.442310e-004 1.000000e+000 2.639443e-018
    outer loop
      vertex   -9.673813e+000 1.878593e+002 8.170866e+000
      vertex   -9.673813e+000 1.878593e+002 9.485815e+000
      vertex   -5.979082e-001 1.878571e+002 9.485815e+000
    endloop
  endfacet
  facet normal 2.442310e-004 1.000000e+000 2.616400e-018
    outer loop
      vertex   -9.673813e+000 1.878593e+002 8.170866e+000
      vertex   -1.874972e+001 1.878615e+002 8.170866e+000
      vertex   -9.673813e+000 1.878593e+002 9.485815e+000
    endloop
  endfacet
  facet normal 2.442310e-004 1.000000e+000 2.639443e-018
    outer loop
      vertex   -9.673813e+000 1.878593e+002 9.485815e+000
      vertex   -1.874972e+001 1.878615e+002 8.170866e+000
      vertex   -1.874972e+001 1.878615e+002 9.485815e+000
    endloop
  endfacet
  facet normal 2.442310e-004 1.000000e+000 2.639443e-018
    outer loop
      vertex   -1.874972e+001 1.878615e+002 9.485815e+000
      vertex   -1.874972e+001 1.878615e+002 8.170866e+000
      vertex   -2.782562e+001 1.878637e+002 8.170866e+000
    endloop
  endfacet
  facet normal 2.442310e-004 1.000000e+000 1.979583e-018
    outer loop
      vertex   -2.782562e+001 1.878637e+002 9.485815e+000
      vertex   -2.782562e+001 1.878637e+002 8.170866e+000
      vertex   -3.690153e+001 1.878659e+002 9.485815e+000
    endloop
  endfacet
  facet normal 2.442310e-004 1.000000e+000 2.034978e-018
    outer loop
      vertex   -2.782562e+001 1.878637e+002 9.485815e+000
      vertex   -1.874972e+001 1.878615e+002 9.485815e+000
      vertex   -2.782562e+001 1.878637e+002 8.170866e+000
    endloop
  endfacet
  facet normal 2.442310e-004 1.000000e+000 -0.000000e+000
    outer loop
      vertex   -2.782562e+001 1.878637e+002 8.170866e+000
      vertex   -3.690153e+001 1.878659e+002 8.170866e+000
      vertex   -3.690153e+001 1.878659e+002 9.485815e+000
    endloop
  endfacet
  facet normal -2.442310e-004 -1.000000e+000 -0.000000e+000
    outer loop
      vertex   -3.676982e+001 1.873659e+002 6.341858e+000
      vertex   -3.676982e+001 1.873659e+002 5.177848e+000
      vertex   -2.676610e+001 1.873635e+002 6.341858e+000
    endloop
  endfacet
  facet normal -2.442310e-004 -1.000000e+000 -2.441722e-014
    outer loop
      vertex   -2.676610e+001 1.873635e+002 6.341858e+000
      vertex   -3.676982e+001 1.873659e+002 5.177848e+000
      vertex   -2.676610e+001 1.873635e+002 5.177848e+000
    endloop
  endfacet
  facet normal -2.442310e-004 -1.000000e+000 -8.938469e-019
    outer loop
      vertex   -1.676238e+001 1.873610e+002 6.341858e+000
      vertex   -2.676610e+001 1.873635e+002 5.177848e+000
      vertex   -1.676238e+001 1.873610e+002 5.177848e+000
    endloop
  endfacet
  facet normal -2.442310e-004 -1.000000e+000 -2.441751e-014
    outer loop
      vertex   -6.758654e+000 1.873586e+002 6.341858e+000
      vertex   -1.676238e+001 1.873610e+002 5.177848e+000
      vertex   -6.758654e+000 1.873586e+002 5.177848e+000
    endloop
  endfacet
  facet normal -2.442310e-004 -1.000000e+000 -1.191796e-018
    outer loop
      vertex   3.245068e+000 1.873561e+002 6.341858e+000
      vertex   -6.758654e+000 1.873586e+002 5.177848e+000
      vertex   3.245068e+000 1.873561e+002 5.177848e+000
    endloop
  endfacet
  facet normal -2.442310e-004 -1.000000e+000 -2.441744e-014
    outer loop
      vertex   3.245068e+000 1.873561e+002 6.341858e+000
      vertex   -6.758654e+000 1.873586e+002 6.341858e+000
      vertex   -6.758654e+000 1.873586e+002 5.177848e+000
    endloop
  endfacet
  facet normal -2.442310e-004 -1.000000e+000 -2.441706e-014
    outer loop
      vertex   -2.676610e+001 1.873635e+002 6.341858e+000
      vertex   -2.676610e+001 1.873635e+002 5.177848e+000
      vertex   -1.676238e+001 1.873610e+002 6.341858e+000
    endloop
  endfacet
  facet normal -2.442310e-004 -1.000000e+000 -7.454256e-019
    outer loop
      vertex   -1.676238e+001 1.873610e+002 6.341858e+000
      vertex   -1.676238e+001 1.873610e+002 5.177848e+000
      vertex   -6.758654e+000 1.873586e+002 6.341858e+000
    endloop
  endfacet
  facet normal 1.000000e+000 -2.442310e-004 4.578199e-015
    outer loop
      vertex   8.477875e+000 1.873548e+002 6.341858e+000
      vertex   8.477875e+000 1.873548e+002 5.177848e+000
      vertex   8.477997e+000 1.878548e+002 6.341858e+000
    endloop
  endfacet
  facet normal 1.000000e+000 -2.442310e-004 3.052133e-015
    outer loop
      vertex   8.477997e+000 1.878548e+002 6.341858e+000
      vertex   8.477875e+000 1.873548e+002 5.177848e+000
      vertex   8.477997e+000 1.878548e+002 5.177848e+000
    endloop
  endfacet
  facet normal 2.205657e-015 -3.553252e-015 -1.000000e+000
    outer loop
      vertex   8.477875e+000 1.873548e+002 5.177848e+000
      vertex   3.245068e+000 1.873561e+002 5.177848e+000
      vertex   8.477997e+000 1.878548e+002 5.177848e+000
    endloop
  endfacet
  facet normal 1.806047e-015 6.397230e-016 -1.000000e+000
    outer loop
      vertex   8.477997e+000 1.878548e+002 5.177848e+000
      vertex   3.245068e+000 1.873561e+002 5.177848e+000
      vertex   -2.833927e+000 1.878576e+002 5.177848e+000
    endloop
  endfacet
  facet normal 1.775763e-015 2.726092e-016 -1.000000e+000
    outer loop
      vertex   -2.833927e+000 1.878576e+002 5.177848e+000
      vertex   3.245068e+000 1.873561e+002 5.177848e+000
      vertex   -6.758654e+000 1.873586e+002 5.177848e+000
    endloop
  endfacet
  facet normal 1.775596e-015 -4.105240e-016 -1.000000e+000
    outer loop
      vertex   -1.414585e+001 1.878604e+002 5.177848e+000
      vertex   -6.758654e+000 1.873586e+002 5.177848e+000
      vertex   -1.676238e+001 1.873610e+002 5.177848e+000
    endloop
  endfacet
  facet normal 1.775429e-015 -1.093657e-015 -1.000000e+000
    outer loop
      vertex   -2.545777e+001 1.878631e+002 5.177848e+000
      vertex   -1.676238e+001 1.873610e+002 5.177848e+000
      vertex   -2.676610e+001 1.873635e+002 5.177848e+000
    endloop
  endfacet
  facet normal 1.775696e-015 -4.336800e-019 -1.000000e+000
    outer loop
      vertex   -3.676970e+001 1.878659e+002 5.177848e+000
      vertex   -2.676610e+001 1.873635e+002 5.177848e+000
      vertex   -3.676982e+001 1.873659e+002 5.177848e+000
    endloop
  endfacet
  facet normal 1.727138e-015 -9.672163e-016 -1.000000e+000
    outer loop
      vertex   -3.676970e+001 1.878659e+002 5.177848e+000
      vertex   -2.545777e+001 1.878631e+002 5.177848e+000
      vertex   -2.676610e+001 1.873635e+002 5.177848e+000
    endloop
  endfacet
  facet normal 1.805900e-015 3.559280e-017 -1.000000e+000
    outer loop
      vertex   -2.833927e+000 1.878576e+002 5.177848e+000
      vertex   -6.758654e+000 1.873586e+002 5.177848e+000
      vertex   -1.414585e+001 1.878604e+002 5.177848e+000
    endloop
  endfacet
  facet normal 1.805752e-015 -5.685374e-016 -1.000000e+000
    outer loop
      vertex   -1.414585e+001 1.878604e+002 5.177848e+000
      vertex   -1.676238e+001 1.873610e+002 5.177848e+000
      vertex   -2.545777e+001 1.878631e+002 5.177848e+000
    endloop
  endfacet
  facet normal -1.000000e+000 2.442310e-004 0.000000e+000
    outer loop
      vertex   -3.676982e+001 1.873659e+002 5.177848e+000
      vertex   -3.676982e+001 1.873659e+002 6.341858e+000
      vertex   -3.676970e+001 1.878659e+002 5.177848e+000
    endloop
  endfacet
  facet normal -1.000000e+000 2.442310e-004 0.000000e+000
    outer loop
      vertex   -3.676970e+001 1.878659e+002 5.177848e+000
      vertex   -3.676982e+001 1.873659e+002 6.341858e+000
      vertex   -3.676970e+001 1.878659e+002 6.341858e+000
    endloop
  endfacet
  facet normal -1.953699e-015 -1.775880e-015 1.000000e+000
    outer loop
      vertex   -3.676982e+001 1.873659e+002 6.341858e+000
      vertex   -2.676610e+001 1.873635e+002 6.341858e+000
      vertex   -3.676970e+001 1.878659e+002 6.341858e+000
    endloop
  endfacet
  facet normal -1.963406e-015 -1.969143e-015 1.000000e+000
    outer loop
      vertex   -3.676970e+001 1.878659e+002 6.341858e+000
      vertex   -2.676610e+001 1.873635e+002 6.341858e+000
      vertex   -2.545777e+001 1.878631e+002 6.341858e+000
    endloop
  endfacet
  facet normal -1.953753e-015 -1.994419e-015 1.000000e+000
    outer loop
      vertex   -2.545777e+001 1.878631e+002 6.341858e+000
      vertex   -2.676610e+001 1.873635e+002 6.341858e+000
      vertex   -1.676238e+001 1.873610e+002 6.341858e+000
    endloop
  endfacet
  facet normal -1.953372e-015 -4.366020e-016 1.000000e+000
    outer loop
      vertex   -1.414585e+001 1.878604e+002 6.341858e+000
      vertex   -1.676238e+001 1.873610e+002 6.341858e+000
      vertex   -6.758654e+000 1.873586e+002 6.341858e+000
    endloop
  endfacet
  facet normal -2.042040e-015 4.177074e-017 1.000000e+000
    outer loop
      vertex   -2.833927e+000 1.878576e+002 6.341858e+000
      vertex   -6.758654e+000 1.873586e+002 6.341858e+000
      vertex   3.245068e+000 1.873561e+002 6.341858e+000
    endloop
  endfacet
  facet normal -1.867059e-015 4.559939e-019 1.000000e+000
    outer loop
      vertex   8.477997e+000 1.878548e+002 6.341858e+000
      vertex   3.245068e+000 1.873561e+002 6.341858e+000
      vertex   8.477875e+000 1.873548e+002 6.341858e+000
    endloop
  endfacet
  facet normal -1.962680e-015 1.003773e-015 1.000000e+000
    outer loop
      vertex   8.477997e+000 1.878548e+002 6.341858e+000
      vertex   -2.833927e+000 1.878576e+002 6.341858e+000
      vertex   3.245068e+000 1.873561e+002 6.341858e+000
    endloop
  endfacet
  facet normal -1.884603e-015 -7.969358e-016 1.000000e+000
    outer loop
      vertex   -2.545777e+001 1.878631e+002 6.341858e+000
      vertex   -1.676238e+001 1.873610e+002 6.341858e+000
      vertex   -1.414585e+001 1.878604e+002 6.341858e+000
    endloop
  endfacet
  facet normal -1.963067e-015 -5.793182e-016 1.000000e+000
    outer loop
      vertex   -1.414585e+001 1.878604e+002 6.341858e+000
      vertex   -6.758654e+000 1.873586e+002 6.341858e+000
      vertex   -2.833927e+000 1.878576e+002 6.341858e+000
    endloop
  endfacet
  facet normal 2.442310e-004 1.000000e+000 7.454256e-019
    outer loop
      vertex   8.477997e+000 1.878548e+002 6.341858e+000
      vertex   8.477997e+000 1.878548e+002 5.177848e+000
      vertex   -2.833927e+000 1.878576e+002 6.341858e+000
    endloop
  endfacet
  facet normal 2.442310e-004 1.000000e+000 2.441989e-014
    outer loop
      vertex   -2.833927e+000 1.878576e+002 6.341858e+000
      vertex   8.477997e+000 1.878548e+002 5.177848e+000
      vertex   -2.833927e+000 1.878576e+002 5.177848e+000
    endloop
  endfacet
  facet normal 2.442310e-004 1.000000e+000 2.441936e-014
    outer loop
      vertex   -1.414585e+001 1.878604e+002 6.341858e+000
      vertex   -2.833927e+000 1.878576e+002 5.177848e+000
      vertex   -1.414585e+001 1.878604e+002 5.177848e+000
    endloop
  endfacet
  facet normal 2.442310e-004 1.000000e+000 2.441778e-014
    outer loop
      vertex   -2.545777e+001 1.878631e+002 6.341858e+000
      vertex   -1.414585e+001 1.878604e+002 5.177848e+000
      vertex   -2.545777e+001 1.878631e+002 5.177848e+000
    endloop
  endfacet
  facet normal 2.442310e-004 1.000000e+000 0.000000e+000
    outer loop
      vertex   -3.676970e+001 1.878659e+002 6.341858e+000
      vertex   -2.545777e+001 1.878631e+002 5.177848e+000
      vertex   -3.676970e+001 1.878659e+002 5.177848e+000
    endloop
  endfacet
  facet normal 2.442310e-004 1.000000e+000 2.441781e-014
    outer loop
      vertex   -3.676970e+001 1.878659e+002 6.341858e+000
      vertex   -2.545777e+001 1.878631e+002 6.341858e+000
      vertex   -2.545777e+001 1.878631e+002 5.177848e+000
    endloop
  endfacet
  facet normal 2.442310e-004 1.000000e+000 2.442004e-014
    outer loop
      vertex   -2.833927e+000 1.878576e+002 6.341858e+000
      vertex   -2.833927e+000 1.878576e+002 5.177848e+000
      vertex   -1.414585e+001 1.878604e+002 6.341858e+000
    endloop
  endfacet
  facet normal 2.442310e-004 1.000000e+000 2.441930e-014
    outer loop
      vertex   -1.414585e+001 1.878604e+002 6.341858e+000
      vertex   -1.414585e+001 1.878604e+002 5.177848e+000
      vertex   -2.545777e+001 1.878631e+002 6.341858e+000
    endloop
  endfacet
  facet normal -2.442310e-004 -1.000000e+000 -4.593878e-018
    outer loop
      vertex   -3.700019e+001 1.873660e+002 3.085916e+000
      vertex   -3.700019e+001 1.873660e+002 1.952647e+000
      vertex   -2.693888e+001 1.873635e+002 3.085916e+000
    endloop
  endfacet
  facet normal -2.442310e-004 -1.000000e+000 -2.508267e-014
    outer loop
      vertex   -2.693888e+001 1.873635e+002 3.085916e+000
      vertex   -3.700019e+001 1.873660e+002 1.952647e+000
      vertex   -2.693888e+001 1.873635e+002 1.952647e+000
    endloop
  endfacet
  facet normal -2.442310e-004 -1.000000e+000 -2.508085e-014
    outer loop
      vertex   -1.687756e+001 1.873610e+002 3.085916e+000
      vertex   -2.693888e+001 1.873635e+002 1.952647e+000
      vertex   -1.687756e+001 1.873610e+002 1.952647e+000
    endloop
  endfacet
  facet normal -2.442310e-004 -1.000000e+000 -2.507932e-014
    outer loop
      vertex   -6.816247e+000 1.873586e+002 3.085916e+000
      vertex   -1.687756e+001 1.873610e+002 1.952647e+000
      vertex   -6.816247e+000 1.873586e+002 1.952647e+000
    endloop
  endfacet
  facet normal -2.442310e-004 -1.000000e+000 0.000000e+000
    outer loop
      vertex   3.245068e+000 1.873561e+002 3.085916e+000
      vertex   -6.816247e+000 1.873586e+002 1.952647e+000
      vertex   3.245068e+000 1.873561e+002 1.952647e+000
    endloop
  endfacet
  facet normal -2.442310e-004 -1.000000e+000 -2.507922e-014
    outer loop
      vertex   3.245068e+000 1.873561e+002 3.085916e+000
      vertex   -6.816247e+000 1.873586e+002 3.085916e+000
      vertex   -6.816247e+000 1.873586e+002 1.952647e+000
    endloop
  endfacet
  facet normal -2.442310e-004 -1.000000e+000 -2.508247e-014
    outer loop
      vertex   -2.693888e+001 1.873635e+002 3.085916e+000
      vertex   -2.693888e+001 1.873635e+002 1.952647e+000
      vertex   -1.687756e+001 1.873610e+002 3.085916e+000
    endloop
  endfacet
  facet normal -2.442310e-004 -1.000000e+000 -2.508094e-014
    outer loop
      vertex   -1.687756e+001 1.873610e+002 3.085916e+000
      vertex   -1.687756e+001 1.873610e+002 1.952647e+000
      vertex   -6.816247e+000 1.873586e+002 3.085916e+000
    endloop
  endfacet
  facet normal 1.000000e+000 -2.442310e-004 0.000000e+000
    outer loop
      vertex   8.477875e+000 1.873548e+002 3.085916e+000
      vertex   8.477875e+000 1.873548e+002 1.952647e+000
      vertex   8.477997e+000 1.878548e+002 3.085916e+000
    endloop
  endfacet
  facet normal 1.000000e+000 -2.442310e-004 0.000000e+000
    outer loop
      vertex   8.477997e+000 1.878548e+002 3.085916e+000
      vertex   8.477875e+000 1.873548e+002 1.952647e+000
      vertex   8.477997e+000 1.878548e+002 1.952647e+000
    endloop
  endfacet
  facet normal 2.544906e-015 -4.441514e-015 -1.000000e+000
    outer loop
      vertex   8.477875e+000 1.873548e+002 1.952647e+000
      vertex   3.245068e+000 1.873561e+002 1.952647e+000
      vertex   8.477997e+000 1.878548e+002 1.952647e+000
    endloop
  endfacet
  facet normal 1.807314e-015 3.297800e-015 -1.000000e+000
    outer loop
      vertex   8.477997e+000 1.878548e+002 1.952647e+000
      vertex   3.245068e+000 1.873561e+002 1.952647e+000
      vertex   -6.176164e-001 1.878571e+002 1.952647e+000
    endloop
  endfacet
  facet normal 1.766260e-015 2.981239e-015 -1.000000e+000
    outer loop
      vertex   -6.176164e-001 1.878571e+002 1.952647e+000
      vertex   3.245068e+000 1.873561e+002 1.952647e+000
      vertex   -6.816247e+000 1.873586e+002 1.952647e+000
    endloop
  endfacet
  facet normal 1.788286e-015 2.807779e-015 -1.000000e+000
    outer loop
      vertex   -9.713230e+000 1.878593e+002 1.952647e+000
      vertex   -6.816247e+000 1.873586e+002 1.952647e+000
      vertex   -1.687756e+001 1.873610e+002 1.952647e+000
    endloop
  endfacet
  facet normal 1.766112e-015 2.378582e-015 -1.000000e+000
    outer loop
      vertex   -1.880884e+001 1.878615e+002 1.952647e+000
      vertex   -1.687756e+001 1.873610e+002 1.952647e+000
      vertex   -2.693888e+001 1.873635e+002 1.952647e+000
    endloop
  endfacet
  facet normal 1.743959e-015 2.034635e-015 -1.000000e+000
    outer loop
      vertex   -2.790446e+001 1.878637e+002 1.952647e+000
      vertex   -2.693888e+001 1.873635e+002 1.952647e+000
      vertex   -3.700019e+001 1.873660e+002 1.952647e+000
    endloop
  endfacet
  facet normal 1.855333e-015 -4.531298e-019 -1.000000e+000
    outer loop
      vertex   -3.700007e+001 1.878660e+002 1.952647e+000
      vertex   -2.790446e+001 1.878637e+002 1.952647e+000
      vertex   -3.700019e+001 1.873660e+002 1.952647e+000
    endloop
  endfacet
  facet normal 1.782774e-015 2.775885e-015 -1.000000e+000
    outer loop
      vertex   -6.176164e-001 1.878571e+002 1.952647e+000
      vertex   -6.816247e+000 1.873586e+002 1.952647e+000
      vertex   -9.713230e+000 1.878593e+002 1.952647e+000
    endloop
  endfacet
  facet normal 1.807128e-015 2.536858e-015 -1.000000e+000
    outer loop
      vertex   -9.713230e+000 1.878593e+002 1.952647e+000
      vertex   -1.687756e+001 1.873610e+002 1.952647e+000
      vertex   -1.880884e+001 1.878615e+002 1.952647e+000
    endloop
  endfacet
  facet normal 1.782611e-015 2.109243e-015 -1.000000e+000
    outer loop
      vertex   -1.880884e+001 1.878615e+002 1.952647e+000
      vertex   -2.693888e+001 1.873635e+002 1.952647e+000
      vertex   -2.790446e+001 1.878637e+002 1.952647e+000
    endloop
  endfacet
  facet normal -1.000000e+000 2.442310e-004 -1.880956e-014
    outer loop
      vertex   -3.700019e+001 1.873660e+002 1.952647e+000
      vertex   -3.700019e+001 1.873660e+002 3.085916e+000
      vertex   -3.700007e+001 1.878660e+002 1.952647e+000
    endloop
  endfacet
  facet normal -1.000000e+000 2.442310e-004 -1.880956e-014
    outer loop
      vertex   -3.700007e+001 1.878660e+002 1.952647e+000
      vertex   -3.700019e+001 1.873660e+002 3.085916e+000
      vertex   -3.700007e+001 1.878660e+002 3.085916e+000
    endloop
  endfacet
  facet normal -1.952982e-015 4.769788e-019 1.000000e+000
    outer loop
      vertex   -3.700007e+001 1.878660e+002 3.085916e+000
      vertex   -3.700019e+001 1.873660e+002 3.085916e+000
      vertex   -2.790446e+001 1.878637e+002 3.085916e+000
    endloop
  endfacet
  facet normal -1.942133e-015 -1.977602e-016 1.000000e+000
    outer loop
      vertex   -2.790446e+001 1.878637e+002 3.085916e+000
      vertex   -3.700019e+001 1.873660e+002 3.085916e+000
      vertex   -2.693888e+001 1.873635e+002 3.085916e+000
    endloop
  endfacet
  facet normal -1.942181e-015 -3.959948e-016 1.000000e+000
    outer loop
      vertex   -1.880884e+001 1.878615e+002 3.085916e+000
      vertex   -2.693888e+001 1.873635e+002 3.085916e+000
      vertex   -1.687756e+001 1.873610e+002 3.085916e+000
    endloop
  endfacet
  facet normal -1.942013e-015 2.939491e-016 1.000000e+000
    outer loop
      vertex   -9.713230e+000 1.878593e+002 3.085916e+000
      vertex   -1.687756e+001 1.873610e+002 3.085916e+000
      vertex   -6.816247e+000 1.873586e+002 3.085916e+000
    endloop
  endfacet
  facet normal -1.898057e-015 -4.514793e-016 1.000000e+000
    outer loop
      vertex   -6.176164e-001 1.878571e+002 3.085916e+000
      vertex   -6.816247e+000 1.873586e+002 3.085916e+000
      vertex   3.245068e+000 1.873561e+002 3.085916e+000
    endloop
  endfacet
  facet normal -2.121658e-015 5.181748e-019 1.000000e+000
    outer loop
      vertex   8.477997e+000 1.878548e+002 3.085916e+000
      vertex   3.245068e+000 1.873561e+002 3.085916e+000
      vertex   8.477875e+000 1.873548e+002 3.085916e+000
    endloop
  endfacet
  facet normal -2.002113e-015 -1.253837e-015 1.000000e+000
    outer loop
      vertex   8.477997e+000 1.878548e+002 3.085916e+000
      vertex   -6.176164e-001 1.878571e+002 3.085916e+000
      vertex   3.245068e+000 1.873561e+002 3.085916e+000
    endloop
  endfacet
  facet normal -1.953035e-015 -2.188046e-016 1.000000e+000
    outer loop
      vertex   -2.790446e+001 1.878637e+002 3.085916e+000
      vertex   -2.693888e+001 1.873635e+002 3.085916e+000
      vertex   -1.880884e+001 1.878615e+002 3.085916e+000
    endloop
  endfacet
  facet normal -1.904218e-015 -2.494983e-016 1.000000e+000
    outer loop
      vertex   -1.880884e+001 1.878615e+002 3.085916e+000
      vertex   -1.687756e+001 1.873610e+002 3.085916e+000
      vertex   -9.713230e+000 1.878593e+002 3.085916e+000
    endloop
  endfacet
  facet normal -1.952926e-015 2.308108e-016 1.000000e+000
    outer loop
      vertex   -9.713230e+000 1.878593e+002 3.085916e+000
      vertex   -6.816247e+000 1.873586e+002 3.085916e+000
      vertex   -6.176164e-001 1.878571e+002 3.085916e+000
    endloop
  endfacet
  facet normal 2.442310e-004 1.000000e+000 0.000000e+000
    outer loop
      vertex   8.477997e+000 1.878548e+002 3.085916e+000
      vertex   8.477997e+000 1.878548e+002 1.952647e+000
      vertex   -6.176164e-001 1.878571e+002 3.085916e+000
    endloop
  endfacet
  facet normal 2.442310e-004 1.000000e+000 6.731710e-019
    outer loop
      vertex   -6.176164e-001 1.878571e+002 3.085916e+000
      vertex   8.477997e+000 1.878548e+002 1.952647e+000
      vertex   -6.176164e-001 1.878571e+002 1.952647e+000
    endloop
  endfacet
  facet normal 2.442310e-004 1.000000e+000 7.656463e-019
    outer loop
      vertex   -9.713230e+000 1.878593e+002 1.952647e+000
      vertex   -6.176164e-001 1.878571e+002 3.085916e+000
      vertex   -6.176164e-001 1.878571e+002 1.952647e+000
    endloop
  endfacet
  facet normal 2.442310e-004 1.000000e+000 1.148470e-018
    outer loop
      vertex   -9.713230e+000 1.878593e+002 1.952647e+000
      vertex   -9.713230e+000 1.878593e+002 3.085916e+000
      vertex   -6.176164e-001 1.878571e+002 3.085916e+000
    endloop
  endfacet
  facet normal 2.442310e-004 1.000000e+000 1.346342e-018
    outer loop
      vertex   -9.713230e+000 1.878593e+002 1.952647e+000
      vertex   -1.880884e+001 1.878615e+002 1.952647e+000
      vertex   -9.713230e+000 1.878593e+002 3.085916e+000
    endloop
  endfacet
  facet normal 2.442310e-004 1.000000e+000 7.656463e-019
    outer loop
      vertex   -9.713230e+000 1.878593e+002 3.085916e+000
      vertex   -1.880884e+001 1.878615e+002 1.952647e+000
      vertex   -1.880884e+001 1.878615e+002 3.085916e+000
    endloop
  endfacet
  facet normal 2.442310e-004 1.000000e+000 7.656463e-019
    outer loop
      vertex   -1.880884e+001 1.878615e+002 3.085916e+000
      vertex   -1.880884e+001 1.878615e+002 1.952647e+000
      vertex   -2.790446e+001 1.878637e+002 1.952647e+000
    endloop
  endfacet
  facet normal 2.442310e-004 1.000000e+000 3.062585e-018
    outer loop
      vertex   -2.790446e+001 1.878637e+002 3.085916e+000
      vertex   -2.790446e+001 1.878637e+002 1.952647e+000
      vertex   -3.700007e+001 1.878660e+002 3.085916e+000
    endloop
  endfacet
  facet normal 2.442310e-004 1.000000e+000 3.029270e-018
    outer loop
      vertex   -2.790446e+001 1.878637e+002 3.085916e+000
      vertex   -1.880884e+001 1.878615e+002 3.085916e+000
      vertex   -2.790446e+001 1.878637e+002 1.952647e+000
    endloop
  endfacet
  facet normal 2.442310e-004 1.000000e+000 4.593878e-018
    outer loop
      vertex   -2.790446e+001 1.878637e+002 1.952647e+000
      vertex   -3.700007e+001 1.878660e+002 1.952647e+000
      vertex   -3.700007e+001 1.878660e+002 3.085916e+000
    endloop
  endfacet
endsolid
