                                                                        S      1
,,23HNo Product Id specified,,,,32,38,6,99,15,36HNo Product Id for ReceiG      1
ver specified,1.0D0,2,2HMM,1,.08D0,,.001D0,10000.0D0,,,11,0,,;          G      2
     308       1       0       0       0       0       0       000010001D      1
     308       0       0       1       0                               0D      2
     408       2       0       0       0       0       0       000000001D      3
     408       0       0       1       0                               0D      4
     406       3       0       0       1       0       0       000000000D      5
     406       0       0       1       3                               0D      6
     116       4       0       0       0       0       0       000010000D      7
     116       0       0       1       0                               0D      8
     123       5       0       0       0       0       0       000010200D      9
     123       0       0       2       0                               0D     10
     190       7       0       0       0       0       0       000010000D     11
     190       0       0       1       1                               0D     12
     123       8       0       0       0       0       0       000010200D     13
     123       0       0       2       0                               0D     14
     504      10       0       0       0       0       0       000010001D     15
     504       0       0       3       1                               0D     16
     502      13       0       0       0       0       0       000010000D     17
     502       0       0       8       1                               0D     18
     110      21       0       0       0       0       0       000010000D     19
     110       0       0       2       0                               0D     20
     110      23       0       0       0       0       0       000010000D     21
     110       0       0       2       0                               0D     22
     110      25       0       0       0       0       0       000010000D     23
     110       0       0       2       0                               0D     24
     110      27       0       0       0       0       0       000010000D     25
     110       0       0       2       0                               0D     26
     508      29       0       0       0       0       0       000010000D     27
     508       0       0       1       1                               0D     28
     510      30       0       0       0       0       0       000010001D     29
     510       0       0       1       1                               0D     30
     116      31       0       0       0       0       0       000010000D     31
     116       0       0       1       0                               0D     32
     123      32       0       0       0       0       0       000010200D     33
     123       0       0       1       0                               0D     34
     190      33       0       0       0       0       0       000010000D     35
     190       0       0       1       1                               0D     36
     123      34       0       0       0       0       0       000010200D     37
     123       0       0       1       0                               0D     38
     110      35       0       0       0       0       0       000010000D     39
     110       0       0       2       0                               0D     40
     110      37       0       0       0       0       0       000010000D     41
     110       0       0       2       0                               0D     42
     110      39       0       0       0       0       0       000010000D     43
     110       0       0       2       0                               0D     44
     508      41       0       0       0       0       0       000010000D     45
     508       0       0       1       1                               0D     46
     510      42       0       0       0       0       0       000010001D     47
     510       0       0       1       1                               0D     48
     116      43       0       0       0       0       0       000010000D     49
     116       0       0       1       0                               0D     50
     123      44       0       0       0       0       0       000010200D     51
     123       0       0       2       0                               0D     52
     190      46       0       0       0       0       0       000010000D     53
     190       0       0       1       1                               0D     54
     123      47       0       0       0       0       0       000010200D     55
     123       0       0       2       0                               0D     56
     110      49       0       0       0       0       0       000010000D     57
     110       0       0       2       0                               0D     58
     110      51       0       0       0       0       0       000010000D     59
     110       0       0       2       0                               0D     60
     110      53       0       0       0       0       0       000010000D     61
     110       0       0       2       0                               0D     62
     508      55       0       0       0       0       0       000010000D     63
     508       0       0       1       1                               0D     64
     510      56       0       0       0       0       0       000010001D     65
     510       0       0       1       1                               0D     66
     116      57       0       0       0       0       0       000010000D     67
     116       0       0       1       0                               0D     68
     123      58       0       0       0       0       0       000010200D     69
     123       0       0       1       0                               0D     70
     190      59       0       0       0       0       0       000010000D     71
     190       0       0       1       1                               0D     72
     123      60       0       0       0       0       0       000010200D     73
     123       0       0       1       0                               0D     74
     110      61       0       0       0       0       0       000010000D     75
     110       0       0       2       0                               0D     76
     110      63       0       0       0       0       0       000010000D     77
     110       0       0       2       0                               0D     78
     508      65       0       0       0       0       0       000010000D     79
     508       0       0       1       1                               0D     80
     510      66       0       0       0       0       0       000010001D     81
     510       0       0       1       1                               0D     82
     116      67       0       0       0       0       0       000010000D     83
     116       0       0       1       0                               0D     84
     123      68       0       0       0       0       0       000010200D     85
     123       0       0       2       0                               0D     86
     190      70       0       0       0       0       0       000010000D     87
     190       0       0       1       1                               0D     88
     123      71       0       0       0       0       0       000010200D     89
     123       0       0       2       0                               0D     90
     508      73       0       0       0       0       0       000010000D     91
     508       0       0       1       1                               0D     92
     510      74       0       0       0       0       0       000010001D     93
     510       0       0       1       1                               0D     94
     116      75       0       0       0       0       0       000010000D     95
     116       0       0       1       0                               0D     96
     123      76       0       0       0       0       0       000010200D     97
     123       0       0       2       0                               0D     98
     190      78       0       0       0       0       0       000010000D     99
     190       0       0       1       1                               0D    100
     123      79       0       0       0       0       0       000010200D    101
     123       0       0       2       0                               0D    102
     508      81       0       0       0       0       0       000010000D    103
     508       0       0       1       1                               0D    104
     510      82       0       0       0       0       0       000010001D    105
     510       0       0       1       1                               0D    106
     514      83       0       0       0       0       0       000010000D    107
     514       0       0       1       1                               0D    108
     186      84       0       0       1       0       0       000010000D    109
     186       0       0       1       0                               0D    110
308,0,18H204_feltBack Copy1,1,109;                                     1P      1
408,1,0.0D0,0.0D0,0.0D0,1.0D0;                                         3P      2
406,2,0,18H204_feltBack Copy1;                                         5P      3
116,45.5138656406709D0,175.564140677444D0,31.5534310305338D0,0;        7P      4
123,2.42752740751756D-5,-3.14493595363502D-23,                         9P      5
.999999999705355D0;                                                    9P      6
190,7,9,13;                                                           11P      7
123,.999999999705355D0,1.26422170802557D-21,                          13P      8
-2.42752740751756D-5;                                                 13P      9
504,12,19,17,1,17,2,21,17,3,17,2,23,17,4,17,3,25,17,4,17,1,39,        15P     10
17,2,17,5,41,17,6,17,5,43,17,3,17,6,57,17,5,17,7,59,17,8,17,7,        15P     11
61,17,6,17,8,75,17,7,17,1,77,17,8,17,4;                               15P     12
502,8,43.9263656411386D0,175.564140677444D0,31.5534695675314D0,       17P     13
43.9263656411386D0,164.134140677444D0,31.5534695675314D0,             17P     14
45.5138656406709D0,164.134140677444D0,31.5534310305338D0,             17P     15
45.5138656406709D0,175.564140677444D0,31.5534310305338D0,             17P     16
43.9253946301756D0,164.134140677444D0,-8.44653042068286D0,            17P     17
45.5128946297079D0,164.134140677444D0,-8.44656895768045D0,            17P     18
43.9253946301756D0,175.564140677444D0,-8.44653042068286D0,            17P     19
45.5128946297079D0,175.564140677444D0,-8.44656895768045D0;            17P     20
110,43.9263656411386D0,175.564140677444D0,31.5534695675314D0,         19P     21
43.9263656411386D0,164.134140677444D0,31.5534695675314D0;             19P     22
110,45.5138656406709D0,164.134140677444D0,31.5534310305338D0,         21P     23
43.9263656411386D0,164.134140677444D0,31.5534695675314D0;             21P     24
110,45.5138656406709D0,175.564140677444D0,31.5534310305338D0,         23P     25
45.5138656406709D0,164.134140677444D0,31.5534310305338D0;             23P     26
110,45.5138656406709D0,175.564140677444D0,31.5534310305338D0,         25P     27
43.9263656411386D0,175.564140677444D0,31.5534695675314D0;             25P     28
508,4,0,15,1,1,0,0,15,2,0,0,0,15,3,0,0,0,15,4,1,0;                    27P     29
510,11,1,1,27;                                                        29P     30
116,45.5138656406709D0,164.134140677444D0,31.5534310305338D0,0;       31P     31
123,0.0D0,-1.0D0,0.0D0;                                               33P     32
190,31,33,37;                                                         35P     33
123,-.999999999705355D0,0.0D0,2.42752740751756D-5;                    37P     34
110,43.9263656411386D0,164.134140677444D0,31.5534695675314D0,         39P     35
43.9253946301756D0,164.134140677444D0,-8.44653042068287D0;            39P     36
110,45.5128946297079D0,164.134140677444D0,-8.44656895768045D0,        41P     37
43.9253946301756D0,164.134140677444D0,-8.44653042068286D0;            41P     38
110,45.5138656406709D0,164.134140677444D0,31.5534310305338D0,         43P     39
45.5128946297079D0,164.134140677444D0,-8.44656895768047D0;            43P     40
508,4,0,15,5,1,0,0,15,6,0,0,0,15,7,0,0,0,15,2,1,0;                    45P     41
510,35,1,1,45;                                                        47P     42
116,45.5128946297079D0,175.564140677444D0,-8.44656895768045D0,0;      49P     43
123,-2.42752740751756D-5,3.03538697412055D-16,                        51P     44
-.999999999705355D0;                                                  51P     45
190,49,51,55;                                                         53P     46
123,-.999999999705355D0,-1.26422170802556D-21,                        55P     47
2.42752740751756D-5;                                                  55P     48
110,43.9253946301756D0,164.134140677444D0,-8.44653042068286D0,        57P     49
43.9253946301756D0,175.564140677444D0,-8.44653042068286D0;            57P     50
110,45.5128946297079D0,175.564140677444D0,-8.44656895768045D0,        59P     51
43.9253946301756D0,175.564140677444D0,-8.44653042068286D0;            59P     52
110,45.5128946297079D0,164.134140677444D0,-8.44656895768045D0,        61P     53
45.5128946297079D0,175.564140677444D0,-8.44656895768045D0;            61P     54
508,4,0,15,8,1,0,0,15,9,0,0,0,15,10,0,0,0,15,6,1,0;                   63P     55
510,53,1,1,63;                                                        65P     56
116,45.5138656406709D0,175.564140677444D0,31.5534310305338D0,0;       67P     57
123,0.0D0,1.0D0,0.0D0;                                                69P     58
190,67,69,73;                                                         71P     59
123,.999999999705355D0,0.0D0,-2.42752740751756D-5;                    73P     60
110,43.9253946301756D0,175.564140677444D0,-8.44653042068286D0,        75P     61
43.9263656411386D0,175.564140677444D0,31.5534695675314D0;             75P     62
110,45.5128946297079D0,175.564140677444D0,-8.44656895768045D0,        77P     63
45.5138656406709D0,175.564140677444D0,31.5534310305338D0;             77P     64
508,4,0,15,11,1,0,0,15,4,0,0,0,15,12,0,0,0,15,9,1,0;                  79P     65
510,71,1,1,79;                                                        81P     66
116,45.5138656406709D0,164.134140677444D0,31.5534310305338D0,0;       83P     67
123,.999999999705355D0,1.26422170802557D-21,                          85P     68
-2.42752740751756D-5;                                                 85P     69
190,83,85,89;                                                         87P     70
123,-2.42752740751756D-5,3.14493595363502D-23,                        89P     71
-.999999999705355D0;                                                  89P     72
508,4,0,15,3,1,0,0,15,7,1,0,0,15,10,1,0,0,15,12,1,0;                  91P     73
510,87,1,1,91;                                                        93P     74
116,43.9263656411386D0,164.134140677444D0,31.5534695675314D0,0;       95P     75
123,-.999999999705355D0,-1.26422170802557D-21,                        97P     76
2.42752740751756D-5;                                                  97P     77
190,95,97,101;                                                        99P     78
123,2.42752740751756D-5,-3.14493595363502D-23,                       101P     79
.999999999705355D0;                                                  101P     80
508,4,0,15,1,0,0,0,15,11,0,0,0,15,8,0,0,0,15,5,0,0;                  103P     81
510,99,1,1,103;                                                      105P     82
514,6,29,1,47,1,65,1,81,1,93,1,105,1;                                107P     83
186,107,1,0;                                                         109P     84
S      1G      2D    110P     84                                        T      1
