solid ascii
  facet normal 2.427527e-005 0.000000e+000 1.000000e+000
    outer loop
      vertex   4.551387e+001 1.755641e+002 3.155343e+001
      vertex   4.392637e+001 1.755641e+002 3.155347e+001
      vertex   4.551387e+001 1.698491e+002 3.155343e+001
    endloop
  endfacet
  facet normal 2.427527e-005 0.000000e+000 1.000000e+000
    outer loop
      vertex   4.551387e+001 1.698491e+002 3.155343e+001
      vertex   4.392637e+001 1.755641e+002 3.155347e+001
      vertex   4.392637e+001 1.698491e+002 3.155347e+001
    endloop
  endfacet
  facet normal 2.427527e-005 0.000000e+000 1.000000e+000
    outer loop
      vertex   4.551387e+001 1.641341e+002 3.155343e+001
      vertex   4.392637e+001 1.698491e+002 3.155347e+001
      vertex   4.392637e+001 1.641341e+002 3.155347e+001
    endloop
  endfacet
  facet normal 2.427527e-005 -0.000000e+000 1.000000e+000
    outer loop
      vertex   4.551387e+001 1.641341e+002 3.155343e+001
      vertex   4.551387e+001 1.698491e+002 3.155343e+001
      vertex   4.392637e+001 1.698491e+002 3.155347e+001
    endloop
  endfacet
  facet normal -0.000000e+000 -1.000000e+000 -0.000000e+000
    outer loop
      vertex   4.551387e+001 1.641341e+002 3.155343e+001
      vertex   4.392637e+001 1.641341e+002 3.155347e+001
      vertex   4.551362e+001 1.641341e+002 2.155343e+001
    endloop
  endfacet
  facet normal -0.000000e+000 -1.000000e+000 0.000000e+000
    outer loop
      vertex   4.551362e+001 1.641341e+002 2.155343e+001
      vertex   4.392637e+001 1.641341e+002 3.155347e+001
      vertex   4.392612e+001 1.641341e+002 2.155347e+001
    endloop
  endfacet
  facet normal -0.000000e+000 -1.000000e+000 0.000000e+000
    outer loop
      vertex   4.551338e+001 1.641341e+002 1.155343e+001
      vertex   4.392612e+001 1.641341e+002 2.155347e+001
      vertex   4.392588e+001 1.641341e+002 1.155347e+001
    endloop
  endfacet
  facet normal -0.000000e+000 -1.000000e+000 0.000000e+000
    outer loop
      vertex   4.551314e+001 1.641341e+002 1.553431e+000
      vertex   4.392588e+001 1.641341e+002 1.155347e+001
      vertex   4.392564e+001 1.641341e+002 1.553470e+000
    endloop
  endfacet
  facet normal -0.000000e+000 -1.000000e+000 0.000000e+000
    outer loop
      vertex   4.551289e+001 1.641341e+002 -8.446569e+000
      vertex   4.392564e+001 1.641341e+002 1.553470e+000
      vertex   4.392539e+001 1.641341e+002 -8.446530e+000
    endloop
  endfacet
  facet normal 0.000000e+000 -1.000000e+000 0.000000e+000
    outer loop
      vertex   4.551289e+001 1.641341e+002 -8.446569e+000
      vertex   4.551314e+001 1.641341e+002 1.553431e+000
      vertex   4.392564e+001 1.641341e+002 1.553470e+000
    endloop
  endfacet
  facet normal -0.000000e+000 -1.000000e+000 -0.000000e+000
    outer loop
      vertex   4.551362e+001 1.641341e+002 2.155343e+001
      vertex   4.392612e+001 1.641341e+002 2.155347e+001
      vertex   4.551338e+001 1.641341e+002 1.155343e+001
    endloop
  endfacet
  facet normal -0.000000e+000 -1.000000e+000 -0.000000e+000
    outer loop
      vertex   4.551338e+001 1.641341e+002 1.155343e+001
      vertex   4.392588e+001 1.641341e+002 1.155347e+001
      vertex   4.551314e+001 1.641341e+002 1.553431e+000
    endloop
  endfacet
  facet normal -2.427527e-005 3.108224e-016 -1.000000e+000
    outer loop
      vertex   4.551289e+001 1.641341e+002 -8.446569e+000
      vertex   4.392539e+001 1.641341e+002 -8.446530e+000
      vertex   4.551289e+001 1.698491e+002 -8.446569e+000
    endloop
  endfacet
  facet normal -2.427527e-005 3.108236e-016 -1.000000e+000
    outer loop
      vertex   4.551289e+001 1.698491e+002 -8.446569e+000
      vertex   4.392539e+001 1.641341e+002 -8.446530e+000
      vertex   4.392539e+001 1.698491e+002 -8.446530e+000
    endloop
  endfacet
  facet normal -2.427527e-005 3.108236e-016 -1.000000e+000
    outer loop
      vertex   4.551289e+001 1.755641e+002 -8.446569e+000
      vertex   4.392539e+001 1.698491e+002 -8.446530e+000
      vertex   4.392539e+001 1.755641e+002 -8.446530e+000
    endloop
  endfacet
  facet normal -2.427527e-005 3.108236e-016 -1.000000e+000
    outer loop
      vertex   4.551289e+001 1.755641e+002 -8.446569e+000
      vertex   4.551289e+001 1.698491e+002 -8.446569e+000
      vertex   4.392539e+001 1.698491e+002 -8.446530e+000
    endloop
  endfacet
  facet normal 0.000000e+000 1.000000e+000 -0.000000e+000
    outer loop
      vertex   4.551289e+001 1.755641e+002 -8.446569e+000
      vertex   4.392539e+001 1.755641e+002 -8.446530e+000
      vertex   4.551314e+001 1.755641e+002 1.553431e+000
    endloop
  endfacet
  facet normal 0.000000e+000 1.000000e+000 -0.000000e+000
    outer loop
      vertex   4.551314e+001 1.755641e+002 1.553431e+000
      vertex   4.392539e+001 1.755641e+002 -8.446530e+000
      vertex   4.392564e+001 1.755641e+002 1.553470e+000
    endloop
  endfacet
  facet normal 0.000000e+000 1.000000e+000 -0.000000e+000
    outer loop
      vertex   4.551338e+001 1.755641e+002 1.155343e+001
      vertex   4.392564e+001 1.755641e+002 1.553470e+000
      vertex   4.392588e+001 1.755641e+002 1.155347e+001
    endloop
  endfacet
  facet normal 0.000000e+000 1.000000e+000 -0.000000e+000
    outer loop
      vertex   4.551362e+001 1.755641e+002 2.155343e+001
      vertex   4.392588e+001 1.755641e+002 1.155347e+001
      vertex   4.392612e+001 1.755641e+002 2.155347e+001
    endloop
  endfacet
  facet normal 0.000000e+000 1.000000e+000 -0.000000e+000
    outer loop
      vertex   4.551387e+001 1.755641e+002 3.155343e+001
      vertex   4.392612e+001 1.755641e+002 2.155347e+001
      vertex   4.392637e+001 1.755641e+002 3.155347e+001
    endloop
  endfacet
  facet normal 0.000000e+000 1.000000e+000 0.000000e+000
    outer loop
      vertex   4.551387e+001 1.755641e+002 3.155343e+001
      vertex   4.551362e+001 1.755641e+002 2.155343e+001
      vertex   4.392612e+001 1.755641e+002 2.155347e+001
    endloop
  endfacet
  facet normal 0.000000e+000 1.000000e+000 -0.000000e+000
    outer loop
      vertex   4.551314e+001 1.755641e+002 1.553431e+000
      vertex   4.392564e+001 1.755641e+002 1.553470e+000
      vertex   4.551338e+001 1.755641e+002 1.155343e+001
    endloop
  endfacet
  facet normal 0.000000e+000 1.000000e+000 -0.000000e+000
    outer loop
      vertex   4.551338e+001 1.755641e+002 1.155343e+001
      vertex   4.392588e+001 1.755641e+002 1.155347e+001
      vertex   4.551362e+001 1.755641e+002 2.155343e+001
    endloop
  endfacet
  facet normal 1.000000e+000 0.000000e+000 -2.427527e-005
    outer loop
      vertex   4.551387e+001 1.755641e+002 3.155343e+001
      vertex   4.551387e+001 1.698491e+002 3.155343e+001
      vertex   4.551362e+001 1.755641e+002 2.155343e+001
    endloop
  endfacet
  facet normal 1.000000e+000 6.216396e-016 -2.427527e-005
    outer loop
      vertex   4.551362e+001 1.755641e+002 2.155343e+001
      vertex   4.551387e+001 1.698491e+002 3.155343e+001
      vertex   4.551362e+001 1.641341e+002 2.155343e+001
    endloop
  endfacet
  facet normal 1.000000e+000 6.216396e-016 -2.427527e-005
    outer loop
      vertex   4.551338e+001 1.641341e+002 1.155343e+001
      vertex   4.551362e+001 1.755641e+002 2.155343e+001
      vertex   4.551362e+001 1.641341e+002 2.155343e+001
    endloop
  endfacet
  facet normal 1.000000e+000 7.545328e-021 -2.427527e-005
    outer loop
      vertex   4.551338e+001 1.641341e+002 1.155343e+001
      vertex   4.551338e+001 1.755641e+002 1.155343e+001
      vertex   4.551362e+001 1.755641e+002 2.155343e+001
    endloop
  endfacet
  facet normal 1.000000e+000 7.588467e-021 -2.427527e-005
    outer loop
      vertex   4.551338e+001 1.641341e+002 1.155343e+001
      vertex   4.551314e+001 1.641341e+002 1.553431e+000
      vertex   4.551338e+001 1.755641e+002 1.155343e+001
    endloop
  endfacet
  facet normal 1.000000e+000 6.216585e-016 -2.427527e-005
    outer loop
      vertex   4.551338e+001 1.755641e+002 1.155343e+001
      vertex   4.551314e+001 1.641341e+002 1.553431e+000
      vertex   4.551314e+001 1.755641e+002 1.553431e+000
    endloop
  endfacet
  facet normal 1.000000e+000 6.216585e-016 -2.427527e-005
    outer loop
      vertex   4.551314e+001 1.755641e+002 1.553431e+000
      vertex   4.551314e+001 1.641341e+002 1.553431e+000
      vertex   4.551289e+001 1.698491e+002 -8.446569e+000
    endloop
  endfacet
  facet normal 1.000000e+000 7.588467e-021 -2.427527e-005
    outer loop
      vertex   4.551289e+001 1.755641e+002 -8.446569e+000
      vertex   4.551314e+001 1.755641e+002 1.553431e+000
      vertex   4.551289e+001 1.698491e+002 -8.446569e+000
    endloop
  endfacet
  facet normal 1.000000e+000 0.000000e+000 -2.427527e-005
    outer loop
      vertex   4.551387e+001 1.698491e+002 3.155343e+001
      vertex   4.551387e+001 1.641341e+002 3.155343e+001
      vertex   4.551362e+001 1.641341e+002 2.155343e+001
    endloop
  endfacet
  facet normal 1.000000e+000 7.545328e-021 -2.427527e-005
    outer loop
      vertex   4.551314e+001 1.641341e+002 1.553431e+000
      vertex   4.551289e+001 1.641341e+002 -8.446569e+000
      vertex   4.551289e+001 1.698491e+002 -8.446569e+000
    endloop
  endfacet
  facet normal -1.000000e+000 0.000000e+000 2.427527e-005
    outer loop
      vertex   4.392637e+001 1.641341e+002 3.155347e+001
      vertex   4.392637e+001 1.698491e+002 3.155347e+001
      vertex   4.392612e+001 1.641341e+002 2.155347e+001
    endloop
  endfacet
  facet normal -1.000000e+000 -6.216396e-016 2.427527e-005
    outer loop
      vertex   4.392612e+001 1.641341e+002 2.155347e+001
      vertex   4.392637e+001 1.698491e+002 3.155347e+001
      vertex   4.392612e+001 1.755641e+002 2.155347e+001
    endloop
  endfacet
  facet normal -1.000000e+000 -6.216396e-016 2.427527e-005
    outer loop
      vertex   4.392588e+001 1.755641e+002 1.155347e+001
      vertex   4.392612e+001 1.641341e+002 2.155347e+001
      vertex   4.392612e+001 1.755641e+002 2.155347e+001
    endloop
  endfacet
  facet normal -1.000000e+000 -7.545328e-021 2.427527e-005
    outer loop
      vertex   4.392588e+001 1.755641e+002 1.155347e+001
      vertex   4.392588e+001 1.641341e+002 1.155347e+001
      vertex   4.392612e+001 1.641341e+002 2.155347e+001
    endloop
  endfacet
  facet normal -1.000000e+000 -7.588467e-021 2.427527e-005
    outer loop
      vertex   4.392588e+001 1.755641e+002 1.155347e+001
      vertex   4.392564e+001 1.755641e+002 1.553470e+000
      vertex   4.392588e+001 1.641341e+002 1.155347e+001
    endloop
  endfacet
  facet normal -1.000000e+000 -6.216585e-016 2.427527e-005
    outer loop
      vertex   4.392588e+001 1.641341e+002 1.155347e+001
      vertex   4.392564e+001 1.755641e+002 1.553470e+000
      vertex   4.392564e+001 1.641341e+002 1.553470e+000
    endloop
  endfacet
  facet normal -1.000000e+000 -6.216585e-016 2.427527e-005
    outer loop
      vertex   4.392564e+001 1.641341e+002 1.553470e+000
      vertex   4.392564e+001 1.755641e+002 1.553470e+000
      vertex   4.392539e+001 1.698491e+002 -8.446530e+000
    endloop
  endfacet
  facet normal -1.000000e+000 -7.588467e-021 2.427527e-005
    outer loop
      vertex   4.392539e+001 1.641341e+002 -8.446530e+000
      vertex   4.392564e+001 1.641341e+002 1.553470e+000
      vertex   4.392539e+001 1.698491e+002 -8.446530e+000
    endloop
  endfacet
  facet normal -1.000000e+000 0.000000e+000 2.427527e-005
    outer loop
      vertex   4.392637e+001 1.698491e+002 3.155347e+001
      vertex   4.392637e+001 1.755641e+002 3.155347e+001
      vertex   4.392612e+001 1.755641e+002 2.155347e+001
    endloop
  endfacet
  facet normal -1.000000e+000 -7.545328e-021 2.427527e-005
    outer loop
      vertex   4.392564e+001 1.755641e+002 1.553470e+000
      vertex   4.392539e+001 1.755641e+002 -8.446530e+000
      vertex   4.392539e+001 1.698491e+002 -8.446530e+000
    endloop
  endfacet
endsolid
