                                                                        S      1
,,23HNo Product Id specified,,,,32,38,6,99,15,36HNo Product Id for ReceiG      1
ver specified,1.0D0,2,2HMM,1,.08D0,,.001D0,10000.0D0,,,11,0,,;          G      2
     308       1       0       0       0       0       0       000010001D      1
     308       0       0       1       0                               0D      2
     408       2       0       0       0       0       0       000000001D      3
     408       0       0       1       0                               0D      4
     406       3       0       0       1       0       0       000000000D      5
     406       0       0       1       3                               0D      6
     116       4       0       0       0       0       0       000010000D      7
     116       0       0       1       0                               0D      8
     123       5       0       0       0       0       0       000010200D      9
     123       0       0       2       0                               0D     10
     192       7       0       0       0       0       0       000010000D     11
     192       0       0       1       1                               0D     12
     123       8       0       0       0       0       0       000010200D     13
     123       0       0       2       0                               0D     14
     504      10       0       0       0       0       0       000010001D     15
     504       0       0       6       1                               0D     16
     502      16       0       0       0       0       0       000010000D     17
     502       0       0      16       1                               0D     18
     110      32       0       0       0       0       0       000010000D     19
     110       0       0       2       0                               0D     20
     100      34       0       0       0       0      25       000010000D     21
     100       0       0       2       0                               0D     22
     124      36       0       0       0       0       0       000000000D     23
     124       0       0       5       0                               0D     24
     124      41       0       0       0       0       0       000000000D     25
     124       0       0       5       0                               0D     26
     110      46       0       0       0       0       0       000010000D     27
     110       0       0       2       0                               0D     28
     100      48       0       0       0       0      31       000010000D     29
     100       0       0       2       0                               0D     30
     124      50       0       0       0       0       0       000000000D     31
     124       0       0       5       0                               0D     32
     508      55       0       0       0       0       0       000010000D     33
     508       0       0       1       1                               0D     34
     510      56       0       0       0       0       0       000010001D     35
     510       0       0       1       1                               0D     36
     116      57       0       0       0       0       0       000010000D     37
     116       0       0       1       0                               0D     38
     123      58       0       0       0       0       0       000010200D     39
     123       0       0       2       0                               0D     40
     192      60       0       0       0       0       0       000010000D     41
     192       0       0       1       1                               0D     42
     123      61       0       0       0       0       0       000010200D     43
     123       0       0       2       0                               0D     44
     110      63       0       0       0       0       0       000010000D     45
     110       0       0       2       0                               0D     46
     100      65       0       0       0       0      51       000010000D     47
     100       0       0       2       0                               0D     48
     124      67       0       0       0       0       0       000000000D     49
     124       0       0       5       0                               0D     50
     124      72       0       0       0       0       0       000000000D     51
     124       0       0       5       0                               0D     52
     110      77       0       0       0       0       0       000010000D     53
     110       0       0       2       0                               0D     54
     100      79       0       0       0       0      57       000010000D     55
     100       0       0       2       0                               0D     56
     124      81       0       0       0       0       0       000000000D     57
     124       0       0       5       0                               0D     58
     508      86       0       0       0       0       0       000010000D     59
     508       0       0       1       1                               0D     60
     510      87       0       0       0       0       0       000010001D     61
     510       0       0       1       1                               0D     62
     116      88       0       0       0       0       0       000010000D     63
     116       0       0       1       0                               0D     64
     123      89       0       0       0       0       0       000010200D     65
     123       0       0       2       0                               0D     66
     190      91       0       0       0       0       0       000010000D     67
     190       0       0       1       1                               0D     68
     123      92       0       0       0       0       0       000010200D     69
     123       0       0       2       0                               0D     70
     110      94       0       0       0       0       0       000010000D     71
     110       0       0       2       0                               0D     72
     110      96       0       0       0       0       0       000010000D     73
     110       0       0       2       0                               0D     74
     110      98       0       0       0       0       0       000010000D     75
     110       0       0       2       0                               0D     76
     110     100       0       0       0       0       0       000010000D     77
     110       0       0       2       0                               0D     78
     508     102       0       0       0       0       0       000010000D     79
     508       0       0       1       1                               0D     80
     100     103       0       0       0       0      83       000010000D     81
     100       0       0       2       0                               0D     82
     124     105       0       0       0       0       0       000000000D     83
     124       0       0       5       0                               0D     84
     508     110       0       0       0       0       0       000010000D     85
     508       0       0       1       1                               0D     86
     100     111       0       0       0       0      89       000010000D     87
     100       0       0       2       0                               0D     88
     124     113       0       0       0       0       0       000000000D     89
     124       0       0       5       0                               0D     90
     508     118       0       0       0       0       0       000010000D     91
     508       0       0       1       1                               0D     92
     510     119       0       0       0       0       0       000010001D     93
     510       0       0       1       1                               0D     94
     116     120       0       0       0       0       0       000010000D     95
     116       0       0       1       0                               0D     96
     123     121       0       0       0       0       0       000010200D     97
     123       0       0       2       0                               0D     98
     190     123       0       0       0       0       0       000010000D     99
     190       0       0       1       1                               0D    100
     123     124       0       0       0       0       0       000010200D    101
     123       0       0       2       0                               0D    102
     110     126       0       0       0       0       0       000010000D    103
     110       0       0       2       0                               0D    104
     110     128       0       0       0       0       0       000010000D    105
     110       0       0       2       0                               0D    106
     110     130       0       0       0       0       0       000010000D    107
     110       0       0       2       0                               0D    108
     508     132       0       0       0       0       0       000010000D    109
     508       0       0       1       1                               0D    110
     510     133       0       0       0       0       0       000010001D    111
     510       0       0       1       1                               0D    112
     116     134       0       0       0       0       0       000010000D    113
     116       0       0       1       0                               0D    114
     123     135       0       0       0       0       0       000010200D    115
     123       0       0       2       0                               0D    116
     190     137       0       0       0       0       0       000010000D    117
     190       0       0       1       1                               0D    118
     123     138       0       0       0       0       0       000010200D    119
     123       0       0       2       0                               0D    120
     110     140       0       0       0       0       0       000010000D    121
     110       0       0       2       0                               0D    122
     110     142       0       0       0       0       0       000010000D    123
     110       0       0       2       0                               0D    124
     110     144       0       0       0       0       0       000010000D    125
     110       0       0       2       0                               0D    126
     508     146       0       0       0       0       0       000010000D    127
     508       0       0       1       1                               0D    128
     510     147       0       0       0       0       0       000010001D    129
     510       0       0       1       1                               0D    130
     116     148       0       0       0       0       0       000010000D    131
     116       0       0       1       0                               0D    132
     123     149       0       0       0       0       0       000010200D    133
     123       0       0       2       0                               0D    134
     190     151       0       0       0       0       0       000010000D    135
     190       0       0       1       1                               0D    136
     123     152       0       0       0       0       0       000010200D    137
     123       0       0       1       0                               0D    138
     110     153       0       0       0       0       0       000010000D    139
     110       0       0       2       0                               0D    140
     110     155       0       0       0       0       0       000010000D    141
     110       0       0       2       0                               0D    142
     508     157       0       0       0       0       0       000010000D    143
     508       0       0       1       1                               0D    144
     510     158       0       0       0       0       0       000010001D    145
     510       0       0       1       1                               0D    146
     116     159       0       0       0       0       0       000010000D    147
     116       0       0       1       0                               0D    148
     123     160       0       0       0       0       0       000010200D    149
     123       0       0       1       0                               0D    150
     190     161       0       0       0       0       0       000010000D    151
     190       0       0       1       1                               0D    152
     123     162       0       0       0       0       0       000010200D    153
     123       0       0       1       0                               0D    154
     508     163       0       0       0       0       0       000010000D    155
     508       0       0       1       1                               0D    156
     510     164       0       0       0       0       0       000010001D    157
     510       0       0       1       1                               0D    158
     116     165       0       0       0       0       0       000010000D    159
     116       0       0       1       0                               0D    160
     123     166       0       0       0       0       0       000010200D    161
     123       0       0       1       0                               0D    162
     190     167       0       0       0       0       0       000010000D    163
     190       0       0       1       1                               0D    164
     123     168       0       0       0       0       0       000010200D    165
     123       0       0       1       0                               0D    166
     508     169       0       0       0       0       0       000010000D    167
     508       0       0       1       1                               0D    168
     510     170       0       0       0       0       0       000010001D    169
     510       0       0       1       1                               0D    170
     116     171       0       0       0       0       0       000010000D    171
     116       0       0       1       0                               0D    172
     123     172       0       0       0       0       0       000010200D    173
     123       0       0       2       0                               0D    174
     192     174       0       0       0       0       0       000010000D    175
     192       0       0       1       1                               0D    176
     123     175       0       0       0       0       0       000010200D    177
     123       0       0       2       0                               0D    178
     100     177       0       0       0       0      57       000010000D    179
     100       0       0       2       0                               0D    180
     508     179       0       0       0       0       0       000010000D    181
     508       0       0       1       1                               0D    182
     510     180       0       0       0       0       0       000010001D    183
     510       0       0       1       1                               0D    184
     116     181       0       0       0       0       0       000010000D    185
     116       0       0       1       0                               0D    186
     123     182       0       0       0       0       0       000010200D    187
     123       0       0       2       0                               0D    188
     190     184       0       0       0       0       0       000010000D    189
     190       0       0       1       1                               0D    190
     123     185       0       0       0       0       0       000010200D    191
     123       0       0       2       0                               0D    192
     508     187       0       0       0       0       0       000010000D    193
     508       0       0       1       1                               0D    194
     510     188       0       0       0       0       0       000010001D    195
     510       0       0       1       1                               0D    196
     116     189       0       0       0       0       0       000010000D    197
     116       0       0       1       0                               0D    198
     123     190       0       0       0       0       0       000010200D    199
     123       0       0       2       0                               0D    200
     192     192       0       0       0       0       0       000010000D    201
     192       0       0       1       1                               0D    202
     123     193       0       0       0       0       0       000010200D    203
     123       0       0       2       0                               0D    204
     100     195       0       0       0       0      31       000010000D    205
     100       0       0       2       0                               0D    206
     508     197       0       0       0       0       0       000010000D    207
     508       0       0       1       1                               0D    208
     510     198       0       0       0       0       0       000010001D    209
     510       0       0       1       1                               0D    210
     116     199       0       0       0       0       0       000010000D    211
     116       0       0       1       0                               0D    212
     123     200       0       0       0       0       0       000010200D    213
     123       0       0       2       0                               0D    214
     190     202       0       0       0       0       0       000010000D    215
     190       0       0       1       1                               0D    216
     123     203       0       0       0       0       0       000010200D    217
     123       0       0       2       0                               0D    218
     508     205       0       0       0       0       0       000010000D    219
     508       0       0       1       1                               0D    220
     510     206       0       0       0       0       0       000010001D    221
     510       0       0       1       1                               0D    222
     514     207       0       0       0       0       0       000010000D    223
     514       0       0       2       1                               0D    224
     186     209       0       0       1       0       0       000010000D    225
     186       0       0       1       0                               0D    226
308,0,14H503_pelt Copy1,1,225;                                         1P      1
408,1,0.0D0,0.0D0,0.0D0,1.0D0;                                         3P      2
406,2,0,14H503_pelt Copy1;                                             5P      3
116,5.93327394831392D0,161.236149794101D0,44.2543918639874D0,0;        7P      4
123,-2.42752740750021D-5,3.14488978246896D-23,                         9P      5
-.999999999705356D0;                                                   9P      6
192,7,9,.4953D0,13;                                                   11P      7
123,-.999999999705355D0,-6.12306458911382D-17,                        13P      8
2.42752740750021D-5;                                                  13P      9
504,24,19,17,1,17,2,21,17,1,17,3,27,17,3,17,4,29,17,2,17,4,45,        15P     10
17,5,17,6,47,17,5,17,7,53,17,7,17,8,55,17,6,17,8,71,17,9,17,10,       15P     11
73,17,11,17,10,75,17,12,17,11,77,17,12,17,9,81,17,3,17,1,87,17,       15P     12
7,17,5,103,17,10,17,13,105,17,14,17,13,107,17,11,17,14,121,17,        15P     13
13,17,15,123,17,16,17,15,125,17,14,17,16,139,17,15,17,9,141,17,       15P     14
16,17,12,179,17,8,17,6,205,17,4,17,2;                                 15P     15
502,16,5.4376656524791D0,161.236149794101D0,31.5544038912727D0,       17P     16
5.43797394845986D0,161.236149794101D0,44.2544038875307D0,             17P     17
6.42826565218723D0,161.236149794101D0,31.5543798441862D0,             17P     18
6.42857394816798D0,161.236149794101D0,44.2543798404442D0,             17P     19
41.4263656418752D0,161.164140677444D0,31.5535302557166D0,             17P     20
41.426673937856D0,161.164140677444D0,44.2535302519746D0,              17P     21
42.4263656415806D0,161.164140677444D0,31.5535059804425D0,             17P     22
42.4266739375613D0,161.164140677444D0,44.2535059767005D0,             17P     23
3.9263656529244D0,159.464140677444D0,31.5544405784944D0,              17P     24
43.9263656411386D0,159.464140677444D0,31.5534695675314D0,             17P     25
43.9263656411386D0,162.864140677444D0,31.5534695675314D0,             17P     26
3.9263656529244D0,162.864140677444D0,31.5544405784944D0,              17P     27
43.9253946301756D0,159.464140677444D0,-8.44653042068286D0,            17P     28
43.9253946301756D0,162.864140677444D0,-8.44653042068286D0,            17P     29
3.92539464196139D0,159.464140677444D0,-8.44555940971986D0,            17P     30
3.92539464196139D0,162.864140677444D0,-8.44555940971986D0;            17P     31
110,5.43766565247911D0,161.236149794101D0,31.5544038912727D0,         19P     32
5.43797394845986D0,161.236149794101D0,44.2544038875307D0;             19P     33
100,0.0D0,0.0D0,0.0D0,-.4953D0,6.06567559617685D-17,.4953D0,          21P     34
-1.21313511923537D-16;                                                21P     35
124,-.999999999705355D0,-6.12306458723335D-17,                        23P     36
-2.42752740750021D-5,5.93296565233317D0,-6.12306458911382D-17,        23P     37
1.0D0,3.14488978246896D-23,161.236149794101D0,                        23P     38
2.42752740750021D-5,1.51783960861221D-21,-.999999999705356D0,         23P     39
31.5543918677294D0;                                                   23P     40
124,.999999999705355D0,-6.12306458723335D-17,                         25P     41
2.42752740750021D-5,5.93296565233317D0,6.12306458911382D-17,          25P     42
1.0D0,-3.14488978246896D-23,161.236149794101D0,                       25P     43
-2.42752740750021D-5,1.51783960861221D-21,.999999999705356D0,         25P     44
31.5543918677294D0;                                                   25P     45
110,6.42826565218723D0,161.236149794101D0,31.5543798441862D0,         27P     46
6.42857394816798D0,161.236149794101D0,44.2543798404442D0;             27P     47
100,0.0D0,0.0D0,0.0D0,-.4953D0,6.06567559617685D-17,.4953D0,          29P     48
-1.21313511923537D-16;                                                29P     49
124,.999999999705355D0,-6.12306458723335D-17,                         31P     50
2.42752740750021D-5,5.93327394831392D0,6.12306458911382D-17,          31P     51
1.0D0,-3.14488978246896D-23,161.236149794101D0,                       31P     52
-2.42752740750021D-5,1.51783960861221D-21,.999999999705356D0,         31P     53
44.2543918639874D0;                                                   31P     54
508,4,0,15,1,0,0,0,15,2,1,0,0,15,3,1,0,0,15,4,0,0;                    33P     55
510,11,1,1,33;                                                        35P     56
116,41.9266739377087D0,161.164140677444D0,44.2535181143375D0,0;       37P     57
123,-2.42752740750021D-5,3.14488978246896D-23,                        39P     58
-.999999999705356D0;                                                  39P     59
192,37,39,.499999999999999D0,43;                                      41P     60
123,-.999999999705355D0,-6.12306458911382D-17,                        43P     61
2.42752740750021D-5;                                                  43P     62
110,41.4263656418752D0,161.164140677444D0,31.5535302557166D0,         45P     63
41.426673937856D0,161.164140677444D0,44.2535302519746D0;              45P     64
100,0.0D0,0.0D0,0.0D0,-.499999999999999D0,6.12323399573676D-17,       47P     65
.499999999999999D0,-1.22464679914735D-16;                             47P     66
124,-.999999999705355D0,-6.12306458723335D-17,                        49P     67
-2.42752740750021D-5,41.9263656417279D0,-6.12306458911382D-17,        49P     68
1.0D0,3.14488978246896D-23,161.164140677444D0,                        49P     69
2.42752740750021D-5,1.51783960861221D-21,-.999999999705356D0,         49P     70
31.5535181180795D0;                                                   49P     71
124,.999999999705355D0,-6.12306458723335D-17,                         51P     72
2.42752740750021D-5,41.9263656417279D0,6.12306458911382D-17,          51P     73
1.0D0,-3.14488978246896D-23,161.164140677444D0,                       51P     74
-2.42752740750021D-5,1.51783960861221D-21,.999999999705356D0,         51P     75
31.5535181180795D0;                                                   51P     76
110,42.4263656415806D0,161.164140677444D0,31.5535059804425D0,         53P     77
42.4266739375613D0,161.164140677444D0,44.2535059767005D0;             53P     78
100,0.0D0,0.0D0,0.0D0,-.499999999999999D0,6.12323399573676D-17,       55P     79
.499999999999999D0,-1.22464679914735D-16;                             55P     80
124,.999999999705355D0,-6.12306458723335D-17,                         57P     81
2.42752740750021D-5,41.9266739377087D0,6.12306458911382D-17,          57P     82
1.0D0,-3.14488978246896D-23,161.164140677444D0,                       57P     83
-2.42752740750021D-5,1.51783960861221D-21,.999999999705356D0,         57P     84
44.2535181143375D0;                                                   57P     85
508,4,0,15,5,0,0,0,15,6,1,0,0,15,7,1,0,0,15,8,0,0;                    59P     86
510,41,1,1,59;                                                        61P     87
116,43.9263656411386D0,162.864140677444D0,31.5534695675314D0,0;       63P     88
123,2.42752740750021D-5,-3.14488978246896D-23,                        65P     89
.999999999705356D0;                                                   65P     90
190,63,65,69;                                                         67P     91
123,.999999999705355D0,6.12306458911382D-17,                          69P     92
-2.42752740750021D-5;                                                 69P     93
110,3.9263656529244D0,159.464140677444D0,31.5544405784944D0,          71P     94
43.9263656411386D0,159.464140677444D0,31.5534695675314D0;             71P     95
110,43.9263656411386D0,162.864140677444D0,31.5534695675314D0,         73P     96
43.9263656411386D0,159.464140677444D0,31.5534695675314D0;             73P     97
110,3.9263656529244D0,162.864140677444D0,31.5544405784944D0,          75P     98
43.9263656411386D0,162.864140677444D0,31.5534695675314D0;             75P     99
110,3.9263656529244D0,162.864140677444D0,31.5544405784944D0,          77P    100
3.9263656529244D0,159.464140677444D0,31.5544405784944D0;              77P    101
508,4,0,15,9,1,0,0,15,10,0,0,0,15,11,0,0,0,15,12,1,0;                 79P    102
100,0.0D0,0.0D0,0.0D0,.4953D0,0.0D0,-.4953D0,                         81P    103
6.06567559617685D-17;                                                 81P    104
124,.999999999705355D0,-6.12306458723335D-17,                         83P    105
2.42752740750021D-5,5.93296565233317D0,6.12306458911382D-17,          83P    106
1.0D0,-3.14488978246896D-23,161.236149794101D0,                       83P    107
-2.42752740750021D-5,1.51783960861221D-21,.999999999705356D0,         83P    108
31.5543918677294D0;                                                   83P    109
508,2,0,15,2,0,0,0,15,13,0,0;                                         85P    110
100,0.0D0,0.0D0,0.0D0,.499999999999999D0,0.0D0,                       87P    111
-.499999999999999D0,6.12323399573676D-17;                             87P    112
124,.999999999705355D0,-6.12306458723335D-17,                         89P    113
2.42752740750021D-5,41.9263656417279D0,6.12306458911382D-17,          89P    114
1.0D0,-3.14488978246896D-23,161.164140677444D0,                       89P    115
-2.42752740750021D-5,1.51783960861221D-21,.999999999705356D0,         89P    116
31.5535181180795D0;                                                   89P    117
508,2,0,15,6,0,0,0,15,14,0,0;                                         91P    118
510,67,3,1,79,85,91;                                                  93P    119
116,43.9263656411386D0,162.864140677444D0,31.5534695675314D0,0;       95P    120
123,.999999999705356D0,6.12306458911382D-17,                          97P    121
-2.42752740753491D-5;                                                 97P    122
190,95,97,101;                                                        99P    123
123,-2.42752740753491D-5,3.14488978034461D-23,                       101P    124
-.999999999705355D0;                                                 101P    125
110,43.9263656411386D0,159.464140677444D0,31.5534695675314D0,        103P    126
43.9253946301756D0,159.464140677444D0,-8.44653042068286D0;           103P    127
110,43.9253946301756D0,162.864140677444D0,-8.44653042068286D0,       105P    128
43.9253946301756D0,159.464140677444D0,-8.44653042068286D0;           105P    129
110,43.9263656411386D0,162.864140677444D0,31.5534695675314D0,        107P    130
43.9253946301756D0,162.864140677444D0,-8.44653042068286D0;           107P    131
508,4,0,15,15,1,0,0,15,16,0,0,0,15,17,0,0,0,15,10,1,0;               109P    132
510,99,1,1,109;                                                      111P    133
116,43.9253946301756D0,162.864140677444D0,-8.44653042068286D0,0;     113P    134
123,-2.42752740750021D-5,3.14488978246896D-23,                       115P    135
-.999999999705356D0;                                                 115P    136
190,113,115,119;                                                     117P    137
123,-.999999999705355D0,-6.12306458911382D-17,                       119P    138
2.42752740750021D-5;                                                 119P    139
110,43.9253946301756D0,159.464140677444D0,-8.44653042068286D0,       121P    140
3.92539464196139D0,159.464140677444D0,-8.44555940971986D0;           121P    141
110,3.92539464196139D0,162.864140677444D0,-8.44555940971986D0,       123P    142
3.92539464196139D0,159.464140677444D0,-8.44555940971986D0;           123P    143
110,43.9253946301756D0,162.864140677444D0,-8.44653042068286D0,       125P    144
3.92539464196139D0,162.864140677444D0,-8.44555940971986D0;           125P    145
508,4,0,15,18,1,0,0,15,19,0,0,0,15,20,0,0,0,15,16,1,0;               127P    146
510,117,1,1,127;                                                     129P    147
116,3.9263656529244D0,162.864140677444D0,31.5544405784944D0,0;       131P    148
123,-.999999999705356D0,-6.12306458911382D-17,                       133P    149
2.42752740751756D-5;                                                 133P    150
190,131,133,137;                                                     135P    151
123,2.42752740751756D-5,-3.1448897814068D-23,.999999999705355D0;     137P    152
110,3.92539464196139D0,159.464140677444D0,-8.44555940971986D0,       139P    153
3.9263656529244D0,159.464140677444D0,31.5544405784944D0;             139P    154
110,3.92539464196139D0,162.864140677444D0,-8.44555940971986D0,       141P    155
3.9263656529244D0,162.864140677444D0,31.5544405784944D0;             141P    156
508,4,0,15,21,1,0,0,15,12,0,0,0,15,22,0,0,0,15,19,1,0;               143P    157
510,135,1,1,143;                                                     145P    158
116,43.9253946301756D0,162.864140677444D0,-8.44653042068286D0,0;     147P    159
123,0.0D0,1.0D0,0.0D0;                                               149P    160
190,147,149,153;                                                     151P    161
123,-2.42752740750021D-5,0.0D0,-.999999999705355D0;                  153P    162
508,4,0,15,17,1,0,0,15,20,1,0,0,15,22,1,0,0,15,11,1,0;               155P    163
510,151,1,1,155;                                                     157P    164
116,43.9253946301756D0,159.464140677444D0,-8.44653042068286D0,0;     159P    165
123,0.0D0,-1.0D0,0.0D0;                                              161P    166
190,159,161,165;                                                     163P    167
123,2.42752740750021D-5,0.0D0,.999999999705355D0;                    165P    168
508,4,0,15,15,0,0,0,15,9,0,0,0,15,21,0,0,0,15,18,0,0;                167P    169
510,163,1,1,167;                                                     169P    170
116,41.9266739377087D0,161.164140677444D0,44.2535181143375D0,0;      171P    171
123,-2.42752740750021D-5,3.14488978246896D-23,                       173P    172
-.999999999705356D0;                                                 173P    173
192,171,173,.499999999999999D0,177;                                  175P    174
123,-.999999999705355D0,-6.12306458911382D-17,                       177P    175
2.42752740750021D-5;                                                 177P    176
100,0.0D0,0.0D0,0.0D0,.499999999999999D0,-3.06153229455691D-17,      179P    177
-.499999999999999D0,6.12323399573676D-17;                            179P    178
508,4,0,15,5,1,0,0,15,23,0,0,0,15,7,0,0,0,15,14,1,0;                 181P    179
510,175,1,1,181;                                                     183P    180
116,41.9266739377087D0,161.164140677444D0,44.2535181143375D0,0;      185P    181
123,2.42752740750021D-5,-3.14488978246896D-23,                       187P    182
.999999999705356D0;                                                  187P    183
190,185,187,191;                                                     189P    184
123,.999999999705355D0,6.12306458911382D-17,                         191P    185
-2.42752740750021D-5;                                                191P    186
508,2,0,15,23,1,0,0,15,8,1,0;                                        193P    187
510,189,1,1,193;                                                     195P    188
116,5.93327394831392D0,161.236149794101D0,44.2543918639874D0,0;      197P    189
123,-2.42752740750021D-5,3.14488978246896D-23,                       199P    190
-.999999999705356D0;                                                 199P    191
192,197,199,.4953D0,203;                                             201P    192
123,-.999999999705355D0,-6.12306458911382D-17,                       203P    193
2.42752740750021D-5;                                                 203P    194
100,0.0D0,0.0D0,0.0D0,.4953D0,-3.03275389098808D-17,-.4953D0,        205P    195
6.06567559617685D-17;                                                205P    196
508,4,0,15,1,1,0,0,15,24,0,0,0,15,3,0,0,0,15,13,1,0;                 207P    197
510,201,1,1,207;                                                     209P    198
116,5.93327394831392D0,161.236149794101D0,44.2543918639874D0,0;      211P    199
123,2.42752740750021D-5,-3.14488978246896D-23,                       213P    200
.999999999705356D0;                                                  213P    201
190,211,213,217;                                                     215P    202
123,.999999999705355D0,6.12306458911382D-17,                         217P    203
-2.42752740750021D-5;                                                217P    204
508,2,0,15,24,1,0,0,15,4,1,0;                                        219P    205
510,215,1,1,219;                                                     221P    206
514,12,35,1,61,1,93,1,111,1,129,1,145,1,157,1,169,1,183,1,195,1,     223P    207
209,1,221,1;                                                         223P    208
186,223,1,0;                                                         225P    209
S      1G      2D    226P    209                                        T      1
