                                                                        S      1
,,23HNo Product Id specified,,,,32,38,6,99,15,36HNo Product Id for ReceiG      1
ver specified,1.0D0,2,2HMM,1,.08D0,,.001D0,10000.0D0,,,11,0,,;          G      2
     308       1       0       0       0       0       0       000010001D      1
     308       0       0       1       0                               0D      2
     408       2       0       0       0       0       0       000000001D      3
     408       0       0       1       0                               0D      4
     406       3       0       0       1       0       0       000000000D      5
     406       0       0       1       3                               0D      6
     120       4       0       0       0       0       0       000010000D      7
     120       0       0       1       0                               0D      8
     110       5       0       0       0       0       0       000010000D      9
     110       0       0       2       0                               0D     10
     110       7       0       0       0       0       0       001010000D     11
     110       0       0       2       0                               0D     12
     504       9       0       0       0       0       0       000010001D     13
     504       0       0       9       1                               0D     14
     502      18       0       0       0       0       0       000010000D     15
     502       0       0      24       1                               0D     16
     110      42       0       0       0       0       0       000010000D     17
     110       0       0       2       0                               0D     18
     100      44       0       0       0       0      21       000010000D     19
     100       0       0       2       0                               0D     20
     124      46       0       0       0       0       0       000000000D     21
     124       0       0       5       0                               0D     22
     110      51       0       0       0       0       0       000010000D     23
     110       0       0       2       0                               0D     24
     100      53       0       0       0       0      27       000010000D     25
     100       0       0       2       0                               0D     26
     124      55       0       0       0       0       0       000000000D     27
     124       0       0       5       0                               0D     28
     508      60       0       0       0       0       0       000010000D     29
     508       0       0       1       1                               0D     30
     510      61       0       0       0       0       0       000010001D     31
     510       0       0       1       1                               0D     32
     120      62       0       0       0       0       0       000010000D     33
     120       0       0       1       0                               0D     34
     110      63       0       0       0       0       0       000010000D     35
     110       0       0       2       0                               0D     36
     110      65       0       0       0       0       0       001010000D     37
     110       0       0       2       0                               0D     38
     110      67       0       0       0       0       0       000010000D     39
     110       0       0       2       0                               0D     40
     100      69       0       0       0       0      43       000010000D     41
     100       0       0       2       0                               0D     42
     124      71       0       0       0       0       0       000000000D     43
     124       0       0       5       0                               0D     44
     110      76       0       0       0       0       0       000010000D     45
     110       0       0       2       0                               0D     46
     100      78       0       0       0       0      49       000010000D     47
     100       0       0       2       0                               0D     48
     124      80       0       0       0       0       0       000000000D     49
     124       0       0       5       0                               0D     50
     508      85       0       0       0       0       0       000010000D     51
     508       0       0       1       1                               0D     52
     510      86       0       0       0       0       0       000010001D     53
     510       0       0       1       1                               0D     54
     120      87       0       0       0       0       0       000010000D     55
     120       0       0       1       0                               0D     56
     110      88       0       0       0       0       0       000010000D     57
     110       0       0       2       0                               0D     58
     110      90       0       0       0       0       0       001010000D     59
     110       0       0       2       0                               0D     60
     110      92       0       0       0       0       0       000010000D     61
     110       0       0       2       0                               0D     62
     100      94       0       0       0       0      65       000010000D     63
     100       0       0       2       0                               0D     64
     124      96       0       0       0       0       0       000000000D     65
     124       0       0       5       0                               0D     66
     110     101       0       0       0       0       0       000010000D     67
     110       0       0       2       0                               0D     68
     100     103       0       0       0       0      71       000010000D     69
     100       0       0       2       0                               0D     70
     124     105       0       0       0       0       0       000000000D     71
     124       0       0       5       0                               0D     72
     508     110       0       0       0       0       0       000010000D     73
     508       0       0       1       1                               0D     74
     510     111       0       0       0       0       0       000010001D     75
     510       0       0       1       1                               0D     76
     120     112       0       0       0       0       0       000010000D     77
     120       0       0       1       0                               0D     78
     110     113       0       0       0       0       0       000010000D     79
     110       0       0       2       0                               0D     80
     110     115       0       0       0       0       0       001010000D     81
     110       0       0       2       0                               0D     82
     110     117       0       0       0       0       0       000010000D     83
     110       0       0       2       0                               0D     84
     100     119       0       0       0       0      87       000010000D     85
     100       0       0       2       0                               0D     86
     124     121       0       0       0       0       0       000000000D     87
     124       0       0       5       0                               0D     88
     110     126       0       0       0       0       0       000010000D     89
     110       0       0       2       0                               0D     90
     100     128       0       0       0       0      93       000010000D     91
     100       0       0       2       0                               0D     92
     124     130       0       0       0       0       0       000000000D     93
     124       0       0       5       0                               0D     94
     508     135       0       0       0       0       0       000010000D     95
     508       0       0       1       1                               0D     96
     510     136       0       0       0       0       0       000010001D     97
     510       0       0       1       1                               0D     98
     116     137       0       0       0       0       0       000010000D     99
     116       0       0       1       0                               0D    100
     123     138       0       0       0       0       0       000010200D    101
     123       0       0       2       0                               0D    102
     190     140       0       0       0       0       0       000010000D    103
     190       0       0       1       1                               0D    104
     123     141       0       0       0       0       0       000010200D    105
     123       0       0       1       0                               0D    106
     110     142       0       0       0       0       0       000010000D    107
     110       0       0       2       0                               0D    108
     110     144       0       0       0       0       0       000010000D    109
     110       0       0       2       0                               0D    110
     110     146       0       0       0       0       0       000010000D    111
     110       0       0       2       0                               0D    112
     110     148       0       0       0       0       0       000010000D    113
     110       0       0       2       0                               0D    114
     508     150       0       0       0       0       0       000010000D    115
     508       0       0       1       1                               0D    116
     100     151       0       0       0       0      43       000010000D    117
     100       0       0       2       0                               0D    118
     508     153       0       0       0       0       0       000010000D    119
     508       0       0       1       1                               0D    120
     100     154       0       0       0       0      21       000010000D    121
     100       0       0       2       0                               0D    122
     508     156       0       0       0       0       0       000010000D    123
     508       0       0       1       1                               0D    124
     100     157       0       0       0       0      65       000010000D    125
     100       0       0       2       0                               0D    126
     508     159       0       0       0       0       0       000010000D    127
     508       0       0       1       1                               0D    128
     100     160       0       0       0       0      87       000010000D    129
     100       0       0       2       0                               0D    130
     508     162       0       0       0       0       0       000010000D    131
     508       0       0       1       1                               0D    132
     510     163       0       0       0       0       0       000010001D    133
     510       0       0       1       1                               0D    134
     116     164       0       0       0       0       0       000010000D    135
     116       0       0       1       0                               0D    136
     123     165       0       0       0       0       0       000010200D    137
     123       0       0       2       0                               0D    138
     190     167       0       0       0       0       0       000010000D    139
     190       0       0       1       1                               0D    140
     123     168       0       0       0       0       0       000010200D    141
     123       0       0       1       0                               0D    142
     110     169       0       0       0       0       0       000010000D    143
     110       0       0       2       0                               0D    144
     110     171       0       0       0       0       0       000010000D    145
     110       0       0       2       0                               0D    146
     110     173       0       0       0       0       0       000010000D    147
     110       0       0       2       0                               0D    148
     508     175       0       0       0       0       0       000010000D    149
     508       0       0       1       1                               0D    150
     510     176       0       0       0       0       0       000010001D    151
     510       0       0       1       1                               0D    152
     116     177       0       0       0       0       0       000010000D    153
     116       0       0       1       0                               0D    154
     123     178       0       0       0       0       0       000010200D    155
     123       0       0       1       0                               0D    156
     190     179       0       0       0       0       0       000010000D    157
     190       0       0       1       1                               0D    158
     123     180       0       0       0       0       0       000010200D    159
     123       0       0       1       0                               0D    160
     110     181       0       0       0       0       0       000010000D    161
     110       0       0       2       0                               0D    162
     110     183       0       0       0       0       0       000010000D    163
     110       0       0       2       0                               0D    164
     508     185       0       0       0       0       0       000010000D    165
     508       0       0       1       1                               0D    166
     510     186       0       0       0       0       0       000010001D    167
     510       0       0       1       1                               0D    168
     116     187       0       0       0       0       0       000010000D    169
     116       0       0       1       0                               0D    170
     123     188       0       0       0       0       0       000010200D    171
     123       0       0       2       0                               0D    172
     190     190       0       0       0       0       0       000010000D    173
     190       0       0       1       1                               0D    174
     123     191       0       0       0       0       0       000010200D    175
     123       0       0       1       0                               0D    176
     110     192       0       0       0       0       0       000010000D    177
     110       0       0       2       0                               0D    178
     110     194       0       0       0       0       0       000010000D    179
     110       0       0       2       0                               0D    180
     508     196       0       0       0       0       0       000010000D    181
     508       0       0       1       1                               0D    182
     510     197       0       0       0       0       0       000010001D    183
     510       0       0       1       1                               0D    184
     116     198       0       0       0       0       0       000010000D    185
     116       0       0       1       0                               0D    186
     123     199       0       0       0       0       0       000010200D    187
     123       0       0       1       0                               0D    188
     190     200       0       0       0       0       0       000010000D    189
     190       0       0       1       1                               0D    190
     123     201       0       0       0       0       0       000010200D    191
     123       0       0       1       0                               0D    192
     110     202       0       0       0       0       0       000010000D    193
     110       0       0       2       0                               0D    194
     508     204       0       0       0       0       0       000010000D    195
     508       0       0       1       1                               0D    196
     510     205       0       0       0       0       0       000010001D    197
     510       0       0       1       1                               0D    198
     116     206       0       0       0       0       0       000010000D    199
     116       0       0       1       0                               0D    200
     123     207       0       0       0       0       0       000010200D    201
     123       0       0       1       0                               0D    202
     190     208       0       0       0       0       0       000010000D    203
     190       0       0       1       1                               0D    204
     123     209       0       0       0       0       0       000010200D    205
     123       0       0       2       0                               0D    206
     508     211       0       0       0       0       0       000010000D    207
     508       0       0       1       1                               0D    208
     100     212       0       0       0       0      49       000010000D    209
     100       0       0       2       0                               0D    210
     508     214       0       0       0       0       0       000010000D    211
     508       0       0       1       1                               0D    212
     100     215       0       0       0       0      27       000010000D    213
     100       0       0       2       0                               0D    214
     508     217       0       0       0       0       0       000010000D    215
     508       0       0       1       1                               0D    216
     100     218       0       0       0       0      71       000010000D    217
     100       0       0       2       0                               0D    218
     508     220       0       0       0       0       0       000010000D    219
     508       0       0       1       1                               0D    220
     100     221       0       0       0       0      93       000010000D    221
     100       0       0       2       0                               0D    222
     508     223       0       0       0       0       0       000010000D    223
     508       0       0       1       1                               0D    224
     510     224       0       0       0       0       0       000010001D    225
     510       0       0       1       1                               0D    226
     120     225       0       0       0       0       0       000010000D    227
     120       0       0       1       0                               0D    228
     110     226       0       0       0       0       0       000010000D    229
     110       0       0       2       0                               0D    230
     110     228       0       0       0       0       0       001010000D    231
     110       0       0       2       0                               0D    232
     508     230       0       0       0       0       0       000010000D    233
     508       0       0       1       1                               0D    234
     510     231       0       0       0       0       0       000010001D    235
     510       0       0       1       1                               0D    236
     120     232       0       0       0       0       0       000010000D    237
     120       0       0       1       0                               0D    238
     110     233       0       0       0       0       0       000010000D    239
     110       0       0       2       0                               0D    240
     110     235       0       0       0       0       0       001010000D    241
     110       0       0       2       0                               0D    242
     508     237       0       0       0       0       0       000010000D    243
     508       0       0       1       1                               0D    244
     510     238       0       0       0       0       0       000010001D    245
     510       0       0       1       1                               0D    246
     120     239       0       0       0       0       0       000010000D    247
     120       0       0       1       0                               0D    248
     110     240       0       0       0       0       0       000010000D    249
     110       0       0       2       0                               0D    250
     110     242       0       0       0       0       0       001010000D    251
     110       0       0       2       0                               0D    252
     508     244       0       0       0       0       0       000010000D    253
     508       0       0       1       1                               0D    254
     510     245       0       0       0       0       0       000010001D    255
     510       0       0       1       1                               0D    256
     120     246       0       0       0       0       0       000010000D    257
     120       0       0       1       0                               0D    258
     110     247       0       0       0       0       0       000010000D    259
     110       0       0       2       0                               0D    260
     110     249       0       0       0       0       0       001010000D    261
     110       0       0       2       0                               0D    262
     508     251       0       0       0       0       0       000010000D    263
     508       0       0       1       1                               0D    264
     510     252       0       0       0       0       0       000010001D    265
     510       0       0       1       1                               0D    266
     514     253       0       0       0       0       0       000010000D    267
     514       0       0       2       1                               0D    268
     186     255       0       0       1       0       0       000010000D    269
     186       0       0       1       0                               0D    270
308,0,10Hn201 Copy1,1,269;                                             1P      1
408,1,0.0D0,0.0D0,0.0D0,1.0D0;                                         3P      2
406,2,0,10Hn201 Copy1;                                                 5P      3
120,11,9,0.0D0,6.28318530717959D0;                                     7P      4
110,4.39956085083458D0,185.281365473975D0,33.1434395088161D0,          9P      5
4.39996369770686D0,186.930815424781D0,33.1434395088161D0;              9P      6
110,6.0995608001331D0,185.280950281224D0,33.1434395088161D0,          11P      7
6.09980503116301D0,186.280950251399D0,33.1434395088161D0;             11P      8
504,36,17,15,1,15,2,19,15,1,15,3,23,15,3,15,4,25,15,4,15,2,39,        13P      9
15,5,15,6,41,15,5,15,7,45,15,7,15,8,47,15,8,15,6,61,15,9,15,10,       13P     10
63,15,9,15,11,67,15,11,15,12,69,15,12,15,10,83,15,13,15,14,85,        13P     11
15,13,15,15,89,15,15,15,16,91,15,16,15,14,107,15,17,15,18,109,        13P     12
15,19,15,17,111,15,20,15,19,113,15,18,15,20,117,15,7,15,5,121,        13P     13
15,3,15,1,125,15,11,15,9,129,15,15,15,13,143,15,21,15,18,145,15,      13P     14
22,15,21,147,15,22,15,17,161,15,23,15,20,163,15,21,15,23,177,15,      13P     15
24,15,19,179,15,23,15,24,193,15,24,15,22,209,15,6,15,8,213,15,2,      13P     16
15,4,217,15,10,15,12,221,15,14,15,16;                                 13P     17
502,24,4.39957916205605D0,185.356340471738D0,33.1434395088161D0,      15P     18
4.3999453864854D0,186.855840427017D0,33.1434395088161D0,              15P     19
7.79957906065309D0,185.355510086237D0,33.1434395088161D0,             15P     20
7.79994528508244D0,186.855010041515D0,33.1434395088161D0,             15P     21
4.39957916205611D0,185.356340471739D0,-10.0365604911839D0,            15P     22
4.39994538648546D0,186.855840427017D0,-10.0365604911839D0,            15P     23
7.79957906065316D0,185.355510086237D0,-10.0365604911839D0,            15P     24
7.79994528508251D0,186.855010041515D0,-10.0365604911839D0,            15P     25
38.6895781393774D0,185.347965789723D0,33.1434395088161D0,             15P     26
38.6899443638068D0,186.847465745001D0,33.1434395088161D0,             15P     27
42.0895780379745D0,185.347135404221D0,33.1434395088162D0,             15P     28
42.0899442624038D0,186.8466353595D0,33.1434395088162D0,               15P     29
38.6895781393775D0,185.347965789723D0,-10.0365604911839D0,            15P     30
38.6899443638068D0,186.847465745001D0,-10.0365604911839D0,            15P     31
42.0895780379745D0,185.347135404221D0,-10.0365604911839D0,            15P     32
42.0899442624039D0,186.8466353595D0,-10.0365604911839D0,              15P     33
43.2445780035273D0,185.346853317382D0,35.6834395088162D0,             15P     34
43.2445780035274D0,185.346853317382D0,-12.5765604911838D0,            15P     35
3.24457919650322D0,185.356622558578D0,35.6834395088161D0,             15P     36
3.2445791965033D0,185.356622558578D0,-12.5765604911839D0,             15P     37
43.2449442279567D0,186.84635327266D0,-12.5765604911838D0,             15P     38
43.2449442279566D0,186.84635327266D0,35.6834395088162D0,              15P     39
3.24494542093265D0,186.856122513856D0,-12.5765604911839D0,            15P     40
3.24494542093257D0,186.856122513856D0,35.6834395088161D0;             15P     41
110,4.39957916205605D0,185.356340471739D0,33.1434395088161D0,         17P     42
4.3999453864854D0,186.855840427017D0,33.1434395088161D0;              17P     43
100,0.0D0,0.0D0,0.0D0,1.7D0,-2.62647672034648D-15,-1.7D0,             19P     44
2.47304492609037D-15;                                                 19P     45
124,-.999999970175601D0,1.54491390313697D-15,                         21P     46
-2.44231029909469D-4,6.09957911135457D0,2.44231029909367D-4,          21P     47
-2.96641361882387D-16,-.999999970175602D0,185.355925278988D0,         21P     48
-1.54498630608617D-15,-1.0D0,2.96264037121552D-16,                    21P     49
33.1434395088161D0;                                                   21P     50
110,7.79957906065309D0,185.355510086237D0,33.1434395088161D0,         23P     51
7.79994528508244D0,186.855010041515D0,33.1434395088161D0;             23P     52
100,0.0D0,0.0D0,0.0D0,-1.7D0,-2.05666501438027D-15,1.7D0,             25P     53
2.60342671527033D-15;                                                 25P     54
124,-.999999970175601D0,-1.54512023293162D-15,                        27P     55
2.44231029909367D-4,6.09994533578392D0,2.44231029909367D-4,           27P     56
-5.48172618408671D-16,.999999970175602D0,186.855425234266D0,          27P     57
-1.54498630608617D-15,1.0D0,5.48549968365575D-16,                     27P     58
33.1434395088161D0;                                                   27P     59
508,4,0,13,1,0,0,0,13,2,1,0,0,13,3,1,0,0,13,4,1,0;                    29P     60
510,7,1,1,29;                                                         31P     61
120,37,35,0.0D0,6.28318530717959D0;                                   33P     62
110,4.39956085083465D0,185.281365473975D0,-10.0365604911839D0,        35P     63
4.39996369770693D0,186.930815424781D0,-10.0365604911839D0;            35P     64
110,6.09956080013317D0,185.280950281224D0,-10.0365604911839D0,        37P     65
6.09980503116308D0,186.280950251399D0,-10.0365604911839D0;            37P     66
110,4.39957916205611D0,185.356340471739D0,-10.0365604911839D0,        39P     67
4.39994538648546D0,186.855840427017D0,-10.0365604911839D0;            39P     68
100,0.0D0,0.0D0,0.0D0,1.7D0,-2.62647672034649D-15,-1.7D0,             41P     69
9.63141612600157D-16;                                                 41P     70
124,-.999999970175601D0,1.54491390313697D-15,                         43P     71
-2.44231029909469D-4,6.09957911135464D0,2.44231029909367D-4,          43P     72
-2.96641361882387D-16,-.999999970175602D0,185.355925278988D0,         43P     73
-1.54498630608617D-15,-1.0D0,2.96264037121552D-16,                    43P     74
-10.0365604911839D0;                                                  43P     75
110,7.79957906065316D0,185.355510086237D0,-10.0365604911839D0,        45P     76
7.79994528508251D0,186.855010041515D0,-10.0365604911839D0;            45P     77
100,0.0D0,0.0D0,0.0D0,-1.7D0,-5.46761700890057D-16,1.7D0,             47P     78
2.60342671527033D-15;                                                 47P     79
124,-.999999970175601D0,-1.54512023293162D-15,                        49P     80
2.44231029909367D-4,6.09994533578399D0,2.44231029909367D-4,           49P     81
-5.48172618408671D-16,.999999970175602D0,186.855425234266D0,          49P     82
-1.54498630608617D-15,1.0D0,5.48549968365575D-16,                     49P     83
-10.0365604911839D0;                                                  49P     84
508,4,0,13,5,0,0,0,13,6,1,0,0,13,7,1,0,0,13,8,1,0;                    51P     85
510,33,1,1,51;                                                        53P     86
120,59,57,0.0D0,6.28318530717959D0;                                   55P     87
110,38.689559828156D0,185.272990791959D0,33.1434395088162D0,          57P     88
38.6899626750282D0,186.922440742765D0,33.1434395088162D0;             57P     89
110,40.3895597774545D0,185.272575599208D0,33.1434395088162D0,         59P     90
40.3898040084844D0,186.272575569384D0,33.1434395088162D0;             59P     91
110,38.6895781393774D0,185.347965789723D0,33.1434395088162D0,         61P     92
38.6899443638068D0,186.847465745001D0,33.1434395088162D0;             61P     93
100,0.0D0,0.0D0,0.0D0,1.7D0,6.25530747665476D-15,-1.7D0,              63P     94
2.47304492609037D-15;                                                 63P     95
124,-.999999970175601D0,1.54491390313697D-15,                         65P     96
-2.44231029909469D-4,40.389578088676D0,2.44231029909367D-4,           65P     97
-2.96641361882387D-16,-.999999970175602D0,185.347550596972D0,         65P     98
-1.54498630608617D-15,-1.0D0,2.96264037121552D-16,                    65P     99
33.1434395088162D0;                                                   65P    100
110,42.0895780379745D0,185.347135404221D0,33.1434395088162D0,         67P    101
42.0899442624038D0,186.8466353595D0,33.1434395088162D0;               67P    102
100,0.0D0,0.0D0,0.0D0,-1.7D0,-2.05666501438027D-15,1.7D0,             69P    103
-6.45599316567095D-15;                                                69P    104
124,-.999999970175601D0,-1.54512023293162D-15,                        71P    105
2.44231029909367D-4,40.3899443131053D0,2.44231029909367D-4,           71P    106
-5.48172618408671D-16,.999999970175602D0,186.84705055225D0,           71P    107
-1.54498630608617D-15,1.0D0,5.48549968365575D-16,                     71P    108
33.1434395088162D0;                                                   71P    109
508,4,0,13,9,0,0,0,13,10,1,0,0,13,11,1,0,0,13,12,1,0;                 73P    110
510,55,1,1,73;                                                        75P    111
120,81,79,0.0D0,6.28318530717959D0;                                   77P    112
110,38.689559828156D0,185.272990791959D0,-10.0365604911839D0,         79P    113
38.6899626750283D0,186.922440742765D0,-10.0365604911839D0;            79P    114
110,40.3895597774545D0,185.272575599208D0,-10.0365604911839D0,        81P    115
40.3898040084845D0,186.272575569384D0,-10.0365604911839D0;            81P    116
110,38.6895781393775D0,185.347965789723D0,-10.0365604911839D0,        83P    117
38.6899443638068D0,186.847465745001D0,-10.0365604911839D0;            83P    118
100,0.0D0,0.0D0,0.0D0,1.7D0,-2.62647672034651D-15,-1.7D0,             85P    119
9.63141612600157D-16;                                                 85P    120
124,-.999999970175601D0,1.54491390313697D-15,                         87P    121
-2.44231029909469D-4,40.389578088676D0,2.44231029909367D-4,           87P    122
-2.96641361882387D-16,-.999999970175602D0,185.347550596972D0,         87P    123
-1.54498630608617D-15,-1.0D0,2.96264037121552D-16,                    87P    124
-10.0365604911839D0;                                                  87P    125
110,42.0895780379745D0,185.347135404221D0,-10.0365604911839D0,        89P    126
42.0899442624039D0,186.8466353595D0,-10.0365604911839D0;              89P    127
100,0.0D0,0.0D0,0.0D0,-1.7D0,-5.46761700890057D-16,1.7D0,             91P    128
2.60342671527033D-15;                                                 91P    129
124,-.999999970175601D0,-1.54512023293162D-15,                        93P    130
2.44231029909367D-4,40.3899443131054D0,2.44231029909367D-4,           93P    131
-5.48172618408671D-16,.999999970175602D0,186.84705055225D0,           93P    132
-1.54498630608617D-15,1.0D0,5.48549968365575D-16,                     93P    133
-10.0365604911839D0;                                                  93P    134
508,4,0,13,13,0,0,0,13,14,1,0,0,13,15,1,0,0,13,16,1,0;                95P    135
510,77,1,1,95;                                                        97P    136
116,23.2445786000153D0,185.35173793798D0,11.5534395088161D0,0;        99P    137
123,-2.44231029909469D-4,-.999999970175602D0,                        101P    138
2.96264037121552D-16;                                                101P    139
190,99,101,105;                                                      103P    140
123,0.0D0,0.0D0,-1.0D0;                                              105P    141
110,43.2445780035273D0,185.346853317382D0,35.6834395088162D0,        107P    142
43.2445780035274D0,185.346853317382D0,-12.5765604911838D0;           107P    143
110,3.24457919650322D0,185.356622558578D0,35.6834395088161D0,        109P    144
43.2445780035273D0,185.346853317382D0,35.6834395088162D0;            109P    145
110,3.24457919650329D0,185.356622558578D0,-12.5765604911839D0,       111P    146
3.24457919650322D0,185.356622558578D0,35.6834395088161D0;            111P    147
110,43.2445780035274D0,185.346853317382D0,-12.5765604911839D0,       113P    148
3.2445791965033D0,185.356622558578D0,-12.5765604911839D0;            113P    149
508,4,0,13,17,0,0,0,13,18,0,0,0,13,19,0,0,0,13,20,0,0;               115P    150
100,0.0D0,0.0D0,0.0D0,-1.7D0,9.63141612600157D-16,1.7D0,             117P    151
-3.43618653869053D-15;                                               117P    152
508,2,0,13,6,0,0,0,13,21,0,0;                                        119P    153
100,0.0D0,0.0D0,0.0D0,-1.7D0,2.47304492609037D-15,1.7D0,             121P    154
-3.43618653869053D-15;                                               121P    155
508,2,0,13,2,0,0,0,13,22,0,0;                                        123P    156
100,0.0D0,0.0D0,0.0D0,-1.7D0,2.47304492609037D-15,1.7D0,             125P    157
5.62323334225075D-15;                                                125P    158
508,2,0,13,10,0,0,0,13,23,0,0;                                       127P    159
100,0.0D0,0.0D0,0.0D0,-1.7D0,9.63141612600157D-16,1.7D0,             129P    160
-3.43618653869053D-15;                                               129P    161
508,2,0,13,14,0,0,0,13,24,0,0;                                       131P    162
510,103,5,1,115,119,123,127,131;                                     133P    163
116,43.2449442279567D0,186.84635327266D0,-12.5765604911838D0,0;      135P    164
123,.999999970175602D0,-2.44231029909367D-4,                         137P    165
1.54498630608617D-15;                                                137P    166
190,135,137,141;                                                     139P    167
123,0.0D0,0.0D0,-1.0D0;                                              141P    168
110,43.2449442279567D0,186.84635327266D0,-12.5765604911838D0,        143P    169
43.2445780035274D0,185.346853317382D0,-12.5765604911838D0;           143P    170
110,43.2449442279566D0,186.84635327266D0,35.6834395088162D0,         145P    171
43.2449442279567D0,186.84635327266D0,-12.5765604911838D0;            145P    172
110,43.2449442279566D0,186.84635327266D0,35.6834395088162D0,         147P    173
43.2445780035273D0,185.346853317382D0,35.6834395088162D0;            147P    174
508,4,0,13,17,1,0,0,13,25,0,0,0,13,26,0,0,0,13,27,1,0;               149P    175
510,139,1,1,149;                                                     151P    176
116,43.2449442279567D0,186.84635327266D0,-12.5765604911838D0,0;      153P    177
123,0.0D0,0.0D0,-1.0D0;                                              155P    178
190,153,155,159;                                                     157P    179
123,-.999999970175602D0,2.44231029909367D-4,0.0D0;                   159P    180
110,3.24494542093265D0,186.856122513856D0,-12.5765604911839D0,       161P    181
3.2445791965033D0,185.356622558578D0,-12.5765604911839D0;            161P    182
110,43.2449442279567D0,186.84635327266D0,-12.5765604911838D0,        163P    183
3.24494542093265D0,186.856122513856D0,-12.5765604911839D0;           163P    184
508,4,0,13,20,1,0,0,13,28,0,0,0,13,29,0,0,0,13,25,1,0;               165P    185
510,157,1,1,165;                                                     167P    186
116,3.24494542093265D0,186.856122513856D0,-12.5765604911839D0,0;     169P    187
123,-.999999970175602D0,2.44231029909367D-4,                         171P    188
-1.54498630608617D-15;                                               171P    189
190,169,171,175;                                                     173P    190
123,0.0D0,0.0D0,1.0D0;                                               175P    191
110,3.24494542093257D0,186.856122513856D0,35.6834395088161D0,        177P    192
3.24457919650322D0,185.356622558578D0,35.6834395088161D0;            177P    193
110,3.24494542093265D0,186.856122513856D0,-12.5765604911839D0,       179P    194
3.24494542093257D0,186.856122513856D0,35.6834395088161D0;            179P    195
508,4,0,13,19,1,0,0,13,30,0,0,0,13,31,0,0,0,13,28,1,0;               181P    196
510,173,1,1,181;                                                     183P    197
116,43.2449442279566D0,186.84635327266D0,35.6834395088162D0,0;       185P    198
123,0.0D0,0.0D0,1.0D0;                                               187P    199
190,185,187,191;                                                     189P    200
123,.999999970175602D0,-2.44231029909367D-4,0.0D0;                   191P    201
110,3.24494542093257D0,186.856122513856D0,35.6834395088161D0,        193P    202
43.2449442279566D0,186.84635327266D0,35.6834395088162D0;             193P    203
508,4,0,13,18,1,0,0,13,27,0,0,0,13,32,0,0,0,13,30,1,0;               195P    204
510,189,1,1,195;                                                     197P    205
116,3.24494542093265D0,186.856122513856D0,-12.5765604911839D0,0;     199P    206
123,2.44231029909367D-4,.999999970175602D0,5.48549968365575D-16;     201P    207
190,199,201,205;                                                     203P    208
123,-.999999970175602D0,2.44231029909367D-4,                         205P    209
-1.54498630608617D-15;                                               205P    210
508,4,0,13,29,1,0,0,13,31,1,0,0,13,32,1,0,0,13,26,1,0;               207P    211
100,0.0D0,0.0D0,0.0D0,1.7D0,2.6264767203465D-15,-1.7D0,              209P    212
-5.46761700890057D-16;                                               209P    213
508,2,0,13,33,0,0,0,13,8,0,0;                                        211P    214
100,0.0D0,0.0D0,0.0D0,1.7D0,2.6264767203465D-15,-1.7D0,              213P    215
-2.05666501438027D-15;                                               213P    216
508,2,0,13,34,0,0,0,13,4,0,0;                                        215P    217
100,0.0D0,0.0D0,0.0D0,1.7D0,-6.25530747665476D-15,-1.7D0,            217P    218
-2.05666501438027D-15;                                               217P    219
508,2,0,13,35,0,0,0,13,12,0,0;                                       219P    220
100,0.0D0,0.0D0,0.0D0,1.7D0,2.6264767203465D-15,-1.7D0,              221P    221
-5.46761700890057D-16;                                               221P    222
508,2,0,13,36,0,0,0,13,16,0,0;                                       223P    223
510,203,5,1,207,211,215,219,223;                                     225P    224
120,231,229,0.0D0,6.28318530717959D0;                                227P    225
110,38.689559828156D0,185.272990791959D0,-10.0365604911839D0,        229P    226
38.6899626750283D0,186.922440742765D0,-10.0365604911839D0;           229P    227
110,40.3895597774545D0,185.272575599208D0,-10.0365604911839D0,       231P    228
40.3898040084845D0,186.272575569384D0,-10.0365604911839D0;           231P    229
508,4,0,13,13,1,0,0,13,36,1,0,0,13,15,0,0,0,13,24,1,0;               233P    230
510,227,1,1,233;                                                     235P    231
120,241,239,0.0D0,6.28318530717959D0;                                237P    232
110,38.689559828156D0,185.272990791959D0,33.1434395088162D0,         239P    233
38.6899626750282D0,186.922440742765D0,33.1434395088162D0;            239P    234
110,40.3895597774545D0,185.272575599208D0,33.1434395088162D0,        241P    235
40.3898040084844D0,186.272575569384D0,33.1434395088162D0;            241P    236
508,4,0,13,9,1,0,0,13,35,1,0,0,13,11,0,0,0,13,23,1,0;                243P    237
510,237,1,1,243;                                                     245P    238
120,251,249,0.0D0,6.28318530717959D0;                                247P    239
110,4.39956085083465D0,185.281365473975D0,-10.0365604911839D0,       249P    240
4.39996369770693D0,186.930815424781D0,-10.0365604911839D0;           249P    241
110,6.09956080013317D0,185.280950281224D0,-10.0365604911839D0,       251P    242
6.09980503116308D0,186.280950251399D0,-10.0365604911839D0;           251P    243
508,4,0,13,5,1,0,0,13,33,1,0,0,13,7,0,0,0,13,21,1,0;                 253P    244
510,247,1,1,253;                                                     255P    245
120,261,259,0.0D0,6.28318530717959D0;                                257P    246
110,4.39956085083458D0,185.281365473975D0,33.1434395088161D0,        259P    247
4.39996369770686D0,186.930815424781D0,33.1434395088161D0;            259P    248
110,6.0995608001331D0,185.280950281224D0,33.1434395088161D0,         261P    249
6.09980503116301D0,186.280950251399D0,33.1434395088161D0;            261P    250
508,4,0,13,1,1,0,0,13,34,1,0,0,13,3,0,0,0,13,22,1,0;                 263P    251
510,257,1,1,263;                                                     265P    252
514,14,31,1,53,1,75,1,97,1,133,1,151,1,167,1,183,1,197,1,225,1,      267P    253
235,1,245,1,255,1,265,1;                                             267P    254
186,267,1,0;                                                         269P    255
S      1G      2D    270P    255                                        T      1
