solid ascii
  facet normal -2.841964e-015 -1.000000e+000 2.842240e-015
    outer loop
      vertex   3.925637e+000 1.579641e+002 1.554441e+000
      vertex   3.925395e+000 1.579641e+002 -8.445559e+000
      vertex   1.392564e+001 1.579641e+002 1.553712e+000
    endloop
  endfacet
  facet normal 0.000000e+000 -1.000000e+000 -0.000000e+000
    outer loop
      vertex   1.392588e+001 1.579641e+002 1.155396e+001
      vertex   1.392564e+001 1.579641e+002 1.553712e+000
      vertex   2.392564e+001 1.579641e+002 1.553712e+000
    endloop
  endfacet
  facet normal 0.000000e+000 -1.000000e+000 -0.000000e+000
    outer loop
      vertex   2.392588e+001 1.579641e+002 1.155396e+001
      vertex   2.392564e+001 1.579641e+002 1.553712e+000
      vertex   3.392564e+001 1.579641e+002 1.553712e+000
    endloop
  endfacet
  facet normal 0.000000e+000 -1.000000e+000 -0.000000e+000
    outer loop
      vertex   3.392588e+001 1.579641e+002 1.155396e+001
      vertex   3.392564e+001 1.579641e+002 1.553712e+000
      vertex   4.392588e+001 1.579641e+002 1.155347e+001
    endloop
  endfacet
  facet normal 0.000000e+000 -1.000000e+000 -0.000000e+000
    outer loop
      vertex   4.392612e+001 1.579641e+002 2.155347e+001
      vertex   3.392588e+001 1.579641e+002 1.155396e+001
      vertex   4.392588e+001 1.579641e+002 1.155347e+001
    endloop
  endfacet
  facet normal -0.000000e+000 -1.000000e+000 0.000000e+000
    outer loop
      vertex   4.392612e+001 1.579641e+002 2.155347e+001
      vertex   3.392612e+001 1.579641e+002 2.155420e+001
      vertex   3.392588e+001 1.579641e+002 1.155396e+001
    endloop
  endfacet
  facet normal -0.000000e+000 -1.000000e+000 0.000000e+000
    outer loop
      vertex   4.392612e+001 1.579641e+002 2.155347e+001
      vertex   4.392637e+001 1.579641e+002 3.155347e+001
      vertex   3.392612e+001 1.579641e+002 2.155420e+001
    endloop
  endfacet
  facet normal -2.842102e-015 -1.000000e+000 2.842378e-015
    outer loop
      vertex   3.392612e+001 1.579641e+002 2.155420e+001
      vertex   4.392637e+001 1.579641e+002 3.155347e+001
      vertex   3.392637e+001 1.579641e+002 3.155371e+001
    endloop
  endfacet
  facet normal 6.899783e-020 -1.000000e+000 2.842309e-015
    outer loop
      vertex   2.392637e+001 1.579641e+002 3.155396e+001
      vertex   3.392612e+001 1.579641e+002 2.155420e+001
      vertex   3.392637e+001 1.579641e+002 3.155371e+001
    endloop
  endfacet
  facet normal 0.000000e+000 -1.000000e+000 2.842240e-015
    outer loop
      vertex   2.392637e+001 1.579641e+002 3.155396e+001
      vertex   2.392612e+001 1.579641e+002 2.155420e+001
      vertex   3.392612e+001 1.579641e+002 2.155420e+001
    endloop
  endfacet
  facet normal 6.899615e-020 -1.000000e+000 2.842240e-015
    outer loop
      vertex   2.392637e+001 1.579641e+002 3.155396e+001
      vertex   1.392637e+001 1.579641e+002 3.155420e+001
      vertex   2.392612e+001 1.579641e+002 2.155420e+001
    endloop
  endfacet
  facet normal 0.000000e+000 -1.000000e+000 2.842171e-015
    outer loop
      vertex   2.392612e+001 1.579641e+002 2.155420e+001
      vertex   1.392637e+001 1.579641e+002 3.155420e+001
      vertex   1.392612e+001 1.579641e+002 2.155420e+001
    endloop
  endfacet
  facet normal -0.000000e+000 -1.000000e+000 0.000000e+000
    outer loop
      vertex   2.392588e+001 1.579641e+002 1.155396e+001
      vertex   1.392612e+001 1.579641e+002 2.155420e+001
      vertex   1.392588e+001 1.579641e+002 1.155396e+001
    endloop
  endfacet
  facet normal 0.000000e+000 -1.000000e+000 0.000000e+000
    outer loop
      vertex   2.392564e+001 1.579641e+002 1.553712e+000
      vertex   2.392588e+001 1.579641e+002 1.155396e+001
      vertex   1.392588e+001 1.579641e+002 1.155396e+001
    endloop
  endfacet
  facet normal 2.842102e-015 -1.000000e+000 -2.842378e-015
    outer loop
      vertex   3.925395e+000 1.579641e+002 -8.445559e+000
      vertex   1.392539e+001 1.579641e+002 -8.445802e+000
      vertex   1.392564e+001 1.579641e+002 1.553712e+000
    endloop
  endfacet
  facet normal -6.899783e-020 -1.000000e+000 -2.842309e-015
    outer loop
      vertex   1.392564e+001 1.579641e+002 1.553712e+000
      vertex   1.392539e+001 1.579641e+002 -8.445802e+000
      vertex   2.392539e+001 1.579641e+002 -8.446045e+000
    endloop
  endfacet
  facet normal -6.899615e-020 -1.000000e+000 -2.842240e-015
    outer loop
      vertex   2.392564e+001 1.579641e+002 1.553712e+000
      vertex   2.392539e+001 1.579641e+002 -8.446045e+000
      vertex   3.392539e+001 1.579641e+002 -8.446288e+000
    endloop
  endfacet
  facet normal -2.842240e-015 -1.000000e+000 -2.842102e-015
    outer loop
      vertex   3.392564e+001 1.579641e+002 1.553712e+000
      vertex   3.392539e+001 1.579641e+002 -8.446288e+000
      vertex   4.392539e+001 1.579641e+002 -8.446530e+000
    endloop
  endfacet
  facet normal -0.000000e+000 -1.000000e+000 -0.000000e+000
    outer loop
      vertex   4.392564e+001 1.579641e+002 1.553470e+000
      vertex   3.392564e+001 1.579641e+002 1.553712e+000
      vertex   4.392539e+001 1.579641e+002 -8.446530e+000
    endloop
  endfacet
  facet normal -0.000000e+000 -1.000000e+000 0.000000e+000
    outer loop
      vertex   4.392564e+001 1.579641e+002 1.553470e+000
      vertex   4.392588e+001 1.579641e+002 1.155347e+001
      vertex   3.392564e+001 1.579641e+002 1.553712e+000
    endloop
  endfacet
  facet normal 0.000000e+000 -1.000000e+000 -2.842240e-015
    outer loop
      vertex   1.392564e+001 1.579641e+002 1.553712e+000
      vertex   2.392539e+001 1.579641e+002 -8.446045e+000
      vertex   2.392564e+001 1.579641e+002 1.553712e+000
    endloop
  endfacet
  facet normal 0.000000e+000 -1.000000e+000 -2.842171e-015
    outer loop
      vertex   2.392564e+001 1.579641e+002 1.553712e+000
      vertex   3.392539e+001 1.579641e+002 -8.446288e+000
      vertex   3.392564e+001 1.579641e+002 1.553712e+000
    endloop
  endfacet
  facet normal 2.842240e-015 -1.000000e+000 2.842102e-015
    outer loop
      vertex   1.392637e+001 1.579641e+002 3.155420e+001
      vertex   3.926366e+000 1.579641e+002 3.155444e+001
      vertex   1.392612e+001 1.579641e+002 2.155420e+001
    endloop
  endfacet
  facet normal -2.842240e-015 -1.000000e+000 -2.842102e-015
    outer loop
      vertex   1.392612e+001 1.579641e+002 2.155420e+001
      vertex   3.926366e+000 1.579641e+002 3.155444e+001
      vertex   3.926123e+000 1.579641e+002 2.155444e+001
    endloop
  endfacet
  facet normal -2.842171e-015 -1.000000e+000 6.899448e-020
    outer loop
      vertex   3.925880e+000 1.579641e+002 1.155444e+001
      vertex   1.392612e+001 1.579641e+002 2.155420e+001
      vertex   3.926123e+000 1.579641e+002 2.155444e+001
    endloop
  endfacet
  facet normal -2.842171e-015 -1.000000e+000 6.899448e-020
    outer loop
      vertex   3.925880e+000 1.579641e+002 1.155444e+001
      vertex   1.392588e+001 1.579641e+002 1.155396e+001
      vertex   1.392612e+001 1.579641e+002 2.155420e+001
    endloop
  endfacet
  facet normal -2.842171e-015 -1.000000e+000 6.899448e-020
    outer loop
      vertex   3.925880e+000 1.579641e+002 1.155444e+001
      vertex   3.925637e+000 1.579641e+002 1.554441e+000
      vertex   1.392588e+001 1.579641e+002 1.155396e+001
    endloop
  endfacet
  facet normal -2.842171e-015 -1.000000e+000 6.899448e-020
    outer loop
      vertex   1.392588e+001 1.579641e+002 1.155396e+001
      vertex   3.925637e+000 1.579641e+002 1.554441e+000
      vertex   1.392564e+001 1.579641e+002 1.553712e+000
    endloop
  endfacet
  facet normal 0.000000e+000 -1.000000e+000 0.000000e+000
    outer loop
      vertex   3.392588e+001 1.579641e+002 1.155396e+001
      vertex   3.392612e+001 1.579641e+002 2.155420e+001
      vertex   2.392612e+001 1.579641e+002 2.155420e+001
    endloop
  endfacet
  facet normal 0.000000e+000 -1.000000e+000 0.000000e+000
    outer loop
      vertex   2.392588e+001 1.579641e+002 1.155396e+001
      vertex   2.392612e+001 1.579641e+002 2.155420e+001
      vertex   1.392612e+001 1.579641e+002 2.155420e+001
    endloop
  endfacet
  facet normal 0.000000e+000 -1.000000e+000 0.000000e+000
    outer loop
      vertex   2.392588e+001 1.579641e+002 1.155396e+001
      vertex   3.392588e+001 1.579641e+002 1.155396e+001
      vertex   2.392612e+001 1.579641e+002 2.155420e+001
    endloop
  endfacet
  facet normal 0.000000e+000 -1.000000e+000 0.000000e+000
    outer loop
      vertex   2.392588e+001 1.579641e+002 1.155396e+001
      vertex   3.392564e+001 1.579641e+002 1.553712e+000
      vertex   3.392588e+001 1.579641e+002 1.155396e+001
    endloop
  endfacet
  facet normal -2.427527e-005 0.000000e+000 -1.000000e+000
    outer loop
      vertex   4.392539e+001 1.579641e+002 -8.446530e+000
      vertex   3.392539e+001 1.579641e+002 -8.446288e+000
      vertex   4.392539e+001 1.594641e+002 -8.446530e+000
    endloop
  endfacet
  facet normal -2.427527e-005 -1.184468e-015 -1.000000e+000
    outer loop
      vertex   4.392539e+001 1.594641e+002 -8.446530e+000
      vertex   3.392539e+001 1.579641e+002 -8.446288e+000
      vertex   3.392539e+001 1.594641e+002 -8.446288e+000
    endloop
  endfacet
  facet normal -2.427527e-005 -1.184468e-015 -1.000000e+000
    outer loop
      vertex   3.392539e+001 1.594641e+002 -8.446288e+000
      vertex   3.392539e+001 1.579641e+002 -8.446288e+000
      vertex   2.392539e+001 1.579641e+002 -8.446045e+000
    endloop
  endfacet
  facet normal -2.427527e-005 -1.184410e-015 -1.000000e+000
    outer loop
      vertex   2.392539e+001 1.594641e+002 -8.446045e+000
      vertex   2.392539e+001 1.579641e+002 -8.446045e+000
      vertex   1.392539e+001 1.579641e+002 -8.445802e+000
    endloop
  endfacet
  facet normal -2.427527e-005 -1.184353e-015 -1.000000e+000
    outer loop
      vertex   1.392539e+001 1.594641e+002 -8.445802e+000
      vertex   1.392539e+001 1.579641e+002 -8.445802e+000
      vertex   3.925395e+000 1.579641e+002 -8.445559e+000
    endloop
  endfacet
  facet normal -2.427527e-005 0.000000e+000 -1.000000e+000
    outer loop
      vertex   3.925395e+000 1.594641e+002 -8.445559e+000
      vertex   1.392539e+001 1.594641e+002 -8.445802e+000
      vertex   3.925395e+000 1.579641e+002 -8.445559e+000
    endloop
  endfacet
  facet normal -2.427527e-005 -1.184410e-015 -1.000000e+000
    outer loop
      vertex   3.392539e+001 1.594641e+002 -8.446288e+000
      vertex   2.392539e+001 1.579641e+002 -8.446045e+000
      vertex   2.392539e+001 1.594641e+002 -8.446045e+000
    endloop
  endfacet
  facet normal -2.427527e-005 -1.184353e-015 -1.000000e+000
    outer loop
      vertex   2.392539e+001 1.594641e+002 -8.446045e+000
      vertex   1.392539e+001 1.579641e+002 -8.445802e+000
      vertex   1.392539e+001 1.594641e+002 -8.445802e+000
    endloop
  endfacet
  facet normal -1.000000e+000 0.000000e+000 2.427527e-005
    outer loop
      vertex   3.925395e+000 1.579641e+002 -8.445559e+000
      vertex   3.925637e+000 1.579641e+002 1.554441e+000
      vertex   3.925395e+000 1.594641e+002 -8.445559e+000
    endloop
  endfacet
  facet normal -1.000000e+000 1.184180e-015 2.427527e-005
    outer loop
      vertex   3.925395e+000 1.594641e+002 -8.445559e+000
      vertex   3.925637e+000 1.579641e+002 1.554441e+000
      vertex   3.925637e+000 1.594641e+002 1.554441e+000
    endloop
  endfacet
  facet normal -1.000000e+000 1.184180e-015 2.427527e-005
    outer loop
      vertex   3.925637e+000 1.594641e+002 1.554441e+000
      vertex   3.925637e+000 1.579641e+002 1.554441e+000
      vertex   3.925880e+000 1.579641e+002 1.155444e+001
    endloop
  endfacet
  facet normal -1.000000e+000 1.776271e-015 2.427527e-005
    outer loop
      vertex   3.925880e+000 1.594641e+002 1.155444e+001
      vertex   3.925880e+000 1.579641e+002 1.155444e+001
      vertex   3.926123e+000 1.579641e+002 2.155444e+001
    endloop
  endfacet
  facet normal -1.000000e+000 2.368418e-015 2.427527e-005
    outer loop
      vertex   3.926123e+000 1.594641e+002 2.155444e+001
      vertex   3.926123e+000 1.579641e+002 2.155444e+001
      vertex   3.926366e+000 1.579641e+002 3.155444e+001
    endloop
  endfacet
  facet normal -1.000000e+000 0.000000e+000 2.427527e-005
    outer loop
      vertex   3.926366e+000 1.594641e+002 3.155444e+001
      vertex   3.926123e+000 1.594641e+002 2.155444e+001
      vertex   3.926366e+000 1.579641e+002 3.155444e+001
    endloop
  endfacet
  facet normal -1.000000e+000 1.776271e-015 2.427527e-005
    outer loop
      vertex   3.925637e+000 1.594641e+002 1.554441e+000
      vertex   3.925880e+000 1.579641e+002 1.155444e+001
      vertex   3.925880e+000 1.594641e+002 1.155444e+001
    endloop
  endfacet
  facet normal -1.000000e+000 2.368418e-015 2.427527e-005
    outer loop
      vertex   3.925880e+000 1.594641e+002 1.155444e+001
      vertex   3.926123e+000 1.579641e+002 2.155444e+001
      vertex   3.926123e+000 1.594641e+002 2.155444e+001
    endloop
  endfacet
  facet normal 2.427527e-005 0.000000e+000 1.000000e+000
    outer loop
      vertex   3.926366e+000 1.579641e+002 3.155444e+001
      vertex   1.392637e+001 1.579641e+002 3.155420e+001
      vertex   3.926366e+000 1.594641e+002 3.155444e+001
    endloop
  endfacet
  facet normal 2.427527e-005 -0.000000e+000 1.000000e+000
    outer loop
      vertex   3.926366e+000 1.594641e+002 3.155444e+001
      vertex   1.392637e+001 1.579641e+002 3.155420e+001
      vertex   1.392637e+001 1.594641e+002 3.155420e+001
    endloop
  endfacet
  facet normal 2.427527e-005 0.000000e+000 1.000000e+000
    outer loop
      vertex   1.392637e+001 1.594641e+002 3.155420e+001
      vertex   1.392637e+001 1.579641e+002 3.155420e+001
      vertex   2.392637e+001 1.579641e+002 3.155396e+001
    endloop
  endfacet
  facet normal 2.427527e-005 0.000000e+000 1.000000e+000
    outer loop
      vertex   2.392637e+001 1.594641e+002 3.155396e+001
      vertex   2.392637e+001 1.579641e+002 3.155396e+001
      vertex   3.392637e+001 1.579641e+002 3.155371e+001
    endloop
  endfacet
  facet normal 2.427527e-005 2.368476e-015 1.000000e+000
    outer loop
      vertex   3.392637e+001 1.594641e+002 3.155371e+001
      vertex   3.392637e+001 1.579641e+002 3.155371e+001
      vertex   4.392637e+001 1.579641e+002 3.155347e+001
    endloop
  endfacet
  facet normal 2.427527e-005 0.000000e+000 1.000000e+000
    outer loop
      vertex   4.392637e+001 1.594641e+002 3.155347e+001
      vertex   3.392637e+001 1.594641e+002 3.155371e+001
      vertex   4.392637e+001 1.579641e+002 3.155347e+001
    endloop
  endfacet
  facet normal 2.427527e-005 -0.000000e+000 1.000000e+000
    outer loop
      vertex   1.392637e+001 1.594641e+002 3.155420e+001
      vertex   2.392637e+001 1.579641e+002 3.155396e+001
      vertex   2.392637e+001 1.594641e+002 3.155396e+001
    endloop
  endfacet
  facet normal 2.427527e-005 2.368476e-015 1.000000e+000
    outer loop
      vertex   2.392637e+001 1.594641e+002 3.155396e+001
      vertex   3.392637e+001 1.579641e+002 3.155371e+001
      vertex   3.392637e+001 1.594641e+002 3.155371e+001
    endloop
  endfacet
  facet normal 1.000000e+000 0.000000e+000 -2.427527e-005
    outer loop
      vertex   4.392637e+001 1.579641e+002 3.155347e+001
      vertex   4.392612e+001 1.579641e+002 2.155347e+001
      vertex   4.392637e+001 1.594641e+002 3.155347e+001
    endloop
  endfacet
  facet normal 1.000000e+000 4.736894e-015 -2.427527e-005
    outer loop
      vertex   4.392637e+001 1.594641e+002 3.155347e+001
      vertex   4.392612e+001 1.579641e+002 2.155347e+001
      vertex   4.392612e+001 1.594641e+002 2.155347e+001
    endloop
  endfacet
  facet normal 1.000000e+000 4.736894e-015 -2.427527e-005
    outer loop
      vertex   4.392612e+001 1.594641e+002 2.155347e+001
      vertex   4.392612e+001 1.579641e+002 2.155347e+001
      vertex   4.392588e+001 1.579641e+002 1.155347e+001
    endloop
  endfacet
  facet normal 1.000000e+000 4.737009e-015 -2.427527e-005
    outer loop
      vertex   4.392588e+001 1.594641e+002 1.155347e+001
      vertex   4.392588e+001 1.579641e+002 1.155347e+001
      vertex   4.392564e+001 1.579641e+002 1.553470e+000
    endloop
  endfacet
  facet normal 1.000000e+000 4.737067e-015 -2.427527e-005
    outer loop
      vertex   4.392564e+001 1.594641e+002 1.553470e+000
      vertex   4.392564e+001 1.579641e+002 1.553470e+000
      vertex   4.392539e+001 1.579641e+002 -8.446530e+000
    endloop
  endfacet
  facet normal 1.000000e+000 0.000000e+000 -2.427527e-005
    outer loop
      vertex   4.392539e+001 1.594641e+002 -8.446530e+000
      vertex   4.392564e+001 1.594641e+002 1.553470e+000
      vertex   4.392539e+001 1.579641e+002 -8.446530e+000
    endloop
  endfacet
  facet normal 1.000000e+000 4.737009e-015 -2.427527e-005
    outer loop
      vertex   4.392612e+001 1.594641e+002 2.155347e+001
      vertex   4.392588e+001 1.579641e+002 1.155347e+001
      vertex   4.392588e+001 1.594641e+002 1.155347e+001
    endloop
  endfacet
  facet normal 1.000000e+000 4.737067e-015 -2.427527e-005
    outer loop
      vertex   4.392588e+001 1.594641e+002 1.155347e+001
      vertex   4.392564e+001 1.579641e+002 1.553470e+000
      vertex   4.392564e+001 1.594641e+002 1.553470e+000
    endloop
  endfacet
  facet normal -2.842171e-015 1.000000e+000 6.899448e-020
    outer loop
      vertex   3.925395e+000 1.594641e+002 -8.445559e+000
      vertex   3.925637e+000 1.594641e+002 1.554441e+000
      vertex   1.392539e+001 1.594641e+002 -8.445802e+000
    endloop
  endfacet
  facet normal 6.899448e-020 1.000000e+000 2.842171e-015
    outer loop
      vertex   1.392539e+001 1.594641e+002 -8.445802e+000
      vertex   3.925637e+000 1.594641e+002 1.554441e+000
      vertex   1.392564e+001 1.594641e+002 1.554198e+000
    endloop
  endfacet
  facet normal 6.899448e-020 1.000000e+000 2.842171e-015
    outer loop
      vertex   2.392539e+001 1.594641e+002 -8.446045e+000
      vertex   1.392564e+001 1.594641e+002 1.554198e+000
      vertex   2.392564e+001 1.594641e+002 1.553955e+000
    endloop
  endfacet
  facet normal 6.899448e-020 1.000000e+000 2.842171e-015
    outer loop
      vertex   3.392539e+001 1.594641e+002 -8.446288e+000
      vertex   2.392564e+001 1.594641e+002 1.553955e+000
      vertex   3.392564e+001 1.594641e+002 1.553712e+000
    endloop
  endfacet
  facet normal -2.842171e-015 1.000000e+000 6.899448e-020
    outer loop
      vertex   4.392539e+001 1.594641e+002 -8.446530e+000
      vertex   3.392564e+001 1.594641e+002 1.553712e+000
      vertex   4.392564e+001 1.594641e+002 1.553470e+000
    endloop
  endfacet
  facet normal 6.899448e-020 1.000000e+000 2.842171e-015
    outer loop
      vertex   4.392539e+001 1.594641e+002 -8.446530e+000
      vertex   3.392539e+001 1.594641e+002 -8.446288e+000
      vertex   3.392564e+001 1.594641e+002 1.553712e+000
    endloop
  endfacet
  facet normal -0.000000e+000 1.000000e+000 0.000000e+000
    outer loop
      vertex   3.925637e+000 1.594641e+002 1.554441e+000
      vertex   3.925880e+000 1.594641e+002 1.155444e+001
      vertex   1.392564e+001 1.594641e+002 1.554198e+000
    endloop
  endfacet
  facet normal -0.000000e+000 1.000000e+000 -0.000000e+000
    outer loop
      vertex   1.392564e+001 1.594641e+002 1.554198e+000
      vertex   3.925880e+000 1.594641e+002 1.155444e+001
      vertex   1.392588e+001 1.594641e+002 1.155420e+001
    endloop
  endfacet
  facet normal -0.000000e+000 1.000000e+000 -0.000000e+000
    outer loop
      vertex   2.392564e+001 1.594641e+002 1.553955e+000
      vertex   1.392588e+001 1.594641e+002 1.155420e+001
      vertex   2.392588e+001 1.594641e+002 1.155396e+001
    endloop
  endfacet
  facet normal -0.000000e+000 1.000000e+000 -0.000000e+000
    outer loop
      vertex   3.392564e+001 1.594641e+002 1.553712e+000
      vertex   2.392588e+001 1.594641e+002 1.155396e+001
      vertex   3.392588e+001 1.594641e+002 1.155371e+001
    endloop
  endfacet
  facet normal -2.842171e-015 1.000000e+000 6.899448e-020
    outer loop
      vertex   4.392564e+001 1.594641e+002 1.553470e+000
      vertex   3.392588e+001 1.594641e+002 1.155371e+001
      vertex   4.392588e+001 1.594641e+002 1.155347e+001
    endloop
  endfacet
  facet normal -2.842171e-015 1.000000e+000 6.899448e-020
    outer loop
      vertex   4.392564e+001 1.594641e+002 1.553470e+000
      vertex   3.392564e+001 1.594641e+002 1.553712e+000
      vertex   3.392588e+001 1.594641e+002 1.155371e+001
    endloop
  endfacet
  facet normal -0.000000e+000 1.000000e+000 0.000000e+000
    outer loop
      vertex   3.925880e+000 1.594641e+002 1.155444e+001
      vertex   3.926123e+000 1.594641e+002 2.155444e+001
      vertex   1.392588e+001 1.594641e+002 1.155420e+001
    endloop
  endfacet
  facet normal -0.000000e+000 1.000000e+000 -0.000000e+000
    outer loop
      vertex   1.392588e+001 1.594641e+002 1.155420e+001
      vertex   3.926123e+000 1.594641e+002 2.155444e+001
      vertex   1.392612e+001 1.594641e+002 2.155420e+001
    endloop
  endfacet
  facet normal -0.000000e+000 1.000000e+000 -0.000000e+000
    outer loop
      vertex   2.392588e+001 1.594641e+002 1.155396e+001
      vertex   1.392612e+001 1.594641e+002 2.155420e+001
      vertex   2.392612e+001 1.594641e+002 2.155396e+001
    endloop
  endfacet
  facet normal -0.000000e+000 1.000000e+000 -0.000000e+000
    outer loop
      vertex   3.392588e+001 1.594641e+002 1.155371e+001
      vertex   2.392612e+001 1.594641e+002 2.155396e+001
      vertex   3.392612e+001 1.594641e+002 2.155371e+001
    endloop
  endfacet
  facet normal -2.842171e-015 1.000000e+000 6.899448e-020
    outer loop
      vertex   4.392588e+001 1.594641e+002 1.155347e+001
      vertex   3.392612e+001 1.594641e+002 2.155371e+001
      vertex   4.392612e+001 1.594641e+002 2.155347e+001
    endloop
  endfacet
  facet normal -2.842171e-015 1.000000e+000 6.899448e-020
    outer loop
      vertex   4.392588e+001 1.594641e+002 1.155347e+001
      vertex   3.392588e+001 1.594641e+002 1.155371e+001
      vertex   3.392612e+001 1.594641e+002 2.155371e+001
    endloop
  endfacet
  facet normal -0.000000e+000 1.000000e+000 0.000000e+000
    outer loop
      vertex   3.926123e+000 1.594641e+002 2.155444e+001
      vertex   3.926366e+000 1.594641e+002 3.155444e+001
      vertex   1.392612e+001 1.594641e+002 2.155420e+001
    endloop
  endfacet
  facet normal -0.000000e+000 1.000000e+000 -0.000000e+000
    outer loop
      vertex   1.392612e+001 1.594641e+002 2.155420e+001
      vertex   3.926366e+000 1.594641e+002 3.155444e+001
      vertex   1.392637e+001 1.594641e+002 3.155420e+001
    endloop
  endfacet
  facet normal -0.000000e+000 1.000000e+000 -0.000000e+000
    outer loop
      vertex   2.392612e+001 1.594641e+002 2.155396e+001
      vertex   1.392637e+001 1.594641e+002 3.155420e+001
      vertex   2.392637e+001 1.594641e+002 3.155396e+001
    endloop
  endfacet
  facet normal -0.000000e+000 1.000000e+000 -0.000000e+000
    outer loop
      vertex   3.392612e+001 1.594641e+002 2.155371e+001
      vertex   2.392637e+001 1.594641e+002 3.155396e+001
      vertex   3.392637e+001 1.594641e+002 3.155371e+001
    endloop
  endfacet
  facet normal -2.842171e-015 1.000000e+000 6.899448e-020
    outer loop
      vertex   4.392612e+001 1.594641e+002 2.155347e+001
      vertex   3.392637e+001 1.594641e+002 3.155371e+001
      vertex   4.392637e+001 1.594641e+002 3.155347e+001
    endloop
  endfacet
  facet normal -2.842171e-015 1.000000e+000 6.899448e-020
    outer loop
      vertex   4.392612e+001 1.594641e+002 2.155347e+001
      vertex   3.392612e+001 1.594641e+002 2.155371e+001
      vertex   3.392637e+001 1.594641e+002 3.155371e+001
    endloop
  endfacet
  facet normal -0.000000e+000 1.000000e+000 0.000000e+000
    outer loop
      vertex   1.392612e+001 1.594641e+002 2.155420e+001
      vertex   1.392637e+001 1.594641e+002 3.155420e+001
      vertex   2.392612e+001 1.594641e+002 2.155396e+001
    endloop
  endfacet
  facet normal -0.000000e+000 1.000000e+000 0.000000e+000
    outer loop
      vertex   2.392612e+001 1.594641e+002 2.155396e+001
      vertex   2.392637e+001 1.594641e+002 3.155396e+001
      vertex   3.392612e+001 1.594641e+002 2.155371e+001
    endloop
  endfacet
  facet normal 6.899448e-020 1.000000e+000 2.842171e-015
    outer loop
      vertex   3.392539e+001 1.594641e+002 -8.446288e+000
      vertex   2.392539e+001 1.594641e+002 -8.446045e+000
      vertex   2.392564e+001 1.594641e+002 1.553955e+000
    endloop
  endfacet
  facet normal 6.899448e-020 1.000000e+000 2.842171e-015
    outer loop
      vertex   2.392539e+001 1.594641e+002 -8.446045e+000
      vertex   1.392539e+001 1.594641e+002 -8.445802e+000
      vertex   1.392564e+001 1.594641e+002 1.554198e+000
    endloop
  endfacet
  facet normal 0.000000e+000 1.000000e+000 -0.000000e+000
    outer loop
      vertex   2.392588e+001 1.594641e+002 1.155396e+001
      vertex   1.392588e+001 1.594641e+002 1.155420e+001
      vertex   1.392612e+001 1.594641e+002 2.155420e+001
    endloop
  endfacet
  facet normal 0.000000e+000 1.000000e+000 -0.000000e+000
    outer loop
      vertex   2.392564e+001 1.594641e+002 1.553955e+000
      vertex   1.392564e+001 1.594641e+002 1.554198e+000
      vertex   1.392588e+001 1.594641e+002 1.155420e+001
    endloop
  endfacet
  facet normal 0.000000e+000 1.000000e+000 -0.000000e+000
    outer loop
      vertex   3.392588e+001 1.594641e+002 1.155371e+001
      vertex   2.392588e+001 1.594641e+002 1.155396e+001
      vertex   2.392612e+001 1.594641e+002 2.155396e+001
    endloop
  endfacet
  facet normal 0.000000e+000 1.000000e+000 -0.000000e+000
    outer loop
      vertex   3.392564e+001 1.594641e+002 1.553712e+000
      vertex   2.392564e+001 1.594641e+002 1.553955e+000
      vertex   2.392588e+001 1.594641e+002 1.155396e+001
    endloop
  endfacet
endsolid
