                                                                        S      1
,,23HNo Product Id specified,,,,32,38,6,99,15,36HNo Product Id for ReceiG      1
ver specified,1.0D0,2,2HMM,1,.08D0,,.001D0,10000.0D0,,,11,0,,;          G      2
     308       1       0       0       0       0       0       000010001D      1
     308       0       0       1       0                               0D      2
     408       2       0       0       0       0       0       000000001D      3
     408       0       0       1       0                               0D      4
     406       3       0       0       1       0       0       000000000D      5
     406       0       0       1       3                               0D      6
     116       4       0       0       0       0       0       000010000D      7
     116       0       0       1       0                               0D      8
     123       5       0       0       0       0       0       000010200D      9
     123       0       0       1       0                               0D     10
     190       6       0       0       0       0       0       000010000D     11
     190       0       0       1       1                               0D     12
     123       7       0       0       0       0       0       000010200D     13
     123       0       0       1       0                               0D     14
     504       8       0       0       0       0       0       000010001D     15
     504       0       0       3       1                               0D     16
     502      11       0       0       0       0       0       000010000D     17
     502       0       0       8       1                               0D     18
     110      19       0       0       0       0       0       000010000D     19
     110       0       0       2       0                               0D     20
     110      21       0       0       0       0       0       000010000D     21
     110       0       0       2       0                               0D     22
     110      23       0       0       0       0       0       000010000D     23
     110       0       0       2       0                               0D     24
     110      25       0       0       0       0       0       000010000D     25
     110       0       0       2       0                               0D     26
     508      27       0       0       0       0       0       000010000D     27
     508       0       0       1       1                               0D     28
     510      28       0       0       0       0       0       000010001D     29
     510       0       0       1       1                               0D     30
     116      29       0       0       0       0       0       000010000D     31
     116       0       0       1       0                               0D     32
     123      30       0       0       0       0       0       000010200D     33
     123       0       0       2       0                               0D     34
     190      32       0       0       0       0       0       000010000D     35
     190       0       0       1       1                               0D     36
     123      33       0       0       0       0       0       000010200D     37
     123       0       0       2       0                               0D     38
     110      35       0       0       0       0       0       000010000D     39
     110       0       0       2       0                               0D     40
     110      37       0       0       0       0       0       000010000D     41
     110       0       0       2       0                               0D     42
     110      39       0       0       0       0       0       000010000D     43
     110       0       0       2       0                               0D     44
     508      41       0       0       0       0       0       000010000D     45
     508       0       0       1       1                               0D     46
     510      42       0       0       0       0       0       000010001D     47
     510       0       0       1       1                               0D     48
     116      43       0       0       0       0       0       000010000D     49
     116       0       0       1       0                               0D     50
     123      44       0       0       0       0       0       000010200D     51
     123       0       0       2       0                               0D     52
     190      46       0       0       0       0       0       000010000D     53
     190       0       0       1       1                               0D     54
     123      47       0       0       0       0       0       000010200D     55
     123       0       0       2       0                               0D     56
     110      49       0       0       0       0       0       000010000D     57
     110       0       0       2       0                               0D     58
     110      51       0       0       0       0       0       000010000D     59
     110       0       0       2       0                               0D     60
     508      53       0       0       0       0       0       000010000D     61
     508       0       0       1       1                               0D     62
     510      54       0       0       0       0       0       000010001D     63
     510       0       0       1       1                               0D     64
     116      55       0       0       0       0       0       000010000D     65
     116       0       0       1       0                               0D     66
     123      56       0       0       0       0       0       000010200D     67
     123       0       0       2       0                               0D     68
     190      58       0       0       0       0       0       000010000D     69
     190       0       0       1       1                               0D     70
     123      59       0       0       0       0       0       000010200D     71
     123       0       0       2       0                               0D     72
     110      61       0       0       0       0       0       000010000D     73
     110       0       0       2       0                               0D     74
     110      63       0       0       0       0       0       000010000D     75
     110       0       0       2       0                               0D     76
     508      65       0       0       0       0       0       000010000D     77
     508       0       0       1       1                               0D     78
     510      66       0       0       0       0       0       000010001D     79
     510       0       0       1       1                               0D     80
     116      67       0       0       0       0       0       000010000D     81
     116       0       0       1       0                               0D     82
     123      68       0       0       0       0       0       000010200D     83
     123       0       0       2       0                               0D     84
     190      70       0       0       0       0       0       000010000D     85
     190       0       0       1       1                               0D     86
     123      71       0       0       0       0       0       000010200D     87
     123       0       0       2       0                               0D     88
     110      73       0       0       0       0       0       000010000D     89
     110       0       0       2       0                               0D     90
     508      75       0       0       0       0       0       000010000D     91
     508       0       0       1       1                               0D     92
     510      76       0       0       0       0       0       000010001D     93
     510       0       0       1       1                               0D     94
     116      77       0       0       0       0       0       000010000D     95
     116       0       0       1       0                               0D     96
     123      78       0       0       0       0       0       000010200D     97
     123       0       0       1       0                               0D     98
     190      79       0       0       0       0       0       000010000D     99
     190       0       0       1       1                               0D    100
     123      80       0       0       0       0       0       000010200D    101
     123       0       0       1       0                               0D    102
     508      81       0       0       0       0       0       000010000D    103
     508       0       0       1       1                               0D    104
     510      82       0       0       0       0       0       000010001D    105
     510       0       0       1       1                               0D    106
     514      83       0       0       0       0       0       000010000D    107
     514       0       0       1       1                               0D    108
     186      84       0       0       1       0       0       000010000D    109
     186       0       0       1       0                               0D    110
308,0,10Hn502 Copy1,1,109;                                             1P      1
408,1,0.0D0,0.0D0,0.0D0,1.0D0;                                         3P      2
406,2,0,10Hn502 Copy1;                                                 5P      3
116,23.92588014155D0,157.964140677444D0,11.5539550789058D0,0;          7P      4
123,0.0D0,-1.0D0,0.0D0;                                                9P      5
190,7,9,13;                                                           11P      6
123,0.0D0,0.0D0,-1.0D0;                                               13P      7
504,12,19,17,1,17,2,21,17,3,17,1,23,17,4,17,3,25,17,2,17,4,39,        15P      8
17,5,17,2,41,17,6,17,5,43,17,6,17,1,57,17,7,17,4,59,17,5,17,7,        15P      9
73,17,8,17,3,75,17,7,17,8,89,17,8,17,6;                               15P     10
502,8,43.9253946301756D0,157.964140677444D0,-8.44653042068286D0,      17P     11
3.92539464196139D0,157.964140677444D0,-8.44555940971985D0,            17P     12
43.9263656411386D0,157.964140677444D0,31.5534695675314D0,             17P     13
3.92636565292442D0,157.964140677444D0,31.5544405784944D0,             17P     14
3.92539464196139D0,159.464140677444D0,-8.44555940971985D0,            17P     15
43.9253946301756D0,159.464140677444D0,-8.44653042068286D0,            17P     16
3.92636565292442D0,159.464140677444D0,31.5544405784944D0,             17P     17
43.9263656411386D0,159.464140677444D0,31.5534695675314D0;             17P     18
110,43.9253946301756D0,157.964140677444D0,-8.44653042068285D0,        19P     19
3.92539464196139D0,157.964140677444D0,-8.44555940971985D0;            19P     20
110,43.9263656411386D0,157.964140677444D0,31.5534695675314D0,         21P     21
43.9253946301756D0,157.964140677444D0,-8.44653042068286D0;            21P     22
110,3.92636565292442D0,157.964140677444D0,31.5544405784944D0,         23P     23
43.9263656411386D0,157.964140677444D0,31.5534695675314D0;             23P     24
110,3.92539464196139D0,157.964140677444D0,-8.44555940971986D0,        25P     25
3.92636565292441D0,157.964140677444D0,31.5544405784944D0;             25P     26
508,4,0,15,1,0,0,0,15,2,0,0,0,15,3,0,0,0,15,4,0,0;                    27P     27
510,11,1,1,27;                                                        29P     28
116,3.92539464196139D0,159.464140677444D0,-8.44555940971985D0,0;      31P     29
123,-2.42752740750532D-5,3.14488969763575D-23,                        33P     30
-.999999999705356D0;                                                  33P     31
190,31,33,37;                                                         35P     32
123,-.999999999705355D0,-6.12323399574038D-17,                        37P     33
2.42752740750532D-5;                                                  37P     34
110,3.92539464196139D0,159.464140677444D0,-8.44555940971985D0,        39P     35
3.92539464196139D0,157.964140677444D0,-8.44555940971985D0;            39P     36
110,43.9253946301756D0,159.464140677444D0,-8.44653042068286D0,        41P     37
3.92539464196138D0,159.464140677444D0,-8.44555940971985D0;            41P     38
110,43.9253946301756D0,159.464140677444D0,-8.44653042068286D0,        43P     39
43.9253946301756D0,157.964140677444D0,-8.44653042068286D0;            43P     40
508,4,0,15,1,1,0,0,15,5,0,0,0,15,6,0,0,0,15,7,1,0;                    45P     41
510,35,1,1,45;                                                        47P     42
116,3.92539464196139D0,159.464140677444D0,-8.44555940971985D0,0;      49P     43
123,-.999999999705356D0,-6.12323399574038D-17,                        51P     44
2.42752740754001D-5;                                                  51P     45
190,49,51,55;                                                         53P     46
123,2.42752740754001D-5,-3.14488969551135D-23,                        55P     47
.999999999705355D0;                                                   55P     48
110,3.92636565292442D0,159.464140677444D0,31.5544405784944D0,         57P     49
3.92636565292442D0,157.964140677444D0,31.5544405784944D0;             57P     50
110,3.92539464196139D0,159.464140677444D0,-8.44555940971985D0,        59P     51
3.92636565292441D0,159.464140677444D0,31.5544405784944D0;             59P     52
508,4,0,15,4,1,0,0,15,8,0,0,0,15,9,0,0,0,15,5,1,0;                    61P     53
510,53,1,1,61;                                                        63P     54
116,3.92636565292442D0,159.464140677444D0,31.5544405784944D0,0;       65P     55
123,2.42752740750532D-5,-3.14488969763575D-23,                        67P     56
.999999999705356D0;                                                   67P     57
190,65,67,71;                                                         69P     58
123,.999999999705355D0,6.12323399574038D-17,                          71P     59
-2.42752740750532D-5;                                                 71P     60
110,43.9263656411386D0,159.464140677444D0,31.5534695675314D0,         73P     61
43.9263656411386D0,157.964140677444D0,31.5534695675314D0;             73P     62
110,3.92636565292442D0,159.464140677444D0,31.5544405784944D0,         75P     63
43.9263656411386D0,159.464140677444D0,31.5534695675314D0;             75P     64
508,4,0,15,3,1,0,0,15,10,0,0,0,15,11,0,0,0,15,8,1,0;                  77P     65
510,69,1,1,77;                                                        79P     66
116,43.9253946301756D0,159.464140677444D0,-8.44653042068286D0,0;      81P     67
123,.999999999705356D0,6.12323399574038D-17,                          83P     68
-2.42752740752266D-5;                                                 83P     69
190,81,83,87;                                                         85P     70
123,-2.42752740752266D-5,3.14488969657356D-23,                        87P     71
-.999999999705355D0;                                                  87P     72
110,43.9263656411386D0,159.464140677444D0,31.5534695675314D0,         89P     73
43.9253946301756D0,159.464140677444D0,-8.44653042068284D0;            89P     74
508,4,0,15,2,1,0,0,15,7,0,0,0,15,12,0,0,0,15,10,1,0;                  91P     75
510,85,1,1,91;                                                        93P     76
116,3.92636565292442D0,159.464140677444D0,31.5544405784944D0,0;       95P     77
123,0.0D0,1.0D0,0.0D0;                                                97P     78
190,95,97,101;                                                        99P     79
123,2.42752740750532D-5,0.0D0,.999999999705355D0;                    101P     80
508,4,0,15,9,1,0,0,15,11,1,0,0,15,12,1,0,0,15,6,1,0;                 103P     81
510,99,1,1,103;                                                      105P     82
514,6,29,1,47,1,63,1,79,1,93,1,105,1;                                107P     83
186,107,1,0;                                                         109P     84
S      1G      2D    110P     84                                        T      1
