solid ascii
  facet normal -2.442310e-004 -1.000000e+000 -2.391973e-005
    outer loop
      vertex   -7.135568e+000 1.782042e+002 -1.011391e+001
      vertex   -4.635168e+000 1.782036e+002 -1.011391e+001
      vertex   -7.135568e+000 1.782040e+002 -1.705455e+000
    endloop
  endfacet
  facet normal -2.442310e-004 -1.000000e+000 -2.391973e-005
    outer loop
      vertex   -7.135568e+000 1.782040e+002 -1.705455e+000
      vertex   -4.635168e+000 1.782036e+002 -1.011391e+001
      vertex   -4.635168e+000 1.782033e+002 7.197196e-001
    endloop
  endfacet
  facet normal -2.442310e-004 -1.000000e+000 -2.391973e-005
    outer loop
      vertex   -7.135568e+000 1.782037e+002 8.454545e+000
      vertex   -4.635168e+000 1.782033e+002 7.197196e-001
      vertex   -4.635168e+000 1.782031e+002 1.155334e+001
    endloop
  endfacet
  facet normal -2.442310e-004 -1.000000e+000 -2.391973e-005
    outer loop
      vertex   -7.135568e+000 1.782036e+002 1.465214e+001
      vertex   -4.635168e+000 1.782031e+002 1.155334e+001
      vertex   -4.635168e+000 1.782028e+002 2.238697e+001
    endloop
  endfacet
  facet normal -2.442310e-004 -1.000000e+000 -2.391973e-005
    outer loop
      vertex   -7.135568e+000 1.782033e+002 2.481214e+001
      vertex   -4.635168e+000 1.782028e+002 2.238697e+001
      vertex   -4.635168e+000 1.782025e+002 3.322059e+001
    endloop
  endfacet
  facet normal -2.442310e-004 -1.000000e+000 -2.391973e-005
    outer loop
      vertex   -7.135568e+000 1.782031e+002 3.322059e+001
      vertex   -7.135568e+000 1.782033e+002 2.481214e+001
      vertex   -4.635168e+000 1.782025e+002 3.322059e+001
    endloop
  endfacet
  facet normal -2.442310e-004 -1.000000e+000 -2.391973e-005
    outer loop
      vertex   -7.135568e+000 1.782040e+002 -1.705455e+000
      vertex   -4.635168e+000 1.782033e+002 7.197196e-001
      vertex   -7.135568e+000 1.782037e+002 8.454545e+000
    endloop
  endfacet
  facet normal -2.442310e-004 -1.000000e+000 -2.391973e-005
    outer loop
      vertex   -1.333791e+001 1.782055e+002 -1.705455e+000
      vertex   -7.135568e+000 1.782037e+002 8.454545e+000
      vertex   -1.333791e+001 1.782053e+002 8.454545e+000
    endloop
  endfacet
  facet normal -2.442310e-004 -1.000000e+000 -2.391973e-005
    outer loop
      vertex   -1.333791e+001 1.782055e+002 -1.705455e+000
      vertex   -7.135568e+000 1.782040e+002 -1.705455e+000
      vertex   -7.135568e+000 1.782037e+002 8.454545e+000
    endloop
  endfacet
  facet normal -2.442310e-004 -1.000000e+000 -2.391973e-005
    outer loop
      vertex   -7.135568e+000 1.782037e+002 8.454545e+000
      vertex   -4.635168e+000 1.782031e+002 1.155334e+001
      vertex   -7.135568e+000 1.782036e+002 1.465214e+001
    endloop
  endfacet
  facet normal -2.442310e-004 -1.000000e+000 -2.391973e-005
    outer loop
      vertex   -7.135568e+000 1.782036e+002 1.465214e+001
      vertex   -4.635168e+000 1.782028e+002 2.238697e+001
      vertex   -7.135568e+000 1.782033e+002 2.481214e+001
    endloop
  endfacet
  facet normal -2.442310e-004 -1.000000e+000 -2.391973e-005
    outer loop
      vertex   -1.333791e+001 1.782051e+002 1.465214e+001
      vertex   -7.135568e+000 1.782033e+002 2.481214e+001
      vertex   -1.333791e+001 1.782049e+002 2.481214e+001
    endloop
  endfacet
  facet normal -2.442310e-004 -1.000000e+000 -2.391973e-005
    outer loop
      vertex   -1.333791e+001 1.782051e+002 1.465214e+001
      vertex   -7.135568e+000 1.782036e+002 1.465214e+001
      vertex   -7.135568e+000 1.782033e+002 2.481214e+001
    endloop
  endfacet
  facet normal 2.442310e-004 1.000000e+000 2.391973e-005
    outer loop
      vertex   -1.333597e+001 1.861430e+002 -1.705266e+000
      vertex   -1.333597e+001 1.861428e+002 8.454734e+000
      vertex   -7.133629e+000 1.861415e+002 -1.705266e+000
    endloop
  endfacet
  facet normal 2.442310e-004 1.000000e+000 2.391973e-005
    outer loop
      vertex   -7.133629e+000 1.861415e+002 -1.705266e+000
      vertex   -1.333597e+001 1.861428e+002 8.454734e+000
      vertex   -7.133629e+000 1.861412e+002 8.454734e+000
    endloop
  endfacet
  facet normal 2.442310e-004 1.000000e+000 2.391973e-005
    outer loop
      vertex   -4.633230e+000 1.861408e+002 7.199095e-001
      vertex   -7.133629e+000 1.861412e+002 8.454734e+000
      vertex   -4.633230e+000 1.861406e+002 1.155353e+001
    endloop
  endfacet
  facet normal 2.442310e-004 1.000000e+000 2.391973e-005
    outer loop
      vertex   -4.633230e+000 1.861408e+002 7.199095e-001
      vertex   -7.133629e+000 1.861415e+002 -1.705266e+000
      vertex   -7.133629e+000 1.861412e+002 8.454734e+000
    endloop
  endfacet
  facet normal 2.442310e-004 1.000000e+000 2.391973e-005
    outer loop
      vertex   -4.633230e+000 1.861408e+002 7.199095e-001
      vertex   -4.633229e+000 1.861411e+002 -1.011372e+001
      vertex   -7.133629e+000 1.861415e+002 -1.705266e+000
    endloop
  endfacet
  facet normal 2.442310e-004 1.000000e+000 2.391973e-005
    outer loop
      vertex   -7.133629e+000 1.861415e+002 -1.705266e+000
      vertex   -4.633229e+000 1.861411e+002 -1.011372e+001
      vertex   -7.133629e+000 1.861417e+002 -1.011372e+001
    endloop
  endfacet
  facet normal 2.442310e-004 1.000000e+000 2.391973e-005
    outer loop
      vertex   -7.133629e+000 1.861412e+002 8.454734e+000
      vertex   -7.133630e+000 1.861411e+002 1.465233e+001
      vertex   -4.633230e+000 1.861406e+002 1.155353e+001
    endloop
  endfacet
  facet normal 2.442310e-004 1.000000e+000 2.391973e-005
    outer loop
      vertex   -4.633230e+000 1.861406e+002 1.155353e+001
      vertex   -7.133630e+000 1.861411e+002 1.465233e+001
      vertex   -4.633230e+000 1.861403e+002 2.238716e+001
    endloop
  endfacet
  facet normal 2.442310e-004 1.000000e+000 2.391973e-005
    outer loop
      vertex   -4.633230e+000 1.861403e+002 2.238716e+001
      vertex   -7.133630e+000 1.861411e+002 1.465233e+001
      vertex   -7.133630e+000 1.861408e+002 2.481233e+001
    endloop
  endfacet
  facet normal 2.442310e-004 1.000000e+000 2.391973e-005
    outer loop
      vertex   -4.633230e+000 1.861400e+002 3.322078e+001
      vertex   -7.133630e+000 1.861408e+002 2.481233e+001
      vertex   -7.133630e+000 1.861406e+002 3.322078e+001
    endloop
  endfacet
  facet normal 2.442310e-004 1.000000e+000 2.391973e-005
    outer loop
      vertex   -4.633230e+000 1.861400e+002 3.322078e+001
      vertex   -4.633230e+000 1.861403e+002 2.238716e+001
      vertex   -7.133630e+000 1.861408e+002 2.481233e+001
    endloop
  endfacet
  facet normal 2.442310e-004 1.000000e+000 2.391973e-005
    outer loop
      vertex   -1.333597e+001 1.861426e+002 1.465233e+001
      vertex   -1.333597e+001 1.861424e+002 2.481233e+001
      vertex   -7.133630e+000 1.861411e+002 1.465233e+001
    endloop
  endfacet
  facet normal 2.442310e-004 1.000000e+000 2.391973e-005
    outer loop
      vertex   -7.133630e+000 1.861411e+002 1.465233e+001
      vertex   -1.333597e+001 1.861424e+002 2.481233e+001
      vertex   -7.133630e+000 1.861408e+002 2.481233e+001
    endloop
  endfacet
  facet normal -1.000000e+000 2.442310e-004 1.867776e-016
    outer loop
      vertex   -7.133629e+000 1.861415e+002 -1.705266e+000
      vertex   -7.134599e+000 1.821719e+002 -2.403323e+000
      vertex   -7.135568e+000 1.782040e+002 -1.705455e+000
    endloop
  endfacet
  facet normal -1.000000e+000 2.442310e-004 -7.940333e-016
    outer loop
      vertex   -7.133629e+000 1.861415e+002 -1.705266e+000
      vertex   -7.134406e+000 1.829604e+002 -2.492142e+000
      vertex   -7.134599e+000 1.821719e+002 -2.403323e+000
    endloop
  endfacet
  facet normal -1.000000e+000 2.442310e-004 -2.363251e-016
    outer loop
      vertex   -7.133629e+000 1.861415e+002 -1.705266e+000
      vertex   -7.134223e+000 1.837093e+002 -2.754183e+000
      vertex   -7.134406e+000 1.829604e+002 -2.492142e+000
    endloop
  endfacet
  facet normal -1.000000e+000 2.442310e-004 -8.885238e-016
    outer loop
      vertex   -7.133629e+000 1.861415e+002 -1.705266e+000
      vertex   -7.134059e+000 1.843812e+002 -3.176307e+000
      vertex   -7.134223e+000 1.837093e+002 -2.754183e+000
    endloop
  endfacet
  facet normal -1.000000e+000 2.442310e-004 -4.376815e-016
    outer loop
      vertex   -7.133629e+000 1.861415e+002 -1.705266e+000
      vertex   -7.133922e+000 1.849422e+002 -3.737345e+000
      vertex   -7.134059e+000 1.843812e+002 -3.176307e+000
    endloop
  endfacet
  facet normal -1.000000e+000 2.442310e-004 -1.344935e-015
    outer loop
      vertex   -7.133629e+000 1.861415e+002 -1.705266e+000
      vertex   -7.133819e+000 1.853644e+002 -4.409166e+000
      vertex   -7.133922e+000 1.849422e+002 -3.737345e+000
    endloop
  endfacet
  facet normal -1.000000e+000 2.442310e-004 -1.354283e-015
    outer loop
      vertex   -7.133629e+000 1.861415e+002 -1.705266e+000
      vertex   -7.133755e+000 1.856264e+002 -5.158082e+000
      vertex   -7.133819e+000 1.853644e+002 -4.409166e+000
    endloop
  endfacet
  facet normal -1.000000e+000 2.442310e-004 -1.094853e-015
    outer loop
      vertex   -7.133629e+000 1.861415e+002 -1.705266e+000
      vertex   -7.133734e+000 1.857153e+002 -5.946538e+000
      vertex   -7.133755e+000 1.856264e+002 -5.158082e+000
    endloop
  endfacet
  facet normal -1.000000e+000 2.442310e-004 -1.352765e-015
    outer loop
      vertex   -7.133629e+000 1.861415e+002 -1.705266e+000
      vertex   -7.133629e+000 1.861417e+002 -1.011372e+001
      vertex   -7.133734e+000 1.857153e+002 -5.946538e+000
    endloop
  endfacet
  facet normal -1.000000e+000 2.442310e-004 -1.333081e-015
    outer loop
      vertex   -7.133734e+000 1.857153e+002 -5.946538e+000
      vertex   -7.133629e+000 1.861417e+002 -1.011372e+001
      vertex   -7.133755e+000 1.856265e+002 -6.734999e+000
    endloop
  endfacet
  facet normal -1.000000e+000 2.442310e-004 -1.731435e-015
    outer loop
      vertex   -7.133755e+000 1.856265e+002 -6.734999e+000
      vertex   -7.133629e+000 1.861417e+002 -1.011372e+001
      vertex   -7.133819e+000 1.853644e+002 -7.483927e+000
    endloop
  endfacet
  facet normal -1.000000e+000 2.442310e-004 -1.090114e-015
    outer loop
      vertex   -7.133819e+000 1.853644e+002 -7.483927e+000
      vertex   -7.133629e+000 1.861417e+002 -1.011372e+001
      vertex   -7.133922e+000 1.849423e+002 -8.155768e+000
    endloop
  endfacet
  facet normal -1.000000e+000 2.442310e-004 -2.022486e-015
    outer loop
      vertex   -7.133922e+000 1.849423e+002 -8.155768e+000
      vertex   -7.133629e+000 1.861417e+002 -1.011372e+001
      vertex   -7.134059e+000 1.843813e+002 -8.716834e+000
    endloop
  endfacet
  facet normal -1.000000e+000 2.442310e-004 -2.281857e-015
    outer loop
      vertex   -7.134059e+000 1.843813e+002 -8.716834e+000
      vertex   -7.133629e+000 1.861417e+002 -1.011372e+001
      vertex   -7.134223e+000 1.837095e+002 -9.138989e+000
    endloop
  endfacet
  facet normal -1.000000e+000 2.442310e-004 -1.821095e-015
    outer loop
      vertex   -7.134223e+000 1.837095e+002 -9.138989e+000
      vertex   -7.133629e+000 1.861417e+002 -1.011372e+001
      vertex   -7.134406e+000 1.829605e+002 -9.401066e+000
    endloop
  endfacet
  facet normal -1.000000e+000 2.442310e-004 -9.751370e-016
    outer loop
      vertex   -7.134406e+000 1.829605e+002 -9.401066e+000
      vertex   -7.133629e+000 1.861417e+002 -1.011372e+001
      vertex   -7.134599e+000 1.821721e+002 -9.489923e+000
    endloop
  endfacet
  facet normal -1.000000e+000 2.442310e-004 -4.928897e-015
    outer loop
      vertex   -7.134599e+000 1.821721e+002 -9.489923e+000
      vertex   -7.133629e+000 1.861417e+002 -1.011372e+001
      vertex   -7.135568e+000 1.782042e+002 -1.011391e+001
    endloop
  endfacet
  facet normal -1.000000e+000 2.442310e-004 -1.760759e-015
    outer loop
      vertex   -7.134791e+000 1.813836e+002 -9.401104e+000
      vertex   -7.135568e+000 1.782042e+002 -1.011391e+001
      vertex   -7.134974e+000 1.806347e+002 -9.139063e+000
    endloop
  endfacet
  facet normal -1.000000e+000 2.442310e-004 -3.430393e-015
    outer loop
      vertex   -7.134791e+000 1.813836e+002 -9.401104e+000
      vertex   -7.134599e+000 1.821721e+002 -9.489923e+000
      vertex   -7.135568e+000 1.782042e+002 -1.011391e+001
    endloop
  endfacet
  facet normal -1.000000e+000 2.442310e-004 -1.248096e-015
    outer loop
      vertex   -7.135568e+000 1.782040e+002 -1.705455e+000
      vertex   -7.135464e+000 1.786287e+002 -5.946708e+000
      vertex   -7.135568e+000 1.782042e+002 -1.011391e+001
    endloop
  endfacet
  facet normal -1.000000e+000 2.442310e-004 -1.507151e-015
    outer loop
      vertex   -7.135568e+000 1.782040e+002 -1.705455e+000
      vertex   -7.135443e+000 1.787175e+002 -5.158247e+000
      vertex   -7.135464e+000 1.786287e+002 -5.946708e+000
    endloop
  endfacet
  facet normal -1.000000e+000 2.442310e-004 -9.643201e-016
    outer loop
      vertex   -7.135568e+000 1.782040e+002 -1.705455e+000
      vertex   -7.135379e+000 1.789796e+002 -4.409319e+000
      vertex   -7.135443e+000 1.787175e+002 -5.158247e+000
    endloop
  endfacet
  facet normal -1.000000e+000 2.442310e-004 -1.446529e-016
    outer loop
      vertex   -7.135568e+000 1.782040e+002 -1.705455e+000
      vertex   -7.135275e+000 1.794017e+002 -3.737478e+000
      vertex   -7.135379e+000 1.789796e+002 -4.409319e+000
    endloop
  endfacet
  facet normal -1.000000e+000 2.442310e-004 -8.474946e-016
    outer loop
      vertex   -7.135568e+000 1.782040e+002 -1.705455e+000
      vertex   -7.135138e+000 1.799627e+002 -3.176412e+000
      vertex   -7.135275e+000 1.794017e+002 -3.737478e+000
    endloop
  endfacet
  facet normal -1.000000e+000 2.442310e-004 -7.940047e-016
    outer loop
      vertex   -7.135568e+000 1.782040e+002 -1.705455e+000
      vertex   -7.134974e+000 1.806345e+002 -2.754257e+000
      vertex   -7.135138e+000 1.799627e+002 -3.176412e+000
    endloop
  endfacet
  facet normal -1.000000e+000 2.442310e-004 1.535838e-016
    outer loop
      vertex   -7.135568e+000 1.782040e+002 -1.705455e+000
      vertex   -7.134791e+000 1.813835e+002 -2.492180e+000
      vertex   -7.134974e+000 1.806345e+002 -2.754257e+000
    endloop
  endfacet
  facet normal -1.000000e+000 2.442310e-004 2.271403e-015
    outer loop
      vertex   -7.135568e+000 1.782040e+002 -1.705455e+000
      vertex   -7.134599e+000 1.821719e+002 -2.403323e+000
      vertex   -7.134791e+000 1.813835e+002 -2.492180e+000
    endloop
  endfacet
  facet normal -1.000000e+000 2.442310e-004 -8.068432e-016
    outer loop
      vertex   -7.135464e+000 1.786287e+002 -5.946708e+000
      vertex   -7.135443e+000 1.787176e+002 -6.735164e+000
      vertex   -7.135568e+000 1.782042e+002 -1.011391e+001
    endloop
  endfacet
  facet normal -1.000000e+000 2.442310e-004 -1.945058e-015
    outer loop
      vertex   -7.135568e+000 1.782042e+002 -1.011391e+001
      vertex   -7.135443e+000 1.787176e+002 -6.735164e+000
      vertex   -7.135379e+000 1.789796e+002 -7.484080e+000
    endloop
  endfacet
  facet normal -1.000000e+000 2.442310e-004 -2.085682e-015
    outer loop
      vertex   -7.135275e+000 1.794018e+002 -8.155901e+000
      vertex   -7.135568e+000 1.782042e+002 -1.011391e+001
      vertex   -7.135379e+000 1.789796e+002 -7.484080e+000
    endloop
  endfacet
  facet normal -1.000000e+000 2.442310e-004 -1.324192e-015
    outer loop
      vertex   -7.135275e+000 1.794018e+002 -8.155901e+000
      vertex   -7.135138e+000 1.799629e+002 -8.716939e+000
      vertex   -7.135568e+000 1.782042e+002 -1.011391e+001
    endloop
  endfacet
  facet normal -1.000000e+000 2.442310e-004 -2.019738e-015
    outer loop
      vertex   -7.135568e+000 1.782042e+002 -1.011391e+001
      vertex   -7.135138e+000 1.799629e+002 -8.716939e+000
      vertex   -7.134974e+000 1.806347e+002 -9.139063e+000
    endloop
  endfacet
  facet normal -1.000000e+000 2.442310e-004 4.864078e-016
    outer loop
      vertex   -7.135443e+000 1.787176e+002 2.826496e+001
      vertex   -7.135568e+000 1.782033e+002 2.481214e+001
      vertex   -7.135464e+000 1.786287e+002 2.905342e+001
    endloop
  endfacet
  facet normal -1.000000e+000 2.442310e-004 -1.919763e-015
    outer loop
      vertex   -7.135443e+000 1.787176e+002 2.826496e+001
      vertex   -7.135379e+000 1.789796e+002 2.751605e+001
      vertex   -7.135568e+000 1.782033e+002 2.481214e+001
    endloop
  endfacet
  facet normal -1.000000e+000 2.442310e-004 -2.051522e-015
    outer loop
      vertex   -7.135568e+000 1.782033e+002 2.481214e+001
      vertex   -7.135379e+000 1.789796e+002 2.751605e+001
      vertex   -7.135275e+000 1.794018e+002 2.684422e+001
    endloop
  endfacet
  facet normal -1.000000e+000 2.442310e-004 -1.295061e-015
    outer loop
      vertex   -7.135138e+000 1.799628e+002 2.628319e+001
      vertex   -7.135568e+000 1.782033e+002 2.481214e+001
      vertex   -7.135275e+000 1.794018e+002 2.684422e+001
    endloop
  endfacet
  facet normal -1.000000e+000 2.442310e-004 -1.971882e-015
    outer loop
      vertex   -7.135138e+000 1.799628e+002 2.628319e+001
      vertex   -7.134974e+000 1.806347e+002 2.586106e+001
      vertex   -7.135568e+000 1.782033e+002 2.481214e+001
    endloop
  endfacet
  facet normal -1.000000e+000 2.442310e-004 -1.705892e-015
    outer loop
      vertex   -7.135568e+000 1.782033e+002 2.481214e+001
      vertex   -7.134974e+000 1.806347e+002 2.586106e+001
      vertex   -7.134791e+000 1.813836e+002 2.559902e+001
    endloop
  endfacet
  facet normal -1.000000e+000 2.442310e-004 -3.256125e-015
    outer loop
      vertex   -7.134599e+000 1.821721e+002 2.551020e+001
      vertex   -7.135568e+000 1.782033e+002 2.481214e+001
      vertex   -7.134791e+000 1.813836e+002 2.559902e+001
    endloop
  endfacet
  facet normal -1.000000e+000 2.442310e-004 -4.429119e-015
    outer loop
      vertex   -7.134599e+000 1.821721e+002 2.551020e+001
      vertex   -7.133630e+000 1.861408e+002 2.481233e+001
      vertex   -7.135568e+000 1.782033e+002 2.481214e+001
    endloop
  endfacet
  facet normal -1.000000e+000 2.442310e-004 -9.540461e-016
    outer loop
      vertex   -7.134599e+000 1.821721e+002 2.551020e+001
      vertex   -7.134406e+000 1.829605e+002 2.559906e+001
      vertex   -7.133630e+000 1.861408e+002 2.481233e+001
    endloop
  endfacet
  facet normal -1.000000e+000 2.442310e-004 -1.760648e-015
    outer loop
      vertex   -7.133630e+000 1.861408e+002 2.481233e+001
      vertex   -7.134406e+000 1.829605e+002 2.559906e+001
      vertex   -7.134223e+000 1.837095e+002 2.586114e+001
    endloop
  endfacet
  facet normal -1.000000e+000 2.442310e-004 -2.224106e-015
    outer loop
      vertex   -7.134059e+000 1.843813e+002 2.628329e+001
      vertex   -7.133630e+000 1.861408e+002 2.481233e+001
      vertex   -7.134223e+000 1.837095e+002 2.586114e+001
    endloop
  endfacet
  facet normal -1.000000e+000 2.442310e-004 -1.975656e-015
    outer loop
      vertex   -7.134059e+000 1.843813e+002 2.628329e+001
      vertex   -7.133922e+000 1.849423e+002 2.684436e+001
      vertex   -7.133630e+000 1.861408e+002 2.481233e+001
    endloop
  endfacet
  facet normal -1.000000e+000 2.442310e-004 -1.073305e-015
    outer loop
      vertex   -7.133630e+000 1.861408e+002 2.481233e+001
      vertex   -7.133922e+000 1.849423e+002 2.684436e+001
      vertex   -7.133819e+000 1.853644e+002 2.751620e+001
    endloop
  endfacet
  facet normal -1.000000e+000 2.442310e-004 -1.707954e-015
    outer loop
      vertex   -7.133755e+000 1.856265e+002 2.826513e+001
      vertex   -7.133630e+000 1.861408e+002 2.481233e+001
      vertex   -7.133819e+000 1.853644e+002 2.751620e+001
    endloop
  endfacet
  facet normal -1.000000e+000 2.442310e-004 -1.322613e-015
    outer loop
      vertex   -7.133755e+000 1.856265e+002 2.826513e+001
      vertex   -7.133734e+000 1.857153e+002 2.905359e+001
      vertex   -7.133630e+000 1.861408e+002 2.481233e+001
    endloop
  endfacet
  facet normal -1.000000e+000 2.442310e-004 -1.141460e-015
    outer loop
      vertex   -7.133630e+000 1.861408e+002 2.481233e+001
      vertex   -7.133734e+000 1.857153e+002 2.905359e+001
      vertex   -7.133630e+000 1.861406e+002 3.322078e+001
    endloop
  endfacet
  facet normal -1.000000e+000 2.442310e-004 -8.798026e-016
    outer loop
      vertex   -7.133630e+000 1.861406e+002 3.322078e+001
      vertex   -7.133734e+000 1.857153e+002 2.905359e+001
      vertex   -7.133755e+000 1.856264e+002 2.984204e+001
    endloop
  endfacet
  facet normal -1.000000e+000 2.442310e-004 -1.005687e-015
    outer loop
      vertex   -7.133819e+000 1.853644e+002 3.059096e+001
      vertex   -7.133630e+000 1.861406e+002 3.322078e+001
      vertex   -7.133755e+000 1.856264e+002 2.984204e+001
    endloop
  endfacet
  facet normal -1.000000e+000 2.442310e-004 -9.075109e-016
    outer loop
      vertex   -7.133819e+000 1.853644e+002 3.059096e+001
      vertex   -7.133922e+000 1.849422e+002 3.126278e+001
      vertex   -7.133630e+000 1.861406e+002 3.322078e+001
    endloop
  endfacet
  facet normal -1.000000e+000 2.442310e-004 1.235610e-016
    outer loop
      vertex   -7.133630e+000 1.861406e+002 3.322078e+001
      vertex   -7.133922e+000 1.849422e+002 3.126278e+001
      vertex   -7.134059e+000 1.843811e+002 3.182382e+001
    endloop
  endfacet
  facet normal -1.000000e+000 2.442310e-004 -2.098413e-016
    outer loop
      vertex   -7.134223e+000 1.837093e+002 3.224594e+001
      vertex   -7.133630e+000 1.861406e+002 3.322078e+001
      vertex   -7.134059e+000 1.843811e+002 3.182382e+001
    endloop
  endfacet
  facet normal -1.000000e+000 2.442310e-004 7.465389e-016
    outer loop
      vertex   -7.134223e+000 1.837093e+002 3.224594e+001
      vertex   -7.134406e+000 1.829604e+002 3.250798e+001
      vertex   -7.133630e+000 1.861406e+002 3.322078e+001
    endloop
  endfacet
  facet normal -1.000000e+000 2.442310e-004 7.890617e-016
    outer loop
      vertex   -7.133630e+000 1.861406e+002 3.322078e+001
      vertex   -7.134406e+000 1.829604e+002 3.250798e+001
      vertex   -7.134599e+000 1.821719e+002 3.259680e+001
    endloop
  endfacet
  facet normal -1.000000e+000 2.442310e-004 4.073053e-015
    outer loop
      vertex   -7.135568e+000 1.782031e+002 3.322059e+001
      vertex   -7.134599e+000 1.821719e+002 3.259680e+001
      vertex   -7.134791e+000 1.813835e+002 3.250795e+001
    endloop
  endfacet
  facet normal -1.000000e+000 2.442310e-004 1.155890e-015
    outer loop
      vertex   -7.134974e+000 1.806345e+002 3.224587e+001
      vertex   -7.135568e+000 1.782031e+002 3.322059e+001
      vertex   -7.134791e+000 1.813835e+002 3.250795e+001
    endloop
  endfacet
  facet normal -1.000000e+000 2.442310e-004 -1.100474e-016
    outer loop
      vertex   -7.134974e+000 1.806345e+002 3.224587e+001
      vertex   -7.135138e+000 1.799627e+002 3.182371e+001
      vertex   -7.135568e+000 1.782031e+002 3.322059e+001
    endloop
  endfacet
  facet normal -1.000000e+000 2.442310e-004 -2.938496e-016
    outer loop
      vertex   -7.135568e+000 1.782031e+002 3.322059e+001
      vertex   -7.135138e+000 1.799627e+002 3.182371e+001
      vertex   -7.135275e+000 1.794017e+002 3.126265e+001
    endloop
  endfacet
  facet normal -1.000000e+000 2.442310e-004 3.173431e-016
    outer loop
      vertex   -7.135379e+000 1.789796e+002 3.059081e+001
      vertex   -7.135568e+000 1.782031e+002 3.322059e+001
      vertex   -7.135275e+000 1.794017e+002 3.126265e+001
    endloop
  endfacet
  facet normal -1.000000e+000 2.442310e-004 -6.090268e-016
    outer loop
      vertex   -7.135379e+000 1.789796e+002 3.059081e+001
      vertex   -7.135443e+000 1.787175e+002 2.984188e+001
      vertex   -7.135568e+000 1.782031e+002 3.322059e+001
    endloop
  endfacet
  facet normal -1.000000e+000 2.442310e-004 -2.595641e-015
    outer loop
      vertex   -7.135568e+000 1.782031e+002 3.322059e+001
      vertex   -7.135443e+000 1.787175e+002 2.984188e+001
      vertex   -7.135464e+000 1.786287e+002 2.905342e+001
    endloop
  endfacet
  facet normal -1.000000e+000 2.442310e-004 -1.036784e-015
    outer loop
      vertex   -7.135568e+000 1.782033e+002 2.481214e+001
      vertex   -7.135568e+000 1.782031e+002 3.322059e+001
      vertex   -7.135464e+000 1.786287e+002 2.905342e+001
    endloop
  endfacet
  facet normal -1.000000e+000 2.442310e-004 3.082203e-015
    outer loop
      vertex   -7.133630e+000 1.861406e+002 3.322078e+001
      vertex   -7.134599e+000 1.821719e+002 3.259680e+001
      vertex   -7.135568e+000 1.782031e+002 3.322059e+001
    endloop
  endfacet
  facet normal -1.000000e+000 2.442310e-004 -1.101759e-015
    outer loop
      vertex   -1.475444e+001 1.828371e+002 -1.705345e+000
      vertex   -1.475476e+001 1.815120e+002 -1.705376e+000
      vertex   -1.475444e+001 1.828369e+002 8.454655e+000
    endloop
  endfacet
  facet normal -1.000000e+000 2.442310e-004 -1.101075e-015
    outer loop
      vertex   -1.475444e+001 1.828369e+002 8.454655e+000
      vertex   -1.475476e+001 1.815120e+002 -1.705376e+000
      vertex   -1.475476e+001 1.815118e+002 8.454624e+000
    endloop
  endfacet
  facet normal -6.535162e-001 7.521532e-001 8.474755e-002
    outer loop
      vertex   -7.135443e+000 1.787176e+002 -6.735164e+000
      vertex   -7.135464e+000 1.786287e+002 -5.946708e+000
      vertex   -4.634534e+000 1.808017e+002 -5.946656e+000
    endloop
  endfacet
  facet normal -6.552292e-001 7.489677e-001 9.860062e-002
    outer loop
      vertex   -4.634522e+000 1.808483e+002 -6.301168e+000
      vertex   -7.135443e+000 1.787176e+002 -6.735164e+000
      vertex   -4.634534e+000 1.808017e+002 -5.946656e+000
    endloop
  endfacet
  facet normal -6.526951e-001 7.151169e-001 2.501937e-001
    outer loop
      vertex   -4.634522e+000 1.808483e+002 -6.301168e+000
      vertex   -7.135379e+000 1.789796e+002 -7.484080e+000
      vertex   -7.135443e+000 1.787176e+002 -6.735164e+000
    endloop
  endfacet
  facet normal -6.569433e-001 6.965663e-001 2.884803e-001
    outer loop
      vertex   -4.634522e+000 1.808483e+002 -6.301168e+000
      vertex   -4.634489e+000 1.809852e+002 -6.631519e+000
      vertex   -7.135379e+000 1.789796e+002 -7.484080e+000
    endloop
  endfacet
  facet normal -6.522133e-001 6.418824e-001 4.032428e-001
    outer loop
      vertex   -7.135379e+000 1.789796e+002 -7.484080e+000
      vertex   -4.634489e+000 1.809852e+002 -6.631519e+000
      vertex   -7.135275e+000 1.794018e+002 -8.155901e+000
    endloop
  endfacet
  facet normal -6.578149e-001 5.975861e-001 4.584434e-001
    outer loop
      vertex   -7.135275e+000 1.794018e+002 -8.155901e+000
      vertex   -4.634489e+000 1.809852e+002 -6.631519e+000
      vertex   -4.634436e+000 1.812029e+002 -6.915195e+000
    endloop
  endfacet
  facet normal -6.578489e-001 4.585755e-001 5.974474e-001
    outer loop
      vertex   -7.135138e+000 1.799629e+002 -8.716939e+000
      vertex   -4.634436e+000 1.812029e+002 -6.915195e+000
      vertex   -4.634366e+000 1.814866e+002 -7.132865e+000
    endloop
  endfacet
  facet normal -6.570429e-001 2.886074e-001 6.964197e-001
    outer loop
      vertex   -7.134974e+000 1.806347e+002 -9.139063e+000
      vertex   -4.634366e+000 1.814866e+002 -7.132865e+000
      vertex   -4.634286e+000 1.818169e+002 -7.269694e+000
    endloop
  endfacet
  facet normal -6.553880e-001 9.872486e-002 7.488123e-001
    outer loop
      vertex   -7.134791e+000 1.813836e+002 -9.401104e+000
      vertex   -4.634286e+000 1.818169e+002 -7.269694e+000
      vertex   -4.634199e+000 1.821714e+002 -7.316358e+000
    endloop
  endfacet
  facet normal -6.537205e-001 -8.458789e-002 7.519936e-001
    outer loop
      vertex   -7.134599e+000 1.821721e+002 -9.489923e+000
      vertex   -4.634199e+000 1.821714e+002 -7.316358e+000
      vertex   -7.134406e+000 1.829605e+002 -9.401066e+000
    endloop
  endfacet
  facet normal -6.536791e-001 8.487122e-002 7.519977e-001
    outer loop
      vertex   -7.134599e+000 1.821721e+002 -9.489923e+000
      vertex   -7.134791e+000 1.813836e+002 -9.401104e+000
      vertex   -4.634199e+000 1.821714e+002 -7.316358e+000
    endloop
  endfacet
  facet normal -6.526951e-001 7.151289e-001 -2.501594e-001
    outer loop
      vertex   -7.135379e+000 1.789796e+002 -4.409319e+000
      vertex   -4.634522e+000 1.808483e+002 -5.592141e+000
      vertex   -7.135443e+000 1.787175e+002 -5.158247e+000
    endloop
  endfacet
  facet normal -6.569433e-001 6.965801e-001 -2.884470e-001
    outer loop
      vertex   -7.135379e+000 1.789796e+002 -4.409319e+000
      vertex   -4.634489e+000 1.809852e+002 -5.261784e+000
      vertex   -4.634522e+000 1.808483e+002 -5.592141e+000
    endloop
  endfacet
  facet normal -6.522133e-001 6.419017e-001 -4.032121e-001
    outer loop
      vertex   -7.135379e+000 1.789796e+002 -4.409319e+000
      vertex   -7.135275e+000 1.794017e+002 -3.737478e+000
      vertex   -4.634489e+000 1.809852e+002 -5.261784e+000
    endloop
  endfacet
  facet normal -6.578149e-001 5.976081e-001 -4.584148e-001
    outer loop
      vertex   -4.634489e+000 1.809852e+002 -5.261784e+000
      vertex   -7.135275e+000 1.794017e+002 -3.737478e+000
      vertex   -4.634436e+000 1.812028e+002 -4.978097e+000
    endloop
  endfacet
  facet normal -6.520723e-001 5.361902e-001 -5.360053e-001
    outer loop
      vertex   -4.634436e+000 1.812028e+002 -4.978097e+000
      vertex   -7.135275e+000 1.794017e+002 -3.737478e+000
      vertex   -7.135138e+000 1.799627e+002 -3.176412e+000
    endloop
  endfacet
  facet normal -6.522716e-001 4.034021e-001 -6.417231e-001
    outer loop
      vertex   -4.634366e+000 1.814865e+002 -4.760414e+000
      vertex   -7.135138e+000 1.799627e+002 -3.176412e+000
      vertex   -7.134974e+000 1.806345e+002 -2.754257e+000
    endloop
  endfacet
  facet normal -6.528086e-001 2.503531e-001 -7.149575e-001
    outer loop
      vertex   -4.634286e+000 1.818168e+002 -4.623569e+000
      vertex   -7.134974e+000 1.806345e+002 -2.754257e+000
      vertex   -7.134791e+000 1.813835e+002 -2.492180e+000
    endloop
  endfacet
  facet normal -6.536791e-001 8.490720e-002 -7.519936e-001
    outer loop
      vertex   -4.634199e+000 1.821714e+002 -4.576888e+000
      vertex   -7.134791e+000 1.813835e+002 -2.492180e+000
      vertex   -7.134599e+000 1.821719e+002 -2.403323e+000
    endloop
  endfacet
  facet normal -6.537205e-001 -8.455191e-002 -7.519977e-001
    outer loop
      vertex   -7.134406e+000 1.829604e+002 -2.492142e+000
      vertex   -4.634199e+000 1.821714e+002 -4.576888e+000
      vertex   -7.134599e+000 1.821719e+002 -2.403323e+000
    endloop
  endfacet
  facet normal -6.554362e-001 -9.840472e-002 -7.488123e-001
    outer loop
      vertex   -7.134406e+000 1.829604e+002 -2.492142e+000
      vertex   -4.634112e+000 1.825259e+002 -4.623552e+000
      vertex   -4.634199e+000 1.821714e+002 -4.576888e+000
    endloop
  endfacet
  facet normal -6.529308e-001 -2.500000e-001 -7.149695e-001
    outer loop
      vertex   -7.134406e+000 1.829604e+002 -2.492142e+000
      vertex   -7.134223e+000 1.837093e+002 -2.754183e+000
      vertex   -4.634112e+000 1.825259e+002 -4.623552e+000
    endloop
  endfacet
  facet normal -6.571838e-001 -2.882865e-001 -6.964197e-001
    outer loop
      vertex   -4.634112e+000 1.825259e+002 -4.623552e+000
      vertex   -7.134223e+000 1.837093e+002 -2.754183e+000
      vertex   -4.634032e+000 1.828562e+002 -4.760381e+000
    endloop
  endfacet
  facet normal -6.524685e-001 -4.030527e-001 -6.417424e-001
    outer loop
      vertex   -4.634032e+000 1.828562e+002 -4.760381e+000
      vertex   -7.134223e+000 1.837093e+002 -2.754183e+000
      vertex   -7.134059e+000 1.843812e+002 -3.176307e+000
    endloop
  endfacet
  facet normal -6.523341e-001 -5.358460e-001 -5.360310e-001
    outer loop
      vertex   -4.633962e+000 1.831399e+002 -4.978051e+000
      vertex   -7.134059e+000 1.843812e+002 -3.176307e+000
      vertex   -7.133922e+000 1.849422e+002 -3.737345e+000
    endloop
  endfacet
  facet normal -6.525268e-001 -6.415638e-001 -4.032428e-001
    outer loop
      vertex   -4.633909e+000 1.833576e+002 -5.261727e+000
      vertex   -7.133922e+000 1.849422e+002 -3.737345e+000
      vertex   -7.133819e+000 1.853644e+002 -4.409166e+000
    endloop
  endfacet
  facet normal -6.530443e-001 -7.147980e-001 -2.501937e-001
    outer loop
      vertex   -4.633876e+000 1.834944e+002 -5.592078e+000
      vertex   -7.133819e+000 1.853644e+002 -4.409166e+000
      vertex   -7.133755e+000 1.856264e+002 -5.158082e+000
    endloop
  endfacet
  facet normal -6.538835e-001 -7.518339e-001 -8.474755e-002
    outer loop
      vertex   -4.633864e+000 1.835411e+002 -5.946590e+000
      vertex   -7.133755e+000 1.856264e+002 -5.158082e+000
      vertex   -7.133734e+000 1.857153e+002 -5.946538e+000
    endloop
  endfacet
  facet normal -6.538835e-001 -7.518380e-001 8.471157e-002
    outer loop
      vertex   -7.133755e+000 1.856265e+002 -6.734999e+000
      vertex   -4.633864e+000 1.835411e+002 -5.946590e+000
      vertex   -7.133734e+000 1.857153e+002 -5.946538e+000
    endloop
  endfacet
  facet normal -6.555950e-001 -7.486522e-001 9.856479e-002
    outer loop
      vertex   -7.133755e+000 1.856265e+002 -6.734999e+000
      vertex   -4.633876e+000 1.834945e+002 -6.301105e+000
      vertex   -4.633864e+000 1.835411e+002 -5.946590e+000
    endloop
  endfacet
  facet normal -6.530443e-001 -7.148100e-001 2.501594e-001
    outer loop
      vertex   -7.133755e+000 1.856265e+002 -6.734999e+000
      vertex   -7.133819e+000 1.853644e+002 -7.483927e+000
      vertex   -4.633876e+000 1.834945e+002 -6.301105e+000
    endloop
  endfacet
  facet normal -6.572835e-001 -6.962592e-001 2.884470e-001
    outer loop
      vertex   -4.633876e+000 1.834945e+002 -6.301105e+000
      vertex   -7.133819e+000 1.853644e+002 -7.483927e+000
      vertex   -4.633909e+000 1.833576e+002 -6.631462e+000
    endloop
  endfacet
  facet normal -6.525268e-001 -6.415831e-001 4.032121e-001
    outer loop
      vertex   -4.633909e+000 1.833576e+002 -6.631462e+000
      vertex   -7.133819e+000 1.853644e+002 -7.483927e+000
      vertex   -7.133922e+000 1.849423e+002 -8.155768e+000
    endloop
  endfacet
  facet normal -6.523341e-001 -5.358717e-001 5.360053e-001
    outer loop
      vertex   -4.633962e+000 1.831400e+002 -6.915149e+000
      vertex   -7.133922e+000 1.849423e+002 -8.155768e+000
      vertex   -7.134059e+000 1.843813e+002 -8.716834e+000
    endloop
  endfacet
  facet normal -6.524685e-001 -4.030834e-001 6.417231e-001
    outer loop
      vertex   -4.634032e+000 1.828563e+002 -7.132832e+000
      vertex   -7.134059e+000 1.843813e+002 -8.716834e+000
      vertex   -7.134223e+000 1.837095e+002 -9.138989e+000
    endloop
  endfacet
  facet normal -6.529308e-001 -2.500342e-001 7.149575e-001
    outer loop
      vertex   -4.634112e+000 1.825259e+002 -7.269677e+000
      vertex   -7.134223e+000 1.837095e+002 -9.138989e+000
      vertex   -7.134406e+000 1.829605e+002 -9.401066e+000
    endloop
  endfacet
  facet normal -6.554362e-001 -9.844054e-002 7.488076e-001
    outer loop
      vertex   -4.634199e+000 1.821714e+002 -7.316358e+000
      vertex   -4.634112e+000 1.825259e+002 -7.269677e+000
      vertex   -7.134406e+000 1.829605e+002 -9.401066e+000
    endloop
  endfacet
  facet normal -6.578489e-001 4.586041e-001 -5.974254e-001
    outer loop
      vertex   -4.634436e+000 1.812028e+002 -4.978097e+000
      vertex   -7.135138e+000 1.799627e+002 -3.176412e+000
      vertex   -4.634366e+000 1.814865e+002 -4.760414e+000
    endloop
  endfacet
  facet normal -6.570429e-001 2.886407e-001 -6.964059e-001
    outer loop
      vertex   -4.634366e+000 1.814865e+002 -4.760414e+000
      vertex   -7.134974e+000 1.806345e+002 -2.754257e+000
      vertex   -4.634286e+000 1.818168e+002 -4.623569e+000
    endloop
  endfacet
  facet normal -6.553880e-001 9.876069e-002 -7.488076e-001
    outer loop
      vertex   -4.634286e+000 1.818168e+002 -4.623569e+000
      vertex   -7.134791e+000 1.813835e+002 -2.492180e+000
      vertex   -4.634199e+000 1.821714e+002 -4.576888e+000
    endloop
  endfacet
  facet normal -6.580728e-001 -4.582541e-001 -5.974474e-001
    outer loop
      vertex   -4.634032e+000 1.828562e+002 -4.760381e+000
      vertex   -7.134059e+000 1.843812e+002 -3.176307e+000
      vertex   -4.633962e+000 1.831399e+002 -4.978051e+000
    endloop
  endfacet
  facet normal -6.581068e-001 -5.972647e-001 -4.584434e-001
    outer loop
      vertex   -4.633962e+000 1.831399e+002 -4.978051e+000
      vertex   -7.133922e+000 1.849422e+002 -3.737345e+000
      vertex   -4.633909e+000 1.833576e+002 -5.261727e+000
    endloop
  endfacet
  facet normal -6.572835e-001 -6.962454e-001 -2.884803e-001
    outer loop
      vertex   -4.633909e+000 1.833576e+002 -5.261727e+000
      vertex   -7.133819e+000 1.853644e+002 -4.409166e+000
      vertex   -4.633876e+000 1.834944e+002 -5.592078e+000
    endloop
  endfacet
  facet normal -6.555950e-001 -7.486475e-001 -9.860062e-002
    outer loop
      vertex   -4.633876e+000 1.834944e+002 -5.592078e+000
      vertex   -7.133755e+000 1.856264e+002 -5.158082e+000
      vertex   -4.633864e+000 1.835411e+002 -5.946590e+000
    endloop
  endfacet
  facet normal -6.581068e-001 -5.972867e-001 4.584148e-001
    outer loop
      vertex   -4.633909e+000 1.833576e+002 -6.631462e+000
      vertex   -7.133922e+000 1.849423e+002 -8.155768e+000
      vertex   -4.633962e+000 1.831400e+002 -6.915149e+000
    endloop
  endfacet
  facet normal -6.580728e-001 -4.582827e-001 5.974254e-001
    outer loop
      vertex   -4.633962e+000 1.831400e+002 -6.915149e+000
      vertex   -7.134059e+000 1.843813e+002 -8.716834e+000
      vertex   -4.634032e+000 1.828563e+002 -7.132832e+000
    endloop
  endfacet
  facet normal -6.571838e-001 -2.883198e-001 6.964059e-001
    outer loop
      vertex   -4.634032e+000 1.828563e+002 -7.132832e+000
      vertex   -7.134223e+000 1.837095e+002 -9.138989e+000
      vertex   -4.634112e+000 1.825259e+002 -7.269677e+000
    endloop
  endfacet
  facet normal -6.528086e-001 2.503189e-001 7.149695e-001
    outer loop
      vertex   -7.134791e+000 1.813836e+002 -9.401104e+000
      vertex   -7.134974e+000 1.806347e+002 -9.139063e+000
      vertex   -4.634286e+000 1.818169e+002 -7.269694e+000
    endloop
  endfacet
  facet normal -6.522716e-001 4.033714e-001 6.417424e-001
    outer loop
      vertex   -7.134974e+000 1.806347e+002 -9.139063e+000
      vertex   -7.135138e+000 1.799629e+002 -8.716939e+000
      vertex   -4.634366e+000 1.814866e+002 -7.132865e+000
    endloop
  endfacet
  facet normal -6.520723e-001 5.361646e-001 5.360310e-001
    outer loop
      vertex   -7.135138e+000 1.799629e+002 -8.716939e+000
      vertex   -7.135275e+000 1.794018e+002 -8.155901e+000
      vertex   -4.634436e+000 1.812029e+002 -6.915195e+000
    endloop
  endfacet
  facet normal -6.552292e-001 7.489724e-001 -9.856479e-002
    outer loop
      vertex   -4.634522e+000 1.808483e+002 -5.592141e+000
      vertex   -4.634534e+000 1.808017e+002 -5.946656e+000
      vertex   -7.135443e+000 1.787175e+002 -5.158247e+000
    endloop
  endfacet
  facet normal -6.535162e-001 7.521573e-001 -8.471157e-002
    outer loop
      vertex   -7.135443e+000 1.787175e+002 -5.158247e+000
      vertex   -4.634534e+000 1.808017e+002 -5.946656e+000
      vertex   -7.135464e+000 1.786287e+002 -5.946708e+000
    endloop
  endfacet
  facet normal -9.834754e-001 -1.810418e-001 -4.336216e-006
    outer loop
      vertex   -1.475476e+001 1.815120e+002 -1.705376e+000
      vertex   -1.458968e+001 1.806153e+002 -1.705398e+000
      vertex   -1.475476e+001 1.815118e+002 8.454624e+000
    endloop
  endfacet
  facet normal -9.834754e-001 -1.810418e-001 -4.336216e-006
    outer loop
      vertex   -1.475476e+001 1.815118e+002 8.454624e+000
      vertex   -1.458968e+001 1.806153e+002 -1.705398e+000
      vertex   -1.458968e+001 1.806150e+002 8.454602e+000
    endloop
  endfacet
  facet normal -9.458576e-001 -3.245818e-001 -7.769435e-006
    outer loop
      vertex   -1.458968e+001 1.806150e+002 8.454602e+000
      vertex   -1.458968e+001 1.806153e+002 -1.705398e+000
      vertex   -1.429370e+001 1.797528e+002 -1.705418e+000
    endloop
  endfacet
  facet normal -8.874131e-001 -4.609749e-001 -1.103158e-005
    outer loop
      vertex   -1.429371e+001 1.797525e+002 8.454582e+000
      vertex   -1.429370e+001 1.797528e+002 -1.705418e+000
      vertex   -1.387336e+001 1.789436e+002 -1.705438e+000
    endloop
  endfacet
  facet normal -8.094289e-001 -5.872179e-001 -1.405082e-005
    outer loop
      vertex   -1.387336e+001 1.789433e+002 8.454562e+000
      vertex   -1.387336e+001 1.789436e+002 -1.705438e+000
      vertex   -1.333791e+001 1.782055e+002 -1.705455e+000
    endloop
  endfacet
  facet normal -8.094289e-001 -5.872179e-001 -1.405082e-005
    outer loop
      vertex   -1.333791e+001 1.782053e+002 8.454545e+000
      vertex   -1.387336e+001 1.789433e+002 8.454562e+000
      vertex   -1.333791e+001 1.782055e+002 -1.705455e+000
    endloop
  endfacet
  facet normal -9.458576e-001 -3.245818e-001 -7.769435e-006
    outer loop
      vertex   -1.458968e+001 1.806150e+002 8.454602e+000
      vertex   -1.429370e+001 1.797528e+002 -1.705418e+000
      vertex   -1.429371e+001 1.797525e+002 8.454582e+000
    endloop
  endfacet
  facet normal -8.874131e-001 -4.609749e-001 -1.103158e-005
    outer loop
      vertex   -1.429371e+001 1.797525e+002 8.454582e+000
      vertex   -1.387336e+001 1.789436e+002 -1.705438e+000
      vertex   -1.387336e+001 1.789433e+002 8.454562e+000
    endloop
  endfacet
  facet normal -8.094275e-001 -5.872169e-001 -1.834954e-003
    outer loop
      vertex   -1.387336e+001 1.789432e+002 1.465216e+001
      vertex   -1.333791e+001 1.782051e+002 1.465214e+001
      vertex   -1.358686e+001 1.785196e+002 2.381838e+001
    endloop
  endfacet
  facet normal -8.093147e-001 -5.871355e-001 1.677897e-002
    outer loop
      vertex   -1.387336e+001 1.789429e+002 2.481216e+001
      vertex   -1.358686e+001 1.785196e+002 2.381838e+001
      vertex   -1.333791e+001 1.782049e+002 2.481214e+001
    endloop
  endfacet
  facet normal -8.281708e-001 -5.604759e-001 -1.341127e-005
    outer loop
      vertex   -1.387336e+001 1.789429e+002 2.481216e+001
      vertex   -1.387336e+001 1.789432e+002 1.465216e+001
      vertex   -1.358686e+001 1.785196e+002 2.381838e+001
    endloop
  endfacet
  facet normal -8.727189e-001 -4.882230e-001 -1.168326e-005
    outer loop
      vertex   -1.387336e+001 1.789429e+002 2.481216e+001
      vertex   -1.413312e+001 1.794073e+002 2.381840e+001
      vertex   -1.387336e+001 1.789432e+002 1.465216e+001
    endloop
  endfacet
  facet normal -8.872913e-001 -4.609121e-001 1.655848e-002
    outer loop
      vertex   -1.387336e+001 1.789429e+002 2.481216e+001
      vertex   -1.429371e+001 1.797521e+002 2.481218e+001
      vertex   -1.413312e+001 1.794073e+002 2.381840e+001
    endloop
  endfacet
  facet normal -9.065367e-001 -4.221271e-001 -1.010246e-005
    outer loop
      vertex   -1.413312e+001 1.794073e+002 2.381840e+001
      vertex   -1.429371e+001 1.797521e+002 2.481218e+001
      vertex   -1.429371e+001 1.797524e+002 1.465218e+001
    endloop
  endfacet
  facet normal -8.874117e-001 -4.609742e-001 -1.807693e-003
    outer loop
      vertex   -1.387336e+001 1.789432e+002 1.465216e+001
      vertex   -1.413312e+001 1.794073e+002 2.381840e+001
      vertex   -1.429371e+001 1.797524e+002 1.465218e+001
    endloop
  endfacet
  facet normal -7.843044e-001 -6.203762e-001 -1.484381e-005
    outer loop
      vertex   -1.333791e+001 1.782051e+002 1.465214e+001
      vertex   -1.333791e+001 1.782049e+002 2.481214e+001
      vertex   -1.358686e+001 1.785196e+002 2.381838e+001
    endloop
  endfacet
  facet normal -9.390697e-001 -3.437267e-001 -8.227335e-006
    outer loop
      vertex   -1.429371e+001 1.797524e+002 1.465218e+001
      vertex   -1.429371e+001 1.797521e+002 2.481218e+001
      vertex   -1.452150e+001 1.803745e+002 2.381842e+001
    endloop
  endfacet
  facet normal -9.619839e-001 -2.731062e-001 -6.538247e-006
    outer loop
      vertex   -1.458968e+001 1.806149e+002 1.465220e+001
      vertex   -1.452150e+001 1.803745e+002 2.381842e+001
      vertex   -1.458968e+001 1.806146e+002 2.481220e+001
    endloop
  endfacet
  facet normal -9.834461e-001 -1.810366e-001 7.712487e-003
    outer loop
      vertex   -1.474084e+001 1.813934e+002 2.381845e+001
      vertex   -1.458968e+001 1.806146e+002 2.481220e+001
      vertex   -1.475476e+001 1.815114e+002 2.481222e+001
    endloop
  endfacet
  facet normal -9.931106e-001 -1.171808e-001 -2.808735e-006
    outer loop
      vertex   -1.475476e+001 1.815116e+002 1.465222e+001
      vertex   -1.474084e+001 1.813934e+002 2.381845e+001
      vertex   -1.475476e+001 1.815114e+002 2.481222e+001
    endloop
  endfacet
  facet normal -9.834751e-001 -1.810417e-001 -8.409960e-004
    outer loop
      vertex   -1.475476e+001 1.815116e+002 1.465222e+001
      vertex   -1.458968e+001 1.806149e+002 1.465220e+001
      vertex   -1.474084e+001 1.813934e+002 2.381845e+001
    endloop
  endfacet
  facet normal -9.816794e-001 -1.905404e-001 -4.563410e-006
    outer loop
      vertex   -1.474084e+001 1.813934e+002 2.381845e+001
      vertex   -1.458968e+001 1.806149e+002 1.465220e+001
      vertex   -1.458968e+001 1.806146e+002 2.481220e+001
    endloop
  endfacet
  facet normal -9.458566e-001 -3.245814e-001 -1.476301e-003
    outer loop
      vertex   -1.458968e+001 1.806149e+002 1.465220e+001
      vertex   -1.429371e+001 1.797524e+002 1.465218e+001
      vertex   -1.452150e+001 1.803745e+002 2.381842e+001
    endloop
  endfacet
  facet normal -9.457709e-001 -3.245524e-001 1.353621e-002
    outer loop
      vertex   -1.458968e+001 1.806146e+002 2.481220e+001
      vertex   -1.452150e+001 1.803745e+002 2.381842e+001
      vertex   -1.429371e+001 1.797521e+002 2.481218e+001
    endloop
  endfacet
  facet normal -1.000000e+000 2.442310e-004 -1.451432e-015
    outer loop
      vertex   -1.475444e+001 1.828368e+002 1.465226e+001
      vertex   -1.475476e+001 1.815116e+002 1.465222e+001
      vertex   -1.475444e+001 1.828365e+002 2.481226e+001
    endloop
  endfacet
  facet normal -1.000000e+000 2.442310e-004 -1.101140e-015
    outer loop
      vertex   -1.475444e+001 1.828365e+002 2.481226e+001
      vertex   -1.475476e+001 1.815116e+002 1.465222e+001
      vertex   -1.475476e+001 1.815114e+002 2.481222e+001
    endloop
  endfacet
  facet normal -9.833857e-001 1.815220e-001 -1.542148e-003
    outer loop
      vertex   -1.458891e+001 1.837335e+002 1.465228e+001
      vertex   -1.475444e+001 1.828368e+002 1.465226e+001
      vertex   -1.465218e+001 1.834686e+002 2.381850e+001
    endloop
  endfacet
  facet normal -9.832868e-001 1.815033e-001 1.426712e-002
    outer loop
      vertex   -1.458891e+001 1.837332e+002 2.481228e+001
      vertex   -1.465218e+001 1.834686e+002 2.381850e+001
      vertex   -1.475444e+001 1.828365e+002 2.481226e+001
    endloop
  endfacet
  facet normal -9.725946e-001 2.325075e-001 5.555834e-006
    outer loop
      vertex   -1.458891e+001 1.837332e+002 2.481228e+001
      vertex   -1.458891e+001 1.837335e+002 1.465228e+001
      vertex   -1.465218e+001 1.834686e+002 2.381850e+001
    endloop
  endfacet
  facet normal -9.493728e-001 3.141517e-001 7.508877e-006
    outer loop
      vertex   -1.458891e+001 1.837332e+002 2.481228e+001
      vertex   -1.434673e+001 1.844651e+002 2.381852e+001
      vertex   -1.458891e+001 1.837335e+002 1.465228e+001
    endloop
  endfacet
  facet normal -9.456614e-001 3.250307e-001 8.924414e-003
    outer loop
      vertex   -1.458891e+001 1.837332e+002 2.481228e+001
      vertex   -1.429252e+001 1.845956e+002 2.481230e+001
      vertex   -1.434673e+001 1.844651e+002 2.381852e+001
    endloop
  endfacet
  facet normal -9.234481e-001 3.837233e-001 9.173163e-006
    outer loop
      vertex   -1.434673e+001 1.844651e+002 2.381852e+001
      vertex   -1.429252e+001 1.845956e+002 2.481230e+001
      vertex   -1.429252e+001 1.845958e+002 1.465230e+001
    endloop
  endfacet
  facet normal -9.456985e-001 3.250437e-001 -9.589848e-004
    outer loop
      vertex   -1.458891e+001 1.837335e+002 1.465228e+001
      vertex   -1.434673e+001 1.844651e+002 2.381852e+001
      vertex   -1.429252e+001 1.845958e+002 1.465230e+001
    endloop
  endfacet
  facet normal -9.871646e-001 1.597062e-001 3.814363e-006
    outer loop
      vertex   -1.475444e+001 1.828368e+002 1.465226e+001
      vertex   -1.475444e+001 1.828365e+002 2.481226e+001
      vertex   -1.465218e+001 1.834686e+002 2.381850e+001
    endloop
  endfacet
  facet normal -8.875794e-001 4.606548e-001 1.101355e-005
    outer loop
      vertex   -1.429252e+001 1.845958e+002 1.465230e+001
      vertex   -1.429252e+001 1.845956e+002 2.481230e+001
      vertex   -1.387727e+001 1.853957e+002 2.381854e+001
    endloop
  endfacet
  facet normal -8.091419e-001 5.876132e-001 9.948912e-005
    outer loop
      vertex   -1.387178e+001 1.854048e+002 1.465232e+001
      vertex   -1.387727e+001 1.853957e+002 2.381854e+001
      vertex   -1.333597e+001 1.861426e+002 1.465233e+001
    endloop
  endfacet
  facet normal -8.871879e-001 4.614084e-001 -7.247841e-005
    outer loop
      vertex   -1.387178e+001 1.854048e+002 1.465232e+001
      vertex   -1.429252e+001 1.845958e+002 1.465230e+001
      vertex   -1.387727e+001 1.853957e+002 2.381854e+001
    endloop
  endfacet
  facet normal -8.091419e-001 5.876132e-001 1.405082e-005
    outer loop
      vertex   -1.333597e+001 1.861424e+002 2.481233e+001
      vertex   -1.333597e+001 1.861426e+002 1.465233e+001
      vertex   -1.387178e+001 1.854045e+002 2.481232e+001
    endloop
  endfacet
  facet normal -8.137370e-001 5.812328e-001 -6.917891e-004
    outer loop
      vertex   -1.387178e+001 1.854045e+002 2.481232e+001
      vertex   -1.333597e+001 1.861426e+002 1.465233e+001
      vertex   -1.387727e+001 1.853957e+002 2.381854e+001
    endloop
  endfacet
  facet normal -8.871876e-001 4.614082e-001 7.812976e-004
    outer loop
      vertex   -1.429252e+001 1.845956e+002 2.481230e+001
      vertex   -1.387178e+001 1.854045e+002 2.481232e+001
      vertex   -1.387727e+001 1.853957e+002 2.381854e+001
    endloop
  endfacet
  facet normal 5.841942e-009 2.391973e-005 -1.000000e+000
    outer loop
      vertex   -1.333791e+001 1.782051e+002 1.465214e+001
      vertex   -1.387336e+001 1.789432e+002 1.465216e+001
      vertex   -7.135568e+000 1.782036e+002 1.465214e+001
    endloop
  endfacet
  facet normal 5.841942e-009 2.391973e-005 -1.000000e+000
    outer loop
      vertex   -7.135568e+000 1.782036e+002 1.465214e+001
      vertex   -1.387336e+001 1.789432e+002 1.465216e+001
      vertex   -1.429371e+001 1.797524e+002 1.465218e+001
    endloop
  endfacet
  facet normal 5.841942e-009 2.391973e-005 -1.000000e+000
    outer loop
      vertex   -1.458968e+001 1.806149e+002 1.465220e+001
      vertex   -7.135568e+000 1.782036e+002 1.465214e+001
      vertex   -1.429371e+001 1.797524e+002 1.465218e+001
    endloop
  endfacet
  facet normal 5.841944e-009 2.391973e-005 -1.000000e+000
    outer loop
      vertex   -1.458968e+001 1.806149e+002 1.465220e+001
      vertex   -1.475476e+001 1.815116e+002 1.465222e+001
      vertex   -7.135568e+000 1.782036e+002 1.465214e+001
    endloop
  endfacet
  facet normal 5.841941e-009 2.391973e-005 -1.000000e+000
    outer loop
      vertex   -7.135568e+000 1.782036e+002 1.465214e+001
      vertex   -1.475476e+001 1.815116e+002 1.465222e+001
      vertex   -1.475444e+001 1.828368e+002 1.465226e+001
    endloop
  endfacet
  facet normal 5.841942e-009 2.391973e-005 -1.000000e+000
    outer loop
      vertex   -7.133630e+000 1.861411e+002 1.465233e+001
      vertex   -1.475444e+001 1.828368e+002 1.465226e+001
      vertex   -1.458891e+001 1.837335e+002 1.465228e+001
    endloop
  endfacet
  facet normal 5.841942e-009 2.391973e-005 -1.000000e+000
    outer loop
      vertex   -1.429252e+001 1.845958e+002 1.465230e+001
      vertex   -7.133630e+000 1.861411e+002 1.465233e+001
      vertex   -1.458891e+001 1.837335e+002 1.465228e+001
    endloop
  endfacet
  facet normal 5.841942e-009 2.391973e-005 -1.000000e+000
    outer loop
      vertex   -1.429252e+001 1.845958e+002 1.465230e+001
      vertex   -1.387178e+001 1.854048e+002 1.465232e+001
      vertex   -7.133630e+000 1.861411e+002 1.465233e+001
    endloop
  endfacet
  facet normal 5.841941e-009 2.391973e-005 -1.000000e+000
    outer loop
      vertex   -7.133630e+000 1.861411e+002 1.465233e+001
      vertex   -1.387178e+001 1.854048e+002 1.465232e+001
      vertex   -1.333597e+001 1.861426e+002 1.465233e+001
    endloop
  endfacet
  facet normal 5.841942e-009 2.391973e-005 -1.000000e+000
    outer loop
      vertex   -7.135568e+000 1.782036e+002 1.465214e+001
      vertex   -1.475444e+001 1.828368e+002 1.465226e+001
      vertex   -7.133630e+000 1.861411e+002 1.465233e+001
    endloop
  endfacet
  facet normal -1.000000e+000 2.442310e-004 -1.039915e-015
    outer loop
      vertex   -7.135568e+000 1.782036e+002 1.465214e+001
      vertex   -7.133630e+000 1.861411e+002 1.465233e+001
      vertex   -7.135568e+000 1.782037e+002 8.454545e+000
    endloop
  endfacet
  facet normal -1.000000e+000 2.442310e-004 -1.037658e-015
    outer loop
      vertex   -7.135568e+000 1.782037e+002 8.454545e+000
      vertex   -7.133630e+000 1.861411e+002 1.465233e+001
      vertex   -7.133629e+000 1.861412e+002 8.454734e+000
    endloop
  endfacet
  facet normal -5.841941e-009 -2.391973e-005 1.000000e+000
    outer loop
      vertex   -1.333597e+001 1.861428e+002 8.454734e+000
      vertex   -1.387178e+001 1.854049e+002 8.454717e+000
      vertex   -7.133629e+000 1.861412e+002 8.454734e+000
    endloop
  endfacet
  facet normal -5.841941e-009 -2.391973e-005 1.000000e+000
    outer loop
      vertex   -7.133629e+000 1.861412e+002 8.454734e+000
      vertex   -1.387178e+001 1.854049e+002 8.454717e+000
      vertex   -1.429252e+001 1.845959e+002 8.454697e+000
    endloop
  endfacet
  facet normal -5.841942e-009 -2.391973e-005 1.000000e+000
    outer loop
      vertex   -1.458891e+001 1.837336e+002 8.454677e+000
      vertex   -7.133629e+000 1.861412e+002 8.454734e+000
      vertex   -1.429252e+001 1.845959e+002 8.454697e+000
    endloop
  endfacet
  facet normal -5.841943e-009 -2.391973e-005 1.000000e+000
    outer loop
      vertex   -1.458891e+001 1.837336e+002 8.454677e+000
      vertex   -1.475444e+001 1.828369e+002 8.454655e+000
      vertex   -7.133629e+000 1.861412e+002 8.454734e+000
    endloop
  endfacet
  facet normal -5.841939e-009 -2.391973e-005 1.000000e+000
    outer loop
      vertex   -7.133629e+000 1.861412e+002 8.454734e+000
      vertex   -1.475444e+001 1.828369e+002 8.454655e+000
      vertex   -1.475476e+001 1.815118e+002 8.454624e+000
    endloop
  endfacet
  facet normal -5.841941e-009 -2.391973e-005 1.000000e+000
    outer loop
      vertex   -7.135568e+000 1.782037e+002 8.454545e+000
      vertex   -1.475476e+001 1.815118e+002 8.454624e+000
      vertex   -1.458968e+001 1.806150e+002 8.454602e+000
    endloop
  endfacet
  facet normal -5.841940e-009 -2.391973e-005 1.000000e+000
    outer loop
      vertex   -1.429371e+001 1.797525e+002 8.454582e+000
      vertex   -7.135568e+000 1.782037e+002 8.454545e+000
      vertex   -1.458968e+001 1.806150e+002 8.454602e+000
    endloop
  endfacet
  facet normal -5.841940e-009 -2.391973e-005 1.000000e+000
    outer loop
      vertex   -1.429371e+001 1.797525e+002 8.454582e+000
      vertex   -1.387336e+001 1.789433e+002 8.454562e+000
      vertex   -7.135568e+000 1.782037e+002 8.454545e+000
    endloop
  endfacet
  facet normal -5.841941e-009 -2.391973e-005 1.000000e+000
    outer loop
      vertex   -7.135568e+000 1.782037e+002 8.454545e+000
      vertex   -1.387336e+001 1.789433e+002 8.454562e+000
      vertex   -1.333791e+001 1.782053e+002 8.454545e+000
    endloop
  endfacet
  facet normal -5.841941e-009 -2.391973e-005 1.000000e+000
    outer loop
      vertex   -7.133629e+000 1.861412e+002 8.454734e+000
      vertex   -1.475476e+001 1.815118e+002 8.454624e+000
      vertex   -7.135568e+000 1.782037e+002 8.454545e+000
    endloop
  endfacet
  facet normal -8.091419e-001 5.876132e-001 1.405082e-005
    outer loop
      vertex   -1.333597e+001 1.861428e+002 8.454734e+000
      vertex   -1.333597e+001 1.861430e+002 -1.705266e+000
      vertex   -1.387178e+001 1.854049e+002 8.454717e+000
    endloop
  endfacet
  facet normal -8.091419e-001 5.876132e-001 1.405082e-005
    outer loop
      vertex   -1.387178e+001 1.854049e+002 8.454717e+000
      vertex   -1.333597e+001 1.861430e+002 -1.705266e+000
      vertex   -1.387178e+001 1.854052e+002 -1.705283e+000
    endloop
  endfacet
  facet normal -8.871879e-001 4.614084e-001 1.103158e-005
    outer loop
      vertex   -1.429252e+001 1.845962e+002 -1.705303e+000
      vertex   -1.387178e+001 1.854049e+002 8.454717e+000
      vertex   -1.387178e+001 1.854052e+002 -1.705283e+000
    endloop
  endfacet
  facet normal -8.871879e-001 4.614084e-001 1.103158e-005
    outer loop
      vertex   -1.429252e+001 1.845962e+002 -1.705303e+000
      vertex   -1.429252e+001 1.845959e+002 8.454697e+000
      vertex   -1.387178e+001 1.854049e+002 8.454717e+000
    endloop
  endfacet
  facet normal -9.456990e-001 3.250438e-001 7.769435e-006
    outer loop
      vertex   -1.429252e+001 1.845962e+002 -1.705303e+000
      vertex   -1.458891e+001 1.837338e+002 -1.705323e+000
      vertex   -1.429252e+001 1.845959e+002 8.454697e+000
    endloop
  endfacet
  facet normal -9.456990e-001 3.250438e-001 7.769435e-006
    outer loop
      vertex   -1.429252e+001 1.845959e+002 8.454697e+000
      vertex   -1.458891e+001 1.837338e+002 -1.705323e+000
      vertex   -1.458891e+001 1.837336e+002 8.454677e+000
    endloop
  endfacet
  facet normal -9.833869e-001 1.815221e-001 4.336216e-006
    outer loop
      vertex   -1.458891e+001 1.837336e+002 8.454677e+000
      vertex   -1.458891e+001 1.837338e+002 -1.705323e+000
      vertex   -1.475444e+001 1.828371e+002 -1.705345e+000
    endloop
  endfacet
  facet normal -9.833869e-001 1.815221e-001 4.336216e-006
    outer loop
      vertex   -1.475444e+001 1.828369e+002 8.454655e+000
      vertex   -1.458891e+001 1.837336e+002 8.454677e+000
      vertex   -1.475444e+001 1.828371e+002 -1.705345e+000
    endloop
  endfacet
  facet normal 5.841941e-009 2.391973e-005 -1.000000e+000
    outer loop
      vertex   -7.135568e+000 1.782040e+002 -1.705455e+000
      vertex   -1.475444e+001 1.828371e+002 -1.705345e+000
      vertex   -7.133629e+000 1.861415e+002 -1.705266e+000
    endloop
  endfacet
  facet normal 5.841943e-009 2.391973e-005 -1.000000e+000
    outer loop
      vertex   -7.135568e+000 1.782040e+002 -1.705455e+000
      vertex   -1.475476e+001 1.815120e+002 -1.705376e+000
      vertex   -1.475444e+001 1.828371e+002 -1.705345e+000
    endloop
  endfacet
  facet normal 5.841942e-009 2.391973e-005 -1.000000e+000
    outer loop
      vertex   -7.135568e+000 1.782040e+002 -1.705455e+000
      vertex   -1.458968e+001 1.806153e+002 -1.705398e+000
      vertex   -1.475476e+001 1.815120e+002 -1.705376e+000
    endloop
  endfacet
  facet normal 5.841942e-009 2.391973e-005 -1.000000e+000
    outer loop
      vertex   -7.135568e+000 1.782040e+002 -1.705455e+000
      vertex   -1.429370e+001 1.797528e+002 -1.705418e+000
      vertex   -1.458968e+001 1.806153e+002 -1.705398e+000
    endloop
  endfacet
  facet normal 5.841942e-009 2.391973e-005 -1.000000e+000
    outer loop
      vertex   -7.135568e+000 1.782040e+002 -1.705455e+000
      vertex   -1.387336e+001 1.789436e+002 -1.705438e+000
      vertex   -1.429370e+001 1.797528e+002 -1.705418e+000
    endloop
  endfacet
  facet normal 5.841942e-009 2.391973e-005 -1.000000e+000
    outer loop
      vertex   -7.135568e+000 1.782040e+002 -1.705455e+000
      vertex   -1.333791e+001 1.782055e+002 -1.705455e+000
      vertex   -1.387336e+001 1.789436e+002 -1.705438e+000
    endloop
  endfacet
  facet normal 5.841944e-009 2.391973e-005 -1.000000e+000
    outer loop
      vertex   -1.475444e+001 1.828371e+002 -1.705345e+000
      vertex   -1.458891e+001 1.837338e+002 -1.705323e+000
      vertex   -7.133629e+000 1.861415e+002 -1.705266e+000
    endloop
  endfacet
  facet normal 5.841942e-009 2.391973e-005 -1.000000e+000
    outer loop
      vertex   -7.133629e+000 1.861415e+002 -1.705266e+000
      vertex   -1.458891e+001 1.837338e+002 -1.705323e+000
      vertex   -1.429252e+001 1.845962e+002 -1.705303e+000
    endloop
  endfacet
  facet normal 5.841942e-009 2.391973e-005 -1.000000e+000
    outer loop
      vertex   -1.387178e+001 1.854052e+002 -1.705283e+000
      vertex   -7.133629e+000 1.861415e+002 -1.705266e+000
      vertex   -1.429252e+001 1.845962e+002 -1.705303e+000
    endloop
  endfacet
  facet normal 5.841942e-009 2.391973e-005 -1.000000e+000
    outer loop
      vertex   -1.387178e+001 1.854052e+002 -1.705283e+000
      vertex   -1.333597e+001 1.861430e+002 -1.705266e+000
      vertex   -7.133629e+000 1.861415e+002 -1.705266e+000
    endloop
  endfacet
  facet normal 5.841942e-009 2.391973e-005 -1.000000e+000
    outer loop
      vertex   -4.633229e+000 1.861411e+002 -1.011372e+001
      vertex   -4.635168e+000 1.782036e+002 -1.011391e+001
      vertex   -7.133629e+000 1.861417e+002 -1.011372e+001
    endloop
  endfacet
  facet normal 5.841942e-009 2.391973e-005 -1.000000e+000
    outer loop
      vertex   -7.133629e+000 1.861417e+002 -1.011372e+001
      vertex   -4.635168e+000 1.782036e+002 -1.011391e+001
      vertex   -7.135568e+000 1.782042e+002 -1.011391e+001
    endloop
  endfacet
  facet normal 1.000000e+000 -2.442310e-004 1.196526e-015
    outer loop
      vertex   -4.633229e+000 1.861411e+002 -1.011372e+001
      vertex   -4.634199e+000 1.821714e+002 -7.316358e+000
      vertex   -4.635168e+000 1.782036e+002 -1.011391e+001
    endloop
  endfacet
  facet normal 1.000000e+000 -2.442310e-004 2.656514e-015
    outer loop
      vertex   -4.633229e+000 1.861411e+002 -1.011372e+001
      vertex   -4.634112e+000 1.825259e+002 -7.269677e+000
      vertex   -4.634199e+000 1.821714e+002 -7.316358e+000
    endloop
  endfacet
  facet normal 1.000000e+000 -2.442310e-004 1.215401e-015
    outer loop
      vertex   -4.633229e+000 1.861411e+002 -1.011372e+001
      vertex   -4.634032e+000 1.828563e+002 -7.132832e+000
      vertex   -4.634112e+000 1.825259e+002 -7.269677e+000
    endloop
  endfacet
  facet normal 1.000000e+000 -2.442310e-004 4.176615e-016
    outer loop
      vertex   -4.633229e+000 1.861411e+002 -1.011372e+001
      vertex   -4.633962e+000 1.831400e+002 -6.915149e+000
      vertex   -4.634032e+000 1.828563e+002 -7.132832e+000
    endloop
  endfacet
  facet normal 1.000000e+000 -2.442310e-004 1.563826e-015
    outer loop
      vertex   -4.633229e+000 1.861411e+002 -1.011372e+001
      vertex   -4.633909e+000 1.833576e+002 -6.631462e+000
      vertex   -4.633962e+000 1.831400e+002 -6.915149e+000
    endloop
  endfacet
  facet normal 1.000000e+000 -2.442310e-004 1.354960e-016
    outer loop
      vertex   -4.633229e+000 1.861411e+002 -1.011372e+001
      vertex   -4.633876e+000 1.834945e+002 -6.301105e+000
      vertex   -4.633909e+000 1.833576e+002 -6.631462e+000
    endloop
  endfacet
  facet normal 1.000000e+000 -2.442310e-004 1.046634e-015
    outer loop
      vertex   -4.633229e+000 1.861411e+002 -1.011372e+001
      vertex   -4.633864e+000 1.835411e+002 -5.946590e+000
      vertex   -4.633876e+000 1.834945e+002 -6.301105e+000
    endloop
  endfacet
  facet normal 1.000000e+000 -2.442310e-004 4.161159e-015
    outer loop
      vertex   -4.633229e+000 1.861411e+002 -1.011372e+001
      vertex   -4.633876e+000 1.834944e+002 -5.592078e+000
      vertex   -4.633864e+000 1.835411e+002 -5.946590e+000
    endloop
  endfacet
  facet normal 1.000000e+000 -2.442310e-004 1.190342e-015
    outer loop
      vertex   -4.633229e+000 1.861411e+002 -1.011372e+001
      vertex   -4.633230e+000 1.861408e+002 7.199095e-001
      vertex   -4.633876e+000 1.834944e+002 -5.592078e+000
    endloop
  endfacet
  facet normal 1.000000e+000 -2.442310e-004 -6.562634e-017
    outer loop
      vertex   -4.633876e+000 1.834944e+002 -5.592078e+000
      vertex   -4.633230e+000 1.861408e+002 7.199095e-001
      vertex   -4.633909e+000 1.833576e+002 -5.261727e+000
    endloop
  endfacet
  facet normal 1.000000e+000 -2.442310e-004 2.298167e-015
    outer loop
      vertex   -4.633909e+000 1.833576e+002 -5.261727e+000
      vertex   -4.633230e+000 1.861408e+002 7.199095e-001
      vertex   -4.633962e+000 1.831399e+002 -4.978051e+000
    endloop
  endfacet
  facet normal 1.000000e+000 -2.442310e-004 1.113419e-015
    outer loop
      vertex   -4.633962e+000 1.831399e+002 -4.978051e+000
      vertex   -4.633230e+000 1.861408e+002 7.199095e-001
      vertex   -4.634032e+000 1.828562e+002 -4.760381e+000
    endloop
  endfacet
  facet normal 1.000000e+000 -2.442310e-004 3.204802e-016
    outer loop
      vertex   -4.634032e+000 1.828562e+002 -4.760381e+000
      vertex   -4.633230e+000 1.861408e+002 7.199095e-001
      vertex   -4.634112e+000 1.825259e+002 -4.623552e+000
    endloop
  endfacet
  facet normal 1.000000e+000 -2.442310e-004 2.584818e-015
    outer loop
      vertex   -4.634112e+000 1.825259e+002 -4.623552e+000
      vertex   -4.633230e+000 1.861408e+002 7.199095e-001
      vertex   -4.634199e+000 1.821714e+002 -4.576888e+000
    endloop
  endfacet
  facet normal 1.000000e+000 -2.442310e-004 1.068457e-015
    outer loop
      vertex   -4.634199e+000 1.821714e+002 -4.576888e+000
      vertex   -4.633230e+000 1.861408e+002 7.199095e-001
      vertex   -4.635168e+000 1.782033e+002 7.197196e-001
    endloop
  endfacet
  facet normal 1.000000e+000 -2.442310e-004 1.109894e-015
    outer loop
      vertex   -4.634286e+000 1.818168e+002 -4.623569e+000
      vertex   -4.635168e+000 1.782033e+002 7.197196e-001
      vertex   -4.634366e+000 1.814865e+002 -4.760414e+000
    endloop
  endfacet
  facet normal 1.000000e+000 -2.442310e-004 1.913196e-015
    outer loop
      vertex   -4.634286e+000 1.818168e+002 -4.623569e+000
      vertex   -4.634199e+000 1.821714e+002 -4.576888e+000
      vertex   -4.635168e+000 1.782033e+002 7.197196e-001
    endloop
  endfacet
  facet normal 1.000000e+000 -2.442310e-004 1.108371e-015
    outer loop
      vertex   -4.635168e+000 1.782033e+002 7.197196e-001
      vertex   -4.633230e+000 1.861408e+002 7.199095e-001
      vertex   -4.635168e+000 1.782031e+002 1.155334e+001
    endloop
  endfacet
  facet normal 1.000000e+000 -2.442310e-004 1.108363e-015
    outer loop
      vertex   -4.635168e+000 1.782031e+002 1.155334e+001
      vertex   -4.633230e+000 1.861408e+002 7.199095e-001
      vertex   -4.633230e+000 1.861406e+002 1.155353e+001
    endloop
  endfacet
  facet normal 1.000000e+000 -2.442310e-004 1.190346e-015
    outer loop
      vertex   -4.635168e+000 1.782028e+002 2.238697e+001
      vertex   -4.633230e+000 1.861406e+002 1.155353e+001
      vertex   -4.633230e+000 1.861403e+002 2.238716e+001
    endloop
  endfacet
  facet normal 1.000000e+000 -2.442310e-004 1.931502e-015
    outer loop
      vertex   -4.634199e+000 1.821714e+002 2.768377e+001
      vertex   -4.633230e+000 1.861403e+002 2.238716e+001
      vertex   -4.634112e+000 1.825259e+002 2.773045e+001
    endloop
  endfacet
  facet normal 1.000000e+000 -2.442310e-004 1.088489e-015
    outer loop
      vertex   -4.634199e+000 1.821714e+002 2.768377e+001
      vertex   -4.635168e+000 1.782028e+002 2.238697e+001
      vertex   -4.633230e+000 1.861403e+002 2.238716e+001
    endloop
  endfacet
  facet normal 1.000000e+000 -2.442310e-004 2.602682e-015
    outer loop
      vertex   -4.634199e+000 1.821714e+002 2.768377e+001
      vertex   -4.634286e+000 1.818169e+002 2.773043e+001
      vertex   -4.635168e+000 1.782028e+002 2.238697e+001
    endloop
  endfacet
  facet normal 1.000000e+000 -2.442310e-004 3.472683e-016
    outer loop
      vertex   -4.635168e+000 1.782028e+002 2.238697e+001
      vertex   -4.634286e+000 1.818169e+002 2.773043e+001
      vertex   -4.634366e+000 1.814865e+002 2.786726e+001
    endloop
  endfacet
  facet normal 1.000000e+000 -2.442310e-004 1.117520e-015
    outer loop
      vertex   -4.634436e+000 1.812029e+002 2.808493e+001
      vertex   -4.635168e+000 1.782028e+002 2.238697e+001
      vertex   -4.634366e+000 1.814865e+002 2.786726e+001
    endloop
  endfacet
  facet normal 1.000000e+000 -2.442310e-004 2.308935e-015
    outer loop
      vertex   -4.634436e+000 1.812029e+002 2.808493e+001
      vertex   -4.634489e+000 1.809852e+002 2.836861e+001
      vertex   -4.635168e+000 1.782028e+002 2.238697e+001
    endloop
  endfacet
  facet normal 1.000000e+000 -2.442310e-004 -5.709671e-017
    outer loop
      vertex   -4.635168e+000 1.782028e+002 2.238697e+001
      vertex   -4.634489e+000 1.809852e+002 2.836861e+001
      vertex   -4.634522e+000 1.808483e+002 2.869896e+001
    endloop
  endfacet
  facet normal 1.000000e+000 -2.442310e-004 9.358266e-016
    outer loop
      vertex   -4.635168e+000 1.782025e+002 3.322059e+001
      vertex   -4.634522e+000 1.808483e+002 2.869896e+001
      vertex   -4.634534e+000 1.808016e+002 2.905347e+001
    endloop
  endfacet
  facet normal 1.000000e+000 -2.442310e-004 3.147829e-015
    outer loop
      vertex   -4.634522e+000 1.808483e+002 2.940798e+001
      vertex   -4.635168e+000 1.782025e+002 3.322059e+001
      vertex   -4.634534e+000 1.808016e+002 2.905347e+001
    endloop
  endfacet
  facet normal 1.000000e+000 -2.442310e-004 1.245113e-016
    outer loop
      vertex   -4.634522e+000 1.808483e+002 2.940798e+001
      vertex   -4.634489e+000 1.809851e+002 2.973834e+001
      vertex   -4.635168e+000 1.782025e+002 3.322059e+001
    endloop
  endfacet
  facet normal 1.000000e+000 -2.442310e-004 1.547877e-015
    outer loop
      vertex   -4.635168e+000 1.782025e+002 3.322059e+001
      vertex   -4.634489e+000 1.809851e+002 2.973834e+001
      vertex   -4.634436e+000 1.812028e+002 3.002203e+001
    endloop
  endfacet
  facet normal 1.000000e+000 -2.442310e-004 3.971438e-016
    outer loop
      vertex   -4.634366e+000 1.814865e+002 3.023971e+001
      vertex   -4.635168e+000 1.782025e+002 3.322059e+001
      vertex   -4.634436e+000 1.812028e+002 3.002203e+001
    endloop
  endfacet
  facet normal 1.000000e+000 -2.442310e-004 1.189377e-015
    outer loop
      vertex   -4.634366e+000 1.814865e+002 3.023971e+001
      vertex   -4.634286e+000 1.818168e+002 3.037656e+001
      vertex   -4.635168e+000 1.782025e+002 3.322059e+001
    endloop
  endfacet
  facet normal 1.000000e+000 -2.442310e-004 2.622148e-015
    outer loop
      vertex   -4.635168e+000 1.782025e+002 3.322059e+001
      vertex   -4.634286e+000 1.818168e+002 3.037656e+001
      vertex   -4.634199e+000 1.821714e+002 3.042324e+001
    endloop
  endfacet
  facet normal 1.000000e+000 -2.442310e-004 3.533015e-015
    outer loop
      vertex   -4.633230e+000 1.861400e+002 3.322078e+001
      vertex   -4.634199e+000 1.821714e+002 3.042324e+001
      vertex   -4.634112e+000 1.825259e+002 3.037657e+001
    endloop
  endfacet
  facet normal 1.000000e+000 -2.442310e-004 -2.398032e-016
    outer loop
      vertex   -4.634032e+000 1.828562e+002 3.023974e+001
      vertex   -4.633230e+000 1.861400e+002 3.322078e+001
      vertex   -4.634112e+000 1.825259e+002 3.037657e+001
    endloop
  endfacet
  facet normal 1.000000e+000 -2.442310e-004 1.004393e-015
    outer loop
      vertex   -4.634032e+000 1.828562e+002 3.023974e+001
      vertex   -4.633962e+000 1.831399e+002 3.002207e+001
      vertex   -4.633230e+000 1.861400e+002 3.322078e+001
    endloop
  endfacet
  facet normal 1.000000e+000 -2.442310e-004 2.640211e-015
    outer loop
      vertex   -4.633230e+000 1.861400e+002 3.322078e+001
      vertex   -4.633962e+000 1.831399e+002 3.002207e+001
      vertex   -4.633909e+000 1.833576e+002 2.973840e+001
    endloop
  endfacet
  facet normal 1.000000e+000 -2.442310e-004 -4.059556e-016
    outer loop
      vertex   -4.633876e+000 1.834944e+002 2.940805e+001
      vertex   -4.633230e+000 1.861400e+002 3.322078e+001
      vertex   -4.633909e+000 1.833576e+002 2.973840e+001
    endloop
  endfacet
  facet normal 1.000000e+000 -2.442310e-004 1.022279e-015
    outer loop
      vertex   -4.633876e+000 1.834944e+002 2.940805e+001
      vertex   -4.633864e+000 1.835411e+002 2.905353e+001
      vertex   -4.633230e+000 1.861400e+002 3.322078e+001
    endloop
  endfacet
  facet normal 1.000000e+000 -2.442310e-004 4.198576e-015
    outer loop
      vertex   -4.633230e+000 1.861400e+002 3.322078e+001
      vertex   -4.633864e+000 1.835411e+002 2.905353e+001
      vertex   -4.633876e+000 1.834945e+002 2.869902e+001
    endloop
  endfacet
  facet normal 1.000000e+000 -2.442310e-004 2.995998e-016
    outer loop
      vertex   -4.633230e+000 1.861403e+002 2.238716e+001
      vertex   -4.633876e+000 1.834945e+002 2.869902e+001
      vertex   -4.633909e+000 1.833576e+002 2.836866e+001
    endloop
  endfacet
  facet normal 1.000000e+000 -2.442310e-004 1.409039e-015
    outer loop
      vertex   -4.633962e+000 1.831400e+002 2.808498e+001
      vertex   -4.633230e+000 1.861403e+002 2.238716e+001
      vertex   -4.633909e+000 1.833576e+002 2.836866e+001
    endloop
  endfacet
  facet normal 1.000000e+000 -2.442310e-004 5.899682e-016
    outer loop
      vertex   -4.633962e+000 1.831400e+002 2.808498e+001
      vertex   -4.634032e+000 1.828563e+002 2.786729e+001
      vertex   -4.633230e+000 1.861403e+002 2.238716e+001
    endloop
  endfacet
  facet normal 1.000000e+000 -2.442310e-004 1.125383e-015
    outer loop
      vertex   -4.633230e+000 1.861403e+002 2.238716e+001
      vertex   -4.634032e+000 1.828563e+002 2.786729e+001
      vertex   -4.634112e+000 1.825259e+002 2.773045e+001
    endloop
  endfacet
  facet normal 1.000000e+000 -2.442310e-004 1.190354e-015
    outer loop
      vertex   -4.635168e+000 1.782031e+002 1.155334e+001
      vertex   -4.633230e+000 1.861406e+002 1.155353e+001
      vertex   -4.635168e+000 1.782028e+002 2.238697e+001
    endloop
  endfacet
  facet normal 1.000000e+000 -2.442310e-004 1.108366e-015
    outer loop
      vertex   -4.633230e+000 1.861403e+002 2.238716e+001
      vertex   -4.633230e+000 1.861400e+002 3.322078e+001
      vertex   -4.633876e+000 1.834945e+002 2.869902e+001
    endloop
  endfacet
  facet normal 1.000000e+000 -2.442310e-004 9.973687e-016
    outer loop
      vertex   -4.633230e+000 1.861400e+002 3.322078e+001
      vertex   -4.635168e+000 1.782025e+002 3.322059e+001
      vertex   -4.634199e+000 1.821714e+002 3.042324e+001
    endloop
  endfacet
  facet normal 1.000000e+000 -2.442310e-004 1.189703e-015
    outer loop
      vertex   -4.635168e+000 1.782025e+002 3.322059e+001
      vertex   -4.635168e+000 1.782028e+002 2.238697e+001
      vertex   -4.634522e+000 1.808483e+002 2.869896e+001
    endloop
  endfacet
  facet normal 1.000000e+000 -2.442310e-004 1.190996e-015
    outer loop
      vertex   -4.635168e+000 1.782036e+002 -1.011391e+001
      vertex   -4.634522e+000 1.808483e+002 -5.592141e+000
      vertex   -4.635168e+000 1.782033e+002 7.197196e-001
    endloop
  endfacet
  facet normal 1.000000e+000 -2.442310e-004 4.159807e-015
    outer loop
      vertex   -4.635168e+000 1.782036e+002 -1.011391e+001
      vertex   -4.634534e+000 1.808017e+002 -5.946656e+000
      vertex   -4.634522e+000 1.808483e+002 -5.592141e+000
    endloop
  endfacet
  facet normal 1.000000e+000 -2.442310e-004 1.047721e-015
    outer loop
      vertex   -4.635168e+000 1.782036e+002 -1.011391e+001
      vertex   -4.634522e+000 1.808483e+002 -6.301168e+000
      vertex   -4.634534e+000 1.808017e+002 -5.946656e+000
    endloop
  endfacet
  facet normal 1.000000e+000 -2.442310e-004 -3.076826e-016
    outer loop
      vertex   -4.635168e+000 1.782036e+002 -1.011391e+001
      vertex   -4.634489e+000 1.809852e+002 -6.631519e+000
      vertex   -4.634522e+000 1.808483e+002 -6.301168e+000
    endloop
  endfacet
  facet normal 1.000000e+000 -2.442310e-004 2.780889e-015
    outer loop
      vertex   -4.635168e+000 1.782036e+002 -1.011391e+001
      vertex   -4.634436e+000 1.812029e+002 -6.915195e+000
      vertex   -4.634489e+000 1.809852e+002 -6.631519e+000
    endloop
  endfacet
  facet normal 1.000000e+000 -2.442310e-004 1.199785e-015
    outer loop
      vertex   -4.635168e+000 1.782036e+002 -1.011391e+001
      vertex   -4.634366e+000 1.814866e+002 -7.132865e+000
      vertex   -4.634436e+000 1.812029e+002 -6.915195e+000
    endloop
  endfacet
  facet normal 1.000000e+000 -2.442310e-004 -2.634867e-017
    outer loop
      vertex   -4.635168e+000 1.782036e+002 -1.011391e+001
      vertex   -4.634286e+000 1.818169e+002 -7.269694e+000
      vertex   -4.634366e+000 1.814866e+002 -7.132865e+000
    endloop
  endfacet
  facet normal 1.000000e+000 -2.442310e-004 3.834183e-015
    outer loop
      vertex   -4.635168e+000 1.782036e+002 -1.011391e+001
      vertex   -4.634199e+000 1.821714e+002 -7.316358e+000
      vertex   -4.634286e+000 1.818169e+002 -7.269694e+000
    endloop
  endfacet
  facet normal 1.000000e+000 -2.442310e-004 2.913552e-016
    outer loop
      vertex   -4.634522e+000 1.808483e+002 -5.592141e+000
      vertex   -4.634489e+000 1.809852e+002 -5.261784e+000
      vertex   -4.635168e+000 1.782033e+002 7.197196e-001
    endloop
  endfacet
  facet normal 1.000000e+000 -2.442310e-004 1.397959e-015
    outer loop
      vertex   -4.635168e+000 1.782033e+002 7.197196e-001
      vertex   -4.634489e+000 1.809852e+002 -5.261784e+000
      vertex   -4.634436e+000 1.812028e+002 -4.978097e+000
    endloop
  endfacet
  facet normal 1.000000e+000 -2.442310e-004 5.767686e-016
    outer loop
      vertex   -4.634366e+000 1.814865e+002 -4.760414e+000
      vertex   -4.635168e+000 1.782033e+002 7.197196e-001
      vertex   -4.634436e+000 1.812028e+002 -4.978097e+000
    endloop
  endfacet
  facet normal -5.841943e-009 -2.391973e-005 1.000000e+000
    outer loop
      vertex   -4.635168e+000 1.782025e+002 3.322059e+001
      vertex   -4.633230e+000 1.861400e+002 3.322078e+001
      vertex   -7.135568e+000 1.782031e+002 3.322059e+001
    endloop
  endfacet
  facet normal -5.841940e-009 -2.391973e-005 1.000000e+000
    outer loop
      vertex   -7.135568e+000 1.782031e+002 3.322059e+001
      vertex   -4.633230e+000 1.861400e+002 3.322078e+001
      vertex   -7.133630e+000 1.861406e+002 3.322078e+001
    endloop
  endfacet
  facet normal -5.841941e-009 -2.391973e-005 1.000000e+000
    outer loop
      vertex   -7.133630e+000 1.861408e+002 2.481233e+001
      vertex   -1.475476e+001 1.815114e+002 2.481222e+001
      vertex   -7.135568e+000 1.782033e+002 2.481214e+001
    endloop
  endfacet
  facet normal -5.841938e-009 -2.391973e-005 1.000000e+000
    outer loop
      vertex   -7.133630e+000 1.861408e+002 2.481233e+001
      vertex   -1.475444e+001 1.828365e+002 2.481226e+001
      vertex   -1.475476e+001 1.815114e+002 2.481222e+001
    endloop
  endfacet
  facet normal -5.841941e-009 -2.391973e-005 1.000000e+000
    outer loop
      vertex   -7.133630e+000 1.861408e+002 2.481233e+001
      vertex   -1.458891e+001 1.837332e+002 2.481228e+001
      vertex   -1.475444e+001 1.828365e+002 2.481226e+001
    endloop
  endfacet
  facet normal -5.841939e-009 -2.391973e-005 1.000000e+000
    outer loop
      vertex   -7.133630e+000 1.861408e+002 2.481233e+001
      vertex   -1.429252e+001 1.845956e+002 2.481230e+001
      vertex   -1.458891e+001 1.837332e+002 2.481228e+001
    endloop
  endfacet
  facet normal -5.841940e-009 -2.391973e-005 1.000000e+000
    outer loop
      vertex   -7.133630e+000 1.861408e+002 2.481233e+001
      vertex   -1.387178e+001 1.854045e+002 2.481232e+001
      vertex   -1.429252e+001 1.845956e+002 2.481230e+001
    endloop
  endfacet
  facet normal -5.841940e-009 -2.391973e-005 1.000000e+000
    outer loop
      vertex   -7.133630e+000 1.861408e+002 2.481233e+001
      vertex   -1.333597e+001 1.861424e+002 2.481233e+001
      vertex   -1.387178e+001 1.854045e+002 2.481232e+001
    endloop
  endfacet
  facet normal -5.841938e-009 -2.391973e-005 1.000000e+000
    outer loop
      vertex   -1.475476e+001 1.815114e+002 2.481222e+001
      vertex   -1.458968e+001 1.806146e+002 2.481220e+001
      vertex   -7.135568e+000 1.782033e+002 2.481214e+001
    endloop
  endfacet
  facet normal -5.841941e-009 -2.391973e-005 1.000000e+000
    outer loop
      vertex   -7.135568e+000 1.782033e+002 2.481214e+001
      vertex   -1.458968e+001 1.806146e+002 2.481220e+001
      vertex   -1.429371e+001 1.797521e+002 2.481218e+001
    endloop
  endfacet
  facet normal -5.841940e-009 -2.391973e-005 1.000000e+000
    outer loop
      vertex   -1.387336e+001 1.789429e+002 2.481216e+001
      vertex   -7.135568e+000 1.782033e+002 2.481214e+001
      vertex   -1.429371e+001 1.797521e+002 2.481218e+001
    endloop
  endfacet
  facet normal -5.841941e-009 -2.391973e-005 1.000000e+000
    outer loop
      vertex   -1.387336e+001 1.789429e+002 2.481216e+001
      vertex   -1.333791e+001 1.782049e+002 2.481214e+001
      vertex   -7.135568e+000 1.782033e+002 2.481214e+001
    endloop
  endfacet
  facet normal -6.535162e-001 7.521532e-001 8.474755e-002
    outer loop
      vertex   -7.135443e+000 1.787176e+002 2.826496e+001
      vertex   -7.135464e+000 1.786287e+002 2.905342e+001
      vertex   -4.634534e+000 1.808016e+002 2.905347e+001
    endloop
  endfacet
  facet normal -6.552292e-001 7.489677e-001 9.860062e-002
    outer loop
      vertex   -4.634522e+000 1.808483e+002 2.869896e+001
      vertex   -7.135443e+000 1.787176e+002 2.826496e+001
      vertex   -4.634534e+000 1.808016e+002 2.905347e+001
    endloop
  endfacet
  facet normal -6.526951e-001 7.151169e-001 2.501937e-001
    outer loop
      vertex   -4.634522e+000 1.808483e+002 2.869896e+001
      vertex   -7.135379e+000 1.789796e+002 2.751605e+001
      vertex   -7.135443e+000 1.787176e+002 2.826496e+001
    endloop
  endfacet
  facet normal -6.569433e-001 6.965663e-001 2.884803e-001
    outer loop
      vertex   -4.634522e+000 1.808483e+002 2.869896e+001
      vertex   -4.634489e+000 1.809852e+002 2.836861e+001
      vertex   -7.135379e+000 1.789796e+002 2.751605e+001
    endloop
  endfacet
  facet normal -6.522133e-001 6.418824e-001 4.032428e-001
    outer loop
      vertex   -7.135379e+000 1.789796e+002 2.751605e+001
      vertex   -4.634489e+000 1.809852e+002 2.836861e+001
      vertex   -7.135275e+000 1.794018e+002 2.684422e+001
    endloop
  endfacet
  facet normal -6.578149e-001 5.975861e-001 4.584434e-001
    outer loop
      vertex   -7.135275e+000 1.794018e+002 2.684422e+001
      vertex   -4.634489e+000 1.809852e+002 2.836861e+001
      vertex   -4.634436e+000 1.812029e+002 2.808493e+001
    endloop
  endfacet
  facet normal -6.578489e-001 4.585755e-001 5.974474e-001
    outer loop
      vertex   -7.135138e+000 1.799628e+002 2.628319e+001
      vertex   -4.634436e+000 1.812029e+002 2.808493e+001
      vertex   -4.634366e+000 1.814865e+002 2.786726e+001
    endloop
  endfacet
  facet normal -6.570429e-001 2.886074e-001 6.964197e-001
    outer loop
      vertex   -7.134974e+000 1.806347e+002 2.586106e+001
      vertex   -4.634366e+000 1.814865e+002 2.786726e+001
      vertex   -4.634286e+000 1.818169e+002 2.773043e+001
    endloop
  endfacet
  facet normal -6.553880e-001 9.872486e-002 7.488123e-001
    outer loop
      vertex   -7.134791e+000 1.813836e+002 2.559902e+001
      vertex   -4.634286e+000 1.818169e+002 2.773043e+001
      vertex   -4.634199e+000 1.821714e+002 2.768377e+001
    endloop
  endfacet
  facet normal -6.537205e-001 -8.458789e-002 7.519936e-001
    outer loop
      vertex   -7.134599e+000 1.821721e+002 2.551020e+001
      vertex   -4.634199e+000 1.821714e+002 2.768377e+001
      vertex   -7.134406e+000 1.829605e+002 2.559906e+001
    endloop
  endfacet
  facet normal -6.536791e-001 8.487122e-002 7.519977e-001
    outer loop
      vertex   -7.134599e+000 1.821721e+002 2.551020e+001
      vertex   -7.134791e+000 1.813836e+002 2.559902e+001
      vertex   -4.634199e+000 1.821714e+002 2.768377e+001
    endloop
  endfacet
  facet normal -6.526951e-001 7.151289e-001 -2.501594e-001
    outer loop
      vertex   -7.135379e+000 1.789796e+002 3.059081e+001
      vertex   -4.634522e+000 1.808483e+002 2.940798e+001
      vertex   -7.135443e+000 1.787175e+002 2.984188e+001
    endloop
  endfacet
  facet normal -6.569433e-001 6.965801e-001 -2.884470e-001
    outer loop
      vertex   -7.135379e+000 1.789796e+002 3.059081e+001
      vertex   -4.634489e+000 1.809851e+002 2.973834e+001
      vertex   -4.634522e+000 1.808483e+002 2.940798e+001
    endloop
  endfacet
  facet normal -6.522133e-001 6.419017e-001 -4.032121e-001
    outer loop
      vertex   -7.135379e+000 1.789796e+002 3.059081e+001
      vertex   -7.135275e+000 1.794017e+002 3.126265e+001
      vertex   -4.634489e+000 1.809851e+002 2.973834e+001
    endloop
  endfacet
  facet normal -6.578149e-001 5.976081e-001 -4.584148e-001
    outer loop
      vertex   -4.634489e+000 1.809851e+002 2.973834e+001
      vertex   -7.135275e+000 1.794017e+002 3.126265e+001
      vertex   -4.634436e+000 1.812028e+002 3.002203e+001
    endloop
  endfacet
  facet normal -6.520723e-001 5.361902e-001 -5.360053e-001
    outer loop
      vertex   -4.634436e+000 1.812028e+002 3.002203e+001
      vertex   -7.135275e+000 1.794017e+002 3.126265e+001
      vertex   -7.135138e+000 1.799627e+002 3.182371e+001
    endloop
  endfacet
  facet normal -6.522716e-001 4.034021e-001 -6.417231e-001
    outer loop
      vertex   -4.634366e+000 1.814865e+002 3.023971e+001
      vertex   -7.135138e+000 1.799627e+002 3.182371e+001
      vertex   -7.134974e+000 1.806345e+002 3.224587e+001
    endloop
  endfacet
  facet normal -6.528086e-001 2.503531e-001 -7.149575e-001
    outer loop
      vertex   -4.634286e+000 1.818168e+002 3.037656e+001
      vertex   -7.134974e+000 1.806345e+002 3.224587e+001
      vertex   -7.134791e+000 1.813835e+002 3.250795e+001
    endloop
  endfacet
  facet normal -6.536791e-001 8.490720e-002 -7.519936e-001
    outer loop
      vertex   -4.634199e+000 1.821714e+002 3.042324e+001
      vertex   -7.134791e+000 1.813835e+002 3.250795e+001
      vertex   -7.134599e+000 1.821719e+002 3.259680e+001
    endloop
  endfacet
  facet normal -6.537205e-001 -8.455191e-002 -7.519977e-001
    outer loop
      vertex   -7.134406e+000 1.829604e+002 3.250798e+001
      vertex   -4.634199e+000 1.821714e+002 3.042324e+001
      vertex   -7.134599e+000 1.821719e+002 3.259680e+001
    endloop
  endfacet
  facet normal -6.554362e-001 -9.840472e-002 -7.488123e-001
    outer loop
      vertex   -7.134406e+000 1.829604e+002 3.250798e+001
      vertex   -4.634112e+000 1.825259e+002 3.037657e+001
      vertex   -4.634199e+000 1.821714e+002 3.042324e+001
    endloop
  endfacet
  facet normal -6.529308e-001 -2.500000e-001 -7.149695e-001
    outer loop
      vertex   -7.134406e+000 1.829604e+002 3.250798e+001
      vertex   -7.134223e+000 1.837093e+002 3.224594e+001
      vertex   -4.634112e+000 1.825259e+002 3.037657e+001
    endloop
  endfacet
  facet normal -6.571838e-001 -2.882865e-001 -6.964197e-001
    outer loop
      vertex   -4.634112e+000 1.825259e+002 3.037657e+001
      vertex   -7.134223e+000 1.837093e+002 3.224594e+001
      vertex   -4.634032e+000 1.828562e+002 3.023974e+001
    endloop
  endfacet
  facet normal -6.524685e-001 -4.030527e-001 -6.417424e-001
    outer loop
      vertex   -4.634032e+000 1.828562e+002 3.023974e+001
      vertex   -7.134223e+000 1.837093e+002 3.224594e+001
      vertex   -7.134059e+000 1.843811e+002 3.182382e+001
    endloop
  endfacet
  facet normal -6.523341e-001 -5.358460e-001 -5.360310e-001
    outer loop
      vertex   -4.633962e+000 1.831399e+002 3.002207e+001
      vertex   -7.134059e+000 1.843811e+002 3.182382e+001
      vertex   -7.133922e+000 1.849422e+002 3.126278e+001
    endloop
  endfacet
  facet normal -6.525268e-001 -6.415638e-001 -4.032428e-001
    outer loop
      vertex   -4.633909e+000 1.833576e+002 2.973840e+001
      vertex   -7.133922e+000 1.849422e+002 3.126278e+001
      vertex   -7.133819e+000 1.853644e+002 3.059096e+001
    endloop
  endfacet
  facet normal -6.530443e-001 -7.147980e-001 -2.501937e-001
    outer loop
      vertex   -4.633876e+000 1.834944e+002 2.940805e+001
      vertex   -7.133819e+000 1.853644e+002 3.059096e+001
      vertex   -7.133755e+000 1.856264e+002 2.984204e+001
    endloop
  endfacet
  facet normal -6.538835e-001 -7.518339e-001 -8.474755e-002
    outer loop
      vertex   -4.633864e+000 1.835411e+002 2.905353e+001
      vertex   -7.133755e+000 1.856264e+002 2.984204e+001
      vertex   -7.133734e+000 1.857153e+002 2.905359e+001
    endloop
  endfacet
  facet normal -6.538835e-001 -7.518380e-001 8.471157e-002
    outer loop
      vertex   -7.133755e+000 1.856265e+002 2.826513e+001
      vertex   -4.633864e+000 1.835411e+002 2.905353e+001
      vertex   -7.133734e+000 1.857153e+002 2.905359e+001
    endloop
  endfacet
  facet normal -6.555950e-001 -7.486522e-001 9.856479e-002
    outer loop
      vertex   -7.133755e+000 1.856265e+002 2.826513e+001
      vertex   -4.633876e+000 1.834945e+002 2.869902e+001
      vertex   -4.633864e+000 1.835411e+002 2.905353e+001
    endloop
  endfacet
  facet normal -6.530443e-001 -7.148100e-001 2.501594e-001
    outer loop
      vertex   -7.133755e+000 1.856265e+002 2.826513e+001
      vertex   -7.133819e+000 1.853644e+002 2.751620e+001
      vertex   -4.633876e+000 1.834945e+002 2.869902e+001
    endloop
  endfacet
  facet normal -6.572835e-001 -6.962592e-001 2.884470e-001
    outer loop
      vertex   -4.633876e+000 1.834945e+002 2.869902e+001
      vertex   -7.133819e+000 1.853644e+002 2.751620e+001
      vertex   -4.633909e+000 1.833576e+002 2.836866e+001
    endloop
  endfacet
  facet normal -6.525268e-001 -6.415831e-001 4.032121e-001
    outer loop
      vertex   -4.633909e+000 1.833576e+002 2.836866e+001
      vertex   -7.133819e+000 1.853644e+002 2.751620e+001
      vertex   -7.133922e+000 1.849423e+002 2.684436e+001
    endloop
  endfacet
  facet normal -6.523341e-001 -5.358717e-001 5.360053e-001
    outer loop
      vertex   -4.633962e+000 1.831400e+002 2.808498e+001
      vertex   -7.133922e+000 1.849423e+002 2.684436e+001
      vertex   -7.134059e+000 1.843813e+002 2.628329e+001
    endloop
  endfacet
  facet normal -6.524685e-001 -4.030834e-001 6.417231e-001
    outer loop
      vertex   -4.634032e+000 1.828563e+002 2.786729e+001
      vertex   -7.134059e+000 1.843813e+002 2.628329e+001
      vertex   -7.134223e+000 1.837095e+002 2.586114e+001
    endloop
  endfacet
  facet normal -6.529308e-001 -2.500342e-001 7.149575e-001
    outer loop
      vertex   -4.634112e+000 1.825259e+002 2.773045e+001
      vertex   -7.134223e+000 1.837095e+002 2.586114e+001
      vertex   -7.134406e+000 1.829605e+002 2.559906e+001
    endloop
  endfacet
  facet normal -6.554362e-001 -9.844054e-002 7.488076e-001
    outer loop
      vertex   -4.634199e+000 1.821714e+002 2.768377e+001
      vertex   -4.634112e+000 1.825259e+002 2.773045e+001
      vertex   -7.134406e+000 1.829605e+002 2.559906e+001
    endloop
  endfacet
  facet normal -6.578489e-001 4.586041e-001 -5.974254e-001
    outer loop
      vertex   -4.634436e+000 1.812028e+002 3.002203e+001
      vertex   -7.135138e+000 1.799627e+002 3.182371e+001
      vertex   -4.634366e+000 1.814865e+002 3.023971e+001
    endloop
  endfacet
  facet normal -6.570429e-001 2.886407e-001 -6.964059e-001
    outer loop
      vertex   -4.634366e+000 1.814865e+002 3.023971e+001
      vertex   -7.134974e+000 1.806345e+002 3.224587e+001
      vertex   -4.634286e+000 1.818168e+002 3.037656e+001
    endloop
  endfacet
  facet normal -6.553880e-001 9.876069e-002 -7.488076e-001
    outer loop
      vertex   -4.634286e+000 1.818168e+002 3.037656e+001
      vertex   -7.134791e+000 1.813835e+002 3.250795e+001
      vertex   -4.634199e+000 1.821714e+002 3.042324e+001
    endloop
  endfacet
  facet normal -6.580728e-001 -4.582541e-001 -5.974474e-001
    outer loop
      vertex   -4.634032e+000 1.828562e+002 3.023974e+001
      vertex   -7.134059e+000 1.843811e+002 3.182382e+001
      vertex   -4.633962e+000 1.831399e+002 3.002207e+001
    endloop
  endfacet
  facet normal -6.581068e-001 -5.972647e-001 -4.584434e-001
    outer loop
      vertex   -4.633962e+000 1.831399e+002 3.002207e+001
      vertex   -7.133922e+000 1.849422e+002 3.126278e+001
      vertex   -4.633909e+000 1.833576e+002 2.973840e+001
    endloop
  endfacet
  facet normal -6.572835e-001 -6.962454e-001 -2.884803e-001
    outer loop
      vertex   -4.633909e+000 1.833576e+002 2.973840e+001
      vertex   -7.133819e+000 1.853644e+002 3.059096e+001
      vertex   -4.633876e+000 1.834944e+002 2.940805e+001
    endloop
  endfacet
  facet normal -6.555950e-001 -7.486475e-001 -9.860062e-002
    outer loop
      vertex   -4.633876e+000 1.834944e+002 2.940805e+001
      vertex   -7.133755e+000 1.856264e+002 2.984204e+001
      vertex   -4.633864e+000 1.835411e+002 2.905353e+001
    endloop
  endfacet
  facet normal -6.581068e-001 -5.972867e-001 4.584148e-001
    outer loop
      vertex   -4.633909e+000 1.833576e+002 2.836866e+001
      vertex   -7.133922e+000 1.849423e+002 2.684436e+001
      vertex   -4.633962e+000 1.831400e+002 2.808498e+001
    endloop
  endfacet
  facet normal -6.580728e-001 -4.582827e-001 5.974254e-001
    outer loop
      vertex   -4.633962e+000 1.831400e+002 2.808498e+001
      vertex   -7.134059e+000 1.843813e+002 2.628329e+001
      vertex   -4.634032e+000 1.828563e+002 2.786729e+001
    endloop
  endfacet
  facet normal -6.571838e-001 -2.883198e-001 6.964059e-001
    outer loop
      vertex   -4.634032e+000 1.828563e+002 2.786729e+001
      vertex   -7.134223e+000 1.837095e+002 2.586114e+001
      vertex   -4.634112e+000 1.825259e+002 2.773045e+001
    endloop
  endfacet
  facet normal -6.528086e-001 2.503189e-001 7.149695e-001
    outer loop
      vertex   -7.134791e+000 1.813836e+002 2.559902e+001
      vertex   -7.134974e+000 1.806347e+002 2.586106e+001
      vertex   -4.634286e+000 1.818169e+002 2.773043e+001
    endloop
  endfacet
  facet normal -6.522716e-001 4.033714e-001 6.417424e-001
    outer loop
      vertex   -7.134974e+000 1.806347e+002 2.586106e+001
      vertex   -7.135138e+000 1.799628e+002 2.628319e+001
      vertex   -4.634366e+000 1.814865e+002 2.786726e+001
    endloop
  endfacet
  facet normal -6.520723e-001 5.361646e-001 5.360310e-001
    outer loop
      vertex   -7.135138e+000 1.799628e+002 2.628319e+001
      vertex   -7.135275e+000 1.794018e+002 2.684422e+001
      vertex   -4.634436e+000 1.812029e+002 2.808493e+001
    endloop
  endfacet
  facet normal -6.552292e-001 7.489724e-001 -9.856479e-002
    outer loop
      vertex   -4.634522e+000 1.808483e+002 2.940798e+001
      vertex   -4.634534e+000 1.808016e+002 2.905347e+001
      vertex   -7.135443e+000 1.787175e+002 2.984188e+001
    endloop
  endfacet
  facet normal -6.535162e-001 7.521573e-001 -8.471157e-002
    outer loop
      vertex   -7.135443e+000 1.787175e+002 2.984188e+001
      vertex   -4.634534e+000 1.808016e+002 2.905347e+001
      vertex   -7.135464e+000 1.786287e+002 2.905342e+001
    endloop
  endfacet
endsolid
